<svg xmlns="http://www.w3.org/2000/svg" width="512" height="471" viewBox="0 0 512 471" fill="none"><g clip-path="url(#clip0_921_555)"><path d="M346.016 235.77L345.947 235.874C345.926 235.916 345.898 235.957 345.87 235.999L320.13 273.208L308.18 290.482C307.555 291.39 306.522 291.93 305.418 291.93H213.805C211.1 291.93 209.505 288.887 211.045 286.663L211.982 285.304L248.73 232.18C249.355 231.272 250.388 230.731 251.497 230.731H343.103C345.725 230.731 347.299 233.567 346.016 235.77Z" fill="white"></path><path d="M346.016 235.77L345.947 235.873L320.13 273.208L308.18 290.481C307.555 291.389 306.522 291.93 305.418 291.93H174.847C174.847 288.27 177.815 285.303 181.477 285.303H302.403C303.345 285.303 304.228 284.845 304.769 284.073L342.174 230.729H343.103C345.725 230.729 347.299 233.565 346.016 235.768V235.77Z" fill="#FFC567"></path><path d="M336.547 291.93H36.6602V305.473H336.547V291.93Z" fill="white"></path><path d="M193.684 269.577C202.303 270.781 199.739 273.88 192.236 274.218C199.753 275.577 197.351 278.462 190.583 278.219C198.799 280.114 189.877 281.583 188.937 281.634C187.166 281.729 185.005 282.191 181.449 281.648L177.327 266.88C177.327 266.88 185.675 262.768 192.362 262.269C196.888 261.931 208.351 264.553 208.609 267.086C208.947 270.384 199.188 269.15 193.685 269.575L193.684 269.577Z" fill="white"></path><path d="M208.004 467.752C207.893 469.183 206.696 470.274 205.261 470.286C164.864 470.362 178.798 470.336 175.783 470.342L171.655 470.303C170.813 470.292 170.154 469.605 170.18 468.769L170.626 454.042C170.853 453.413 171.434 452.959 172.111 452.934C173.167 452.889 174.807 453.129 176.196 454.603C178.486 457.058 180.905 454.974 180.905 454.974C180.905 454.974 188.707 447.481 190.982 452.411C192.784 456.28 199.007 459.148 203.507 460.771C206.351 461.797 208.236 464.625 208.001 467.752H208.004Z" fill="white"></path><path d="M125.334 468.442C125.271 468.597 125.193 468.748 125.117 468.891C124.443 470.16 122.909 470.68 121.59 470.117L119.742 469.312L119.022 468.996L94.552 458.382L90.7849 456.696C90.0187 456.349 89.6897 455.456 90.0485 454.701L96.3527 441.384C96.8115 440.898 97.5266 440.713 98.157 440.962C99.1425 441.344 100.549 442.219 101.233 444.126C102.348 447.292 105.399 446.348 105.399 446.348C105.399 446.348 115.549 442.601 115.661 448.028C115.764 452.294 120.32 457.412 123.793 460.698C125.257 462.083 125.992 464.005 125.916 465.933C125.916 465.981 125.914 466.044 125.908 466.089C125.867 466.893 125.68 467.685 125.336 468.444L125.334 468.442Z" fill="white"></path><path d="M154.867 339.818C154.867 358.096 133.941 416.337 127.661 433.401C126.553 436.412 125.904 438.143 125.904 438.143C124.254 444.559 95.8251 436.027 97.484 429.611L104.208 392.201L112.475 346.192L59.4023 325.47L73.8592 282.398L106.745 295.245C106.745 295.245 154.867 314.516 154.867 339.817V339.818Z" fill="white"></path><path d="M193.482 437.857C193.26 440.498 193.112 441.975 193.112 441.975C193.112 447.98 165.053 449.482 165.053 443.477C165.053 443.477 162.853 420.669 160.957 394.318C160.095 382.332 159.299 369.386 158.798 357.063C158.395 347.054 97.9504 368.597 89.3151 350.246C84.4886 339.967 89.1018 308.463 89.1018 308.463C89.1018 308.463 128.802 307.7 142.003 308.463C158.339 309.407 181.874 312.655 188.353 323.46C200.568 343.822 195.06 419.489 193.483 437.857H193.482Z" fill="white"></path><path d="M134.243 308.949C133.201 317.189 124.348 321.553 112.076 323.431C87.3039 327.243 48.5918 320.862 31.9815 315.578C27.2277 282.332 31.5203 240.12 43.4233 224.992C56.4966 208.383 89.0903 204.994 110.123 221.162C122.889 230.999 128.495 257.161 130.999 273.014C133.308 287.768 134.527 307.062 134.241 308.948L134.243 308.949Z" fill="#1DBFCC"></path><path d="M184.856 285.313C184.856 285.313 136.324 297.29 121.635 289.43C108.945 282.638 89.6328 243.826 89.6328 243.826L117.087 229.887L138.119 263.178L180.214 262.242C182.673 261.699 187.315 284.771 184.856 285.314V285.313Z" fill="#1DBFCC"></path><path d="M160.104 361.231C160.104 365.292 156.812 368.573 152.757 368.573H101.95V368.581H20.8336C13.9049 368.581 8.29785 362.97 8.29785 356.054V260.723C8.29785 254.324 13.4866 249.14 19.8898 249.14H90.3579C96.7611 249.14 101.95 254.325 101.95 260.723V353.896H152.757C156.812 353.896 160.104 357.177 160.104 361.23V361.231Z" fill="white"></path><path d="M107.087 189.775C106.057 191.287 103.651 189.556 103.651 189.556C103.651 189.556 102.449 196.733 95.2579 198.955C95.2209 199.065 95.2031 199.165 95.1947 199.265C95.1947 199.274 95.1852 199.274 95.1947 199.283C95.0493 200.002 94.9492 200.749 94.8849 201.523C94.5571 205.029 94.8753 209.037 95.3771 213.172L69.8955 211.204C73.5219 205.407 76.4512 200.009 76.9041 196.031C76.9041 196.031 64.0811 181.104 75.6277 174.337C87.1839 167.552 100.498 173.371 100.498 173.371C100.498 173.371 105.291 172.989 105.036 181.549C105.036 181.549 108.49 187.707 107.087 189.774V189.775Z" fill="white"></path><path d="M95.215 187.842C95.4712 185.539 93.8052 183.459 91.5004 183.204C89.1956 182.948 87.122 184.615 86.8669 186.917C86.6107 189.219 88.2696 191.292 90.5744 191.548" fill="white"></path><path d="M363.877 376.559C363.877 376.559 372.455 376.665 377.812 389.569C383.169 402.474 391.539 412.452 405.881 404.469C405.881 404.469 414.577 398.736 406.683 388.178C399.415 378.46 382.648 368.601 363.877 376.558V376.559Z" fill="white"></path><path d="M363.877 376.559C363.877 376.559 352.419 382.081 355.366 388.016C358.312 393.951 364.065 391.754 366.029 390.539C367.993 389.325 374.482 387.161 377.13 388.032C377.13 388.032 373.183 377.673 363.877 376.559Z" fill="#FFC567"></path><path d="M395.725 311.51C400.113 307.212 407.247 306.93 411.764 311.092C414.113 313.256 415.757 316.678 414.321 322.023C410.969 334.495 409.186 335.278 411.183 343.902C413.181 352.526 416.062 372.149 407.495 374.049C395.282 376.756 387.685 354.664 387.685 354.664C387.685 354.664 383.585 342.263 388.72 324.517C390.605 318.003 393.198 313.986 395.725 311.51Z" fill="#1DBFCC"></path><path d="M436.029 365.492C436.029 365.492 441.551 371.683 444.145 375.278C446.74 378.957 452.849 382.136 458.789 377.453C464.815 372.769 460.044 362.65 460.044 362.65L448.245 356.629L436.027 365.492H436.029Z" fill="#FFC567"></path><path d="M460.046 362.644C460.046 362.644 449.925 357.412 439.802 370.666C429.681 383.92 421.673 381.65 419.182 379.304C416.691 376.958 415.062 366.186 419.182 358.955C423.301 351.726 432.979 350.911 443.279 352.395C453.58 353.879 458.624 359.089 460.045 362.642L460.046 362.644Z" fill="white"></path><path d="M445.222 423.595L435.683 466.493C435.155 468.868 433.047 470.559 430.611 470.559H398.485C396.05 470.559 393.942 468.869 393.413 466.493L383.874 423.595H445.221H445.222Z" fill="white"></path><path d="M447.334 412.4H381.763C380.865 412.4 380.137 413.128 380.137 414.026V423.657C380.137 424.555 380.865 425.283 381.763 425.283H447.334C448.232 425.283 448.96 424.555 448.96 423.657V414.026C448.96 413.128 448.232 412.4 447.334 412.4Z" fill="#FFC567"></path><path d="M462.028 180.745L464.032 196.282C443.263 202.585 409.789 201.009 380.571 197.658V133.677L347.671 161.729L349.767 111.746C349.767 111.746 363.912 86.1264 396.966 76.2998C411.912 71.8551 427.887 71.9742 442.524 77.3383C453.506 81.3638 465.335 88.7406 469.937 102.239C479.452 130.136 462.027 180.747 462.027 180.747L462.028 180.745Z" fill="#1DBFCC"></path><path d="M380.734 32.2295V202.623C380.734 206.464 377.61 209.587 373.766 209.587H138.197C134.353 209.587 131.229 206.464 131.229 202.623V32.2295H380.732H380.734Z" fill="white"></path><path d="M380.735 21.1168V32.2285H131.229V21.1168C131.229 17.2664 134.348 14.1484 138.201 14.1484H373.761C377.614 14.1484 380.734 17.2664 380.734 21.1168H380.735Z" fill="#FFC567"></path><path d="M186.458 23.1877C186.458 25.478 184.601 27.3335 182.31 27.3335C180.018 27.3335 178.161 25.478 178.161 23.1877C178.161 20.8975 180.018 19.042 182.31 19.042C184.601 19.042 186.458 20.8975 186.458 23.1877Z" fill="white"></path><path d="M169.507 23.1877C169.507 25.478 167.65 27.3335 165.358 27.3335C163.067 27.3335 161.21 25.478 161.21 23.1877C161.21 20.8975 163.067 19.042 165.358 19.042C167.65 19.042 169.507 20.8975 169.507 23.1877Z" fill="white"></path><path d="M152.557 23.1877C152.557 25.478 150.7 27.3335 148.408 27.3335C146.116 27.3335 144.26 25.478 144.26 23.1877C144.26 20.8975 146.116 19.042 148.408 19.042C150.7 19.042 152.557 20.8975 152.557 23.1877Z" fill="white"></path><path d="M316.697 110.781L316.664 150.129C316.65 151.058 315.902 151.807 314.99 151.807H304.462C303.517 151.807 302.782 151.058 302.779 150.129L302.774 147.898L302.829 110.781C302.827 109.852 303.575 109.103 304.504 109.103H315.031C315.96 109.103 316.696 109.852 316.697 110.781Z" fill="white"></path><path d="M245.513 106.938L245.465 150.134C245.465 151.064 244.716 151.811 243.795 151.811H233.262C232.341 151.811 231.586 151.064 231.587 150.134L231.636 106.938C231.636 106.017 232.394 105.261 233.315 105.261H243.847C244.769 105.261 245.515 106.017 245.513 106.938Z" fill="white"></path><path d="M269.227 125.324L269.19 150.129C269.193 151.058 268.444 151.807 267.516 151.807H256.988C256.075 151.807 255.308 151.058 255.322 150.129L255.317 149.526L255.342 125.324C255.34 124.397 256.106 123.663 257.018 123.663H267.562C268.475 123.663 269.226 124.397 269.227 125.324Z" fill="white"></path><path d="M269.223 125.333L269.194 150.135C269.194 151.065 268.446 151.812 267.524 151.812H256.992C256.071 151.812 255.315 151.065 255.316 150.135L255.345 125.333C255.345 124.403 256.103 123.656 257.024 123.656H267.557C268.478 123.656 269.224 124.403 269.223 125.333Z" fill="#FFC567"></path><path d="M221.754 125.324L221.733 150.129C221.736 151.058 220.987 151.807 220.059 151.807H209.531C208.602 151.807 207.866 151.058 207.865 150.129L207.872 148.761L207.885 125.324C207.9 124.397 208.649 123.663 209.561 123.663H220.089C221.017 123.663 221.768 124.397 221.754 125.324Z" fill="white"></path><path d="M221.761 125.333L221.732 150.135C221.732 151.065 220.984 151.812 220.063 151.812H209.53C208.609 151.812 207.863 151.065 207.864 150.135L207.893 125.333C207.893 124.403 208.641 123.656 209.562 123.656H220.095C221.016 123.656 221.762 124.403 221.761 125.333Z" fill="white"></path><path d="M353.409 51.1955L344.849 70.1854C344.458 71.0489 343.289 71.1144 342.867 70.2998L339.006 62.9217L303.767 81.1316L295.704 72.9449L260.797 90.0162L250.111 84.6616L207.604 96.4795L251.61 74.118L261.627 79.1343L297.233 61.4306L306.427 70.2902L335.643 55.1197L332.281 48.4908C331.877 47.6929 332.572 46.7484 333.459 46.8783L352.606 49.6794C353.312 49.7771 353.714 50.5262 353.409 51.1943V51.1955Z" fill="#FFC567"></path><path d="M292.992 92.5939L292.927 150.134C292.927 151.064 292.178 151.811 291.257 151.811H280.724C279.803 151.811 279.048 151.064 279.049 150.134L279.114 92.5939C279.114 91.6637 279.872 90.917 280.794 90.917H291.326C292.247 90.917 292.993 91.6637 292.992 92.5939Z" fill="white"></path><path d="M364.211 76.9369L364.121 150.129C364.124 151.058 363.375 151.807 362.447 151.807H351.919C350.991 151.807 350.239 151.058 350.236 150.129V148.875L350.326 76.9369C350.322 75.9924 351.072 75.2588 352 75.2588H362.528C363.457 75.2588 364.207 75.9912 364.211 76.9369Z" fill="white"></path><path d="M340.452 93.9027L340.387 150.135C340.387 151.065 339.639 151.812 338.718 151.812H328.185C327.255 151.812 326.509 151.065 326.51 150.135L326.574 93.9027C326.574 92.9821 327.323 92.2354 328.253 92.2354H338.786C339.707 92.2354 340.453 92.9821 340.452 93.9027Z" fill="#FFC567"></path><path d="M189.31 71.6776C189.31 83.1407 180.006 92.4385 168.536 92.4385C157.065 92.4385 147.752 83.1407 147.752 71.6776C147.752 60.2146 157.056 50.9072 168.536 50.9072C180.016 50.9072 189.31 60.2051 189.31 71.6776Z" fill="white"></path><path d="M189.31 71.6776H168.536V50.9072C180.007 50.9072 189.31 60.2051 189.31 71.6776Z" fill="#1DBFCC"></path><path d="M189.315 125.349C189.315 136.805 180.011 146.114 168.536 146.114C157.061 146.114 147.757 136.805 147.757 125.349C147.757 113.893 157.061 104.571 168.536 104.571C180.011 104.571 189.315 113.881 189.315 125.349Z" fill="#1DBFCC"></path><path d="M189.315 125.349C189.315 136.805 180.011 146.114 168.536 146.114V104.571C180.011 104.571 189.315 113.881 189.315 125.349Z" fill="white"></path><path d="M439.135 214.309C438.976 214.309 438.841 214.189 438.825 214.03C438.808 213.86 438.932 213.706 439.104 213.689C448.018 212.8 456.39 211.388 464.7 209.378C464.868 209.337 465.036 209.44 465.075 209.607C465.115 209.773 465.013 209.941 464.846 209.982C456.509 211.999 448.11 213.415 439.167 214.309C439.156 214.309 439.145 214.309 439.136 214.309H439.135Z" fill="#1DBFCC"></path><path d="M474.825 207.249C474.692 207.249 474.568 207.163 474.527 207.028C474.477 206.864 474.57 206.691 474.735 206.64C481.199 204.68 486.143 202.018 489.432 198.731C490.673 197.491 491.898 196.013 493.072 194.335C493.172 194.196 493.364 194.161 493.505 194.259C493.646 194.358 493.679 194.55 493.582 194.692C492.386 196.399 491.138 197.905 489.871 199.17C486.509 202.53 481.476 205.243 474.915 207.234C474.885 207.243 474.854 207.247 474.824 207.247L474.825 207.249Z" fill="#1DBFCC"></path><path d="M495.821 190.853C495.768 190.853 495.716 190.841 495.668 190.814C495.518 190.729 495.466 190.54 495.55 190.391C503.208 176.85 508.716 154.239 510.662 128.356C510.676 128.186 510.826 128.046 510.996 128.07C511.167 128.082 511.295 128.231 511.282 128.404C509.33 154.374 503.793 177.079 496.092 190.697C496.035 190.798 495.93 190.855 495.822 190.855L495.821 190.853Z" fill="#1DBFCC"></path><path d="M511.568 117.488H511.558C511.387 117.484 511.252 117.339 511.257 117.168C511.644 104.806 511.102 92.6532 509.687 82.0238C509.665 81.8535 509.785 81.6975 509.954 81.6749C510.134 81.651 510.281 81.7725 510.303 81.9416C511.722 92.6043 512.266 104.791 511.878 117.186C511.873 117.354 511.735 117.487 511.567 117.487L511.568 117.488Z" fill="#1DBFCC"></path><path d="M423.925 82.6165C428.792 82.2854 433.014 81.0397 433.014 78.8757L432.208 54.2656H410.01L409.483 78.8757C409.483 81.8198 417.301 83.0655 423.925 82.6165Z" fill="white"></path><path d="M432.573 60.6177C436.806 55.0404 431.406 29.9241 431.406 29.9241L409.346 20.5703L399.419 22.0185L398.903 45.5996C398.903 45.5996 397.576 54.3318 399.417 61.5835C400.799 67.0239 405.836 70.7361 411.45 70.6134L417.163 70.4884" fill="white"></path><path d="M430.416 58.1759C433.53 58.457 436.283 56.0858 436.574 52.8666C436.865 49.6593 434.583 46.832 431.469 46.5509C428.367 46.2699 425.614 48.6423 425.324 51.8495" fill="white"></path><path d="M368.272 163.743C368.272 163.743 356.867 161.649 353.516 160.922C350.311 160.235 342.621 157.941 344.754 155.911C345.681 155.027 347.824 154.974 350.883 155.354C347.698 154.583 339.814 152.378 341.955 150.341C343.22 149.135 345.427 149.163 350.254 150.072C347.077 149.293 339.541 147.123 341.683 145.094C343.324 143.535 348.801 144.415 355.564 145.906C352.387 145.127 344.172 142.797 346.314 140.767C347.947 139.201 353.937 140.224 360.692 141.707C358.626 138.204 356.655 134.093 358.398 133.637C358.489 133.612 358.586 133.601 358.685 133.598C361.616 133.505 369.842 141.259 372.414 143.269C374.771 143.748 370.628 164.224 368.27 163.746L368.272 163.743Z" fill="white"></path><path d="M461.498 180.958C461.498 180.958 452.226 193.086 438.834 188.854C425.443 184.622 366.613 164.491 366.613 164.491L373.137 143.444L431.738 157.056L438.376 114.505" fill="#1DBFCC"></path><path d="M258.094 249.831C263.748 245.721 266.568 239.965 264.392 236.974C262.215 233.984 255.866 234.891 250.212 239.002C244.557 243.112 241.737 248.869 243.914 251.859C246.09 254.85 252.439 253.942 258.094 249.831Z" fill="white"></path><path d="M257.594 241.51C258.775 240.651 259.364 239.448 258.909 238.823C258.455 238.198 257.128 238.388 255.946 239.247C254.765 240.105 254.175 241.308 254.63 241.933C255.085 242.558 256.412 242.369 257.594 241.51Z" fill="white"></path><path d="M255.45 248.789H247.174C246.745 248.789 246.669 248.403 247.013 247.98C248.899 245.665 252.058 243.902 254.477 243.902C256.896 243.902 257.772 245.665 256.659 247.98C256.455 248.403 255.879 248.789 255.451 248.789H255.45Z" fill="white"></path><path d="M315.34 258.583L301.734 278.273H224.697L239.152 257.362C239.152 257.362 242.178 266.507 254.326 264.166C266.484 261.826 269.764 257.454 275.97 262.199C288.556 271.825 314.74 258.875 315.34 258.583Z" fill="#1DBFCC"></path><path d="M343.1 230.285H251.5C250.238 230.285 249.066 230.897 248.364 231.928L211.753 284.865H185.707C185.921 284.252 186.001 283.355 185.983 282.317C187.846 282.237 194.318 281.746 194.469 279.902C194.513 279.404 194.14 278.977 193.278 278.587C195.659 278.338 197.197 277.61 197.312 276.57C197.402 275.718 196.575 274.99 194.878 274.412C197.731 273.978 199.49 273.071 199.543 271.917C199.579 271.118 198.806 270.443 197.286 269.919C201.56 269.931 207.077 270.134 208.598 268.444C208.953 268.054 209.105 267.583 209.051 267.041C208.732 263.889 196.459 261.518 192.327 261.829C188.977 262.078 185.263 263.205 182.34 264.289C181.664 262.665 180.936 261.635 180.206 261.802L138.361 262.727C117.425 228.681 118.322 230.094 118.234 230.029L118.226 230.019C115.951 226.263 113.356 223.093 110.397 220.819C106.087 217.507 101.138 214.913 95.8153 213.119C95.8331 213.253 95.789 213.386 95.6997 213.483C95.4446 213.739 95.1801 213.555 93.9311 213.51C99.68 215.224 105.137 217.888 109.855 221.52C112.983 223.927 115.693 227.373 118.056 231.476H118.101L122.579 238.757V238.767C138.511 264.47 137.663 263.685 138.13 263.623L180.296 262.673C180.563 262.717 180.988 263.365 181.496 264.6C183.789 269.946 186.027 283.992 184.766 284.865C184.758 284.874 184.758 284.883 184.748 284.883C184.668 284.901 183.246 285.256 180.874 285.78C180.107 285.925 160.287 290.565 142.939 291.491C142.61 291.491 131.844 291.491 132.515 291.491C128.169 291.188 124.455 290.443 121.843 289.04C115.978 285.887 108.575 275.647 102.4 265.684V260.72C102.4 254.929 98.2762 250.081 92.8026 248.953C92.7978 248.944 91.1008 245.766 90.0306 243.625C89.9233 243.412 89.6576 243.314 89.4347 243.429C89.2131 243.537 89.1237 243.802 89.2393 244.025C89.399 244.344 90.2797 246.103 91.6835 248.767C90.3452 248.632 93.6141 248.724 34.4472 248.696C36.7043 238.519 39.8767 230.224 43.7689 225.27C49.7228 217.713 59.3996 213.122 70.0727 211.665L69.8689 211.647C69.5341 211.628 69.3493 211.261 69.5221 210.972C69.5579 210.918 69.5841 210.866 69.6199 210.812C58.3604 212.464 48.8254 217.42 43.0765 224.719C39.0151 229.879 35.745 238.343 33.4437 248.697H19.8926C13.2547 248.697 7.85138 254.097 7.85138 260.721V356.054C7.85138 363.212 13.6813 369.028 20.8341 369.028H22.5311C21.4645 369.766 20.6732 370.903 20.4253 372.261L11.8854 417.604C11.877 417.613 11.877 417.622 11.877 417.64C11.8067 417.781 1.97735 470.175 1.95947 470.266C1.91538 470.506 2.07507 470.737 2.3146 470.782C2.48621 470.842 2.78057 470.708 2.83896 470.427L12.685 418.157H46.0356L36.2252 470.268C36.1811 470.507 36.3313 470.738 36.5804 470.783C36.7496 470.842 37.0487 470.707 37.0952 470.428L46.9413 418.158H75.1733L84.0422 470.42C84.0779 470.659 84.3175 470.828 84.5487 470.783C84.7882 470.747 84.9574 470.516 84.9133 470.277L76.0719 418.157H99.0961L97.0523 429.506C96.5577 431.441 98.356 433.218 99.9672 434.39L97.7721 440.42C96.9772 440.342 96.2109 440.77 95.9499 441.201C95.2945 442.587 98.2976 436.242 89.6493 454.514C89.1857 455.495 89.6099 456.657 90.6003 457.098L90.6086 457.106C94.9477 458.999 112.003 466.434 118.067 469.077L118.298 470.418C118.406 471 119.276 470.849 119.17 470.276L119.036 469.495C119.127 469.534 121.571 470.601 121.417 470.533C123.15 471.269 125.032 470.35 125.63 468.863C125.878 468.305 126.155 467.638 126.234 467.025C126.341 466.567 126.364 465.971 126.358 465.95C126.447 463.846 125.62 461.812 124.101 460.373C121.16 457.593 116.21 452.291 116.103 448.02C116.095 447.355 115.944 446.785 115.659 446.315L117.72 440.667C120.645 441.026 125.586 441.153 126.322 438.304C126.526 437.754 141.074 399.043 149.48 369.019H152.758C155.175 369.019 157.344 367.909 158.774 366.177C160.614 402.979 164.568 443.092 164.613 443.483C164.613 445.89 167.963 446.938 171.224 447.399L171.545 452.594C170.68 452.874 170.185 453.729 170.185 454.032C170.14 455.538 170.35 448.579 169.741 468.756C169.704 469.828 170.544 470.727 171.651 470.745C175.321 470.784 205.067 470.815 205.881 470.674C207.422 470.325 208.344 469.129 208.449 467.788C208.505 466.677 208.437 465.818 208.032 464.751C208.032 464.733 208.032 464.725 208.024 464.707L208.015 464.699V464.689C207.129 462.486 205.597 461.052 203.661 460.355C199.858 458.978 193.193 456.101 191.39 452.229C191.114 451.625 190.75 451.163 190.297 450.844L189.968 445.613C192.109 444.734 193.549 443.545 193.557 441.999C193.966 437.816 202.594 346.337 188.741 323.23C181.013 310.347 149.736 308.008 134.686 307.778C134.678 307.29 134.66 306.668 134.632 305.923H325.1V470.559C325.1 470.808 325.296 471.004 325.545 471.004C325.794 471.004 325.989 470.808 325.989 470.559V305.923H336.555C336.795 305.923 337 305.718 337 305.479V291.936C337 291.687 336.796 291.492 336.555 291.492H307.862C308.449 291.005 305.984 294.443 346.401 235.997C347.877 233.463 346.053 230.286 343.105 230.286L343.1 230.285ZM182.659 265.115C185.538 264.058 189.181 262.956 192.398 262.717C196.949 262.373 210.148 265.432 207.94 267.85C206.359 269.584 198.246 268.783 193.651 269.138C193.11 269.179 193.11 269.958 193.625 270.017C197.641 270.576 198.672 271.481 198.654 271.882C198.628 272.441 196.708 273.577 192.22 273.773C191.698 273.792 191.634 274.568 192.158 274.652C195.748 275.309 196.459 276.188 196.423 276.472C196.37 276.987 194.557 277.928 190.593 277.777C190.019 277.799 189.995 278.54 190.478 278.656C193.363 279.314 193.499 279.774 193.588 279.819C193.393 280.379 190.015 281.134 188.914 281.196C187.873 281.241 187.146 281.375 185.955 281.427C185.734 277.111 184.181 269.233 182.659 265.113V265.115ZM249.093 232.434C249.635 231.644 250.533 231.173 251.501 231.173H341.323L304.409 283.817C303.947 284.475 303.201 284.865 302.401 284.865H212.837L249.093 232.434ZM175.746 287.795C174.982 288.843 174.502 290.122 174.422 291.49H153.485C161.758 290.503 169.836 289.012 175.746 287.795ZM12.8507 417.265L21.2929 372.418C21.6659 370.455 23.3903 369.025 25.39 369.025H56.7945C55.7195 369.762 54.9378 370.899 54.6792 372.257L46.2012 417.264H12.8507V417.265ZM47.1069 417.265L55.5491 372.418C55.9221 370.455 57.6466 369.025 59.6546 369.025H63.3156C65.3594 369.025 67.0839 370.481 67.4295 372.498L75.0184 417.265H47.1069ZM75.9158 417.265L68.3006 372.346C68.0694 370.952 67.2781 369.772 66.1853 369.025H97.5719C99.6157 369.025 101.348 370.481 101.686 372.498C101.713 372.661 101.365 370.604 104.405 388.545L99.2427 417.265H75.9158ZM109.275 417.265H100.148L104.85 391.147L109.275 417.265ZM102.565 372.346C102.326 370.952 101.544 369.772 100.442 369.025C101.196 369.025 108.358 369.015 107.915 369.017L104.876 385.96L102.565 372.346ZM99.1974 432.593C98.1224 431.536 97.6958 430.576 97.9175 429.689L99.9875 418.153H109.425C112.685 437.373 112.933 438.823 112.952 438.933C108.759 437.907 102.311 435.62 99.1962 432.593H99.1974ZM95.0835 458.133C95.8105 455.286 94.9083 452.164 92.6929 450.14L96.7186 441.642C97.1107 441.283 97.604 441.244 97.9008 441.349C99.1199 441.745 100.281 442.769 100.816 444.27C101.802 447.094 104.335 447.138 105.552 446.765C105.614 446.739 111.639 444.545 114.162 446.055C119.26 476.15 117.507 465.803 117.885 468.034L95.0823 458.133H95.0835ZM123.484 461.019C124.736 462.2 125.448 463.834 125.465 465.574C123.124 465.373 120.749 466.545 119.538 468.744L118.854 468.451L115.93 451.169C117.344 454.686 120.632 458.319 123.484 461.019ZM125.474 438.035C124.696 441.006 116.936 439.818 113.887 439.155C114.129 440.579 110.357 418.296 105.311 388.545L108.821 369.017H148.56C140.171 398.917 125.687 437.459 125.474 438.037V438.035ZM152.755 368.128C152.633 368.128 148.716 368.128 148.809 368.128C148.901 368.128 54.8019 368.136 20.8293 368.136C14.1652 368.136 8.73564 362.71 8.73564 356.051V260.717C8.73564 254.582 13.7385 249.581 19.8878 249.581C95.7044 249.581 91.3725 249.42 93.3591 249.999C98.0509 251.304 101.508 255.62 101.508 260.717V353.893C101.508 354.141 101.704 354.337 101.953 354.337H151.45C156.73 354.337 158.509 356.535 159.331 359.169C159.339 359.169 159.339 359.177 159.339 359.186C160.711 363.536 157.466 368.129 152.755 368.129V368.128ZM190.574 452.6C192.423 456.551 198.546 459.455 203.353 461.186C204.988 461.772 206.304 463.006 206.996 464.588C204.821 465.285 203.062 467.307 202.829 469.836C162.203 469.932 181.654 469.886 176.162 469.898C175.673 466.85 173.449 464.426 170.786 463.531L171.071 454.126C171.268 453.648 171.724 453.407 172.039 453.389C172.093 453.371 172.424 453.371 172.474 453.371C173.461 453.389 174.749 453.708 175.868 454.908C177.912 457.093 180.249 456.125 181.209 455.29C181.262 455.246 186.06 450.681 188.975 451.223C189.571 451.323 190.169 451.727 190.574 452.6ZM187.97 323.68C201.699 346.574 192.76 440.983 192.672 441.933C192.585 442.023 193.002 443.316 189.908 444.669C182.81 447.767 165.515 447.707 165.488 443.434C165.444 442.999 161.41 402.042 159.597 364.939C161.253 361.92 160.562 357.18 157.982 355.117C156.579 353.996 154.284 353.62 152.496 353.446H102.396V324.833C114.845 324.19 133.044 321.408 134.68 308.999C134.688 308.955 134.688 308.84 134.688 308.662C149.279 308.934 180.423 311.095 187.97 323.679V323.68ZM133.719 309.418C131.78 320.787 113.905 323.363 102.395 323.939V308.709C102.395 309.618 102.395 277.568 102.395 268.71C107.469 277.617 113.76 287.128 119.519 291.488C123.314 294.373 128.172 295.13 133.133 295.414C133.247 296.918 134.03 307.945 133.719 309.418ZM336.103 292.377V305.032H134.589C134.483 302.119 134.243 297.749 133.781 292.475C136.929 292.634 140.491 292.566 143.654 292.377H336.103ZM345.639 235.532C301.098 299.934 308.688 288.959 307.809 290.227C307.267 291.018 306.37 291.488 305.419 291.488H175.306C175.422 289.916 176.114 288.513 177.181 287.493C181.446 286.596 184.317 285.894 184.903 285.753H302.397C303.481 285.753 304.502 285.22 305.125 284.332L342.402 231.172C342.647 231.222 344.589 230.834 345.628 232.629C346.152 233.543 346.152 234.627 345.636 235.532H345.639Z" fill="#002345"></path><path d="M202.04 287.795H192.282C191.678 287.795 191.189 288.283 191.189 288.887C191.189 289.491 191.678 289.979 192.282 289.979H202.04C202.644 289.979 203.133 289.491 203.133 288.887C203.133 288.283 202.644 287.795 202.04 287.795Z" fill="#002345"></path><path d="M186.96 287.795H185.155C184.551 287.795 184.062 288.283 184.062 288.887C184.062 289.491 184.551 289.979 185.155 289.979H186.96C187.564 289.979 188.052 289.491 188.052 288.887C188.052 288.283 187.564 287.795 186.96 287.795Z" fill="#002345"></path><path d="M76.9838 197.95C82.2762 199.146 85.1006 198.604 89.3444 191.699C89.9748 191.954 90.4789 191.976 90.5707 191.992C91.1308 191.992 91.1749 191.165 90.6243 191.103C88.7592 190.928 87.0694 189.158 87.3101 186.965C87.6104 184.166 90.7685 182.74 93.0411 184.203C94.1113 184.813 94.9515 186.239 94.7739 187.79C94.7477 188.039 94.9252 188.252 95.1648 188.288C95.4138 188.306 95.6272 188.137 95.6534 187.888C95.8405 186.227 95.1207 184.673 93.8849 183.713C97.6436 178.154 101.065 177.124 102.523 176.964C103.12 176.902 103.717 176.671 103.935 176.609C104.831 178.896 104.512 181.502 104.646 181.769C105.677 183.598 106.975 186.617 106.975 188.438C106.975 189.117 106.77 189.816 106.104 189.93C105.34 190.064 104.265 189.442 103.908 189.193C103.657 189.013 103.274 189.145 103.215 189.478C103.207 189.504 103.002 190.641 102.308 192.124C101.802 192.266 100.246 192.55 98.6208 191.2C98.4337 191.049 98.1501 191.075 97.9904 191.262C97.839 191.449 97.8664 191.732 98.0523 191.883C99.2667 192.892 100.648 193.252 101.793 193.109C100.656 195.125 98.6387 197.425 95.1731 198.509C93.8753 198.678 92.4357 198.242 90.7828 197.177C90.4384 196.975 90.0403 197.251 90.0987 197.621C90.4896 200.099 92.4536 201.156 94.4176 201.831C94.1244 205.392 94.4795 209.433 94.8704 212.692L94.3818 212.657C94.8621 212.799 95.3412 212.95 95.8131 213.119C94.812 204.786 95.3292 202.095 95.3245 201.556C95.3245 201.539 95.3245 201.521 95.3328 201.503C95.4139 200.376 95.5855 199.665 95.6439 199.291C99.7053 197.95 101.865 195.047 102.984 192.765C102.992 192.756 103.002 192.738 103.019 192.721C103.028 192.677 103.046 192.623 103.073 192.579C103.073 192.579 103.081 192.579 103.081 192.571C103.526 191.62 103.801 190.785 103.943 190.253C105.193 190.937 106.64 191.214 107.453 190.031C108.902 187.891 106.049 182.465 105.48 181.445C105.534 179.428 105.311 177.75 104.823 176.419C104.858 176.409 104.894 176.401 104.93 176.401C111.257 176.054 115.602 172.378 116.002 169.181C116.295 166.802 114.625 164.857 111.4 163.845C110.156 163.444 80.7151 154.192 71.0561 168.818C62.6866 181.483 61.3602 194.249 76.121 197.768C75.0722 201.737 72.1751 206.711 69.6165 210.814C69.999 210.752 70.3804 210.698 70.7629 210.654C73.3847 206.418 75.997 201.791 76.9838 197.955V197.95Z" fill="#002345"></path><path d="M460.46 362.498V362.48C458.879 358.537 453.458 353.413 443.346 351.956C430.479 350.101 422.454 352.321 418.793 358.732C414.572 366.147 416.243 377.142 418.873 379.629C419.104 379.85 419.637 380.286 420.464 380.694C420.019 382.852 419.762 385.188 419.734 387.693C419.637 397.283 419.628 405.72 419.645 411.955H416.375C415.85 399.708 410.874 385.819 406.439 374.666C408.613 374.463 410.272 373.588 411.54 371.567C416.072 364.391 412.393 347.181 411.611 343.806C409.643 335.31 411.395 334.616 414.748 322.137C416.018 317.404 415.113 313.585 412.064 310.771C407.452 306.526 399.989 306.712 395.411 311.197C392.354 314.19 389.955 318.63 388.293 324.393C383.174 342.066 387.218 354.675 387.262 354.809C387.555 355.67 394.247 374.728 405.389 374.728H405.505C409.939 385.855 414.951 399.762 415.493 411.955H408.109C407.976 409.201 407.495 406.671 406.767 404.343C407.788 403.464 409.744 401.44 410.295 398.305C410.855 395.055 409.762 391.566 407.033 387.915C398.804 376.913 381.76 368.53 363.774 376.122C363.747 376.131 363.721 376.14 363.703 376.149C363.693 376.149 363.685 376.158 363.677 376.158C358.842 378.571 352.573 383.344 354.959 388.218C355.998 390.296 357.465 391.619 359.314 392.152C361.534 392.795 364.301 392.122 366.263 390.918C368.049 389.808 374.207 387.738 376.811 388.413C377.014 388.839 377.21 389.274 377.397 389.736C383.391 404.189 392.239 412.49 406.002 404.904C406.65 407.071 407.085 409.416 407.22 411.956H381.761C380.615 411.956 379.691 412.889 379.691 414.025V423.66C379.691 424.797 380.616 425.728 381.761 425.728H383.894L392.975 466.588C393.553 469.19 395.819 471.002 398.485 471.002H430.609C433.275 471.002 435.54 469.19 436.118 466.588L445.2 425.728H447.334C448.472 425.728 449.404 424.796 449.404 423.66V414.025C449.404 412.887 448.47 411.956 447.334 411.956H420.533C420.46 385.937 420.577 384.682 421.298 381.052C422.692 381.542 423.877 381.589 425.164 381.514C428.532 381.239 433.863 379.178 440.146 370.946C441.479 372.536 442.83 374.223 443.781 375.538C445.637 378.165 448.965 380.244 452.508 380.244C454.783 380.244 457.022 379.409 459.066 377.802C465.162 373.069 460.843 363.335 460.47 362.51L460.46 362.501V362.498ZM388.108 354.523C388.064 354.399 384.11 342.037 389.147 324.639C390.473 320.042 392.607 315.189 396.034 311.825C400.319 307.647 407.219 307.505 411.461 311.416C414.251 313.991 415.069 317.516 413.896 321.904C410.532 334.349 408.739 335.315 410.75 343.998C412.874 353.163 414.153 365.764 410.794 371.093C409.651 372.906 408.16 373.671 406.093 373.801C405.566 372.487 403.915 368.417 403.765 368.046C392.284 339.762 403.871 320.455 403.987 320.26C404.12 320.057 404.049 319.78 403.845 319.656C403.632 319.523 403.356 319.585 403.232 319.798C403.109 319.993 391.281 339.665 402.949 368.374C403.752 370.352 404.394 371.929 405.144 373.818C394.738 373.462 388.18 354.724 388.109 354.521L388.108 354.523ZM365.795 390.16C365.467 390.364 362.49 392.131 359.566 391.296C357.957 390.834 356.679 389.671 355.764 387.815C355.247 386.777 355.186 385.719 355.576 384.573C356.909 380.702 363.032 377.478 363.955 377.016C369.635 377.78 373.759 382.338 376.343 387.423C373.127 387.095 367.528 389.075 365.795 390.159V390.16ZM392.036 406.172C386.651 404.298 382.128 398.809 378.218 389.397C377.996 388.873 377.774 388.367 377.542 387.878C377.542 387.869 377.524 387.825 377.49 387.745C375.443 382.745 370.809 377.655 365.546 376.369C382.564 369.984 398.514 378.003 406.325 388.446C408.893 391.884 409.942 395.142 409.418 398.135C408.973 400.719 407.436 402.513 406.468 403.41C401.581 389.352 387.807 383.144 387.611 383.064C387.39 382.967 387.131 383.074 387.033 383.296C386.936 383.517 387.033 383.784 387.255 383.881C387.45 383.961 401.073 390.107 405.729 404.04C401.643 406.459 396.565 407.746 392.035 406.172H392.036ZM435.251 466.4C434.762 468.584 432.852 470.112 430.611 470.112H398.487C396.238 470.112 394.328 468.585 393.848 466.4L384.801 425.727H444.295L435.248 466.4H435.251ZM447.336 412.841C447.984 412.841 448.518 413.373 448.518 414.022V423.657C448.518 424.305 447.985 424.839 447.336 424.839H381.765C381.116 424.839 380.582 424.306 380.582 423.657V414.022C380.582 413.374 381.115 412.841 381.765 412.841H447.336ZM425.094 380.622C423.582 380.746 422.384 380.506 421.477 380.169C424.72 365.579 436.104 359.308 436.236 359.238C436.458 359.123 436.538 358.847 436.423 358.634C436.308 358.421 436.032 358.341 435.819 358.457C435.686 358.528 424.036 364.922 420.651 379.788H420.641C420.055 379.477 419.672 379.158 419.486 378.979C417.087 376.715 415.603 366.121 419.566 359.176C423.91 351.554 434.478 351.569 443.213 352.835C451.982 354.097 457.066 358.146 459.074 361.663C459.11 361.716 459.146 361.778 459.172 361.832C453.644 360.086 446.483 361.701 440.12 369.549C439.925 369.78 439.739 370.011 439.56 370.251C438.978 370.832 432.645 380.012 425.094 380.623V380.622ZM458.514 377.105C456.231 378.898 453.795 379.627 451.272 379.263C448.17 378.81 445.745 376.776 444.501 375.018C443.514 373.642 442.092 371.884 440.706 370.24C449.477 359.308 457.936 362.204 459.571 362.913C459.625 362.941 459.669 362.959 459.705 362.975C460.229 364.165 463.828 372.966 458.514 377.104V377.105Z" fill="#002345"></path><path d="M182.312 18.5977C179.779 18.5977 177.718 20.658 177.718 23.1888C177.718 25.7196 179.779 27.78 182.312 27.78C184.844 27.78 186.906 25.7196 186.906 23.1888C186.906 20.658 184.844 18.5977 182.312 18.5977ZM182.312 26.8927C180.268 26.8927 178.606 25.2325 178.606 23.19C178.606 21.1475 180.267 19.4861 182.312 19.4861C184.357 19.4861 186.017 21.1463 186.017 23.19C186.017 25.2337 184.356 26.8927 182.312 26.8927Z" fill="#002345"></path><path d="M165.358 18.5977C162.825 18.5977 160.764 20.658 160.764 23.1888C160.764 25.7196 162.825 27.78 165.358 27.78C167.89 27.78 169.952 25.7196 169.952 23.1888C169.952 20.658 167.89 18.5977 165.358 18.5977ZM165.358 26.8927C163.314 26.8927 161.653 25.2325 161.653 23.19C161.653 21.1475 163.314 19.4861 165.358 19.4861C167.402 19.4861 169.063 21.1463 169.063 23.19C169.063 25.2337 167.402 26.8927 165.358 26.8927Z" fill="#002345"></path><path d="M148.411 18.5977C145.879 18.5977 143.817 20.658 143.817 23.1888C143.817 25.7196 145.879 27.78 148.411 27.78C150.944 27.78 152.997 25.7196 152.997 23.1888C152.997 20.658 150.945 18.5977 148.411 18.5977ZM148.411 26.8927C146.368 26.8927 144.706 25.2325 144.706 23.19C144.706 21.1475 146.368 19.4861 148.411 19.4861C150.455 19.4861 152.108 21.1463 152.108 23.19C152.108 25.2337 150.447 26.8927 148.411 26.8927Z" fill="#002345"></path><path d="M368.815 23.4668H296.011C295.765 23.4668 295.566 23.6657 295.566 23.911C295.566 24.1564 295.765 24.3553 296.011 24.3553H368.815C369.06 24.3553 369.259 24.1564 369.259 23.911C369.259 23.6657 369.06 23.4668 368.815 23.4668Z" fill="#002345"></path><path d="M304.464 152.25H314.994C316.14 152.25 317.091 151.3 317.109 150.128L317.145 110.779C317.145 109.615 316.194 108.656 315.029 108.656H304.508C303.335 108.656 302.384 109.604 302.384 110.779C302.38 114.123 302.399 97.4588 302.34 150.128C302.34 151.318 303.273 152.25 304.464 152.25ZM303.273 110.779C303.273 110.066 303.85 109.545 304.509 109.545H315.031C315.715 109.545 316.257 110.087 316.257 110.779L316.221 150.12C316.212 150.803 315.661 151.363 314.995 151.363H304.465C303.771 151.363 303.229 150.821 303.229 150.129C303.288 97.46 303.269 114.124 303.273 110.78V110.779Z" fill="#002345"></path><path d="M245.911 150.138L245.955 106.943C245.955 105.803 245.053 104.82 243.849 104.82H233.309C232.145 104.82 231.194 105.771 231.186 106.934L231.142 150.139C231.142 151.283 232.057 152.253 233.257 152.253H243.797C244.961 152.253 245.902 151.302 245.912 150.139L245.911 150.138ZM245.022 150.138C245.013 150.813 244.471 151.363 243.795 151.363H233.256C232.61 151.363 232.029 150.849 232.029 150.138L232.074 106.933C232.082 106.258 232.634 105.708 233.308 105.708H243.848C244.518 105.708 245.065 106.241 245.065 106.933L245.02 150.138H245.022Z" fill="#002345"></path><path d="M255.482 151.62C255.482 151.665 255.771 151.863 255.811 151.887C255.811 151.893 255.813 151.895 255.819 151.895C256.763 152.523 256.776 152.13 267.522 152.25C268.686 152.25 269.637 151.3 269.637 150.136V150.101C269.656 123.648 269.791 125.071 269.45 124.391C269.187 123.841 268.667 123.407 267.984 123.263C267.93 123.25 267.717 123.206 267.664 123.219C267.628 123.211 267.592 123.211 267.557 123.211C256.707 123.247 256.975 123.125 256.396 123.309C255.529 123.566 254.894 124.408 254.894 125.324C254.866 151.436 254.837 150.357 254.92 150.607C254.938 150.651 255.041 151.195 255.48 151.619L255.482 151.62ZM255.757 149.524C255.875 124.217 255.571 125.062 256.076 124.552C256.395 123.916 256.859 124.144 267.557 124.108C268.281 124.108 268.774 124.679 268.774 125.333C268.759 139.851 268.763 135.549 268.748 150.136C268.748 150.802 268.209 151.362 267.522 151.362C256.771 151.288 256.806 151.529 256.298 151.149C256.271 151.133 256.111 151.02 256.111 150.989C255.699 150.577 255.77 150.147 255.756 149.577V149.523L255.757 149.524Z" fill="#002345"></path><path d="M209.531 152.25H220.061C221.133 152.25 222.078 151.516 222.177 150.128C222.186 123.775 222.244 125.347 222.159 124.889C222.051 124.514 221.966 124.207 221.59 123.832C220.71 122.956 220.301 123.245 209.567 123.211C208.541 123.211 207.604 123.961 207.461 125.111C207.459 126.173 207.423 143.581 207.417 150.137C207.417 150.702 207.641 151.232 208.039 151.629V151.638C208.434 152.032 208.965 152.25 209.532 152.25H209.531ZM221.226 124.863C221.349 125.194 221.307 123.36 221.288 150.128V150.136C221.288 150.745 220.804 151.361 220.061 151.361H209.531C208.872 151.361 208.313 150.846 208.313 150.128C208.165 123.109 208.369 124.789 208.696 124.462C208.902 124.256 209.263 124.116 209.406 124.116C209.432 124.107 209.46 124.098 209.486 124.107C221.23 124.117 220.325 124.071 220.63 124.223C220.925 124.369 221.098 124.572 221.226 124.863Z" fill="#002345"></path><path d="M207.603 96.9253C207.693 96.9253 205.784 97.4434 250.062 85.1324C261.099 90.593 260.622 90.6013 260.993 90.4167L295.614 73.4907L303.452 81.4476C303.585 81.5809 303.798 81.6167 303.976 81.5274L338.819 63.5176L342.471 70.5062C343.049 71.6245 344.7 71.5935 345.253 70.3728L353.819 51.3769C354.24 50.4456 353.664 49.3761 352.672 49.2451L333.523 46.4392C332.276 46.2665 331.313 47.5849 331.887 48.6949L335.052 54.9296L306.508 69.7511L297.542 61.1107C297.128 60.6974 299.076 60.1543 261.633 78.6405C251.39 73.5848 251.793 73.5312 251.414 73.7206L207.401 96.0821C206.99 96.306 207.15 96.9253 207.605 96.9253H207.603ZM251.608 74.6174C261.776 79.6397 261.442 79.7171 261.827 79.5373L297.15 61.9717L306.116 70.6122C306.25 70.7456 306.463 70.7718 306.632 70.6836L335.85 55.5155C336.063 55.4 336.152 55.1427 336.037 54.92L332.679 48.2947C332.429 47.8159 332.871 47.23 333.399 47.3181C353.464 50.3432 352.709 49.937 352.993 50.4265C353.091 50.604 353.091 50.8172 353.011 51.0125H353.001L344.444 69.9988C344.204 70.5502 343.504 70.5681 343.261 70.0965L339.397 62.7173C339.289 62.4957 339.014 62.416 338.801 62.5303L303.851 80.5841L296.022 72.6356C295.889 72.4939 295.684 72.4582 295.506 72.5463L260.796 89.5175C249.819 84.0605 250.285 84.1356 249.991 84.2332L211.771 94.8542L251.608 74.615V74.6174Z" fill="#002345"></path><path d="M291.258 152.25C292.422 152.25 293.373 151.3 293.373 150.136L293.435 92.5901C293.435 91.4122 292.491 90.4678 291.33 90.4678H280.791C279.627 90.4678 278.667 91.4265 278.667 92.5901L278.605 150.136C278.605 151.274 279.51 152.25 280.729 152.25H291.259H291.258ZM279.554 92.5913C279.554 91.916 280.114 91.3562 280.79 91.3562H291.328C291.961 91.3562 292.546 91.8743 292.546 92.5913L292.484 150.137C292.484 150.813 291.934 151.363 291.258 151.363H280.728C280.399 151.363 280.088 151.239 279.857 151.008C279.164 150.342 279.62 153.531 279.554 92.5913Z" fill="#002345"></path><path d="M338.79 91.792H328.252C327.088 91.792 326.137 92.7329 326.128 93.8964L326.066 150.137C326.066 151.277 326.971 152.251 328.19 152.251H338.72C339.884 152.251 340.835 151.301 340.835 150.137L340.897 93.906C340.897 92.684 339.905 91.792 338.792 91.792H338.79ZM339.946 150.137C339.946 150.813 339.396 151.363 338.72 151.363H328.19C327.473 151.363 326.955 150.805 326.955 150.137L327.017 93.906C327.017 93.2307 327.578 92.6805 328.253 92.6805H338.792C339.467 92.6805 340.01 93.2223 340.01 93.8964L339.948 150.137H339.946Z" fill="#002345"></path><path d="M168.538 92.884C180.232 92.884 189.758 83.373 189.758 71.6777C189.758 59.9825 180.232 50.4619 168.538 50.4619C156.844 50.4619 147.309 59.9813 147.309 71.6777C147.309 83.3742 156.834 92.884 168.538 92.884ZM188.861 71.2335H168.983V51.3587C179.242 51.3587 188.861 60.41 188.861 71.2335ZM168.094 51.3587V71.6777C168.094 71.9267 168.289 72.122 168.538 72.122H188.861C188.629 83.1253 179.593 91.9968 168.538 91.9968C157.484 91.9968 148.198 82.8859 148.198 71.6777C148.198 60.4696 157.084 51.5898 168.094 51.3587Z" fill="#002345"></path><path d="M168.538 146.558C180.241 146.558 189.758 137.047 189.758 125.352C189.758 113.657 180.241 104.128 168.538 104.128C156.835 104.128 147.309 113.647 147.309 125.352C147.309 137.057 156.834 146.558 168.538 146.558ZM180.988 109.287C190.467 116.699 191.996 131.051 182.33 140.271C180.235 142.26 176.955 144.18 174.003 144.916C173.888 145.032 171.014 145.662 168.983 145.662V105.025C172.778 105.025 177.314 106.431 180.988 109.287ZM168.095 105.025V145.662C157.084 145.431 148.199 136.399 148.199 125.352C148.199 114.305 157.086 105.256 168.095 105.025Z" fill="#002345"></path><path d="M364.214 165.074H338.488C338.239 165.074 338.044 165.27 338.044 165.518C338.044 165.767 338.239 165.963 338.488 165.963H364.214C364.454 165.963 364.659 165.759 364.659 165.518C364.659 165.278 364.455 165.074 364.214 165.074Z" fill="#002345"></path><path d="M331.842 165.518C331.842 165.27 331.646 165.074 331.397 165.074H245.512C245.263 165.074 245.067 165.27 245.067 165.518C245.067 165.767 245.263 165.963 245.512 165.963H331.397C331.646 165.963 331.842 165.759 331.842 165.518Z" fill="#002345"></path><path d="M147.753 165.963H239.104C239.353 165.963 239.548 165.759 239.548 165.518C239.548 165.278 239.353 165.074 239.104 165.074H147.753C147.504 165.074 147.309 165.27 147.309 165.518C147.309 165.767 147.504 165.963 147.753 165.963Z" fill="#002345"></path><path d="M364.214 179.789H301.797C301.548 179.789 301.353 179.984 301.353 180.233C301.353 180.482 301.548 180.678 301.797 180.678H364.214C364.453 180.678 364.658 180.474 364.658 180.233C364.658 179.993 364.455 179.789 364.214 179.789Z" fill="#002345"></path><path d="M186.729 179.789C186.489 179.789 186.284 179.984 186.284 180.233C186.284 180.482 186.489 180.678 186.729 180.678H292.99C293.239 180.678 293.435 180.474 293.435 180.233C293.435 179.993 293.239 179.789 292.99 179.789H186.729Z" fill="#002345"></path><path d="M147.753 180.678H179.966C180.215 180.678 180.41 180.474 180.41 180.233C180.41 179.993 180.215 179.789 179.966 179.789H147.753C147.504 179.789 147.309 179.984 147.309 180.233C147.309 180.482 147.504 180.678 147.753 180.678Z" fill="#002345"></path><path d="M364.214 194.504H338.488C338.239 194.504 338.044 194.699 338.044 194.948C338.044 195.197 338.239 195.392 338.488 195.392H364.214C364.454 195.392 364.659 195.189 364.659 194.948C364.659 194.708 364.455 194.504 364.214 194.504Z" fill="#002345"></path><path d="M329.851 194.504H272.09C271.841 194.504 271.646 194.699 271.646 194.948C271.646 195.197 271.841 195.392 272.09 195.392H329.851C330.09 195.392 330.295 195.189 330.295 194.948C330.295 194.708 330.091 194.504 329.851 194.504Z" fill="#002345"></path><path d="M262.866 194.504H147.753C147.504 194.504 147.309 194.699 147.309 194.948C147.309 195.197 147.504 195.392 147.753 195.392H262.866C263.115 195.392 263.31 195.189 263.31 194.948C263.31 194.708 263.115 194.504 262.866 194.504Z" fill="#002345"></path><path d="M499.099 102.929C497.615 74.7147 490.382 53.375 479.239 44.3701C479.052 44.2105 478.768 44.2462 478.617 44.432C478.465 44.6273 478.492 44.9024 478.679 45.0537C489.626 53.899 496.744 75.0076 498.211 102.973C499.838 133.833 493.599 172.943 478.547 187.978C475.365 191.166 470.611 193.759 464.408 195.695C464.396 195.606 462.569 181.238 462.524 181.149C462.524 181.131 462.524 181.113 462.515 181.095L462.48 180.793C463.341 178.244 479.613 129.223 470.362 102.093C466.478 90.6986 457.166 82.2273 442.681 76.9167C439.615 75.7889 436.478 74.8921 433.306 74.2085L432.977 64.0317C434.817 61.8737 441.757 52.9045 444.316 37.9317C447 22.2491 437.803 19.7886 431.715 18.1641C429.003 17.4638 429.991 17.5817 425.201 16.3443C420.136 15.039 413.836 13.4134 407.02 8.65308C402.027 5.16356 393.788 6.02462 390.403 10.3931C388.803 12.4534 386.244 18.226 396.747 27.3369C396.161 28.7399 394.02 34.4232 396.339 38.5082C397.573 40.6305 398.355 42.6372 398.498 43.9604C398.49 44.3534 398.474 45.0227 398.462 45.5325C398.454 45.6206 397.147 54.4397 398.987 61.695C400.24 66.6066 404.283 70.158 409.206 70.9131L409.162 73.2569C399.393 74.5015 389.778 77.7123 381.179 82.2797V21.1201C381.179 17.0267 377.855 13.7052 373.759 13.7052H138.202C134.114 13.7052 130.782 17.0267 130.782 21.1201V202.621C130.782 206.706 134.114 210.027 138.202 210.027H373.767C377.855 210.027 381.179 206.706 381.179 202.621V198.171C405.781 200.985 461.785 205.987 479.176 188.607C492.843 174.957 501.036 139.728 499.099 102.927V102.929ZM397.094 76.7214C403.31 74.8838 407.243 74.4812 409.197 74.1466C409.367 74.5563 410.033 74.4634 410.033 73.9691C410.035 73.8774 410.098 70.8297 410.095 71.0203C411.354 71.1144 411.159 71.0346 417.177 70.931C417.417 70.931 417.613 70.7273 417.613 70.4784C417.604 70.2295 417.4 70.0342 417.161 70.0425C413.358 70.0473 411.102 70.3486 409.234 69.9984C404.756 69.2434 400.979 65.9134 399.851 61.4735C398.056 54.3956 399.335 45.7552 399.353 45.6135C399.406 44.4273 399.312 33.0119 401.992 30.1345C403.458 30.5168 411.216 32.4259 418.405 32.9059C426.713 33.474 430.579 35.7118 431.335 40.4101C431.539 41.6714 431.672 43.7401 431.752 46.147C431.672 46.1291 431.592 46.1208 431.513 46.1113C429.887 45.96 428.304 46.4757 427.06 47.5583C425.808 48.6325 425.034 50.1427 424.883 51.8124C424.865 52.0518 425.043 52.2745 425.292 52.2924C425.513 52.3007 425.745 52.1328 425.772 51.8922C426.116 47.9204 430.397 45.7433 433.565 47.6833C437.406 49.9057 436.812 55.9415 432.765 57.3992V57.4076H432.739V57.4171C432.023 57.6839 431.246 57.8101 430.464 57.7363C429.855 57.6946 429.806 58.5747 430.384 58.6152C430.887 58.6652 431.39 58.6426 431.851 58.5616C431.815 61.8118 431.762 64.1746 431.762 64.2366C431.762 64.414 431.868 64.5831 432.037 64.6534C432.063 64.6617 432.089 64.6713 432.108 64.6796C432.47 75.8056 431.635 50.1105 432.57 78.889C432.592 79.4773 433.48 79.4595 433.459 78.8628L433.335 75.1327C436.4 75.7984 439.413 76.669 442.372 77.7528C456.59 82.9657 465.725 91.2512 469.519 102.378C478.725 129.375 462.331 178.494 461.637 180.537C461.196 180.373 461.116 180.862 460.082 181.895C457.318 184.799 449.366 191.717 438.968 188.431C427.601 184.834 378.239 167.996 367.168 164.214C369.495 156.689 373.404 144.097 373.441 143.975C373.531 143.997 380.74 145.669 380.292 145.565C381.655 145.88 431.548 157.401 431.637 157.491H431.645C432.205 157.713 437.91 160.094 439.919 167.686C439.971 167.881 440.15 168.015 440.346 168.015C440.381 168.015 440.426 168.015 440.461 167.997C440.692 167.935 440.834 167.694 440.772 167.455C438.817 160.058 433.645 157.384 432.242 156.78C433.139 151.021 437.922 120.324 438.818 114.571C438.854 114.332 438.694 114.109 438.453 114.065C438.204 114.03 437.982 114.199 437.937 114.438C437.923 114.53 436.563 123.269 436.649 122.714L428.26 151.638C425.179 151.203 441.953 153.572 382.603 145.19L381.181 144.861V83.2836C385.899 80.7445 391.196 78.471 397.097 76.7202L397.094 76.7214ZM350.992 154.924C348.711 154.365 347.95 154.096 347.545 153.983C344.346 152.98 342.257 151.922 342.053 151.15C342.035 151.088 341.991 150.918 342.266 150.661C343.138 149.835 344.613 149.649 347.714 150.093C349 150.294 350.084 150.491 350.175 150.51C350.406 150.546 350.628 150.404 350.691 150.173V150.165C350.741 149.987 350.618 149.698 350.362 149.641C348.26 149.162 340.423 146.93 341.991 145.414C343.825 143.676 352.715 145.726 355.472 146.338C355.711 146.392 355.943 146.24 356.005 146.009C356.058 145.77 355.907 145.529 355.676 145.477C353.546 144.962 345.038 142.577 346.629 141.089C348.44 139.336 357.846 141.542 360.599 142.137C360.98 142.233 361.272 141.808 361.079 141.48C357.995 136.258 358.066 134.721 358.244 134.296C358.332 134.09 358.488 134.063 358.706 134.039C358.799 134.076 360.027 133.76 364.589 137.361C368.291 140.196 371.865 143.571 372.319 143.701C372.391 143.737 372.453 143.843 372.497 143.994V144.004L366.615 162.99C358.188 161.414 352.242 160.503 348.238 158.887C347.388 158.562 345.091 157.625 344.852 156.755C344.826 156.676 344.781 156.506 345.066 156.231C346.116 155.242 349.402 155.611 350.834 155.795C351.055 155.822 351.278 155.662 351.322 155.431C351.366 155.2 351.225 154.978 350.993 154.925L350.992 154.924ZM351.126 76.064C351.357 75.833 351.668 75.6996 352.005 75.6996H362.527C363.219 75.6996 363.763 76.2498 363.771 76.9346C363.719 113.752 363.741 101.011 363.7 135.581C359.841 132.805 358.802 133.19 358.671 133.148C355.642 133.327 358.315 138.434 359.807 141.061C356.102 140.27 353.028 139.72 350.691 139.578C350.644 127.038 350.775 76.4154 351.126 76.064ZM131.67 21.1201C131.67 17.515 134.603 14.5924 138.202 14.5924H373.759C377.366 14.5924 380.291 17.5139 380.291 21.1201V31.7852H131.67V21.1201ZM380.29 202.621C380.29 206.217 377.366 209.139 373.767 209.139H138.202C134.603 209.139 131.67 206.217 131.67 202.621V32.6736H380.29C380.29 109.371 379.964 137.673 380.29 144.648L380.13 144.612C372.915 142.981 373.193 142.902 372.932 143.058C372.843 142.969 372.745 142.907 372.63 142.863C371.502 142.002 367.803 138.655 364.589 136.229C364.589 136.074 364.654 81.1852 364.66 76.9334C364.652 75.7436 363.719 74.8111 362.527 74.8111H352.005C350.85 74.8111 349.882 75.7186 349.882 76.9334C349.771 168.068 349.853 99.4903 349.802 139.541C349.451 139.517 348.747 139.535 348.149 139.613C347.189 139.728 346.478 139.995 346.016 140.438C345.483 140.944 345.473 141.442 345.563 141.779C345.758 142.516 346.691 143.218 347.971 143.848L347.962 144.043C344.683 143.626 342.434 143.768 341.377 144.771C340.827 145.295 340.817 145.819 340.907 146.156C341.191 147.212 342.95 148.18 345.03 148.962C343.519 148.962 342.436 149.273 341.654 150.018C341.112 150.534 341.103 151.04 341.191 151.377C341.538 152.674 344.204 153.836 346.932 154.716C345.758 154.806 344.968 155.099 344.453 155.587C343.893 156.111 343.893 156.643 343.991 156.99C344.456 158.634 348.27 159.878 349.891 160.418C352.83 161.335 355.397 161.806 366.349 163.827L366.189 164.36C366.118 164.581 366.243 164.83 366.473 164.91C366.65 164.972 372.169 166.855 380.131 169.563C380.101 175.613 380.02 196.585 380.291 202.616L380.29 202.621ZM381.179 197.274V173.918C394.163 179.363 433.786 194.882 447.737 192.558C452.748 191.759 459.627 184.628 461.777 182.274L463.545 195.96C440.851 202.685 404.796 199.974 381.179 197.274Z" fill="#002345"></path><path d="M421.245 83.152C423.902 83.152 426.541 82.8948 428.657 82.3886C428.888 82.335 429.039 82.0956 428.986 81.8563C428.924 81.6169 428.684 81.4656 428.443 81.5276C421.792 83.1103 409.925 82.0421 409.925 78.8812C409.925 78.2905 409.036 78.2965 409.036 78.8812C409.036 82.4768 417.627 83.1532 421.245 83.1532V83.152Z" fill="#002345"></path><path d="M263.737 244.636C267.188 239.322 265.626 234.752 260.12 234.752C251.304 234.752 240.062 245.776 243.281 251.66C246.26 257.139 258.604 252.56 263.737 244.636ZM245.315 244.636C250.18 237.141 261.717 232.925 264.252 237.558C265.339 239.534 264.219 242.266 262.99 244.156C258.132 251.673 246.581 255.869 244.062 251.234C243.182 249.626 243.645 247.229 245.314 244.636H245.315Z" fill="#002345"></path><path d="M257.464 242.113C258.676 241.39 259.981 239.844 259.356 238.676C259.117 238.232 258.636 237.992 258.014 237.992C255.968 237.992 253.344 240.531 254.194 242.041C254.777 243.122 256.398 242.748 257.464 242.113ZM258.014 238.881C258.183 238.881 258.467 238.908 258.574 239.094C258.664 239.263 258.646 239.618 258.325 240.114C257.406 241.533 255.313 242.228 254.966 241.623C254.802 240.538 256.422 238.879 258.014 238.879V238.881Z" fill="#002345"></path><path d="M247.173 249.235H255.446C256.042 249.235 256.778 248.747 257.055 248.169C258.391 245.409 257.071 243.453 254.478 243.453C251.885 243.453 248.666 245.238 246.668 247.698C246.365 248.079 246.277 248.479 246.428 248.798C246.552 249.073 246.828 249.234 247.174 249.234L247.173 249.235ZM247.36 248.259C250.082 244.911 255.175 243.199 256.442 245.176C256.833 245.798 256.771 246.731 256.255 247.788C256.122 248.072 255.687 248.348 255.446 248.348L247.297 248.338C247.315 248.321 247.332 248.294 247.359 248.259H247.36Z" fill="#002345"></path><path d="M298.739 238.645H326.693C326.938 238.645 327.137 238.446 327.137 238.201C327.137 237.956 326.938 237.757 326.693 237.757H298.739C298.494 237.757 298.295 237.956 298.295 238.201C298.295 238.446 298.494 238.645 298.739 238.645Z" fill="#002345"></path><path d="M271.778 238.645H295.576C295.822 238.645 296.021 238.446 296.021 238.201C296.021 237.956 295.822 237.757 295.576 237.757H271.778C271.532 237.757 271.333 237.956 271.333 238.201C271.333 238.446 271.532 238.645 271.778 238.645Z" fill="#002345"></path><path d="M321.461 243.953H312.699C312.454 243.953 312.255 244.152 312.255 244.397C312.255 244.643 312.454 244.842 312.699 244.842H321.461C321.706 244.842 321.905 244.643 321.905 244.397C321.905 244.152 321.706 243.953 321.461 243.953Z" fill="#002345"></path><path d="M310.175 244.397C310.175 244.152 309.976 243.953 309.731 243.953H280.202C279.957 243.953 279.758 244.152 279.758 244.397C279.758 244.643 279.957 244.842 280.202 244.842H309.731C309.976 244.842 310.175 244.643 310.175 244.397Z" fill="#002345"></path><path d="M267.765 244.842H274.206C274.452 244.842 274.651 244.643 274.651 244.397C274.651 244.152 274.452 243.953 274.206 243.953H267.765C267.519 243.953 267.32 244.152 267.32 244.397C267.32 244.643 267.519 244.842 267.765 244.842Z" fill="#002345"></path><path d="M318.143 250.149H298.671C298.426 250.149 298.227 250.348 298.227 250.594C298.227 250.839 298.426 251.038 298.671 251.038H318.143C318.388 251.038 318.587 250.839 318.587 250.594C318.587 250.348 318.388 250.149 318.143 250.149Z" fill="#002345"></path><path d="M263.751 250.149C263.506 250.149 263.307 250.348 263.307 250.594C263.307 250.839 263.506 251.038 263.751 251.038H295.562C295.807 251.038 296.007 250.839 296.007 250.594C296.007 250.348 295.807 250.149 295.562 250.149H263.751Z" fill="#002345"></path><path d="M315.117 258.196C312.389 259.528 288.121 270.94 276.24 261.847C269.835 256.948 266.352 261.395 254.238 263.729C242.641 265.967 239.69 257.584 239.576 257.22C239.463 256.881 238.994 256.809 238.785 257.114L224.336 278.019C224.121 278.333 224.353 278.72 224.701 278.72H301.735C301.877 278.72 302.019 278.65 302.099 278.525L315.704 258.837C315.953 258.473 315.526 257.994 315.117 258.197V258.196ZM301.504 277.831H225.545L239.06 258.267C240.153 260.478 244.152 266.578 254.407 264.598C266.702 262.232 269.705 257.96 275.699 262.546C286.771 271.018 307.885 262.466 314.042 259.678L301.504 277.829V277.831Z" fill="#002345"></path><path d="M116.26 21.1597L125.755 21.5789H125.776C126.013 21.5789 126.208 21.392 126.22 21.155C126.231 20.9096 126.04 20.7024 125.796 20.6917L116.3 20.2725H116.28C116.043 20.2725 115.847 20.4594 115.835 20.6964C115.825 20.9418 116.015 21.149 116.26 21.1597Z" fill="#002345"></path><path d="M129.59 12.9027C129.678 13.0039 129.802 13.0575 129.927 13.0575C130.03 13.0575 130.133 13.0218 130.217 12.9503C130.403 12.7907 130.424 12.5109 130.263 12.3239L124.073 5.12092C123.915 4.93751 123.635 4.91489 123.447 5.07448C123.261 5.23406 123.239 5.51394 123.4 5.70092L129.59 12.9039V12.9027Z" fill="#002345"></path><path d="M138.977 10.2896C138.994 10.2908 139.01 10.292 139.027 10.292C139.25 10.292 139.442 10.1241 139.468 9.89779L140.524 0.49394C140.551 0.249792 140.375 0.0306547 140.132 0.00326252C139.885 -0.0265116 139.667 0.150942 139.641 0.39509L138.585 9.79894C138.557 10.0431 138.734 10.2622 138.977 10.2896Z" fill="#002345"></path><path d="M97.8196 210.829L99.9862 217.155L64.9648 213.561L68.3732 207.806C69.404 206.066 71.3525 205.085 73.3641 205.291L93.4448 207.351C95.4576 207.557 97.1654 208.915 97.8208 210.828L97.8196 210.829Z" fill="#1DBFCC"></path></g><defs><clipPath id="clip0_921_555"><rect width="512" height="471" fill="white"></rect></clipPath></defs></svg>