<svg xmlns="http://www.w3.org/2000/svg" width="395" height="429" viewBox="0 0 395 429" fill="none"><g clip-path="url(#clip0_921_665)"><path d="M353.776 163.831C355.407 155.746 355.908 147.533 355.264 139.424C353.702 121.717 344.455 105.45 329.888 94.7912C314.927 83.8458 297.09 74.4435 276.875 66.8467C252.117 57.5451 225.725 52.8271 198.427 52.8271C171.059 52.8271 144.03 57.5481 118.092 66.8619C99.9107 73.3914 79.0606 82.0678 62.2822 96.9168C49.7252 108.03 42.0878 121.238 40.1938 135.121C38.9554 144.633 39.3031 154.291 41.2308 163.837C43.4878 175.02 48.9139 186.103 57.3564 196.78C64.2495 205.496 73.1679 213.977 83.8644 221.986C102.659 236.057 120.977 244.157 123.006 245.035C124.412 245.627 137.088 251.058 149.087 259.189C162.62 268.36 169.553 277.121 169.69 285.227C169.824 293.071 169.781 302.919 169.739 313.358C169.647 335.279 169.54 360.128 170.87 380.202C171.581 390.927 172.657 399.308 174.07 405.112C176.101 413.453 178.291 414.352 178.709 414.447C178.944 414.502 179.169 414.529 179.371 414.529C179.813 414.529 180.411 414.422 181.131 413.584C186.02 407.896 186.148 382.349 181.448 351.458C177.266 323.983 182.171 301.184 185.754 284.535C187.228 277.695 186.325 271.983 182.994 267.076C178.669 260.699 170.15 255.755 157.676 252.376C153.149 251.15 147.007 248.137 143.35 243.352C140.867 240.104 136.685 238.247 130.921 237.835C122.121 237.207 119.373 232.458 116.948 228.271C114.258 223.623 111.937 219.61 101.457 218.783C87.1768 217.655 85.2674 211.717 84.4592 205.206C84.0382 201.809 83.6814 200.439 81.5982 199.531C76.0349 197.097 74.5373 192.522 73.2197 188.484C71.9234 184.523 70.8071 181.104 66.3754 178.643C58.8814 174.48 61.4252 168.985 63.1088 165.349C64.8565 161.574 65.4116 159.671 63.3803 157.304C58.3751 151.467 52.8027 143.806 54.1355 136.322C54.8859 132.107 57.7255 128.597 62.575 125.883C67.8486 122.934 69.2241 118.853 70.554 114.907C72.0973 110.32 74.0219 104.614 83.169 104.614C83.7759 104.614 84.4226 104.639 85.0875 104.688C85.4931 104.718 85.8927 104.73 86.2678 104.73C90.7911 104.73 91.5658 102.809 92.9718 99.317C94.5121 95.4957 96.6197 90.2624 105.45 90.2624C107.203 90.2624 109.131 90.4606 111.342 90.8662C112.873 91.1498 114.31 91.2901 115.609 91.2901C122.576 91.2901 124.997 87.2584 127.559 82.9919C129.627 79.5487 131.973 75.6451 136.88 75.6451C138.232 75.6451 139.659 75.947 141.245 76.5661C145.988 78.4234 149.837 79.2865 153.354 79.2865C159.161 79.2865 164.468 76.9351 171.675 71.1712C174.628 68.8076 177.489 67.661 180.42 67.661C183.912 67.661 186.944 69.3047 189.875 70.8967C193.093 72.6442 196.417 74.4496 200.724 74.4496C201.764 74.4496 202.847 74.3429 203.945 74.1324C206.321 73.675 208.367 73.2145 210.179 72.8028C213.973 71.9458 216.972 71.2688 220.25 71.2688C225.481 71.2688 231.179 73.0345 241.281 77.789C245.264 79.6646 249.415 80.5368 254.35 80.5368C257.312 80.5368 260.252 80.2288 263.11 79.9299C265.864 79.6433 268.71 79.3444 271.479 79.3444C277.436 79.3444 285.201 80.5643 292.436 90.0824C302.236 102.977 304.792 103.465 315.54 105.508C316.159 105.627 316.803 105.749 317.474 105.877C324.593 107.255 332.977 113.916 335.228 123.983C336.573 129.994 335.167 136.481 331.373 141.781C328.411 145.92 325.422 152.733 328 161.687L328.018 161.739C328.36 162.501 329.461 165.258 329.314 168.768C329.156 172.544 327.515 177.917 320.594 182.068C317.434 183.965 317.367 187.387 317.52 192.809C317.636 196.856 317.764 201.446 315.537 205.298C312.945 209.781 307.638 212.303 299.311 213.013C285.14 214.218 281.749 218.908 277.82 224.337C274.639 228.735 271.034 233.718 261.734 236.578C253.944 238.976 251.437 241.617 248.784 244.413C246.572 246.743 244.285 249.155 239.344 250.967C235.937 252.217 232.262 253.358 228.696 254.462C220.345 257.054 211.707 259.732 206.483 263.858C198.293 270.324 200.267 277.243 201.712 282.297C201.941 283.096 202.158 283.852 202.304 284.532C205.885 301.181 210.792 323.98 206.611 351.455C201.907 382.346 202.039 407.893 206.928 413.581C207.648 414.419 208.249 414.526 208.688 414.526C208.892 414.526 209.115 414.499 209.35 414.444C209.853 414.328 212.476 413.199 214.776 402.205C216.31 394.865 217.429 384.392 218.1 371.08C219.335 346.566 218.866 317.079 218.524 295.535C218.466 291.867 218.411 288.433 218.369 285.298C218.234 275.295 227.372 265.444 245.523 256.017C258.025 249.524 270.439 245.538 271.815 245.105L271.851 245.093C273.745 244.279 290.896 236.74 309.12 223.474C320.277 215.349 329.595 206.722 336.808 197.826C345.736 186.819 351.445 175.383 353.779 163.834L353.776 163.831ZM308.665 222.855C290.566 236.033 273.538 243.532 271.561 244.383C270.091 244.846 257.675 248.844 245.166 255.34C226.738 264.91 217.463 274.993 217.6 285.307C217.643 288.439 217.698 291.876 217.756 295.557C218.097 317.076 218.567 346.548 217.332 371.037C216.664 384.31 215.55 394.743 214.022 402.044C211.735 412.989 209.2 413.687 209.176 413.694C208.996 413.733 208.828 413.755 208.682 413.755C208.371 413.755 208.014 413.672 207.498 413.074C202.743 407.542 202.685 382.248 207.355 351.562C211.558 323.95 206.635 301.068 203.042 284.361C202.89 283.657 202.67 282.888 202.438 282.074C201.053 277.231 199.159 270.595 206.949 264.447C212.064 260.409 220.632 257.753 228.928 255.179C232.493 254.072 236.178 252.928 239.603 251.675C244.712 249.802 247.06 247.326 249.333 244.929C251.916 242.205 254.356 239.634 261.954 237.295C271.497 234.358 275.182 229.265 278.436 224.77C282.255 219.494 285.552 214.935 299.375 213.76C307.967 213.029 313.469 210.381 316.196 205.667C318.532 201.629 318.392 196.719 318.282 192.775C318.136 187.628 318.191 184.389 320.988 182.708C328.201 178.381 329.912 172.748 330.077 168.786C330.223 165.24 329.189 162.483 328.726 161.44C326.243 152.791 329.131 146.209 331.992 142.214C335.911 136.74 337.363 130.031 335.969 123.806C333.648 113.419 324.98 106.545 317.617 105.118C316.946 104.986 316.303 104.864 315.68 104.749C305.161 102.745 302.663 102.272 293.04 89.6097C285.601 79.8232 277.61 78.5698 271.476 78.5698C268.667 78.5698 265.8 78.8686 263.015 79.1584C260.188 79.4542 257.266 79.7592 254.347 79.7592C249.531 79.7592 245.481 78.9083 241.604 77.0846C231.392 72.2782 225.603 70.4941 220.25 70.4941C216.883 70.4941 213.851 71.1803 210.005 72.0464C208.206 72.4521 206.165 72.9126 203.802 73.367C202.752 73.5682 201.718 73.6719 200.727 73.6719C196.616 73.6719 193.376 71.9123 190.241 70.2105C187.228 68.5759 184.11 66.8833 180.423 66.8833C177.312 66.8833 174.295 68.0849 171.203 70.5612C164.145 76.2062 158.975 78.5118 153.357 78.5118C149.938 78.5118 146.177 77.664 141.526 75.8433C139.851 75.1876 138.332 74.8705 136.883 74.8705C131.546 74.8705 129.081 78.9723 126.91 82.5893C124.461 86.6668 122.149 90.5185 115.612 90.5185C114.359 90.5185 112.968 90.3783 111.483 90.1068C109.226 89.6921 107.252 89.4877 105.45 89.4877C96.1043 89.4877 93.8838 94.9986 92.2642 99.0211C90.8978 102.409 90.2756 103.956 86.2678 103.956C85.911 103.956 85.5297 103.94 85.1424 103.913C84.4591 103.864 83.7942 103.84 83.169 103.84C73.4729 103.84 71.4537 109.835 69.8311 114.654C68.547 118.463 67.2203 122.403 62.2029 125.209C57.1429 128.039 54.1782 131.729 53.3852 136.179C51.9975 143.98 57.6889 151.827 62.8007 157.792C64.5576 159.842 64.0909 161.403 62.4164 165.023C60.8365 168.439 57.8932 174.797 66.0063 179.305C70.1758 181.62 71.2494 184.91 72.4969 188.716C73.8663 192.904 75.4188 197.652 81.2962 200.223C82.9555 200.949 83.2818 201.9 83.7058 205.294C84.5568 212.132 86.5484 218.363 101.402 219.537C111.483 220.333 113.712 224.184 116.293 228.646C118.812 232.998 121.667 237.933 130.869 238.588C136.405 238.985 140.403 240.738 142.746 243.806C146.519 248.744 152.829 251.845 157.477 253.105C169.772 256.432 178.145 261.275 182.363 267.493C185.568 272.22 186.435 277.737 185.007 284.364C181.414 301.071 176.491 323.95 180.694 351.562C185.364 382.248 185.306 407.542 180.554 413.074C180.042 413.672 179.682 413.755 179.371 413.755C179.224 413.755 179.056 413.733 178.877 413.694C178.855 413.687 176.806 413.132 174.808 404.923C173.405 399.162 172.334 390.824 171.627 380.144C170.3 360.098 170.403 335.264 170.495 313.346C170.538 302.913 170.58 293.062 170.446 285.209C170.303 276.838 163.26 267.868 149.508 258.552C137.448 250.381 124.708 244.922 123.299 244.328C121.279 243.456 103.037 235.389 84.3127 221.37C73.6681 213.401 64.7955 204.965 57.9451 196.301C49.5788 185.718 44.2046 174.746 41.9689 163.681C40.0565 154.221 39.7118 144.642 40.941 135.218C42.8107 121.522 50.3626 108.475 62.7794 97.4871C79.4601 82.7235 100.228 74.0836 118.342 67.5786C144.201 58.2953 171.142 53.5896 198.424 53.5896C225.631 53.5896 251.934 58.2922 276.606 67.5603C296.758 75.1327 314.534 84.5045 329.436 95.4072C343.823 105.938 352.961 122.004 354.502 139.491C355.142 147.527 354.645 155.667 353.028 163.684C350.719 175.111 345.062 186.438 336.213 197.347C329.04 206.191 319.771 214.773 308.668 222.858L308.665 222.855Z" fill="#1DBFCC" stroke="#1DBFCC" stroke-width="2" stroke-linejoin="round"></path><path d="M339.004 199.695C348.255 188.308 354.175 176.432 356.606 164.401C358.232 156.34 358.772 148.161 358.207 140.064H358.213C358.213 140.064 358.213 140.061 358.213 140.058C358.195 139.793 358.174 139.527 358.149 139.262L358.137 139.103H358.143C356.46 118.195 347.477 98.2526 332.428 80.9302C336.775 76.4166 345.193 66.9686 354.498 52.8088C368.044 32.1989 376.877 11.1985 380.939 0.515401L381.135 0H364.237L364.137 0.225679C356.768 16.7826 340.487 46.9778 314.125 63.5194C306.988 57.8561 299.079 52.6319 290.45 47.9354C283.283 44.0287 275.587 40.488 267.581 37.42C245.157 28.8198 221.58 24.4587 197.503 24.4587C173.426 24.4587 149.849 28.8198 127.425 37.42C119.794 40.3507 112.452 43.6963 105.611 47.3681L105.565 47.3925H105.562C96.5525 52.2233 88.3113 57.6091 80.8783 63.5133C54.5167 46.9747 38.2386 16.7887 30.8666 0.225679L30.7659 0H13.8687L14.0639 0.515401C18.1235 11.1985 26.9595 32.1989 40.5017 52.8088C49.8135 66.9808 58.2439 76.435 62.5871 80.9455C61.3305 82.3971 60.1074 83.8671 58.9271 85.3615C47.0837 100.357 39.8581 116.658 37.4517 133.815H37.4486C37.3723 134.358 37.2991 134.901 37.232 135.444C37.232 135.456 37.229 135.471 37.2259 135.483C36.0608 145.075 36.4512 154.797 38.3911 164.395C40.7396 176.026 46.3548 187.521 55.0809 198.555C62.1266 207.466 71.2279 216.124 82.1227 224.282C101.189 238.558 119.788 246.777 121.85 247.67C123.231 248.253 135.697 253.596 147.458 261.565C159.987 270.055 166.676 278.25 166.795 285.264C166.926 293.077 166.887 302.916 166.841 313.331C166.652 358.448 166.414 414.599 178.059 417.246C180.106 417.713 181.89 417.103 183.311 415.447C183.708 414.984 184.074 414.438 184.412 413.815C189.768 413.791 190.802 419.262 191.562 423.285C191.659 423.803 191.751 424.294 191.848 424.746C192.522 427.893 194.206 428.991 195.74 428.991C195.941 428.991 196.143 428.973 196.335 428.936C199.178 428.408 202.533 423.953 201.438 416.957C201.371 416.521 201.285 416.063 201.2 415.59C200.721 412.98 200.193 410.058 201.578 407.683C202.289 411.123 203.317 413.806 204.729 415.447C205.842 416.74 207.169 417.399 208.678 417.399C209.096 417.399 209.536 417.347 209.981 417.246C215.886 415.905 219.482 400.848 220.973 371.217C222.215 346.603 221.745 317.057 221.4 295.484C221.342 291.815 221.287 288.384 221.245 285.255C221.098 274.27 235.08 264.685 246.835 258.579C259.648 251.925 272.672 247.853 272.803 247.814L272.836 247.801C273.019 247.725 291.335 239.961 310.706 225.874C322.089 217.597 331.608 208.789 338.995 199.692L339.004 199.695ZM364.728 0.762428H380.024C375.891 11.5676 367.147 32.1684 353.858 52.391C344.619 66.4502 336.259 75.8433 331.922 80.3569C326.856 74.599 321.119 69.1339 314.753 64.0226C341.032 47.42 357.298 17.3986 364.731 0.762428H364.728ZM41.1422 52.391C27.8531 32.1684 19.1086 11.5676 14.9758 0.762428H30.2718C37.7048 17.4047 53.9707 47.4169 80.2439 64.0196C73.9211 69.0973 68.1962 74.5563 63.0934 80.3691C58.7563 75.8586 50.39 66.4624 41.1422 52.388V52.391ZM105.925 48.0665C105.944 48.0574 105.965 48.0452 105.989 48.0299C112.797 44.3764 120.102 41.0461 127.697 38.1336C172.709 20.8661 222.291 20.8661 267.307 38.1336C275.283 41.1925 282.944 44.7149 290.081 48.6063C323.964 67.0449 346.763 93.6445 354.627 123.211C350.274 111.061 342.313 100.302 331.593 92.4581C316.422 81.3572 298.353 71.8299 277.89 64.1416C252.81 54.7149 226.073 49.936 198.427 49.936H198.421C170.724 49.936 143.362 54.7149 117.113 64.1385C98.6723 70.7594 77.508 79.5761 60.3636 94.7485C51.3477 102.727 44.7657 111.772 40.8921 121.397C49.3164 92.2599 72.4113 66.0202 105.928 48.0635L105.925 48.0665ZM200.453 415.737C200.538 416.203 200.62 416.655 200.687 417.085C201.697 423.517 198.674 427.737 196.201 428.198C194.496 428.515 193.148 427.167 192.599 424.596C192.504 424.151 192.413 423.666 192.315 423.154C191.568 419.189 190.458 413.291 184.8 413.068C187.908 406.389 188.28 392.577 187.264 377.576C189.244 380.665 192.342 386.844 191.845 394.636C191.537 399.43 192.184 403.568 193.529 405.438C194.212 406.386 195.051 406.893 195.89 406.893C196.17 406.893 196.451 406.835 196.725 406.719C198.476 405.975 199.794 402.748 198.787 397.219C197.595 390.665 199.049 389.396 200.294 389.055C200.202 395.77 200.51 401.848 201.374 406.633C199.287 409.372 199.928 412.898 200.449 415.74L200.453 415.737ZM158.426 249.585C153.232 248.18 148.333 245.118 145.64 241.595C142.633 237.661 137.75 235.426 131.122 234.953C123.847 234.434 121.807 230.906 119.443 226.822C116.738 222.147 113.672 216.85 101.68 215.904C88.5644 214.871 87.93 209.774 87.3169 204.849C86.9326 201.748 86.5331 198.539 82.748 196.883C78.3681 194.968 77.1969 191.382 75.9555 187.585C74.6592 183.62 73.1891 179.128 67.7692 176.118C62.6207 173.257 63.9871 170.302 65.7195 166.557C66.3783 165.133 67.0738 163.626 67.3879 162.053C72.7285 159.225 77.7794 157.082 82.8029 155.511C100.579 149.96 115.112 152.791 131.939 156.066C152.695 160.107 178.526 165.136 220.012 156.039C253.74 148.649 283.405 148.045 308.186 154.245C314.073 155.715 319.578 157.569 324.574 159.747C324.751 160.708 324.983 161.693 325.282 162.699L325.306 162.76C325.358 162.861 330.217 172.913 319.1 179.582C314.329 182.443 314.479 187.749 314.625 192.879C314.845 200.686 315.073 208.762 299.058 210.125C283.569 211.443 279.452 217.13 275.472 222.632C272.412 226.859 269.249 231.232 260.874 233.809C252.358 236.429 249.342 239.61 246.676 242.419C244.602 244.605 242.644 246.67 238.337 248.25C234.997 249.476 231.353 250.604 227.83 251.699C219.226 254.367 210.326 257.13 204.68 261.586C194.972 269.25 197.442 277.908 198.921 283.08C199.147 283.867 199.339 284.544 199.467 285.133C203.002 301.565 207.843 324.065 203.74 351.016C203.051 355.548 202.42 360.311 201.892 365.121C200.465 363.404 196.966 358.088 200.37 350.36C203.097 344.163 201.648 338.454 198.671 336.511C196.451 335.063 193.788 335.752 191.357 338.405C189.387 340.555 185.733 343.806 183.201 341.717C181.31 318.872 185.443 299.637 188.563 285.136C192.257 267.963 182.116 256.002 158.417 249.585H158.426ZM67.5282 161.122C67.696 159.296 67.2537 157.387 65.567 155.419C61.3366 150.482 55.8404 143.184 56.972 136.819C57.5637 133.498 59.9214 130.665 63.9779 128.393C70.2245 124.901 71.8501 120.076 73.2837 115.819C74.8514 111.165 76.0897 107.49 83.1628 107.49C83.6996 107.49 84.276 107.512 84.8769 107.554C85.3588 107.588 85.8224 107.606 86.2616 107.606C92.7338 107.606 94.2131 103.934 95.6436 100.384C97.1442 96.6576 98.5625 93.1382 105.443 93.1382C106.999 93.1382 108.808 93.3243 110.815 93.6963C112.52 94.0104 114.13 94.169 115.606 94.169C124.207 94.169 127.437 88.7893 130.033 84.4679C131.948 81.2779 133.605 78.521 136.877 78.521C137.862 78.521 138.945 78.7588 140.19 79.2437C145.28 81.2352 149.462 82.1623 153.351 82.1623C159.875 82.1623 165.706 79.628 173.475 73.4127C175.897 71.4761 178.166 70.5338 180.417 70.5338C183.177 70.5338 185.76 71.9366 188.493 73.4188C191.864 75.2486 195.682 77.3194 200.721 77.3194C201.944 77.3194 203.21 77.1943 204.485 76.9503C206.909 76.4837 208.98 76.0171 210.807 75.6024C214.568 74.7515 217.286 74.1385 220.244 74.1385C225.005 74.1385 230.37 75.8311 240.045 80.3813C244.425 82.4429 248.97 83.4035 254.344 83.4035C257.458 83.4035 260.481 83.0864 263.403 82.7814C266.206 82.4886 268.856 82.2111 271.476 82.2111C277.094 82.2111 283.707 83.3517 290.136 91.8116C300.607 105.587 303.944 106.221 315 108.329C315.616 108.445 316.257 108.57 316.925 108.698C323.123 109.896 330.43 115.743 332.41 124.599C333.575 129.808 332.34 135.456 329.024 140.089C326.609 143.462 323.126 150.064 324.434 158.85C319.52 156.74 314.128 154.938 308.379 153.501C297.386 150.75 285.177 149.329 272.095 149.274C255.96 149.198 238.38 151.229 219.854 155.288C178.52 164.349 152.774 159.338 132.089 155.31C115.161 152.013 100.539 149.168 82.5802 154.776C77.6666 156.31 72.7285 158.393 67.5282 161.113V161.122ZM191.931 338.921C194.084 336.572 196.393 335.929 198.266 337.152C200.974 338.921 202.246 344.23 199.684 350.055C195.658 359.189 200.861 365.176 201.791 366.142C200.965 373.864 200.41 381.665 200.3 388.768L200.181 388.292C197.707 388.912 197.027 391.79 198.037 397.353C198.961 402.443 197.851 405.41 196.426 406.017C195.676 406.338 194.843 405.962 194.145 404.993C192.916 403.285 192.312 399.238 192.605 394.685C193.187 385.596 189.006 378.652 187.154 376.054C186.538 367.673 185.507 358.988 184.296 351.019C183.866 348.195 183.54 345.423 183.296 342.699C184.833 343.55 187.603 343.642 191.928 338.921H191.931ZM272.568 247.097C271.995 247.277 259.151 251.336 246.502 257.905C238.929 261.839 232.899 265.889 228.586 269.948C223.148 275.066 220.421 280.223 220.491 285.273C220.534 288.405 220.589 291.836 220.647 295.505C220.988 317.066 221.461 346.6 220.22 371.19C218.765 400.028 215.267 415.276 209.819 416.514C208.029 416.92 206.562 416.414 205.314 414.962C198.717 407.286 200.758 375.779 204.506 351.135C208.63 324.047 203.771 301.464 200.224 284.977C200.093 284.364 199.894 283.675 199.666 282.876C198.241 277.887 195.856 269.537 205.165 262.19C210.698 257.82 219.528 255.081 228.068 252.431C231.6 251.336 235.254 250.201 238.612 248.969C243.083 247.329 245.102 245.2 247.24 242.949C249.967 240.076 252.785 237.106 261.109 234.544C269.728 231.891 272.967 227.417 276.1 223.086C280.16 217.478 283.99 212.181 299.134 210.891C315.87 209.466 315.619 200.647 315.4 192.864C315.253 187.725 315.116 182.873 319.505 180.241C330.888 173.413 326.331 163.129 326.017 162.458C325.733 161.501 325.514 160.567 325.346 159.656L325.499 159.314C325.425 159.28 325.346 159.25 325.273 159.216C323.806 150.458 327.265 143.873 329.65 140.54C333.093 135.73 334.371 129.863 333.157 124.44C331.108 115.267 323.513 109.204 317.071 107.957C316.403 107.829 315.76 107.707 315.144 107.588C304.31 105.526 301.04 104.904 290.746 91.3602C284.115 82.635 277.286 81.4609 271.479 81.4609C268.819 81.4609 266.151 81.7384 263.326 82.0342C260.423 82.3361 257.421 82.6503 254.347 82.6503C249.089 82.6503 244.651 81.714 240.375 79.7012C230.59 75.0961 225.134 73.3852 220.25 73.3852C217.206 73.3852 214.309 74.0379 210.646 74.8674C208.825 75.2791 206.76 75.7457 204.347 76.2093C203.118 76.4441 201.901 76.5661 200.727 76.5661C195.884 76.5661 192.153 74.5411 188.865 72.757C186.044 71.226 183.378 69.7805 180.426 69.7805C177.995 69.7805 175.57 70.7777 173.008 72.8241C165.389 78.9205 159.695 81.406 153.36 81.406C149.568 81.406 145.475 80.4941 140.476 78.5392C139.143 78.0177 137.969 77.7646 136.886 77.7646C133.181 77.7646 131.338 80.8326 129.389 84.0836C126.763 88.4569 123.786 93.4127 115.618 93.4127C114.191 93.4127 112.626 93.2572 110.967 92.9522C108.914 92.574 107.06 92.3819 105.459 92.3819C98.0623 92.3819 96.4793 96.3099 94.9512 100.107C93.5543 103.574 92.2336 106.853 86.2769 106.853C85.856 106.853 85.4076 106.838 84.944 106.804C84.3279 106.761 83.7301 106.737 83.175 106.737C75.5529 106.737 74.1712 110.836 72.573 115.584C71.1822 119.71 69.6083 124.389 63.618 127.737C59.351 130.125 56.8652 133.138 56.2339 136.694C55.0565 143.303 60.2996 150.442 64.9997 155.923C66.665 157.868 67.0006 159.738 66.7199 161.555C66.6803 161.577 66.6406 161.598 66.5979 161.62L66.6803 161.775C66.4058 163.297 65.7195 164.779 65.0424 166.243C63.371 169.854 61.6447 173.584 67.4123 176.789C72.5699 179.656 73.9303 183.809 75.2418 187.829C76.5381 191.793 77.7611 195.535 82.4552 197.588C85.8407 199.07 86.1793 201.793 86.5727 204.947C87.1919 209.933 87.8965 215.584 101.631 216.667C113.224 217.582 116.055 222.477 118.793 227.207C121.163 231.299 123.399 235.166 131.076 235.715C137.475 236.173 142.172 238.308 145.042 242.059C147.833 245.709 152.887 248.875 158.237 250.323C181.472 256.612 191.43 268.271 187.834 284.977C184.287 301.464 179.428 324.047 183.552 351.135C187.304 375.783 189.344 407.286 182.747 414.962C181.499 416.414 180.023 416.92 178.242 416.514C173.463 415.429 170.272 403.257 168.753 380.339C167.42 360.195 167.524 335.307 167.616 313.346C167.658 302.925 167.701 293.083 167.57 285.261C167.445 277.884 160.826 269.701 147.9 260.943C136.078 252.934 123.549 247.563 122.164 246.978C120.114 246.09 101.591 237.905 82.5955 223.681C58.0151 205.276 43.3993 185.282 39.1536 164.251C37.1802 154.48 36.8233 144.578 38.0922 134.828C40.0564 120.436 47.9347 106.777 60.876 95.3249C77.9228 80.2379 99.0047 71.4578 117.378 64.8613C143.548 55.4651 170.818 50.7045 198.43 50.7045H198.436C225.991 50.7045 252.636 55.4682 277.634 64.8613C298.033 72.5283 316.037 82.022 331.153 93.0803C346.214 104.102 355.776 120.933 357.393 139.262C358.055 147.569 357.542 155.975 355.871 164.254C350.421 191.238 328.076 212.321 310.291 225.255C291.237 239.113 273.211 246.828 272.577 247.097H272.568Z" fill="#1DBFCC" stroke="#1DBFCC" stroke-width="2" stroke-linejoin="round"></path><path d="M40.5169 197.729C40.5108 197.924 39.971 212.919 52.589 228.403C69.9591 249.72 98.8095 250.421 98.8095 250.421C48.9137 237.732 40.6633 198.381 40.5169 197.729ZM82.3545 246.811C76.959 245.176 71.9386 242.983 67.4336 240.299C61.8124 236.951 56.975 232.819 53.0648 228.015C46.6079 220.092 43.7073 212.312 42.411 207.18C42.0603 205.789 41.8041 204.514 41.6149 203.386C43.1613 207.564 45.943 213.654 50.6919 220.165C57.6094 229.65 70.2061 241.922 91.8158 249.022C89.1561 248.576 85.9048 247.884 82.3545 246.808V246.811Z" fill="#1DBFCC" stroke="#FFC567" stroke-width="2" stroke-linejoin="round"></path><path d="M40.5137 197.722C40.5137 197.722 40.5137 197.725 40.5137 197.731V197.725V197.722Z" fill="#1DBFCC" stroke="#1DBFCC" stroke-width="2" stroke-linejoin="round"></path><path d="M32.5503 212.642C32.5503 212.642 39.8857 250.919 81.3999 254.148C47.9714 243.993 32.7119 212.965 32.5503 212.642ZM75.8183 252.855C68.7117 251.666 62.2669 249.302 56.603 245.798C50.9025 242.273 45.9675 237.588 41.9353 231.873C38.0892 226.42 35.8016 221.05 34.5328 217.356C39.7576 225.792 53.1442 243.98 75.8183 252.855Z" fill="#1DBFCC" stroke="#FFC567" stroke-width="2" stroke-linejoin="round"></path><path d="M30.7628 227.572C30.7628 227.572 35.2677 257.267 69.9072 260.152C43.1186 252.18 30.8909 227.825 30.7598 227.572H30.7628ZM49.5237 253.339C44.9151 250.57 40.9988 246.914 37.8755 242.473C35.0542 238.463 33.4011 234.516 32.4647 231.683C36.7013 238.295 46.986 251.738 64.1212 258.759C58.6952 257.728 53.8029 255.916 49.5206 253.342L49.5237 253.339Z" fill="#1DBFCC" stroke="#FFC567" stroke-width="2" stroke-linejoin="round"></path><path d="M354.483 197.728C354.483 197.722 354.483 197.722 354.483 197.719V197.725V197.728Z" fill="#1DBFCC" stroke="#1DBFCC" stroke-width="2" stroke-linejoin="round"></path><path d="M342.411 228.403C355.026 212.922 354.492 197.933 354.483 197.729C354.337 198.387 346.083 237.732 296.19 250.421C296.19 250.421 325.038 249.72 342.411 228.403ZM327.569 240.299C323.061 242.983 318.041 245.176 312.649 246.811C309.098 247.887 305.847 248.579 303.187 249.025C324.797 241.925 337.394 229.653 344.308 220.168C349.057 213.657 351.842 207.567 353.385 203.386C353.199 204.517 352.943 205.792 352.589 207.186C351.293 212.315 348.392 220.095 341.938 228.015C338.025 232.815 333.191 236.948 327.569 240.299Z" fill="#FFC567" stroke="#FFC567" stroke-width="2" stroke-linejoin="round"></path><path d="M362.447 212.645C362.285 212.965 347.026 243.989 313.597 254.148C355.108 250.918 362.447 212.645 362.447 212.645ZM338.397 245.798C332.73 249.302 326.285 251.669 319.182 252.855C341.859 243.98 355.246 225.789 360.467 217.356C359.195 221.05 356.911 226.423 353.065 231.873C349.033 237.585 344.098 242.269 338.397 245.798Z" fill="#FFC567" stroke="#FFC567" stroke-width="2" stroke-linejoin="round"></path><path d="M325.09 260.152C359.729 257.267 364.234 227.575 364.234 227.575C364.106 227.828 351.879 252.18 325.087 260.152H325.09ZM362.532 231.683C361.596 234.519 359.943 238.463 357.122 242.476C354.001 246.916 350.082 250.57 345.473 253.342C341.191 255.916 336.299 257.731 330.873 258.759C348.008 251.738 358.296 238.292 362.532 231.683Z" fill="#FFC567" stroke="#FFC567" stroke-width="2" stroke-linejoin="round"></path><path d="M370.38 154.38C370.38 154.38 370.38 154.373 370.38 154.37V154.376V154.38Z" fill="#1DBFCC" stroke="#1DBFCC" stroke-width="2" stroke-linejoin="round"></path><path d="M344.442 80.2041C382.29 115.349 370.496 153.971 370.383 154.373C370.41 154.33 378.155 141.397 374.473 121.665C369.431 94.6323 344.442 80.2041 344.442 80.2041ZM373.232 145.233C372.881 146.587 372.503 147.801 372.131 148.865C372.774 144.455 373.247 137.783 372.195 129.799C370.664 118.161 365.482 101.357 349.908 84.7756C352.022 86.4316 354.535 88.5878 357.131 91.2258C361.09 95.2453 364.454 99.5759 367.129 104.093C370.468 109.731 372.738 115.681 373.872 121.775C375.751 131.854 374.562 140.094 373.229 145.233H373.232Z" fill="#1DBFCC" stroke="#FFC567" stroke-width="2" stroke-linejoin="round"></path><path d="M361.507 85.2695C385.993 110.192 384.529 144.736 384.517 145.096C384.517 145.096 396.406 107.981 361.507 85.2695ZM385.487 123.72C386.252 130.347 385.688 136.157 385.032 140.009C384.486 130.103 381.446 107.725 365.787 89.0786C371.457 93.5251 375.983 98.6852 379.277 104.474C382.592 110.299 384.682 116.773 385.484 123.72H385.487Z" fill="#1DBFCC" stroke="#FFC567" stroke-width="2" stroke-linejoin="round"></path><path d="M374.473 85.499C394.173 105.325 393.246 132.559 393.237 132.843C393.237 132.843 403.5 104.618 374.473 85.499ZM378.884 89.4941C383.154 92.9952 386.582 96.9293 389.107 101.242C391.825 105.88 393.515 110.964 394.128 116.356C394.683 121.229 394.247 125.484 393.71 128.421C393.158 120.589 390.565 103.864 378.884 89.4941Z" fill="#1DBFCC" stroke="#FFC567" stroke-width="2" stroke-linejoin="round"></path><path d="M24.6172 154.373V154.383V154.376V154.373Z" fill="#1DBFCC" stroke="#1DBFCC" stroke-width="2" stroke-linejoin="round"></path><path d="M50.5547 80.2041C50.5547 80.2041 25.5656 94.6323 20.5239 121.665C16.8425 141.397 24.5896 154.33 24.614 154.373C24.5011 153.971 12.7066 115.346 50.5547 80.2041ZM22.8663 148.865C22.4973 147.804 22.1191 146.596 21.7713 145.248C20.4385 140.107 19.2429 131.863 21.1247 121.775C22.2594 115.688 24.5255 109.744 27.8593 104.111C30.5311 99.5972 33.8892 95.2697 37.8421 91.2502C40.4438 88.6061 42.9662 86.4408 45.089 84.7787C29.5185 101.357 24.3364 118.161 22.8053 129.799C21.753 137.783 22.2258 144.455 22.8694 148.865H22.8663Z" fill="#FFC567" stroke="#FFC567" stroke-width="2" stroke-linejoin="round"></path><path d="M33.4894 85.2695C-1.40621 107.981 10.4798 145.093 10.4798 145.093C10.4676 144.736 9.00362 110.192 33.4894 85.2695ZM9.50993 123.72C10.3121 116.776 12.4014 110.299 15.7168 104.474C19.0108 98.6852 23.5371 93.522 29.2072 89.0756C13.5512 107.722 10.5103 130.1 9.96134 140.009C9.30862 136.157 8.74132 130.347 9.50688 123.717L9.50993 123.72Z" fill="#FFC567" stroke="#FFC567" stroke-width="2" stroke-linejoin="round"></path><path d="M20.524 85.499C-8.50333 104.618 1.76009 132.843 1.76009 132.843C1.75094 132.559 0.823726 105.325 20.524 85.499ZM0.869476 116.356C1.48254 110.964 3.17226 105.88 5.88986 101.242C8.4153 96.9324 11.8436 92.9952 16.1136 89.4941C4.43194 103.861 1.84244 120.586 1.28733 128.421C0.750524 125.484 0.314366 121.226 0.869476 116.356Z" fill="#FFC567" stroke="#FFC567" stroke-width="2" stroke-linejoin="round"></path></g><defs><clipPath id="clip0_921_665"><rect width="395" height="429" fill="white"></rect></clipPath></defs></svg>