<svg xmlns="http://www.w3.org/2000/svg" width="452" height="514" viewBox="0 0 452 514" fill="none"><g clip-path="url(#clip0_921_457)"><path d="M434.305 44.6308C434.588 44.6308 434.846 44.4342 434.907 44.1449L435.731 40.3615C435.804 40.0273 435.594 39.6987 435.26 39.6257C434.93 39.5526 434.599 39.7661 434.526 40.0975L433.702 43.8809C433.63 44.2151 433.84 44.5438 434.173 44.6168C434.218 44.6252 434.263 44.6308 434.305 44.6308Z" fill="#FFC567"></path><path d="M431.421 57.874C431.704 57.874 431.962 57.6774 432.024 57.3881L432.848 53.6047C432.921 53.2705 432.708 52.9419 432.374 52.8688C432.044 52.7958 431.713 53.0093 431.64 53.3407L430.816 57.1241C430.743 57.4583 430.954 57.7869 431.287 57.86C431.332 57.8684 431.377 57.874 431.419 57.874H431.421Z" fill="#FFC567"></path><path d="M441.77 51.2084C442.053 51.2084 442.311 51.0118 442.372 50.7197C442.445 50.3854 442.232 50.0568 441.899 49.9838L438.121 49.1608C437.791 49.0878 437.46 49.3012 437.387 49.6355C437.314 49.9697 437.527 50.2983 437.861 50.3714L441.638 51.1943C441.683 51.2028 441.725 51.2084 441.77 51.2084Z" fill="#FFC567"></path><path d="M428.555 48.3325C428.838 48.3325 429.096 48.1359 429.158 47.8438C429.23 47.5096 429.017 47.181 428.684 47.1079L424.91 46.285C424.579 46.2119 424.248 46.4226 424.175 46.7596C424.103 47.0939 424.316 47.4225 424.649 47.4955L428.423 48.3185C428.468 48.3269 428.51 48.3325 428.555 48.3325Z" fill="#FFC567"></path><path d="M10.1436 96.7305C10.4266 96.7305 10.6844 96.5338 10.7461 96.2445L11.5699 92.4612C11.6427 92.1269 11.4326 91.7983 11.0963 91.7253C10.7657 91.6522 10.435 91.8657 10.3622 92.1971L9.53835 95.9805C9.4655 96.3148 9.67565 96.6434 10.0091 96.7164C10.0539 96.7248 10.0988 96.7305 10.1408 96.7305H10.1436Z" fill="#FFC567"></path><path d="M7.26287 109.974C7.54588 109.974 7.80368 109.777 7.86532 109.488L8.68914 105.704C8.76199 105.37 8.55184 105.041 8.21839 104.968C7.88494 104.895 7.55709 105.109 7.48424 105.44L6.66042 109.224C6.58757 109.558 6.79773 109.887 7.13117 109.96C7.17601 109.968 7.22084 109.974 7.26287 109.974Z" fill="#FFC567"></path><path d="M17.6112 103.308C17.8943 103.308 18.1521 103.111 18.2137 102.819C18.2866 102.485 18.0736 102.156 17.7401 102.083L13.9657 101.26C13.6323 101.187 13.3044 101.401 13.2316 101.735C13.1587 102.069 13.3717 102.398 13.7051 102.471L17.4795 103.294C17.5244 103.302 17.5664 103.308 17.6112 103.308Z" fill="#FFC567"></path><path d="M4.39383 100.432C4.67685 100.432 4.93464 100.236 4.99628 99.9434C5.06914 99.6092 4.85618 99.2806 4.52273 99.2075L0.74551 98.3846C0.41206 98.3116 0.0842155 98.5222 0.0113611 98.8564C-0.0614933 99.1907 0.151466 99.5193 0.484915 99.5923L4.26214 100.415C4.30697 100.424 4.349 100.429 4.39383 100.429V100.432Z" fill="#FFC567"></path><path d="M446.32 73.3417C447.615 73.3417 448.915 72.9007 449.98 72.0019C452.376 69.9768 452.684 66.376 450.664 63.9773C448.646 61.5787 445.054 61.2725 442.658 63.2976C441.498 64.2779 440.786 65.6542 440.657 67.1681C440.528 68.6848 440.996 70.1594 441.974 71.3222C443.095 72.6564 444.703 73.3417 446.32 73.3417ZM446.32 63.1965C447.587 63.1965 448.842 63.733 449.722 64.7778C451.302 66.6569 451.061 69.474 449.187 71.0582C447.312 72.6423 444.502 72.4036 442.921 70.5273C442.156 69.6173 441.792 68.4629 441.893 67.2776C441.994 66.0923 442.551 65.0166 443.459 64.247C444.294 63.542 445.311 63.1993 446.326 63.1993L446.32 63.1965Z" fill="#FFC567"></path><path d="M89.0171 70.7607H373.839C382.822 70.7607 390.284 78.0607 390.503 87.0683L399.884 473.554C400.103 482.559 392.997 489.862 384.01 489.862H99.1915C90.2052 489.862 82.746 482.562 82.5274 473.554L73.146 87.0683C72.9275 78.0635 80.0336 70.7607 89.0199 70.7607H89.0171Z" fill="#002345"></path><path d="M97.4819 70.7607H382.303C391.287 70.7607 398.749 78.0607 398.968 87.0683L408.349 473.554C408.568 482.559 401.461 489.862 392.475 489.862H107.656C98.67 489.862 91.2108 482.562 90.9923 473.554L81.6109 87.0683C81.3923 78.0635 88.4984 70.7607 97.4847 70.7607H97.4819Z" fill="white"></path><path d="M107.657 490.482H392.478C396.99 490.482 401.19 488.721 404.306 485.522C407.422 482.323 409.078 478.068 408.968 473.543L399.587 87.057C399.36 77.7319 391.607 70.1455 382.304 70.1455H97.4822C92.9708 70.1455 88.7705 71.9066 85.6546 75.1057C82.5387 78.3049 80.8826 82.5601 80.9919 87.085L90.3733 473.571C90.6003 482.896 98.3509 490.482 107.654 490.482H107.657ZM382.304 71.3814C390.943 71.3814 398.141 78.4257 398.351 87.085L407.733 473.571C407.834 477.759 406.304 481.697 403.423 484.657C400.543 487.615 396.656 489.244 392.478 489.244H107.657C99.0178 489.244 91.8192 482.199 91.609 473.54L82.2276 87.0541C82.1267 82.8663 83.6567 78.9284 86.5372 75.968C89.4178 73.0104 93.3043 71.3814 97.4822 71.3814H382.304Z" fill="#1DBFCC"></path><path d="M127.532 448.655H376.243C376.408 448.655 376.568 448.587 376.685 448.469C376.803 448.351 376.865 448.188 376.862 448.023L368.332 96.6263C368.324 96.2893 368.049 96.0225 367.716 96.0225H119.002C118.837 96.0225 118.677 96.0899 118.559 96.2078C118.442 96.3258 118.38 96.4887 118.383 96.6544L126.912 448.051C126.921 448.388 127.195 448.655 127.529 448.655H127.532ZM375.609 447.416H128.134L119.635 97.2583H367.111L375.609 447.416Z" fill="#1DBFCC"></path><path d="M160.238 155.883H332.791C334.035 155.883 335.248 155.371 336.117 154.478C336.985 153.585 337.467 152.358 337.437 151.113L337.246 143.277C337.184 140.729 335.144 138.732 332.603 138.732H160.05C158.806 138.732 157.595 139.244 156.724 140.137C155.855 141.03 155.373 142.257 155.404 143.502L155.595 151.338C155.656 153.886 157.696 155.883 160.241 155.883H160.238ZM332.6 139.971C334.466 139.971 335.965 141.437 336.01 143.308L336.201 151.144C336.223 152.06 335.87 152.959 335.231 153.616C334.592 154.27 333.704 154.647 332.791 154.647H160.238C158.372 154.647 156.873 153.181 156.828 151.31L156.637 143.474C156.615 142.558 156.968 141.656 157.607 141.002C158.246 140.347 159.134 139.971 160.047 139.971H332.6Z" fill="#1DBFCC"></path><path d="M142.66 179.437C142.705 181.347 144.26 182.872 146.166 182.872H346.992C347.936 182.872 348.841 182.49 349.5 181.813C350.161 181.136 350.52 180.22 350.497 179.274L350.393 174.687C350.349 172.777 348.793 171.252 346.888 171.252H146.062C145.118 171.252 144.213 171.634 143.554 172.311C142.893 172.988 142.534 173.903 142.557 174.85L142.66 179.437Z" fill="#1DBFCC"></path><path d="M143.086 198.05C143.131 199.96 144.686 201.485 146.592 201.485H347.418C348.362 201.485 349.267 201.103 349.925 200.426C350.587 199.749 350.945 198.834 350.923 197.887L350.819 193.3C350.774 191.39 349.219 189.865 347.314 189.865H146.488C145.544 189.865 144.638 190.247 143.98 190.924C143.321 191.601 142.96 192.517 142.982 193.463L143.086 198.05Z" fill="#1DBFCC"></path><path d="M143.512 216.666C143.557 218.576 145.112 220.101 147.017 220.101H347.843C348.788 220.101 349.693 219.719 350.351 219.042C351.012 218.365 351.371 217.45 351.349 216.503L351.245 211.917C351.2 210.007 349.645 208.481 347.74 208.481H146.914C145.969 208.481 145.064 208.863 144.406 209.54C143.747 210.217 143.386 211.133 143.408 212.079L143.512 216.666Z" fill="#1DBFCC"></path><path d="M174.366 295.177C174.862 288.149 181.797 283.217 189.85 284.161C195.855 284.866 200.787 288.635 202.703 293.421C212.606 291.868 217.24 284.807 217.288 284.731C217.372 284.599 217.465 284.481 217.566 284.377C215.954 278.532 215.475 272.122 216.644 266.342C219.746 251.003 233.512 244.689 243.953 243.17C244.908 242.92 251.555 242.92 252.51 243.17C262.951 244.689 276.718 251.003 279.82 266.342C280.988 272.122 280.509 278.535 278.898 284.377C278.996 284.481 279.091 284.599 279.175 284.731C279.223 284.807 283.857 291.868 293.76 293.421C295.677 288.635 300.608 284.863 306.613 284.161C314.669 283.217 321.602 288.149 322.098 295.177C322.594 302.204 316.468 308.667 308.412 309.611C300.356 310.554 293.424 305.622 292.928 298.595C292.928 298.567 292.928 298.536 292.925 298.508C284.395 297.061 279.245 291.989 277.152 289.464C274.952 294.75 271.814 299.145 268.222 301.53C263.937 304.37 260.883 303.1 258.28 307.347C257.495 308.628 256.526 310.776 255.567 328.286C255.161 335.712 255.108 339.476 252.855 341.664C251.675 342.81 250.201 343.22 249.089 343.361C249.058 343.389 247.618 343.417 247.509 343.408C247.453 343.403 247.408 343.389 247.377 343.361C246.265 343.22 244.791 342.81 243.611 341.664C241.358 339.479 241.305 335.712 240.899 328.286C239.94 310.776 238.974 308.63 238.186 307.347C235.583 303.103 232.529 304.372 228.244 301.53C224.652 299.148 221.514 294.75 219.314 289.464C217.221 291.989 212.071 297.061 203.541 298.508C203.541 298.536 203.541 298.567 203.538 298.595C203.039 305.622 196.107 310.554 188.054 309.611C179.998 308.667 173.872 302.204 174.368 295.177H174.366Z" fill="white"></path><path d="M248.089 344.037C248.439 344.037 248.865 344.021 249.165 343.956V343.97C250.316 343.824 251.967 343.383 253.284 342.105C255.565 339.892 255.758 336.277 256.108 329.71L256.184 328.317C257.092 311.729 257.977 309.021 258.804 307.67C260.255 305.305 261.839 304.799 263.842 304.159C265.224 303.718 266.79 303.218 268.561 302.044C271.946 299.8 275.036 295.764 277.329 290.612C279.873 293.441 284.76 297.612 292.348 299.033C292.673 302.114 294.203 304.923 296.683 306.985C299.785 309.56 304.089 310.74 308.485 310.226C316.849 309.246 323.232 302.474 322.714 295.132C322.484 291.899 320.935 288.936 318.343 286.784C315.241 284.208 310.94 283.029 306.54 283.543C300.673 284.231 295.565 287.812 293.382 292.727C284.138 291.081 279.738 284.458 279.694 284.391C279.657 284.335 279.618 284.279 279.579 284.222C281.229 278.063 281.529 271.681 280.425 266.213C276.639 247.495 258.232 243.378 252.628 242.555C251.451 242.285 245.012 242.285 243.835 242.555C238.231 243.375 219.824 247.495 216.038 266.213C214.934 271.681 215.234 278.066 216.885 284.222C216.843 284.279 216.806 284.335 216.767 284.394C216.725 284.458 212.323 291.079 203.082 292.727C200.899 287.812 195.79 284.231 189.923 283.543C185.521 283.026 181.222 284.208 178.12 286.784C175.531 288.936 173.979 291.899 173.749 295.129C173.231 302.471 179.614 309.243 187.978 310.223C192.378 310.737 196.679 309.557 199.781 306.982C202.266 304.92 203.793 302.109 204.115 299.03C211.704 297.609 216.59 293.441 219.135 290.61C221.427 295.758 224.518 299.797 227.902 302.041C229.673 303.215 231.24 303.715 232.621 304.156C234.625 304.797 236.208 305.299 237.659 307.667C238.489 309.018 239.374 311.726 240.279 328.314L240.355 329.71C240.705 336.274 240.899 339.889 243.179 342.102C244.454 343.341 246.038 343.793 247.181 343.953C247.268 343.99 247.363 344.012 247.461 344.021C247.467 344.021 247.738 344.037 248.086 344.037H248.089ZM248.966 342.748C248.767 342.765 247.904 342.785 247.618 342.785C247.565 342.762 247.509 342.748 247.453 342.74C246.489 342.619 245.113 342.254 244.04 341.212C242.106 339.336 241.935 336.097 241.591 329.643L241.515 328.244C240.515 309.953 239.472 308.257 238.713 307.015C237.023 304.257 235.067 303.634 232.997 302.974C231.629 302.538 230.211 302.086 228.583 301.008C225.204 298.766 222.113 294.581 219.88 289.219C219.796 289.02 219.617 288.877 219.401 288.846C219.185 288.809 218.972 288.896 218.835 289.062C216.596 291.764 211.619 296.502 203.435 297.893C203.152 297.94 202.939 298.176 202.922 298.466C202.922 298.474 202.922 298.527 202.922 298.536C202.717 301.44 201.322 304.097 198.993 306.03C196.149 308.389 192.187 309.47 188.121 308.993C180.401 308.088 174.509 301.909 174.979 295.216C175.184 292.326 176.579 289.669 178.905 287.736C181.749 285.377 185.711 284.295 189.777 284.77C195.384 285.427 200.232 288.913 202.129 293.649C202.235 293.915 202.518 294.076 202.796 294.031C212.973 292.435 217.756 285.138 217.804 285.062C217.865 284.967 217.933 284.877 218.008 284.798C218.157 284.641 218.213 284.416 218.157 284.208C216.484 278.136 216.159 271.833 217.246 266.46C220.878 248.504 238.671 244.56 244.037 243.779C244.059 243.777 244.082 243.771 244.104 243.765C244.95 243.543 251.502 243.543 252.351 243.765C252.373 243.771 252.396 243.777 252.418 243.779C257.784 244.56 275.58 248.506 279.209 266.46C280.296 271.833 279.971 278.136 278.298 284.208C278.239 284.419 278.298 284.641 278.447 284.798C278.522 284.877 278.59 284.967 278.651 285.062C278.699 285.135 283.482 292.432 293.659 294.028C293.939 294.076 294.22 293.915 294.326 293.646C296.223 288.91 301.071 285.427 306.678 284.767C310.746 284.293 314.706 285.371 317.55 287.733C319.876 289.666 321.271 292.323 321.476 295.213C321.949 301.904 316.053 308.086 308.334 308.99C304.271 309.467 300.306 308.386 297.464 306.027C295.136 304.094 293.743 301.437 293.536 298.547V298.466C293.516 298.179 293.303 297.94 293.02 297.893C284.835 296.502 279.859 291.764 277.62 289.062C277.483 288.896 277.27 288.809 277.054 288.846C276.841 288.877 276.659 289.02 276.575 289.219C274.344 294.578 271.254 298.766 267.871 301.008C266.243 302.086 264.828 302.538 263.458 302.974C261.387 303.634 259.434 304.257 257.742 307.015C256.983 308.254 255.94 309.953 254.94 328.244L254.864 329.64C254.52 336.094 254.349 339.336 252.415 341.212C251.342 342.254 249.966 342.619 249.002 342.74C248.988 342.74 248.971 342.745 248.955 342.748H248.966Z" fill="#1DBFCC"></path><path d="M165.895 293.483C166.103 292.23 167.061 291.427 168.039 291.691C168.072 291.699 169.866 292.166 171.945 291.859C174.769 291.444 176.874 288.292 176.812 284.633V284.585C176.765 282.296 176.585 279.967 176.372 277.566C176.266 276.364 176.145 275.147 176.05 273.853C176.002 273.209 175.963 272.527 175.949 271.794C175.969 271.021 175.955 270.241 176.058 269.474C176.196 267.926 176.58 266.429 177.053 265.011C177.328 264.328 177.572 263.609 177.913 262.988L178.404 262.028C178.583 261.727 178.771 261.438 178.956 261.143C180.455 258.815 182.307 257.037 184.246 255.747C186.188 254.453 188.205 253.548 190.226 252.883C190.73 252.722 191.237 252.599 191.742 252.456L192.501 252.251L193.26 252.099L194.779 251.804C195.314 251.731 195.908 251.675 196.46 251.644C198.677 251.579 200.742 251.908 202.748 252.36C204.752 252.812 206.688 253.444 208.582 254.169C210.477 254.894 212.34 255.677 214.17 256.545C215.999 257.416 217.801 258.351 219.586 259.317C221.371 260.292 223.125 261.331 224.874 262.39C226.81 263.589 228.721 264.825 230.61 266.129C232.448 267.395 234.628 267.628 236.584 266.699C239.73 265.202 243.799 264.3 248.24 264.3C252.682 264.3 256.75 265.202 259.897 266.699C261.853 267.628 264.033 267.395 265.871 266.129C267.76 264.825 269.671 263.592 271.607 262.39C273.353 261.331 275.11 260.292 276.895 259.317C278.682 258.351 280.481 257.416 282.311 256.545C284.144 255.68 286.007 254.894 287.898 254.169C289.793 253.444 291.729 252.812 293.732 252.36C295.739 251.908 297.801 251.579 300.02 251.644C300.572 251.675 301.169 251.728 301.701 251.804L303.22 252.099L303.98 252.251L304.739 252.456C305.246 252.599 305.75 252.722 306.255 252.883C308.275 253.548 310.293 254.45 312.235 255.747C314.174 257.037 316.026 258.815 317.525 261.143C317.71 261.438 317.898 261.727 318.077 262.028L318.567 262.988C318.909 263.612 319.153 264.331 319.428 265.011C319.901 266.432 320.285 267.926 320.422 269.474C320.526 270.241 320.512 271.021 320.532 271.794C320.518 272.527 320.478 273.209 320.431 273.853C320.335 275.147 320.215 276.364 320.108 277.566C319.895 279.964 319.716 282.293 319.668 284.585V284.633C319.598 288.287 321.694 291.435 324.513 291.857C326.604 292.168 328.405 291.699 328.439 291.691C329.414 291.427 330.375 292.227 330.583 293.483C330.79 294.738 330.174 295.971 329.198 296.241C329.061 296.278 327.767 296.623 325.99 296.623C325.805 296.623 325.612 296.62 325.416 296.612C324.258 296.561 323.737 298.466 324.676 299.336C325.177 299.8 325.665 300.19 326.077 300.406L326.096 300.418C326.702 300.738 327.094 301.541 326.988 302.37C326.845 303.482 325.998 304.094 325.228 303.813C324.222 303.44 323.202 303.016 322.244 302.336C321.288 301.668 320.369 300.845 319.576 299.831C318.78 298.825 318.094 297.674 317.539 296.443C316.981 295.213 316.567 293.913 316.23 292.601C315.891 291.289 315.659 289.958 315.505 288.638C315.345 287.315 315.238 285.995 315.188 284.694C315.135 283.391 315.121 282.099 315.135 280.818C315.157 279.54 315.205 278.282 315.255 277.041C315.308 275.805 315.37 274.583 315.401 273.434C315.418 272.855 315.421 272.316 315.407 271.825C315.359 271.375 315.364 270.923 315.272 270.491C315.171 269.603 314.905 268.769 314.608 267.957C314.42 267.572 314.286 267.154 314.053 266.794L313.742 266.232L313.375 265.71C312.4 264.308 311.1 263.177 309.648 262.261C308.191 261.351 306.583 260.677 304.907 260.182C304.487 260.064 304.055 259.977 303.629 259.871L302.99 259.716L302.338 259.609L301.029 259.399C300.617 259.354 300.264 259.323 299.863 259.303C298.272 259.27 296.54 259.534 294.803 259.947C291.317 260.792 287.764 262.129 284.258 263.665C278.856 266.025 273.473 268.802 268.155 271.707C266.913 272.384 265.966 273.715 265.552 275.364C263.957 281.742 258.902 298.3 252.452 302.479C251.152 303.322 250.42 305.15 250.709 306.987C251.81 313.978 252.528 324.427 252.528 331.89C252.528 344.096 250.605 343.698 248.235 343.698C245.864 343.698 243.942 344.096 243.942 331.89C243.942 324.418 244.662 313.961 245.763 306.97C246.052 305.139 245.332 303.328 244.034 302.491C237.161 298.061 233.022 281.49 231.128 275.055C230.722 273.676 229.895 272.572 228.839 271.993C223.349 268.985 217.793 266.103 212.214 263.665C208.708 262.129 205.155 260.795 201.67 259.947C199.932 259.534 198.201 259.267 196.609 259.303C196.211 259.326 195.855 259.357 195.443 259.399L194.135 259.609L193.482 259.716L192.843 259.871C192.417 259.977 191.986 260.064 191.565 260.182C189.89 260.677 188.281 261.351 186.824 262.261C185.375 263.177 184.072 264.311 183.097 265.71L182.733 266.232L182.422 266.794C182.189 267.154 182.055 267.569 181.867 267.957C181.573 268.769 181.307 269.603 181.206 270.491C181.113 270.926 181.119 271.378 181.071 271.825C181.057 272.313 181.06 272.855 181.077 273.434C181.108 274.583 181.169 275.805 181.223 277.041C181.276 278.279 181.324 279.54 181.343 280.818C181.357 282.096 181.343 283.388 181.29 284.694C181.239 285.998 181.133 287.318 180.973 288.638C180.816 289.961 180.587 291.289 180.248 292.601C179.911 293.91 179.497 295.213 178.939 296.443C178.384 297.674 177.698 298.825 176.902 299.831C176.109 300.845 175.187 301.668 174.234 302.336C173.276 303.016 172.256 303.44 171.25 303.813C170.479 304.094 169.633 303.479 169.49 302.367C169.384 301.538 169.779 300.732 170.384 300.415L170.404 300.404C170.816 300.187 171.303 299.797 171.805 299.334C172.744 298.466 172.222 296.561 171.065 296.609C170.869 296.617 170.676 296.62 170.491 296.62C168.714 296.62 167.42 296.275 167.282 296.238C166.307 295.969 165.691 294.736 165.898 293.48L165.895 293.483Z" fill="#FFC567"></path><path d="M145.067 423.657H354.991C355.157 423.657 355.316 423.589 355.431 423.471C355.549 423.353 355.611 423.193 355.608 423.025L351.971 234.99C351.965 234.653 351.691 234.384 351.354 234.384H141.427C141.262 234.384 141.102 234.451 140.987 234.569C140.869 234.687 140.808 234.847 140.811 235.016L144.448 423.05C144.453 423.387 144.728 423.657 145.064 423.657H145.067ZM354.361 422.418H145.672L142.058 235.622H350.746L354.361 422.418Z" fill="#1DBFCC"></path><path d="M261.519 392.679H340.942L340.816 386.646H261.393L261.519 392.679Z" fill="#1DBFCC"></path><path d="M261.719 402.344H341.141L341.015 396.311H261.595L261.719 402.344Z" fill="#1DBFCC"></path><path d="M261.92 412.009H341.343L341.216 405.976H261.794L261.92 412.009Z" fill="#1DBFCC"></path><path d="M261.427 372.872H340.847L340.723 366.839H261.301L261.427 372.872Z" fill="#1DBFCC"></path><path d="M261.427 363.563H340.847L340.723 357.53H261.301L261.427 363.563Z" fill="#1DBFCC"></path><path d="M261.626 382.536H341.048L340.922 376.503H261.502L261.626 382.536Z" fill="#1DBFCC"></path><path d="M278.556 332.897H324.603L324.53 326.864H278.483L278.556 332.897Z" fill="#1DBFCC"></path><path d="M278.671 342.562H324.718L324.645 336.529H278.598L278.671 342.562Z" fill="#1DBFCC"></path><path d="M156.604 357.62H236.026L235.9 351.587H156.478L156.604 357.62Z" fill="#1DBFCC"></path><path d="M156.805 367.285H236.225L236.102 361.252H156.679L156.805 367.285Z" fill="#1DBFCC"></path><path d="M157.004 376.947H236.427L236.301 370.917H156.881L157.004 376.947Z" fill="#1DBFCC"></path><path d="M156.898 392.99H236.32L236.194 386.957H156.771L156.898 392.99Z" fill="#1DBFCC"></path><path d="M157.099 402.655H236.522L236.396 396.622H156.973L157.099 402.655Z" fill="#1DBFCC"></path><path d="M157.301 412.32H236.721L236.597 406.287H157.175L157.301 412.32Z" fill="#1DBFCC"></path><path d="M125.509 490.482H338.148C338.49 490.482 338.765 490.204 338.765 489.864C338.765 489.524 338.487 489.246 338.148 489.246H125.509C125.167 489.246 124.892 489.524 124.892 489.864C124.892 490.204 125.17 490.482 125.509 490.482Z" fill="#1DBFCC"></path><path d="M155.984 117.071H319.537C325.589 117.071 330.378 112.153 330.23 106.086L329.731 85.5681C329.395 71.7491 317.948 60.5479 304.162 60.5479H168.611C154.824 60.5479 143.921 71.7491 144.258 85.5681L144.756 106.086C144.905 112.153 149.929 117.071 155.982 117.071H155.984Z" fill="black"></path><path d="M234.936 0.618164C251.821 0.618164 265.84 14.3389 266.252 31.2644L267.412 79.0495C267.544 84.4395 263.29 88.8071 257.913 88.8071H216.238C210.86 88.8071 206.397 84.4395 206.265 79.0495L205.105 31.2644C204.693 14.3389 218.048 0.618164 234.933 0.618164H234.936ZM235.746 33.986C241 33.986 245.153 29.7167 245.026 24.4532C244.898 19.1868 240.537 14.9203 235.284 14.9203C230.03 14.9203 225.877 19.1896 226.003 24.4532C226.132 29.7196 230.492 33.986 235.746 33.986Z" fill="#002345"></path><path d="M159.24 117.071H322.793C328.845 117.071 333.634 112.153 333.486 106.086L332.987 85.5681C332.651 71.7491 321.204 60.5479 307.418 60.5479H171.866C158.08 60.5479 147.177 71.7491 147.513 85.5681L148.012 106.086C148.161 112.153 153.185 117.071 159.237 117.071H159.24Z" fill="white"></path><path d="M159.24 117.689H322.795C325.889 117.689 328.77 116.481 330.908 114.284C333.046 112.088 334.18 109.172 334.105 106.069L333.606 85.5509C333.264 71.4229 321.515 59.9268 307.42 59.9268H171.869C165.035 59.9268 158.674 62.5951 153.958 67.4401C149.239 72.2852 146.732 78.7285 146.897 85.5818L147.396 106.1C147.553 112.49 152.865 117.689 159.24 117.689ZM307.42 61.1654C320.851 61.1654 332.045 72.1195 332.37 85.5818L332.869 106.1C332.936 108.866 331.925 111.467 330.022 113.422C328.119 115.377 325.553 116.453 322.795 116.453H159.24C153.529 116.453 148.771 111.796 148.631 106.072L148.133 85.5537C147.973 79.0374 150.357 72.9116 154.841 68.3052C159.324 63.7017 165.371 61.1654 171.869 61.1654H307.42Z" fill="#002345"></path><path d="M238.192 0.618164C255.077 0.618164 269.096 14.3389 269.508 31.2644L270.668 79.0495C270.8 84.4395 266.546 88.8071 261.169 88.8071H219.494C214.116 88.8071 209.653 84.4395 209.521 79.0495L208.361 31.2644C207.949 14.3389 221.304 0.618164 238.189 0.618164H238.192ZM239.002 33.986C244.256 33.986 248.408 29.7167 248.282 24.4532C248.153 19.1868 243.793 14.9203 238.539 14.9203C233.285 14.9203 229.133 19.1896 229.259 24.4532C229.388 29.7196 233.748 33.986 239.002 33.986Z" fill="#FFC567"></path><path d="M219.493 89.4275H261.169C263.937 89.4275 266.513 88.3461 268.424 86.3828C270.335 84.4195 271.352 81.8102 271.285 79.0351L270.124 31.2471C269.707 14.0155 255.38 -0.00292969 238.192 -0.00292969C229.858 -0.00292969 222.102 3.24959 216.352 9.15638C210.6 15.066 207.542 22.922 207.744 31.2752L208.904 79.0632C209.044 84.7762 213.794 89.4246 219.493 89.4246V89.4275ZM238.192 1.23853C254.719 1.23853 268.488 14.7149 268.892 31.2809L270.052 79.0688C270.11 81.5068 269.219 83.7987 267.544 85.5233C265.868 87.2451 263.604 88.1944 261.172 88.1944H219.496C214.461 88.1944 210.263 84.088 210.143 79.0407L208.983 31.2528C208.787 23.2338 211.72 15.6951 217.241 10.0271C222.758 4.36186 230.2 1.24134 238.195 1.24134L238.192 1.23853ZM239.002 34.6064C241.708 34.6064 244.23 33.5475 246.099 31.6291C247.971 29.708 248.963 27.1548 248.899 24.4388C248.764 18.8494 244.115 14.302 238.539 14.302C235.832 14.302 233.311 15.3581 231.442 17.2793C229.57 19.2004 228.578 21.7536 228.642 24.4697C228.777 30.059 233.425 34.6064 239.002 34.6064ZM238.539 15.5378C243.451 15.5378 247.545 19.5431 247.666 24.4668C247.725 26.8458 246.853 29.0816 245.219 30.7612C243.583 32.4409 241.378 33.3649 239.004 33.3649C234.092 33.3649 229.998 29.3597 229.878 24.4359C229.819 22.0569 230.691 19.8212 232.324 18.1416C233.961 16.4619 236.166 15.5378 238.539 15.5378Z" fill="#1DBFCC"></path><path d="M64.6275 366.471C64.6275 366.471 57.7736 374.636 37.4948 375.262C19.6819 375.813 19.4045 370.72 19.6063 368.047C19.8164 365.235 21.7723 361.6 37.2202 359.879C54.4867 357.955 64.6247 366.471 64.6247 366.471H64.6275Z" fill="#1DBFCC"></path><path d="M39.9048 508.674C46.868 508.674 52.3937 507.124 52.7132 507.031C53.041 506.938 53.2316 506.596 53.1363 506.267C53.041 505.938 52.702 505.747 52.3741 505.843C52.2677 505.874 41.5917 508.865 31.4033 506.54C31.0726 506.461 30.7392 506.672 30.6635 507.006C30.5879 507.34 30.7952 507.671 31.1287 507.747C34.1213 508.43 37.1279 508.677 39.9048 508.677V508.674Z" fill="#1DBFCC"></path><path d="M38.2964 468.833L39.9132 484.261L50.3202 485.486V467.189L38.2964 468.833Z" fill="white"></path><path d="M50.3199 486.104C50.4712 486.104 50.6169 486.048 50.7318 485.946C50.8635 485.828 50.9391 485.66 50.9391 485.483V467.187C50.9391 467.007 50.8607 466.839 50.7262 466.721C50.5917 466.603 50.4123 466.549 50.2358 466.575L38.212 468.218C37.8814 468.263 37.646 468.563 37.6824 468.895L39.2992 484.323C39.3301 484.609 39.5542 484.84 39.84 484.873L50.247 486.095C50.2722 486.095 50.2946 486.101 50.3199 486.101V486.104ZM49.7034 467.897V484.789L40.4761 483.705L38.9742 469.364L49.7034 467.897Z" fill="#1DBFCC"></path><path d="M51.9593 512.346C47.6244 512.958 40.5183 513.495 32.1765 512.34C29.4333 511.961 27.6063 509.307 28.2676 506.613C30.1058 499.122 33.2749 484.91 38.711 478.324L40.0616 481.896L41.9278 478.534C42.1828 478.074 42.6423 477.762 43.1635 477.697L47.249 477.178C48.1036 477.068 48.8966 477.635 49.0731 478.481L49.7232 481.579L51.7659 477.512L53.5088 493.241C53.8535 496.364 54.3411 499.471 54.9687 502.549L55.9018 507.127C56.5323 510.458 54.4812 511.995 51.9593 512.349V512.346Z" fill="white"></path><path d="M42.1211 513.64C46.1029 513.64 49.4934 513.32 52.0461 512.958C53.7498 512.716 55.0639 512.014 55.8429 510.924C56.5827 509.89 56.8069 508.573 56.5098 507.006L55.5739 502.419C54.9519 499.372 54.4643 496.257 54.1224 493.167L52.3795 477.438C52.3487 477.166 52.1442 476.947 51.8752 476.896C51.6034 476.846 51.3372 476.983 51.2139 477.228L49.9641 479.716L49.6783 478.348C49.4373 477.197 48.3361 476.41 47.1733 476.559L43.0878 477.079C42.3733 477.169 41.74 477.601 41.3897 478.23L40.1708 480.43L39.291 478.104C39.2125 477.899 39.0304 477.75 38.8146 477.714C38.5989 477.677 38.3775 477.758 38.2374 477.93C33.0787 484.176 29.9404 497.113 28.063 504.843L27.6679 506.464C27.312 507.907 27.5866 509.441 28.4217 510.671C29.2623 511.916 30.6017 512.747 32.0924 512.952C35.7015 513.452 39.0808 513.64 42.1211 513.64ZM51.3848 479.649L52.8979 493.305C53.2454 496.434 53.7386 499.582 54.3662 502.669L55.2993 507.247C55.5291 508.458 55.375 509.458 54.8398 510.205C54.1112 511.225 52.8251 511.598 51.8752 511.733C47.4535 512.357 40.4594 512.862 32.2633 511.727C31.1173 511.57 30.0889 510.93 29.4444 509.978C28.7999 509.023 28.5954 507.882 28.8672 506.762L29.2623 505.135C31.0304 497.852 33.9334 485.887 38.5232 479.576L39.4843 482.115C39.5712 482.339 39.7785 482.494 40.0167 482.514C40.2633 482.528 40.4847 482.407 40.6023 482.196L42.4685 478.834C42.6283 478.548 42.9169 478.351 43.2419 478.309L47.3274 477.789C47.8514 477.722 48.3585 478.079 48.4706 478.604L49.1207 481.702C49.174 481.96 49.3841 482.154 49.6447 482.188C49.9025 482.219 50.1575 482.087 50.2752 481.854L51.382 479.649H51.3848Z" fill="#1DBFCC"></path><path d="M37.4192 497.2C37.4192 497.2 37.4332 497.2 37.4416 497.2L47.1957 496.877C47.5375 496.866 47.8037 496.58 47.7925 496.237C47.7813 495.894 47.4927 495.633 47.1564 495.639L37.4024 495.962C37.0605 495.973 36.7943 496.26 36.8055 496.602C36.8167 496.936 37.0913 497.2 37.422 497.2H37.4192Z" fill="#1DBFCC"></path><path d="M37.4193 508.961C37.4193 508.961 37.4333 508.961 37.4389 508.961L47.193 508.638C47.3443 508.643 51.8473 508.643 52.3405 505.511C52.3937 505.174 52.1639 504.857 51.8277 504.804C51.4886 504.75 51.1748 504.981 51.1216 505.318C50.7965 507.379 47.2743 507.399 47.179 507.399L37.4389 507.722C33.97 507.374 33.7766 505.944 33.7738 505.927C33.7402 505.596 33.46 505.34 33.1153 505.365C32.7847 505.388 32.5297 505.657 32.5409 505.992C32.5493 506.247 32.7566 508.511 37.3577 508.958C37.3773 508.958 37.3969 508.961 37.4165 508.961H37.4193Z" fill="#1DBFCC"></path><path d="M87.0469 460.617L88.6076 483.135H101.13L101.713 460.617H87.0469Z" fill="white"></path><path d="M88.6076 483.752H101.13C101.464 483.752 101.738 483.486 101.747 483.149L102.329 460.631C102.335 460.465 102.271 460.302 102.153 460.184C102.038 460.064 101.878 459.996 101.71 459.996H87.0441C86.8732 459.996 86.7106 460.066 86.5929 460.193C86.4753 460.319 86.4164 460.488 86.4276 460.659L87.9884 483.177C88.0108 483.5 88.2798 483.752 88.6048 483.752H88.6076ZM100.531 482.514H89.1849L87.711 461.235H101.08L100.531 482.514Z" fill="#1DBFCC"></path><path d="M85.335 495.844C85.3041 497.973 86.7556 499.844 88.8264 500.327C96.0277 502.007 112.246 505.745 116.873 506.436C122.877 507.332 130.258 505.49 133.43 501.967C136.602 498.448 126.327 490.041 121.448 486.983C114.202 482.438 107.242 473.459 104.325 473.057C101.405 472.653 95.9577 481.141 95.9577 481.141L87.0526 477.391C87.0526 477.391 85.5003 485.042 85.3406 495.844H85.335Z" fill="white"></path><path d="M120.011 507.281C125.523 507.281 131.2 505.36 133.884 502.383C134.501 501.7 134.742 500.843 134.601 499.843C133.985 495.422 125.691 488.917 121.771 486.46C118.209 484.227 114.754 480.941 111.708 478.042C108.43 474.924 106.065 472.674 104.403 472.444C101.506 472.045 97.115 478.255 95.7168 480.37L87.2853 476.82C87.1144 476.747 86.921 476.758 86.7557 476.843C86.5932 476.93 86.4755 477.084 86.4391 477.267C86.4223 477.343 84.8727 485.097 84.713 495.833C84.6766 498.24 86.3466 500.383 88.6808 500.928C95.5683 502.534 112.098 506.348 116.775 507.048C117.828 507.205 118.915 507.281 120.005 507.281H120.011ZM104.092 473.66C104.14 473.66 104.188 473.663 104.235 473.669C105.502 473.843 108.105 476.317 110.859 478.938C113.95 481.876 117.453 485.207 121.118 487.507C125.139 490.027 132.861 496.285 133.38 500.015C133.467 500.647 133.332 501.149 132.968 501.554C130 504.846 122.97 506.722 116.959 505.823C112.325 505.132 95.8373 501.326 88.9638 499.723C87.19 499.31 85.9235 497.681 85.9515 495.852C86.0804 487.142 87.134 480.429 87.5151 478.258L95.714 481.71C95.9914 481.825 96.3109 481.727 96.4734 481.474C98.4488 478.401 102.201 473.66 104.095 473.66H104.092Z" fill="#1DBFCC"></path><path d="M119.888 503.156C124.441 503.156 128.448 502.291 131.009 499.971C131.261 499.74 131.281 499.35 131.054 499.097C130.824 498.844 130.435 498.825 130.182 499.052C120.857 507.492 89.1598 494.651 88.8404 494.519C88.5294 494.39 88.1651 494.541 88.0362 494.859C87.9073 495.176 88.0586 495.535 88.3753 495.665C89.3616 496.069 106.863 503.156 119.888 503.156Z" fill="#1DBFCC"></path><path d="M106.006 489.51C106.154 489.51 106.3 489.457 106.421 489.35L112.79 483.59C113.042 483.359 113.062 482.969 112.835 482.716C112.605 482.463 112.215 482.444 111.963 482.671L105.594 488.432C105.342 488.662 105.322 489.053 105.549 489.305C105.67 489.44 105.841 489.51 106.009 489.51H106.006Z" fill="#1DBFCC"></path><path d="M34.7458 313.829C34.7458 313.829 30.8649 384.219 28.8334 408.518C26.8019 432.816 33.5829 471.874 33.5829 471.874L52.9146 470.858C52.9146 470.858 53.8701 436.65 55.0357 418.239C55.3384 413.444 56.3863 408.731 58.1573 404.268C60.766 397.687 64.7058 386.621 66.2637 376.357C68.6847 360.412 76.9285 335.226 76.9285 335.226C76.9285 335.226 83.6227 460.934 84.2672 470.81C84.2672 470.81 99.4265 471.487 104.86 468.06C104.86 468.06 114.491 422.221 113.106 397.285C111.725 372.347 113.241 310.386 113.241 310.386L34.743 313.835L34.7458 313.829Z" fill="#1DBFCC"></path><path d="M33.583 472.495C33.583 472.495 33.6054 472.495 33.6166 472.495L52.9483 471.478C53.2705 471.461 53.5255 471.2 53.5339 470.877C53.5423 470.534 54.5006 436.47 55.6523 418.28C55.9521 413.528 56.9889 408.891 58.7318 404.498C61.6039 397.251 65.3475 386.505 66.8719 376.453C68.7465 364.094 74.2049 345.944 76.4886 338.641C77.5618 358.769 83.0708 461.999 83.648 470.854C83.6676 471.169 83.9226 471.419 84.2364 471.433C84.8641 471.461 99.6535 472.079 105.188 468.588C105.331 468.498 105.429 468.355 105.462 468.192C105.558 467.734 115.093 421.988 113.723 397.254C112.358 372.624 113.843 311.023 113.86 310.405C113.866 310.234 113.799 310.068 113.675 309.947C113.552 309.826 113.387 309.762 113.216 309.77L34.7178 313.219C34.4012 313.233 34.1462 313.486 34.1294 313.804C34.0902 314.509 30.2261 384.463 28.2198 408.475C26.2051 432.574 32.9077 471.599 32.9749 471.989C33.0254 472.287 33.286 472.503 33.583 472.503V472.495ZM52.3122 470.27L34.0986 471.231C33.2972 466.434 27.5753 430.97 29.4471 408.573C31.3609 385.688 34.9588 321.132 35.3287 314.427L112.608 311.031C112.451 317.789 111.198 374.026 112.49 397.319C113.799 420.915 105.087 463.897 104.308 467.669C99.5134 470.456 87.5597 470.287 84.8445 470.211C84.0291 457.03 77.6067 336.431 77.5422 335.195C77.5254 334.897 77.3012 334.653 77.007 334.614C76.7072 334.577 76.4298 334.751 76.3401 335.035C76.2589 335.288 68.0515 360.454 65.6529 376.264C64.1454 386.202 60.4326 396.853 57.5829 404.04C55.7924 408.554 54.7276 413.317 54.4194 418.202C53.349 435.116 52.4439 465.717 52.315 470.273L52.3122 470.27Z" fill="white"></path><path d="M48.4258 413.346C49.6447 413.346 50.8636 413.149 52.0433 412.753C52.3656 412.644 52.5421 412.296 52.4328 411.97C52.3235 411.647 51.9789 411.47 51.651 411.579C49.6447 412.251 47.5123 412.282 45.4864 411.672C45.1586 411.574 44.8139 411.759 44.7187 412.088C44.6206 412.416 44.8055 412.759 45.1334 412.857C46.2122 413.183 47.319 413.343 48.4258 413.343V413.346Z" fill="white"></path><path d="M94.2093 447.354C94.5456 447.354 94.8202 447.085 94.8258 446.748C95.0331 435.459 107.993 414.242 108.125 414.029C108.304 413.736 108.214 413.357 107.923 413.178C107.634 412.998 107.253 413.088 107.074 413.38C106.533 414.262 93.8058 435.1 93.5929 446.725C93.5873 447.068 93.8591 447.349 94.1981 447.354H94.2093Z" fill="white"></path><path d="M177.647 205.133C181.836 200.695 184.274 197.12 184.274 197.12C184.274 197.12 191.739 184.5 197.405 179.939C203.071 175.377 203.959 174.773 203.959 174.773C203.959 174.773 205.736 177.147 203.959 179.939C202.95 181.526 200.927 183.902 199.369 185.655C198.346 186.806 198.327 188.525 199.302 189.719C200.524 191.213 201.602 193.665 200.243 197.12C198.209 202.294 193.488 203.406 191.053 203.628C190.142 203.712 189.377 204.341 189.13 205.223C188.721 206.7 187.993 209.147 186.917 212.211L177.645 205.133H177.647Z" fill="white"></path><path d="M186.919 212.83C186.978 212.83 187.037 212.821 187.096 212.804C187.286 212.748 187.435 212.605 187.502 212.417C188.578 209.361 189.307 206.909 189.73 205.389C189.906 204.755 190.45 204.305 191.111 204.243C193.821 203.996 198.685 202.769 200.821 197.345C202.303 193.579 201.073 190.905 199.781 189.323C198.991 188.357 199.013 186.987 199.834 186.062C201.381 184.321 203.443 181.9 204.483 180.268C206.467 177.15 204.539 174.51 204.458 174.401C204.261 174.137 203.892 174.075 203.617 174.26C203.581 174.285 202.642 174.929 197.021 179.453C191.333 184.032 184.053 196.281 183.745 196.8C183.745 196.8 181.301 200.359 177.199 204.704C177.078 204.83 177.017 205.005 177.031 205.179C177.045 205.353 177.132 205.516 177.272 205.62L186.544 212.698C186.653 212.782 186.785 212.824 186.917 212.824L186.919 212.83ZM203.768 175.687C204.116 176.448 204.502 177.934 203.44 179.605C202.446 181.167 200.428 183.532 198.912 185.239C197.685 186.621 197.651 188.669 198.828 190.107C200.403 192.034 200.686 194.315 199.674 196.89C197.783 201.699 193.429 202.789 191.002 203.01C189.825 203.117 188.858 203.92 188.542 205.055C188.161 206.42 187.53 208.549 186.62 211.201L178.566 205.055C182.456 200.862 184.762 197.502 184.784 197.466C184.879 197.306 192.28 184.857 197.791 180.42C201.367 177.541 203.031 176.246 203.768 175.684V175.687Z" fill="#1DBFCC"></path><path d="M46.055 175.813C46.055 175.813 69.5618 164.421 102.385 176.872C129.863 187.293 97.6303 262.839 102.786 312.813C102.786 312.813 59.5667 319.34 47.4532 302.858C41.0589 294.16 46.055 175.813 46.055 175.813Z" fill="white"></path><path d="M83.7488 314.744C93.8615 314.744 102.111 313.537 102.881 313.421C103.207 313.371 103.436 313.076 103.403 312.744C101.329 292.645 105.252 268.844 109.046 245.826C114.633 211.944 119.459 182.68 102.604 176.287C69.9092 163.887 46.0214 175.136 45.786 175.251C45.5815 175.349 45.447 175.554 45.4386 175.782C45.234 180.624 40.5069 294.446 46.9573 303.22C53.8897 312.649 70.4332 314.741 83.7488 314.741V314.744ZM102.114 312.278C96.941 312.966 58.9531 317.455 47.9492 302.487C43.0091 295.766 44.9342 217.185 46.6547 176.217C49.6221 174.928 72.0725 166.033 102.167 177.445C118.074 183.478 113.325 212.276 107.827 245.624C104.056 268.498 100.158 292.14 102.114 312.278Z" fill="#1DBFCC"></path><path d="M134.938 206.209C134.938 206.209 120.664 185.649 106.482 177.411C104.798 176.431 102.173 175.358 98.813 174.363C93.0463 188.528 84.2197 214.806 88.5966 234.302C93.7832 257.412 92.2897 340.793 91.6088 369.203C119.823 368.585 127.19 367.942 127.19 367.942C130.748 348.356 115.244 233.768 115.244 233.768L134.938 206.212V206.209Z" fill="white"></path><path d="M91.6117 369.821C91.6117 369.821 91.6201 369.821 91.6257 369.821C119.537 369.212 127.17 368.565 127.246 368.56C127.523 368.535 127.75 368.33 127.801 368.054C131.289 348.857 116.887 241.299 115.892 233.931L135.442 206.574C135.593 206.361 135.596 206.074 135.448 205.861C135.305 205.653 120.93 185.093 106.796 176.88C104.969 175.818 102.268 174.743 98.9924 173.774C98.6898 173.684 98.3648 173.838 98.2471 174.133C92.5224 188.199 83.5781 214.739 87.9998 234.442C93.2173 257.682 91.6117 343.458 90.9981 369.192C90.9953 369.36 91.0597 369.523 91.1774 369.644C91.2923 369.759 91.4492 369.827 91.6145 369.827L91.6117 369.821ZM126.663 367.361C124.654 367.504 115.844 368.046 92.245 368.568C92.8727 342.034 94.4054 257.35 89.2019 234.164C84.9063 215.028 93.5003 189.174 99.1774 175.116C102.083 176.006 104.555 177.004 106.177 177.945C119.061 185.43 132.214 203.448 134.184 206.206L114.749 233.406C114.656 233.535 114.617 233.692 114.639 233.85C114.793 234.984 129.852 346.798 126.669 367.361H126.663Z" fill="#1DBFCC"></path><path d="M77.4161 244.307C75.4266 219.371 61.0266 188.365 52.909 172.594C46.1559 173.852 39.1843 175.852 32.2239 178.838C3.33714 191.235 13.5844 233.417 13.5844 233.417L33.1934 230.426L33.2663 255.078C33.3363 278.537 31.7083 301.97 28.3991 325.193L21.1416 367.004C23.7784 358.381 64.3499 364.299 83.2416 366.085C80.0332 319.28 79.6493 272.332 77.4133 244.307H77.4161Z" fill="white"></path><path d="M21.1446 367.623C21.4108 367.623 21.6546 367.451 21.7331 367.184C23.8375 360.309 55.0584 363.69 73.7119 365.71C77.1641 366.083 80.4257 366.437 83.1858 366.699C83.3679 366.713 83.5445 366.654 83.6762 366.524C83.8051 366.398 83.8723 366.221 83.8611 366.038C82.1742 341.42 81.2635 316.669 80.4622 294.831C79.728 274.824 79.0919 257.545 78.0327 244.254C76.0433 219.335 61.7834 188.481 53.4612 172.308C53.3379 172.064 53.0661 171.932 52.7999 171.982C45.5565 173.333 38.5541 175.448 31.9859 178.266C19.951 183.431 12.8561 194.652 11.4606 210.721C10.4154 222.778 12.9625 233.455 12.9878 233.561C13.0634 233.873 13.366 234.075 13.6799 234.028L32.58 231.143L32.65 255.076C32.7201 278.425 31.0837 301.985 27.7884 325.101L20.5338 366.892C20.4777 367.215 20.6823 367.524 20.9989 367.6C21.0466 367.611 21.0942 367.617 21.1418 367.617L21.1446 367.623ZM52.5729 173.288C60.8811 189.486 74.8468 219.86 76.7998 244.355C77.859 257.621 78.4923 274.886 79.2264 294.879C80.0222 316.512 80.9189 340.999 82.5777 365.395C79.9858 365.142 76.9932 364.819 73.8436 364.477C50.1267 361.907 28.4133 360.042 22.1758 364.662L29.0101 325.295C32.3166 302.1 33.9558 278.481 33.8858 255.073L33.8129 230.421C33.8129 230.241 33.7345 230.07 33.5972 229.952C33.4598 229.834 33.2805 229.784 33.104 229.809L14.0638 232.713C13.5678 230.396 11.7913 221.107 12.6907 210.794C14.0666 195.003 20.7215 184.442 32.4679 179.4C38.8174 176.676 45.5789 174.617 52.5729 173.28V173.288Z" fill="#1DBFCC"></path><path d="M110.767 339.124C111.092 339.124 111.364 338.869 111.383 338.54C111.403 338.197 111.142 337.905 110.8 337.889C109.909 337.838 109.142 337.433 108.461 336.653C104.773 332.431 105.264 319.446 105.437 316.362C107.242 316.593 112.344 317.036 117.71 315.601C118.041 315.514 118.234 315.174 118.148 314.843C118.061 314.511 117.719 314.318 117.391 314.405C111.106 316.084 105.028 315.056 104.967 315.045C104.796 315.014 104.619 315.059 104.482 315.166C104.344 315.272 104.258 315.433 104.244 315.607C104.19 316.286 103.013 332.302 107.528 337.47C108.43 338.501 109.506 339.06 110.728 339.127C110.739 339.127 110.75 339.127 110.761 339.127L110.767 339.124Z" fill="#1DBFCC"></path><path d="M57.4878 343.773C60.5393 343.773 63.1116 342.644 65.1291 340.416C71.983 332.852 70.2709 315.185 70.1953 314.435C70.1756 314.253 70.0776 314.09 69.9291 313.986C69.7778 313.882 69.5872 313.851 69.4135 313.902C55.5319 317.828 41.3001 313.208 41.1572 313.163C40.8349 313.053 40.4847 313.233 40.3782 313.556C40.2717 313.882 40.4482 314.23 40.7705 314.337C40.9134 314.385 55.0191 318.963 69.0268 315.289C69.2734 318.713 69.9459 333.26 64.2128 339.582C62.4391 341.54 60.175 342.534 57.485 342.534C57.4626 342.534 57.4401 342.534 57.4177 342.534C57.0787 342.534 56.8013 342.809 56.8013 343.149C56.8013 343.492 57.0731 343.77 57.4149 343.773C57.4373 343.773 57.4626 343.773 57.485 343.773H57.4878Z" fill="#1DBFCC"></path><path d="M190.96 211.936C185.535 227.342 171.135 251.351 143.204 252.576C133.5 253 124.052 243.352 111.257 233.768C111.257 233.768 124.654 193.376 125.542 194.471C129.72 199.62 140.169 214.481 149.29 214.731C162.802 215.099 169.3 207.119 176.28 199.721L190.954 211.936H190.96Z" fill="white"></path><path d="M142.568 253.208C142.789 253.208 143.011 253.203 143.232 253.194C175.139 251.798 188.276 221.422 191.543 212.144C191.63 211.9 191.554 211.628 191.355 211.462L176.681 199.247C176.431 199.039 176.061 199.061 175.837 199.297C175.386 199.778 174.935 200.258 174.484 200.741C167.896 207.791 161.673 214.445 149.313 214.113C141.537 213.903 132.548 202.407 127.722 196.23C126.68 194.896 125.856 193.843 125.24 193.149C125.013 192.893 124.623 192.871 124.368 193.098C124.113 193.326 124.091 193.716 124.318 193.972C124.909 194.64 125.722 195.68 126.75 196.997C131.704 203.333 140.923 215.127 149.279 215.355C162.219 215.714 168.902 208.53 175.386 201.592C175.703 201.252 176.019 200.912 176.339 200.575L190.234 212.144C186.802 221.683 173.864 250.621 143.179 251.964C135.714 252.293 128.471 246.523 119.271 239.226C117.612 237.912 115.9 236.55 114.121 235.176C113.852 234.968 113.463 235.019 113.255 235.288C113.048 235.561 113.098 235.949 113.367 236.156C115.138 237.524 116.85 238.881 118.504 240.195C127.641 247.445 134.913 253.214 142.568 253.214V253.208Z" fill="#1DBFCC"></path><path d="M111.464 263.802H74.684C72.2042 263.802 70.3968 261.451 71.0273 259.05L84.6735 207.06C85.1106 205.394 86.6125 204.234 88.3302 204.234H125.11C127.59 204.234 129.398 206.585 128.767 208.987L115.121 260.977C114.684 262.642 113.182 263.802 111.464 263.802Z" fill="#1DBFCC"></path><path d="M64.7899 234.881L69.5423 232.965C71.4449 232.198 72.9076 230.623 73.5212 228.662C73.7706 227.862 74.0592 226.864 74.3843 225.629C75.6592 220.775 79.428 217.882 80.8823 219.882C81.7566 221.081 79.5681 224.721 79.9941 227.112C80.7254 231.212 87.9996 228.193 89.2017 227.73C91.9366 226.676 92.4017 225.803 94.5061 224.421C96.0725 223.393 98.0956 224.735 97.7902 226.586C97.2269 230.013 95.8455 234.381 92.4774 236.487C87.0862 239.858 84.3597 239.97 81.6221 240.175C80.0781 240.29 78.5958 240.801 77.2957 241.647C75.323 242.93 72.1314 244.97 68.2337 247.332L64.7871 234.883L64.7899 234.881Z" fill="white"></path><path d="M68.2364 247.95C68.3485 247.95 68.4578 247.919 68.5559 247.86C72.4592 245.495 75.648 243.459 77.6346 242.164C78.8564 241.369 80.2518 240.895 81.6697 240.791L81.9022 240.774C84.6231 240.575 87.4392 240.37 92.8052 237.01C96.3947 234.766 97.8293 230.157 98.401 226.685C98.5831 225.579 98.1151 224.509 97.1764 223.896C96.2489 223.29 95.0973 223.292 94.167 223.899C93.4609 224.363 92.9285 224.775 92.4577 225.138C91.4966 225.882 90.7372 226.469 88.9775 227.149L88.8122 227.213C84.3064 228.977 82.3169 228.761 81.4399 228.267C80.9803 228.008 80.7029 227.593 80.5993 227C80.4171 225.975 80.8178 224.559 81.1709 223.312C81.6164 221.734 82.0031 220.371 81.3782 219.512C80.8543 218.793 80.0669 218.495 79.159 218.666C77.0042 219.074 74.6924 221.998 73.7846 225.469C73.4847 226.604 73.1989 227.615 72.9299 228.474C72.3723 230.261 71.0525 231.688 69.3096 232.39L64.5573 234.305C64.2659 234.423 64.1089 234.741 64.193 235.044L67.6396 247.493C67.69 247.678 67.8273 247.83 68.0067 247.903C68.0795 247.931 68.158 247.948 68.2336 247.948L68.2364 247.95ZM95.6745 224.683C95.9575 224.683 96.2433 224.767 96.5011 224.935C96.9074 225.202 97.3025 225.75 97.182 226.486C96.6525 229.705 95.3495 233.963 92.1523 235.963C87.0441 239.156 84.3849 239.353 81.8126 239.541L81.58 239.558C79.9548 239.679 78.3576 240.221 76.9649 241.128C75.1044 242.338 72.1874 244.203 68.6147 246.38L65.5352 235.252L69.7748 233.541C71.8623 232.702 73.4427 230.991 74.1124 228.848C74.387 227.972 74.6784 226.941 74.9839 225.789C75.8497 222.497 77.9457 220.163 79.3944 219.888C79.8343 219.807 80.1481 219.919 80.3863 220.248C80.6553 220.618 80.2854 221.927 79.9884 222.978C79.5989 224.354 79.1562 225.913 79.3888 227.219C79.5625 228.188 80.0501 228.901 80.843 229.348C82.4795 230.266 85.2367 229.946 89.2689 228.368L89.4287 228.306C91.3565 227.562 92.2195 226.893 93.2199 226.121C93.6934 225.753 94.1866 225.374 94.8507 224.938C95.1113 224.767 95.3971 224.683 95.6801 224.683H95.6745Z" fill="#1DBFCC"></path><path d="M70.6127 248.306C56.2212 257.025 32.2157 270.119 24.4819 265.631C14.5681 259.876 11.8276 221.14 11.8276 218.823L41.8521 212.512L43.2671 227.098C43.6426 230.308 46.4335 232.673 49.6531 232.507C54.7277 232.246 56.5827 232.297 64.9189 230.229L70.6127 248.312V248.306Z" fill="white"></path><path d="M28.6124 267.153C38.4338 267.153 56.44 257.615 70.9324 248.835C71.1762 248.686 71.2883 248.391 71.2014 248.119L65.5076 230.036C65.4095 229.724 65.0873 229.542 64.7706 229.62C57.1517 231.51 55.0194 231.614 50.7714 231.825L49.6225 231.884C46.7476 232.033 44.2173 229.898 43.881 227.019L42.6089 213.914C42.5753 213.574 42.281 213.324 41.9336 213.358C41.5945 213.391 41.3451 213.695 41.3788 214.034L42.6537 227.151C43.0656 230.685 46.1479 233.3 49.687 233.12L50.8302 233.064C55.053 232.856 57.2218 232.749 64.5044 230.963L69.8788 248.026C46.3357 262.247 30.3329 268.308 24.7904 265.092C15.4062 259.646 12.4443 222.129 12.4443 218.818C12.4443 218.475 12.1669 218.2 11.8279 218.2C11.4888 218.2 11.2114 218.478 11.2114 218.818C11.2114 219.217 13.6072 260.03 24.1739 266.162C25.3424 266.842 26.8471 267.151 28.6152 267.151L28.6124 267.153Z" fill="#1DBFCC"></path><path d="M81.0224 152.208C81.1625 152.275 81.2577 152.41 81.2746 152.565L83.1688 168.754C83.5499 171.052 83.1688 173.686 85.8168 174.891L88.7618 176.096C90.0479 176.622 90.0031 178.461 88.6917 178.922C85.2115 180.141 79.6017 181.717 73.8042 181.733C68.0767 181.75 63.117 179.515 60.1692 177.807C59.0035 177.133 59.2417 175.383 60.5391 175.032L61.0322 174.9C63.2319 174.304 64.6413 171.518 64.9468 169.251L67.2697 146.237C67.3005 145.922 67.634 145.737 67.917 145.874L81.0168 152.211L81.0224 152.208Z" fill="white"></path><path d="M73.7427 182.349H73.8099C79.6187 182.333 85.2201 180.793 88.8992 179.504C89.7398 179.209 90.2975 178.442 90.3199 177.549C90.3423 176.656 89.8239 175.858 88.9973 175.521L86.0523 174.316C84.2814 173.51 84.13 171.932 83.9535 170.103C83.9087 169.626 83.861 169.134 83.7798 168.651L81.8884 152.492C81.8463 152.127 81.6222 151.813 81.2915 151.653L68.1917 145.316C67.8779 145.164 67.508 145.176 67.2054 145.347C66.9 145.518 66.6982 145.827 66.6618 146.176L64.3389 169.19C64.0559 171.28 62.7445 173.797 60.8783 174.302L60.3851 174.434C59.5361 174.665 58.9392 175.35 58.8243 176.224C58.7123 177.091 59.1102 177.903 59.8667 178.341C63.0303 180.173 67.9984 182.349 73.7455 182.349H73.7427ZM80.6723 152.726L82.5581 168.825C82.6365 169.294 82.6786 169.747 82.7262 170.224C82.9111 172.154 83.1241 174.342 85.5647 175.454L88.5321 176.667C89.0617 176.884 89.0898 177.372 89.0869 177.518C89.0841 177.662 89.0309 178.148 88.4929 178.336C84.9034 179.594 79.4449 181.094 73.8071 181.111H73.7427C68.2702 181.111 63.5151 179.024 60.4832 177.268C60.1637 177.083 59.9984 176.752 60.0489 176.381C60.0965 176.007 60.3431 175.724 60.7074 175.625L61.2005 175.493C63.6075 174.842 65.2187 171.901 65.5662 169.331L67.8695 146.53L80.6751 152.726H80.6723Z" fill="#1DBFCC"></path><path d="M96.5996 123.312C91.9846 121.902 96.6865 128.165 80.6109 118.88C74.2081 115.18 75.7212 124.104 74.0596 123.149C67.9174 119.621 68.1303 119.736 64.695 119.801C62.4197 119.843 60.0631 123.455 59.7409 126.505C59.3178 130.53 62.2768 132.319 63.1034 141.243C63.6834 147.509 62.3328 150.905 64.4372 152.312C66.564 153.733 69.0606 151.009 71.5013 152.385C74.6592 154.166 72.5492 159.896 75.2533 163.143C76.9597 165.19 81.6308 167.086 90.3229 165.187C91.7324 164.878 92.7299 163.603 92.6907 162.154C92.6402 160.297 92.5646 157.949 92.304 155.716C91.0655 145.065 88.1373 142.012 90.0147 139.788C92.8868 136.381 99.6567 140.383 101.646 137.493C103.714 134.493 102.921 125.244 96.6024 123.315L96.5996 123.312Z" fill="#002345"></path><path d="M83.7127 166.597C85.5873 166.597 87.815 166.37 90.4546 165.791C92.1554 165.42 93.3547 163.881 93.3071 162.137C93.2539 160.157 93.1726 157.859 92.9148 155.643C92.346 150.759 91.4353 147.489 90.7712 145.105C89.953 142.167 89.7092 141.105 90.4826 140.187C91.7744 138.653 94.1309 138.875 96.4062 139.091C98.6619 139.305 100.993 139.524 102.151 137.844C103.496 135.892 103.655 131.963 102.523 128.707C101.461 125.654 99.4213 123.528 96.7761 122.719C95.1481 122.222 94.4476 122.553 93.6994 123.036C92.7719 123.637 91.5026 124.46 80.9135 118.343C79.2266 117.368 77.8844 117.118 76.8056 117.579C75.2812 118.228 74.8161 120.093 74.4798 121.455C74.393 121.806 74.2809 122.255 74.18 122.508C68.3713 119.174 68.234 119.113 64.9892 119.177L64.6781 119.183C62.0189 119.233 59.4634 123.194 59.1216 126.441C58.9086 128.46 59.483 129.949 60.2088 131.833C61.0298 133.962 62.0498 136.611 62.4813 141.299C62.6942 143.585 62.641 145.509 62.6018 147.054C62.5289 149.882 62.4785 151.75 64.0869 152.823C65.3815 153.688 66.7657 153.303 67.9902 152.963C69.1194 152.649 70.187 152.354 71.1902 152.921C72.5772 153.702 72.7538 155.517 72.9583 157.618C73.1517 159.603 73.373 161.856 74.7713 163.536C75.4802 164.387 77.8872 166.592 83.7043 166.592L83.7127 166.597ZM94.016 137.701C92.318 137.701 90.6843 138.032 89.5411 139.389C88.3054 140.852 88.7873 142.58 89.5831 145.439C90.236 147.787 91.1327 151 91.6903 155.789C91.9425 157.957 92.0209 160.221 92.0742 162.173C92.105 163.325 91.3148 164.339 90.194 164.586C82.124 166.35 77.4305 164.794 75.7296 162.752C74.5751 161.364 74.3818 159.404 74.1968 157.505C73.9783 155.267 73.7541 152.949 71.8038 151.851C70.358 151.034 68.9289 151.43 67.668 151.778C66.5611 152.084 65.6028 152.351 64.779 151.801C63.7815 151.135 63.773 149.804 63.8431 147.093C63.8851 145.515 63.9356 143.551 63.717 141.192C63.2687 136.33 62.2123 133.594 61.3661 131.395C60.6739 129.598 60.1724 128.3 60.3545 126.578C60.6655 123.623 62.9016 120.461 64.7061 120.427L65.0172 120.421C66.973 120.382 69.8583 121.458 73.6728 123.649L73.7513 123.694C74.1576 123.927 74.4911 123.842 74.6536 123.772C75.2476 123.519 75.4298 122.781 75.6819 121.761C75.9734 120.59 76.3348 119.132 77.2931 118.725C77.9825 118.433 78.9912 118.666 80.3026 119.424C91.5418 125.918 92.9849 124.986 94.3747 124.087C94.8791 123.761 95.2125 123.545 96.4202 123.913C99.3148 124.797 100.705 127.235 101.36 129.123C102.473 132.325 102.12 135.718 101.136 137.15C100.391 138.232 98.5134 138.055 96.5239 137.866C95.7057 137.791 94.8539 137.709 94.016 137.709V137.701Z" fill="white"></path><path d="M76.2056 133.23L76.9313 136.064C77.2732 137.398 77.5226 138.755 77.6795 140.125C77.9709 142.695 78.5061 147.113 78.9937 149.563C79.7082 153.161 90.9558 151.717 90.9558 151.717L92.0626 149.872L93.3768 149.675C93.6318 149.636 93.8812 149.546 94.0829 149.386C94.5873 148.984 94.7498 148.327 94.5425 147.765C93.4048 144.684 91.1323 137.836 91.0987 132.176C91.0987 132.176 83.9534 128.343 76.2084 133.233L76.2056 133.23Z" fill="white"></path><path d="M75.9116 142.445C75.9116 142.445 74.1743 135.628 71.2573 137.094C68.3403 138.563 70.4391 146.021 75.9116 142.445Z" fill="white"></path><path d="M252.331 500.014L252.035 498.017C251.204 492.407 255.073 487.178 260.669 486.345L303.817 479.928C308.834 479.182 313.513 482.66 314.258 487.689L315.08 493.243C315.75 497.771 312.627 501.992 308.109 502.664L264.604 509.135C258.706 510.012 253.205 505.924 252.33 500.011L252.331 500.014Z" fill="#1DBFCC"></path><path d="M314.58 489.969C316.135 499.81 309.973 502.279 302.214 503.434L284.662 506.046L281.294 483.295L298.846 480.683C306.605 479.528 312.904 480.815 314.58 489.969Z" fill="white"></path><path d="M297.134 501.434C297.165 501.434 297.195 501.434 297.224 501.428L301.306 500.822C304.108 500.406 306.611 499.128 308.351 497.226C310.124 495.288 310.909 492.923 310.561 490.57C310.511 490.233 310.2 489.999 309.861 490.047C309.522 490.098 309.289 490.412 309.34 490.749C309.634 492.727 308.959 494.729 307.443 496.387C305.893 498.08 303.652 499.221 301.127 499.594L297.044 500.201C296.705 500.251 296.473 500.566 296.523 500.903C296.568 501.209 296.831 501.431 297.134 501.431V501.434Z" fill="white"></path><path d="M263.097 509.84C263.66 509.84 264.226 509.798 264.801 509.714L306.636 503.49C309.399 503.08 311.837 501.613 313.501 499.364C315.166 497.114 315.855 494.35 315.446 491.581L315.056 488.954C314.148 482.831 308.441 478.593 302.335 479.5L260.438 485.733C257.599 486.154 255.094 487.66 253.385 489.971C251.676 492.283 250.967 495.12 251.387 497.965L251.681 499.962C252.53 505.7 257.473 509.837 263.097 509.837V509.84ZM303.982 480.615C308.836 480.615 313.098 484.185 313.832 489.137L314.221 491.763C314.583 494.204 313.975 496.642 312.506 498.625C311.038 500.608 308.889 501.9 306.454 502.262L264.619 508.486C258.992 509.326 253.738 505.419 252.903 499.779L252.609 497.782C252.236 495.266 252.864 492.752 254.377 490.707C255.89 488.662 258.107 487.331 260.617 486.957L302.514 480.725C303.007 480.652 303.498 480.615 303.982 480.615Z" fill="#1DBFCC"></path><path d="M302.564 464.771L301.85 466.661C299.734 472.254 302.539 478.506 308.118 480.629L349.242 496.268C353.515 497.895 358.292 495.738 359.915 491.454L361.901 486.205C363.703 481.447 361.313 476.127 356.569 474.324L315.785 458.814C310.491 456.8 304.573 459.471 302.564 464.777V464.771Z" fill="white"></path><path d="M361.077 488.376C357.642 497.726 351.063 496.867 343.727 494.078L327.136 487.769L335.276 466.266L351.867 472.574C359.203 475.363 364.07 479.568 361.077 488.376Z" fill="#1DBFCC"></path><path d="M351.273 496.973C352.733 496.973 354.187 496.661 355.56 496.043C358.108 494.895 360.055 492.822 361.047 490.204L361.986 487.721C364.177 481.935 361.263 475.438 355.488 473.245L315.886 458.184C310.349 456.078 304.134 458.881 302.032 464.434L301.317 466.324C300.222 469.214 300.317 472.36 301.584 475.177C302.85 477.997 305.134 480.154 308.017 481.25L347.56 496.288C348.765 496.745 350.021 496.976 351.273 496.976V496.973ZM312.086 458.721C313.204 458.721 314.342 458.92 315.448 459.341L355.05 474.402C360.187 476.357 362.781 482.134 360.831 487.283L359.892 489.766C359.018 492.075 357.3 493.903 355.053 494.917C352.809 495.928 350.301 496.007 347.998 495.13L308.454 480.092C305.879 479.112 303.839 477.188 302.707 474.669C301.578 472.152 301.494 469.343 302.469 466.762L303.184 464.872C304.624 461.069 308.247 458.721 312.083 458.721H312.086Z" fill="#1DBFCC"></path><path d="M354.333 499.155L354.182 497.141C353.733 491.178 348.547 486.707 342.598 487.156L298.739 490.468C294.18 490.81 290.765 494.793 291.109 499.363L291.53 504.964C291.911 510.036 296.324 513.842 301.385 513.457L344.882 510.174C350.528 509.747 354.759 504.815 354.333 499.158V499.155Z" fill="white"></path><path d="M291.356 502.638C290.512 492.709 296.837 490.692 304.657 490.103L322.353 488.766L324.076 511.702L306.381 513.039C298.557 513.629 292.37 511.89 291.356 502.641V502.638Z" fill="#1DBFCC"></path><path d="M296.022 502.905C296.038 502.905 296.052 502.905 296.069 502.905C296.408 502.88 296.663 502.582 296.638 502.242C296.327 498.096 300.286 494.403 305.467 494.012L309.584 493.701C309.923 493.675 310.178 493.378 310.153 493.038C310.127 492.698 309.828 492.442 309.491 492.468L305.375 492.779C299.516 493.22 295.044 497.509 295.408 502.337C295.433 502.663 295.702 502.91 296.024 502.91L296.022 502.905Z" fill="white"></path><path d="M301.97 514C302.251 514 302.534 513.988 302.819 513.969L345.055 510.781C350.962 510.334 355.404 505.155 354.961 499.234L354.809 497.22C354.33 490.855 348.777 486.067 342.427 486.547L300.253 489.729C294.503 490.162 290.179 495.203 290.611 500.967L290.81 503.616C291.252 509.503 296.173 514 301.97 514ZM353.728 499.327C354.12 504.565 350.189 509.152 344.96 509.545L302.724 512.733C297.243 513.146 292.452 509.014 292.04 503.523L291.841 500.874C291.46 495.793 295.273 491.344 300.345 490.962L342.52 487.78C348.174 487.356 353.151 491.628 353.577 497.31L353.728 499.324V499.327Z" fill="#1DBFCC"></path></g><defs><clipPath id="clip0_921_457"><rect width="452" height="514" fill="white"></rect></clipPath></defs></svg>