<svg xmlns="http://www.w3.org/2000/svg" width="487" height="486" viewBox="0 0 487 486" fill="none"><g clip-path="url(#clip0_926_1030)"><path d="M198.053 35.3718H181.539C181.539 35.3718 175.744 77.0828 160.014 94.6372C145.109 111.267 117.21 106.705 117.21 106.705C117.21 106.705 117.199 106.739 117.186 106.793C106.395 103.853 94.0881 104.498 85.6983 106.71C72.544 110.181 63.0414 116.223 63.0414 116.223C63.0414 116.223 42.7429 129.05 43.2263 153.528C43.6007 172.522 57.8546 195.133 57.7431 196.753C56.4895 214.881 55.0872 214.262 56.9808 220.721C61.5728 236.401 126.611 229.934 127.769 222.747C128.818 216.228 125.796 205.326 127.313 190.666C129.705 167.553 134.457 159.326 139.864 145.072C169.729 142.648 189.029 125.776 195.034 98.6766C201.23 70.7197 198.056 35.3691 198.056 35.3691L198.053 35.3718Z" fill="white"></path><path d="M88.8559 230.981C73.3086 230.981 58.6033 228.365 56.4122 220.886C55.1666 216.629 55.3233 215.259 55.9076 210.149C56.2449 207.217 56.7043 203.202 57.1532 196.711C57.1107 196.366 56.1758 194.501 55.1852 192.528C51.2041 184.595 42.9206 168.087 42.6364 153.539C42.153 129.011 62.5206 115.852 62.7278 115.722C62.8207 115.66 72.4561 109.592 85.5493 106.137C93.2167 104.113 105.481 103.064 117.04 106.137C117.125 106.11 117.215 106.102 117.308 106.118C117.584 106.164 145.067 110.431 159.578 94.2393C175.011 77.0195 180.902 35.7015 180.957 35.2872C180.997 34.9951 181.247 34.7773 181.542 34.7773H198.056C198.361 34.7773 198.616 35.011 198.643 35.3138C198.675 35.667 201.755 71.076 195.61 98.8019C189.472 126.488 169.832 143.105 140.283 145.628C139.383 147.989 138.501 150.185 137.649 152.315C133.474 162.733 129.865 171.728 127.899 190.725C127.044 198.99 127.647 206.11 128.13 211.83C128.513 216.366 128.816 219.946 128.351 222.838C127.642 227.247 110.002 229.94 98.3159 230.675C95.1953 230.872 92.0083 230.978 88.8585 230.978L88.8559 230.981ZM101.527 105.415C95.4078 105.415 89.8305 106.227 85.8468 107.279C72.9394 110.684 63.4502 116.659 63.3572 116.72C63.1554 116.848 43.3455 129.67 43.8156 153.515C44.0971 167.795 52.2983 184.144 56.2396 192C57.857 195.221 58.3669 196.265 58.3297 196.793C57.8782 203.31 57.4161 207.342 57.0815 210.284C56.5025 215.33 56.3671 216.528 57.5462 220.554C59.987 228.888 80.9946 230.582 98.2416 229.499C115.066 228.442 126.789 225.106 127.185 222.652C127.626 219.904 127.315 216.209 126.954 211.931C126.465 206.16 125.86 198.982 126.725 190.603C128.709 171.444 132.342 162.375 136.552 151.877C137.444 149.649 138.369 147.346 139.311 144.863C139.391 144.651 139.588 144.502 139.816 144.483C169.012 142.114 188.418 125.8 194.457 98.5469C200.149 72.8686 197.87 40.5058 197.511 35.9565H182.049C181.316 40.7899 175.181 78.5917 160.454 95.0254C146.352 110.761 120.535 107.754 117.422 107.327C117.302 107.38 117.167 107.393 117.029 107.356C111.887 105.954 106.528 105.412 101.527 105.412V105.415Z" fill="#1DBFCC"></path><path d="M403.931 457.148H115.651C106.698 457.148 99.8776 448.955 101.309 439.925L163.31 49.0192C164.449 41.8301 170.525 36.5479 177.651 36.5479H465.931C474.884 36.5479 481.704 44.7408 480.272 53.7703L418.272 444.674C417.133 451.863 411.056 457.145 403.931 457.145V457.148Z" fill="white"></path><path d="M403.931 457.738H115.651C111.282 457.738 107.128 455.81 104.258 452.447C101.294 448.976 100.006 444.377 100.728 439.833L162.726 48.9267C163.918 41.4109 170.194 35.9561 177.649 35.9561H465.929C470.298 35.9561 474.451 37.8841 477.322 41.2463C480.286 44.7173 481.574 49.3171 480.852 53.861L418.851 444.764C417.659 452.28 411.383 457.735 403.928 457.735L403.931 457.738ZM177.651 37.1379C170.781 37.1379 164.994 42.1731 163.894 49.1126L101.894 440.016C101.227 444.22 102.417 448.472 105.155 451.68C107.803 454.779 111.627 456.556 115.651 456.556H403.931C410.802 456.556 416.589 451.521 417.688 444.581L479.689 53.6778C480.355 49.4738 479.165 45.2219 476.427 42.0138C473.779 38.9145 469.955 37.1379 465.931 37.1379H177.651Z" fill="#1DBFCC"></path><path d="M394.771 456.131H106.491C97.5381 456.131 90.7179 447.952 92.1494 438.938L154.147 48.7118C155.287 41.536 161.363 36.2617 168.489 36.2617H456.769C465.721 36.2617 472.542 44.4414 471.11 53.455L409.11 443.681C407.97 450.857 401.894 456.131 394.768 456.131H394.771Z" fill="white"></path><path d="M394.771 456.723H106.491C102.114 456.723 97.9603 454.795 95.0867 451.43C92.1281 447.967 90.8454 443.381 91.5651 438.847L153.565 48.6186C154.758 41.1161 161.034 35.6719 168.489 35.6719H456.769C461.145 35.6719 465.302 37.5999 468.173 40.9648C471.131 44.4278 472.414 49.0143 471.694 53.5476L409.694 443.774C408.501 451.276 402.226 456.72 394.771 456.72V456.723ZM168.489 36.851C161.618 36.851 155.831 41.8783 154.731 48.8045L92.731 439.031C92.0644 443.221 93.2515 447.46 95.9844 450.663C98.6323 453.765 102.462 455.541 106.491 455.541H394.771C401.642 455.541 407.429 450.514 408.528 443.588L470.528 53.3617C471.195 49.171 470.008 44.9324 467.275 41.7296C464.627 38.6277 460.797 36.851 456.769 36.851H168.489Z" fill="#1DBFCC"></path><path d="M347.635 72.5014H264.069C250.713 72.5014 240.565 60.2664 242.791 46.847L244.743 35.0847C244.942 33.8923 245.956 33.0186 247.144 33.0186H375.858C377.364 33.0186 378.512 34.3995 378.259 35.9133L376.281 47.8323C373.917 62.0776 361.809 72.5041 347.632 72.5041L347.635 72.5014Z" fill="white"></path><path d="M347.635 73.0917H264.07C257.621 73.0917 251.505 70.2421 247.29 65.2705C242.956 60.1582 241.105 53.4074 242.209 46.7521L244.161 34.9898C244.408 33.5053 245.662 32.4297 247.144 32.4297H375.859C376.741 32.4297 377.577 32.8174 378.151 33.4973C378.74 34.1904 378.99 35.1067 378.841 36.0123L376.863 47.9312C374.443 62.5112 362.149 73.0943 347.633 73.0943L347.635 73.0917ZM247.144 33.6088C246.241 33.6088 245.476 34.2701 245.325 35.1837L243.373 46.946C242.324 53.2613 244.079 59.6616 248.19 64.5083C252.179 69.2143 257.966 71.9125 264.07 71.9125H347.635C361.573 71.9125 373.378 61.7437 375.702 47.7347L377.681 35.8158C377.774 35.2554 377.617 34.6871 377.253 34.2595C376.903 33.8452 376.395 33.6088 375.861 33.6088H247.147H247.144Z" fill="#1DBFCC"></path><path d="M291.382 58.7638H327.066C328.42 58.7638 329.573 57.8688 329.79 56.5011L334.68 24.7093C336.64 12.0547 327.081 0.589844 314.557 0.589844C304.539 0.589844 296.008 8.00997 294.436 18.131L288.654 55.6061C288.381 57.3244 289.677 58.7638 291.379 58.7638H291.382ZM305.981 20.1812L306.021 19.9422C306.695 15.8417 310.164 12.8381 314.23 12.8381C319.38 12.8381 323.292 17.5706 322.439 22.7653L322.399 23.0043C321.725 27.1047 318.256 30.1084 314.19 30.1084C309.043 30.1084 305.128 25.3758 305.981 20.1812Z" fill="white"></path><path d="M327.069 59.3531H291.385C290.383 59.3531 289.446 58.9282 288.814 58.1872C288.192 57.4595 287.924 56.4849 288.078 55.5129L293.857 18.0404C295.483 7.58744 304.189 0 314.562 0C320.599 0 326.343 2.66371 330.322 7.30593C334.441 12.1128 336.244 18.4892 335.267 24.7966L330.378 56.5885C330.12 58.2164 328.76 59.3504 327.069 59.3504V59.3531ZM314.562 1.1818C304.775 1.1818 296.558 8.34964 295.023 18.2237L289.241 55.6961C289.141 56.3388 289.305 56.9496 289.709 57.4224C290.118 57.9004 290.726 58.1739 291.382 58.1739H327.066C328.163 58.1739 329.044 57.4489 329.206 56.4105L334.096 24.6213C335.02 18.6539 333.318 12.6227 329.422 8.07875C325.666 3.69679 320.248 1.18446 314.557 1.18446L314.562 1.1818ZM314.193 30.6977C311.606 30.6977 309.152 29.553 307.461 27.5586C305.71 25.4977 304.961 22.7756 305.402 20.0853L305.442 19.8463C306.164 15.4431 309.861 12.2483 314.233 12.2483C316.817 12.2483 319.274 13.3929 320.965 15.3873C322.716 17.4482 323.465 20.1703 323.024 22.8606L322.986 23.097C322.264 27.5002 318.565 30.6977 314.196 30.6977H314.193ZM306.565 20.2766C306.18 22.6242 306.834 24.9985 308.358 26.7937C309.827 28.5226 311.954 29.5159 314.19 29.5159C317.98 29.5159 321.188 26.7353 321.818 22.9057L321.855 22.6694C322.24 20.3217 321.587 17.9448 320.062 16.1495C318.594 14.4207 316.466 13.4274 314.23 13.4274C310.44 13.4274 307.232 16.208 306.603 20.0375L306.563 20.2766H306.565Z" fill="#1DBFCC"></path><path d="M318.618 307.585H306.531C304.988 307.585 303.525 306.905 302.513 305.723C301.474 304.51 301.023 302.903 301.275 301.315L326.258 143.107C326.675 140.468 328.885 138.553 331.514 138.553H343.606C345.149 138.553 346.613 139.233 347.625 140.414C348.663 141.628 349.112 143.235 348.862 144.823L323.874 303.031C323.457 305.67 321.247 307.585 318.618 307.585ZM327.424 143.293L302.441 301.501C302.244 302.746 302.598 304.008 303.41 304.959C304.196 305.88 305.333 306.406 306.531 306.406H318.618C320.663 306.406 322.381 304.911 322.708 302.847L347.696 144.64C347.893 143.394 347.54 142.133 346.727 141.182C345.941 140.26 344.804 139.735 343.606 139.735H331.514C329.469 139.735 327.751 141.23 327.424 143.293Z" fill="#1DBFCC"></path><path d="M283.414 307.585H271.322C269.785 307.585 268.321 306.908 267.312 305.731C266.274 304.523 265.819 302.919 266.064 301.336L284.198 183.737C284.607 181.087 286.819 179.164 289.456 179.164H301.554C303.091 179.164 304.555 179.841 305.564 181.018C306.602 182.226 307.057 183.83 306.81 185.413L288.67 303.009C288.261 305.659 286.049 307.582 283.412 307.582L283.414 307.585ZM289.456 180.343C287.406 180.343 285.685 181.846 285.364 183.918L267.23 301.517C267.038 302.759 267.394 304.018 268.207 304.964C268.993 305.88 270.13 306.406 271.322 306.406H283.414C285.467 306.406 287.186 304.903 287.507 302.834L305.646 185.235C305.837 183.992 305.482 182.733 304.669 181.788C303.883 180.872 302.746 180.346 301.554 180.346H289.456V180.343Z" fill="#1DBFCC"></path><path d="M248.23 307.585H236.138C234.598 307.585 233.137 306.908 232.125 305.729C231.087 304.518 230.635 302.914 230.879 301.328L244.414 214.188C244.825 211.54 247.035 209.62 249.672 209.62H261.769C263.31 209.62 264.77 210.297 265.782 211.476C266.821 212.687 267.272 214.292 267.028 215.877L253.489 303.017C253.077 305.665 250.865 307.585 248.23 307.585ZM245.582 214.369L232.048 301.509C231.854 302.754 232.21 304.01 233.023 304.958C233.809 305.877 234.945 306.403 236.138 306.403H248.23C250.28 306.403 251.999 304.903 252.32 302.834L265.859 215.694C266.053 214.448 265.697 213.192 264.885 212.244C264.099 211.325 262.962 210.799 261.769 210.799H249.672C247.622 210.799 245.901 212.3 245.582 214.369Z" fill="#1DBFCC"></path><path d="M213.051 307.585H200.964C199.421 307.585 197.958 306.908 196.949 305.723C195.91 304.51 195.459 302.903 195.711 301.317L204.635 244.633C205.049 241.994 207.261 240.076 209.891 240.076H221.983C223.526 240.076 224.989 240.753 225.998 241.938C227.037 243.152 227.488 244.758 227.236 246.344L218.307 303.028C217.89 305.668 215.68 307.585 213.051 307.585ZM209.888 241.258C207.843 241.258 206.122 242.756 205.798 244.817L196.874 301.501C196.678 302.746 197.031 304.005 197.844 304.956C198.63 305.875 199.767 306.403 200.964 306.403H213.051C215.096 306.403 216.817 304.905 217.141 302.845L226.07 246.16C226.266 244.915 225.913 243.656 225.101 242.703C224.314 241.784 223.178 241.255 221.98 241.255H209.888V241.258Z" fill="#1DBFCC"></path><path d="M177.797 307.584H165.687C164.159 307.584 162.707 306.918 161.697 305.755C160.662 304.562 160.197 302.974 160.42 301.399L164.906 269.759C165.28 267.114 167.546 265.119 170.175 265.119H182.291C183.818 265.119 185.271 265.786 186.28 266.949C187.316 268.141 187.78 269.73 187.557 271.304L183.069 302.945C182.694 305.59 180.429 307.584 177.8 307.584H177.797ZM166.072 269.923L161.586 301.564C161.411 302.799 161.774 304.044 162.587 304.979C163.373 305.885 164.502 306.403 165.687 306.403H177.797C179.842 306.403 181.603 304.844 181.898 302.777L186.386 271.137C186.561 269.902 186.198 268.657 185.385 267.722C184.599 266.816 183.47 266.298 182.285 266.298H170.17C168.125 266.298 166.364 267.857 166.069 269.923H166.072Z" fill="#1DBFCC"></path><path d="M160.476 349.625C156.043 349.625 152.437 345.955 152.437 341.445C152.437 336.936 156.043 333.266 160.476 333.266C164.908 333.266 168.515 336.936 168.515 341.445C168.515 345.955 164.908 349.625 160.476 349.625ZM160.476 334.445C156.694 334.445 153.616 337.584 153.616 341.445C153.616 345.307 156.694 348.446 160.476 348.446C164.258 348.446 167.336 345.307 167.336 341.445C167.336 337.584 164.258 334.445 160.476 334.445Z" fill="#1DBFCC"></path><path d="M154.11 380.907C149.677 380.907 146.071 377.237 146.071 372.728C146.071 368.218 149.677 364.548 154.11 364.548C158.543 364.548 162.149 368.218 162.149 372.728C162.149 377.237 158.543 380.907 154.11 380.907ZM154.11 365.727C150.328 365.727 147.25 368.866 147.25 372.728C147.25 376.589 150.328 379.728 154.11 379.728C157.892 379.728 160.97 376.589 160.97 372.728C160.97 368.866 157.892 365.727 154.11 365.727Z" fill="#1DBFCC"></path><path d="M148.495 413.714C144.063 413.714 140.456 410.044 140.456 405.534C140.456 401.025 144.063 397.354 148.495 397.354C152.928 397.354 156.534 401.025 156.534 405.534C156.534 410.044 152.928 413.714 148.495 413.714ZM148.495 398.534C144.713 398.534 141.635 401.673 141.635 405.534C141.635 409.396 144.713 412.535 148.495 412.535C152.277 412.535 155.355 409.396 155.355 405.534C155.355 401.673 152.277 398.534 148.495 398.534Z" fill="#1DBFCC"></path><path d="M261.934 342.035H182.19C181.864 342.035 181.601 341.772 181.601 341.445C181.601 341.118 181.864 340.855 182.19 340.855H261.934C262.261 340.855 262.524 341.121 262.524 341.445C262.524 341.769 262.258 342.035 261.934 342.035Z" fill="#1DBFCC"></path><path d="M256.941 373.062H248.641C248.315 373.062 248.052 372.799 248.052 372.472C248.052 372.146 248.315 371.883 248.641 371.883H256.941C257.268 371.883 257.53 372.148 257.53 372.472C257.53 372.796 257.268 373.062 256.941 373.062Z" fill="white"></path><path d="M233.479 373.062H177.197C176.87 373.062 176.607 372.799 176.607 372.472C176.607 372.146 176.87 371.883 177.197 371.883H233.479C233.806 371.883 234.069 372.148 234.069 372.472C234.069 372.796 233.803 373.062 233.479 373.062Z" fill="#1DBFCC"></path><path d="M250.453 405.106H170.709C170.382 405.106 170.119 404.84 170.119 404.516C170.119 404.192 170.382 403.927 170.709 403.927H250.453C250.779 403.927 251.042 404.19 251.042 404.516C251.042 404.843 250.777 405.106 250.453 405.106Z" fill="#1DBFCC"></path><path d="M165.96 198.179C165.96 198.179 177.885 198.004 184.116 195.298C190.346 192.594 190.251 197.284 188.487 198.933C187.058 200.272 178.448 205.071 170.728 205.631L165.96 198.177V198.179Z" fill="white"></path><path d="M170.73 206.221C170.531 206.221 170.342 206.12 170.233 205.95L165.466 198.495C165.349 198.315 165.341 198.086 165.442 197.898C165.543 197.709 165.74 197.59 165.952 197.587C166.069 197.587 177.832 197.38 183.882 194.756C187.714 193.094 189.172 194.193 189.701 194.998C190.566 196.315 189.969 198.357 188.893 199.367C187.244 200.909 178.45 205.666 170.775 206.221C170.762 206.221 170.746 206.221 170.733 206.221H170.73ZM167.022 198.74L171.038 205.015C178.602 204.343 186.896 199.619 188.089 198.503C188.806 197.831 189.236 196.437 188.715 195.646C188.163 194.804 186.575 194.876 184.354 195.84C179.106 198.118 170.101 198.631 167.022 198.74Z" fill="#1DBFCC"></path><path d="M148.567 193.71L154.482 182.027L159.969 185.217C160.272 185.392 160.529 185.639 160.72 185.931L161.066 186.465C161.499 187.134 162.261 187.522 163.05 187.474C163.477 187.448 163.905 187.549 164.279 187.766L205.078 211.434C205.415 211.628 205.724 211.867 206 212.143L214.427 220.615L203.182 218.655C202.568 218.549 201.971 218.363 201.405 218.1L158.726 198.397C158.362 198.23 158.049 197.964 157.823 197.632L157.767 197.55C157.332 196.913 156.593 196.546 155.834 196.586L155.449 196.607C155.095 196.626 154.742 196.557 154.418 196.408L148.57 193.71H148.567Z" fill="white"></path><path d="M214.424 221.207C214.389 221.207 214.355 221.204 214.323 221.199L203.078 219.239C202.417 219.122 201.769 218.92 201.155 218.638L158.476 198.936C158.014 198.723 157.621 198.388 157.331 197.969L157.276 197.884C156.957 197.419 156.421 197.148 155.86 197.177L155.475 197.199C155.029 197.223 154.577 197.135 154.166 196.946L148.318 194.248C148.172 194.182 148.06 194.057 148.007 193.906C147.954 193.754 147.964 193.587 148.039 193.446L153.953 181.764C154.028 181.617 154.158 181.511 154.312 181.463C154.466 181.418 154.636 181.437 154.777 181.519L160.264 184.709C160.646 184.929 160.973 185.243 161.212 185.614L161.557 186.148C161.876 186.642 162.436 186.924 163.007 186.889C163.554 186.855 164.093 186.985 164.571 187.261L205.37 210.929C205.75 211.149 206.103 211.42 206.414 211.734L214.841 220.205C215.021 220.389 215.064 220.667 214.944 220.893C214.841 221.09 214.639 221.212 214.421 221.212L214.424 221.207ZM155.942 195.993C156.853 195.993 157.727 196.452 158.25 197.217L158.306 197.3C158.473 197.544 158.702 197.738 158.97 197.86L201.649 217.563C202.17 217.802 202.72 217.975 203.28 218.073L212.695 219.714L205.577 212.559C205.338 212.32 205.07 212.113 204.778 211.943L163.979 188.275C163.703 188.116 163.392 188.042 163.081 188.06C162.075 188.124 161.116 187.633 160.566 186.783L160.221 186.249C160.083 186.034 159.892 185.853 159.669 185.723L154.723 182.85L149.367 193.428L154.657 195.871C154.893 195.98 155.151 196.03 155.409 196.017L155.794 195.996C155.842 195.996 155.892 195.993 155.94 195.993H155.942Z" fill="#1DBFCC"></path><path d="M203.917 215.943C203.838 215.943 203.758 215.927 203.681 215.893C203.383 215.763 203.248 215.412 203.378 215.115L204.934 211.583C205.065 211.285 205.415 211.15 205.713 211.28C206.01 211.41 206.145 211.761 206.015 212.058L204.459 215.59C204.361 215.811 204.146 215.943 203.92 215.943H203.917Z" fill="#1DBFCC"></path><path d="M144.995 176.867L153.876 181.655C154.33 181.899 154.506 182.467 154.267 182.927L149.056 192.923C148.812 193.391 148.235 193.568 147.773 193.319L138.911 188.541C137.134 187.582 136.43 185.389 137.344 183.639L140.127 178.301C141.038 176.55 143.218 175.91 144.998 176.869L144.995 176.867Z" fill="#1DBFCC"></path><path d="M148.214 194.023C147.964 194.023 147.715 193.962 147.489 193.84L138.626 189.062C136.568 187.952 135.758 185.397 136.815 183.369L139.598 178.03C140.106 177.058 140.966 176.344 142.018 176.02C143.101 175.688 144.257 175.805 145.271 176.352L154.152 181.14C154.888 181.536 155.172 182.463 154.784 183.204L149.574 193.2C149.382 193.567 149.058 193.837 148.663 193.957C148.514 194.002 148.363 194.026 148.211 194.026L148.214 194.023ZM143.247 177.011C142.95 177.011 142.655 177.056 142.366 177.143C141.617 177.375 141.006 177.879 140.645 178.572L137.861 183.91C137.099 185.374 137.694 187.217 139.187 188.021L148.049 192.799C148.134 192.844 148.227 192.855 148.32 192.826C148.41 192.796 148.485 192.735 148.53 192.65L153.741 182.654C153.831 182.481 153.765 182.266 153.595 182.176L144.713 177.388C144.251 177.138 143.749 177.013 143.247 177.013V177.011Z" fill="#1DBFCC"></path><path d="M157.966 195.449C157.873 195.449 157.777 195.428 157.687 195.38C157.4 195.226 157.291 194.868 157.445 194.581L160.388 189.086C160.542 188.799 160.898 188.69 161.188 188.844C161.474 188.998 161.583 189.357 161.429 189.644L158.487 195.139C158.38 195.338 158.176 195.449 157.966 195.449Z" fill="#1DBFCC"></path><path d="M177.107 199.645C177.008 199.645 176.91 199.621 176.817 199.571L164.653 192.743C164.369 192.583 164.268 192.222 164.428 191.938C164.587 191.654 164.945 191.553 165.232 191.712L177.396 198.54C177.68 198.7 177.781 199.061 177.622 199.345C177.513 199.539 177.314 199.645 177.107 199.645Z" fill="#1DBFCC"></path><path d="M201.185 213.694C201.086 213.694 200.988 213.67 200.898 213.62L196.147 210.977C195.862 210.818 195.759 210.46 195.918 210.175C196.078 209.891 196.436 209.788 196.72 209.947L201.472 212.589C201.756 212.749 201.859 213.107 201.7 213.391C201.591 213.585 201.392 213.694 201.185 213.694Z" fill="#1DBFCC"></path><path d="M147.335 189.859C147.239 189.859 147.141 189.835 147.051 189.787L140.265 186.067C139.978 185.91 139.875 185.552 140.032 185.265C140.188 184.978 140.547 184.874 140.834 185.031L147.619 188.752C147.906 188.908 148.01 189.267 147.853 189.554C147.747 189.75 147.542 189.859 147.335 189.859Z" fill="white"></path><path d="M144.456 202.848C144.456 202.848 155.008 204.346 162.125 198.848C168.178 194.172 180.437 207.557 181.491 209.256C182.984 211.662 179.699 215.441 175.906 213.301C175.906 213.301 174.902 219.266 166.717 220.267C158.532 221.268 155.039 215.906 152.843 215.107C150.647 214.307 144.355 214.262 144.355 214.262L144.456 202.848Z" fill="white"></path><path d="M164.709 220.981C159.676 220.981 156.622 218.583 154.519 216.931C153.77 216.345 153.125 215.835 152.638 215.659C150.562 214.902 144.411 214.852 144.35 214.852C144.193 214.852 144.044 214.788 143.933 214.677C143.824 214.565 143.763 214.414 143.763 214.257L143.864 202.843C143.864 202.673 143.941 202.511 144.068 202.402C144.196 202.29 144.366 202.24 144.536 202.264C144.639 202.277 154.93 203.658 161.761 198.381C163.041 197.39 164.643 197.061 166.523 197.401C173.062 198.583 181.152 207.596 181.988 208.946C182.787 210.234 182.522 211.933 181.327 213.176C180.318 214.228 178.44 215.035 176.275 214.14C175.68 215.856 173.551 220.025 166.783 220.854C166.056 220.942 165.365 220.984 164.707 220.984L164.709 220.981ZM144.95 213.678C146.591 213.71 151.162 213.861 153.045 214.549C153.706 214.791 154.386 215.325 155.249 216.002C157.475 217.749 160.834 220.389 166.643 219.677C174.262 218.745 175.282 213.423 175.322 213.197C175.354 213.009 175.479 212.847 175.651 212.765C175.827 212.682 176.028 212.69 176.193 212.783C178.044 213.83 179.619 213.248 180.477 212.356C181.154 211.649 181.574 210.515 180.987 209.564C180.283 208.43 172.435 199.666 166.316 198.559C164.76 198.278 163.503 198.524 162.484 199.311C156.208 204.157 147.515 203.74 145.04 203.504L144.95 213.675V213.678Z" fill="#1DBFCC"></path><path d="M72.7619 118C72.7619 118 58.3089 124.082 50.6787 148.836C46.4665 162.497 47.2394 181.979 68.0106 207.878C72.1643 213.057 77.9992 218.209 84.5883 218.955L147.715 219.569L147.433 199.361C147.433 199.361 98.4783 193.001 91.119 190.233C84.6016 187.782 75.1628 155.873 74.1801 140.218L72.7619 118.003V118Z" fill="white"></path><path d="M147.712 220.155H147.707L84.5802 219.542C84.5589 219.542 84.5403 219.542 84.5191 219.539C77.3271 218.727 71.3196 212.95 67.5483 208.247C65.3095 205.456 63.1529 202.63 61.1345 199.844C60.9433 199.581 61.0017 199.212 61.2646 199.021C61.5276 198.83 61.8967 198.888 62.0879 199.154C64.0958 201.924 66.2417 204.736 68.4673 207.511C72.0951 212.034 77.8397 217.587 84.62 218.368L147.112 218.976L146.846 199.884C141.343 199.164 97.9284 193.431 90.909 190.791C85.0476 188.587 78.1186 166.44 75.2795 152.169C75.2157 151.85 75.4229 151.539 75.7442 151.475C76.0629 151.412 76.3737 151.619 76.4374 151.94C79.7041 168.376 86.6225 187.92 91.3233 189.689C98.5339 192.4 147.016 198.721 147.505 198.782C147.797 198.819 148.015 199.066 148.02 199.358L148.302 219.566C148.302 219.725 148.24 219.879 148.129 219.991C148.017 220.102 147.869 220.163 147.712 220.163V220.155Z" fill="#1DBFCC"></path><path d="M201.376 37.674C202.112 39.5888 203.551 44.7409 201.177 48.1933C199.049 51.2899 194.604 51.4148 192.08 48.6342C190.758 47.1762 190.115 44.794 189.125 41.4318C188.639 39.78 187.913 38.6407 187.114 37.6155C186.591 36.9463 185.791 36.5559 184.942 36.5532L177.434 36.5161C177.434 36.5161 177.492 33.5921 179.678 32.4209C181.59 31.3958 186.538 32.2403 186.926 31.6587C191.252 25.1548 198.42 29.9723 201.376 37.6766V37.674Z" fill="white"></path><path d="M196.524 51.2102C194.675 51.2102 192.917 50.4294 191.645 49.0299C190.309 47.5586 189.65 45.3118 188.737 42.1967L188.559 41.5965C188.07 39.9366 187.318 38.8371 186.649 37.9767C186.238 37.4482 185.613 37.1428 184.939 37.1401L177.431 37.103C177.274 37.103 177.123 37.0392 177.011 36.925C176.9 36.8108 176.841 36.6594 176.844 36.5001C176.846 36.3673 176.937 33.2149 179.399 31.895C180.626 31.2364 182.79 31.263 184.527 31.2842C185.273 31.2922 186.192 31.3055 186.5 31.2258C188.503 28.2832 190.856 27.8743 192.487 28.0548C196.13 28.4585 199.923 32.2376 201.926 37.4588C202.364 38.6034 204.417 44.5178 201.663 48.5226C200.584 50.0895 198.874 51.0642 196.967 51.1916C196.818 51.2023 196.67 51.2076 196.521 51.2076L196.524 51.2102ZM178.092 35.9265L184.944 35.961C185.983 35.9663 186.944 36.4364 187.579 37.2517C188.317 38.1971 189.146 39.4161 189.69 41.2645L189.868 41.8673C190.736 44.8285 191.366 46.969 192.519 48.2385C193.647 49.484 195.241 50.132 196.89 50.0205C198.436 49.9169 199.819 49.1281 200.693 47.8587C203.11 44.3398 201.23 38.9328 200.826 37.8864C199.007 33.1406 195.525 29.5819 192.359 29.2313C190.439 29.0189 188.774 29.9431 187.419 31.9827C187.09 32.4793 186.338 32.4899 184.517 32.466C182.997 32.4474 180.921 32.4209 179.959 32.9361C178.666 33.6292 178.235 35.0979 178.095 35.9238L178.092 35.9265Z" fill="#1DBFCC"></path><path d="M78.501 411.748L73.8984 433.836L85.9453 437.246L92.6061 415.742L78.501 411.748Z" fill="white"></path><path d="M85.9454 437.836C85.8923 437.836 85.8392 437.828 85.7834 437.814L73.7392 434.404C73.4417 434.319 73.2585 434.019 73.3222 433.717L77.9221 411.631C77.9566 411.472 78.0549 411.331 78.193 411.246C78.3338 411.161 78.5011 411.137 78.6604 411.183L92.7656 415.177C92.9196 415.219 93.0471 415.323 93.1241 415.464C93.2011 415.604 93.2171 415.769 93.1692 415.92L86.5084 437.424C86.4314 437.676 86.1977 437.841 85.9454 437.841V437.836ZM74.589 433.416L85.5523 436.521L91.8652 416.146L78.9499 412.489L74.589 433.416Z" fill="#1DBFCC"></path><path d="M69.9148 452.45C70.0502 454.575 72.6503 456.28 74.751 456.599C82.0572 457.703 99.2272 457.236 103.891 457.56C109.943 457.98 121.31 457.528 121.751 453.667C122.288 448.955 117.212 442.085 105.067 438.322C98.7863 436.375 92.1441 426.732 89.2041 426.56C86.2641 426.387 81.0613 434.004 81.0613 434.004L72.6901 431.157C72.6901 431.157 69.2243 441.673 69.9121 452.453L69.9148 452.45Z" fill="white"></path><path d="M107.702 458.253C105.484 458.253 103.904 458.149 103.851 458.146C102.258 458.037 99.1263 458.019 95.4985 458C88.3649 457.96 79.4865 457.913 74.6635 457.182C72.2068 456.81 69.4766 454.837 69.3279 452.49C68.6374 441.723 72.0979 431.079 72.1325 430.973C72.1829 430.824 72.2892 430.699 72.4299 430.63C72.5707 430.558 72.7327 430.548 72.8841 430.598L80.833 433.302C82.0148 431.629 86.3491 425.802 89.2413 425.969C90.7711 426.06 92.8134 428.017 95.4029 430.497C98.2977 433.27 101.902 436.722 105.245 437.758C117.8 441.649 122.907 448.766 122.341 453.732C121.892 457.666 112.99 458.255 107.705 458.255L107.702 458.253ZM73.0779 431.908C72.3874 434.229 69.9202 443.282 70.5044 452.41C70.616 454.163 72.8788 455.716 74.8388 456.011C79.5794 456.728 88.4101 456.776 95.5038 456.816C99.1503 456.837 102.303 456.853 103.931 456.967C110.674 457.432 120.814 456.683 121.164 453.594C121.693 448.952 116.275 442.408 104.892 438.882C101.28 437.763 97.5674 434.205 94.5822 431.345C92.3619 429.217 90.2638 427.207 89.167 427.143C87.2627 427.032 83.4862 431.493 81.5447 434.332C81.396 434.55 81.1198 434.643 80.8675 434.558L73.0726 431.905L73.0779 431.908Z" fill="#1DBFCC"></path><path d="M110.857 452.509C109.258 452.509 107.503 452.418 105.644 452.32C102.889 452.177 100.04 452.028 97.2352 452.155C90.8718 452.445 85.4273 452.195 81.9827 451.932C75.5954 451.446 75.3431 451.043 75.2475 450.891C75.1333 450.711 75.1254 450.48 75.2289 450.291C75.3856 450.004 75.7442 449.898 76.0283 450.052C76.0283 450.052 76.0336 450.052 76.0363 450.055C77.0561 450.323 85.9266 451.486 97.182 450.974C100.042 450.843 102.921 450.992 105.705 451.138C109.922 451.359 113.903 451.566 116.206 450.586C116.506 450.458 116.851 450.596 116.981 450.897C117.109 451.197 116.971 451.542 116.671 451.672C115.162 452.315 113.173 452.506 110.857 452.506V452.509Z" fill="#1DBFCC"></path><path d="M95.267 444.934C95.1183 444.934 94.9696 444.878 94.8554 444.767C94.6217 444.538 94.619 444.164 94.8448 443.933L99.2534 439.421C99.4818 439.187 99.8563 439.184 100.087 439.41C100.321 439.639 100.324 440.013 100.098 440.244L95.6893 444.756C95.5725 444.876 95.4211 444.934 95.267 444.934Z" fill="#1DBFCC"></path><path d="M13.1677 410.699L12.5542 426.102L23.3077 428.7L25.2225 410.808L13.1677 410.699Z" fill="white"></path><path d="M23.3074 429.292C23.2622 429.292 23.2144 429.286 23.1693 429.276L12.4158 426.679C12.1422 426.612 11.9537 426.362 11.9643 426.081L12.5778 410.675C12.5911 410.359 12.8513 410.109 13.1674 410.109H13.1727L25.2275 410.218C25.3948 410.218 25.5515 410.293 25.6631 410.415C25.7746 410.54 25.8277 410.704 25.8092 410.869L23.8943 428.763C23.8757 428.933 23.7854 429.085 23.6473 429.183C23.5464 429.255 23.4269 429.292 23.3074 429.292ZM13.1647 425.645L22.7921 427.972L24.5662 411.395L13.7331 411.296L13.1621 425.645H13.1647Z" fill="#1DBFCC"></path><path d="M24.9488 456.71C20.6384 457.318 13.6057 457.576 5.27705 456.702C1.54295 456.309 0.0875546 451.117 0.743545 448.445C2.57076 441.001 5.74448 428.997 11.1464 422.454L13.1303 426.451L15.0027 422.555C15.2577 422.098 15.7118 421.787 16.2297 421.721L20.2692 421.761C21.1164 421.652 21.9052 422.215 22.0805 423.054L22.7259 426.132L26.1731 422.156L28.8635 451.521C29.1928 454.036 27.4506 456.357 24.9461 456.71H24.9488Z" fill="white"></path><path d="M15.7517 457.86C12.7931 457.86 9.25821 457.714 5.21338 457.289C3.77658 457.137 2.51771 456.349 1.57224 455.002C0.0876251 452.893 -0.257633 450.036 0.1673 448.304C2.35836 439.373 5.53474 428.323 10.6897 422.079C10.8172 421.925 11.0164 421.845 11.2129 421.869C11.4121 421.893 11.5847 422.015 11.675 422.193L13.1225 425.106L14.4716 422.299C14.8302 421.649 15.4543 421.226 16.1581 421.136C16.1846 421.134 16.2059 421.131 16.2377 421.131L20.2401 421.168C21.3741 421.046 22.4258 421.813 22.6622 422.931L23.0632 424.846L25.7323 421.771C25.8864 421.593 26.1334 421.524 26.3591 421.596C26.5849 421.667 26.7442 421.869 26.7655 422.103L29.4558 451.467C29.825 454.274 27.8437 456.898 25.0339 457.294C23.4961 457.512 20.3144 457.86 15.7544 457.86H15.7517ZM11.0297 423.55C5.73658 430.561 2.65582 443.118 1.31462 448.586C0.961394 450.023 1.27213 452.522 2.53896 454.322C3.29322 455.395 4.23604 455.998 5.33821 456.115C12.3762 456.853 19.6744 456.859 24.8665 456.126C27.0364 455.82 28.5688 453.788 28.2819 451.597L25.7164 423.59L23.1774 426.519C23.0314 426.689 22.8003 426.761 22.5825 426.705C22.3647 426.649 22.2001 426.474 22.1523 426.256L21.5069 423.178C21.3954 422.645 20.8881 422.281 20.3463 422.35C20.3198 422.352 20.2932 422.355 20.2666 422.355L16.2723 422.318C15.9562 422.368 15.6774 422.565 15.5207 422.846L13.6642 426.713C13.566 426.918 13.3615 427.045 13.1357 427.048C12.9365 427.037 12.7028 426.923 12.6046 426.721L11.035 423.561L11.0297 423.55Z" fill="#1DBFCC"></path><path d="M12.9709 453.04C10.2141 453.04 7.23163 452.796 4.2571 452.116C3.9384 452.044 3.74187 451.728 3.81357 451.409C3.88528 451.091 4.20398 450.894 4.52003 450.966C14.66 453.281 25.2594 450.304 25.3657 450.275C25.6764 450.185 26.0057 450.366 26.096 450.679C26.1863 450.992 26.0057 451.319 25.6923 451.409C25.3736 451.5 19.8867 453.04 12.9735 453.04H12.9709Z" fill="#1DBFCC"></path><path d="M10.501 441.638C10.185 441.638 9.92208 441.386 9.91145 441.067C9.90083 440.741 10.1558 440.47 10.4825 440.459L20.1736 440.138C20.4949 440.135 20.7712 440.382 20.7818 440.709C20.7924 441.035 20.5374 441.306 20.2108 441.317L10.5196 441.638C10.5196 441.638 10.5064 441.638 10.501 441.638Z" fill="#1DBFCC"></path><path d="M126.713 226.189C130.792 250.061 138.207 308.729 122.198 352.613C108.419 390.38 98.5846 409.188 94.8054 416.018C93.7722 417.885 91.7113 418.926 89.5973 418.656L79.776 417.391C76.8652 417.017 74.8388 414.305 75.3036 411.4C78.8863 388.93 93.1189 279.553 89.3264 269.443L28.3352 412.813C27.6765 414.335 26.1733 415.312 24.5187 415.293L14.2168 415.179C11.9221 415.153 10.0923 413.243 10.1533 410.943C13.1969 294.901 47.1703 276.228 57.1244 220.747C57.1483 220.617 60.3831 224.516 60.5053 224.588C70.4726 230.361 75.4603 229.912 90.7499 230.749C107.29 231.652 122.652 225.411 126.274 225.581C126.551 225.594 126.665 225.915 126.713 226.192V226.189Z" fill="#1DBFCC"></path><path d="M108.49 115.03L111.308 100.575C111.51 99.603 112.312 98.87 113.295 98.7558L118.962 98.1105C120.171 97.9724 121.14 97.0455 121.331 95.8398L122.614 87.777C122.614 87.777 122.625 87.7531 122.635 87.7478L125.328 86.2898C125.865 86.0003 126.069 85.3337 125.793 84.7893L122.957 79.2388C122.404 78.1579 121.645 72.0577 120.436 72.1188C120.436 72.1188 100.04 65.0147 94.0401 73.4838C92.4519 75.7279 92.274 78.6864 93.3496 81.2173L94.7226 84.4467C96.1488 87.8036 96.4675 91.5774 95.376 95.0564C94.9882 96.2966 94.4411 97.497 93.7453 98.6204L86.0806 110.574C91.6498 113.37 97.7742 114.871 104.002 114.961L108.49 115.028V115.03Z" fill="white"></path><path d="M108.493 115.62H108.486L103.997 115.554C97.7188 115.461 91.4324 113.921 85.8207 111.103C85.6719 111.029 85.5604 110.893 85.5152 110.731C85.4701 110.569 85.4966 110.397 85.5869 110.256L93.2517 98.3023C93.9103 97.2374 94.4388 96.0848 94.816 94.8791C95.8278 91.6444 95.6047 88.0219 94.1812 84.6757L92.8081 81.4463C91.621 78.6525 91.9078 75.4709 93.5597 73.1392C99.6044 64.609 118.88 70.9588 120.546 71.5298C121.664 71.6228 122.19 73.588 122.901 76.759C123.114 77.7017 123.332 78.6764 123.483 78.9712L126.319 84.5217C126.739 85.345 126.42 86.3701 125.61 86.8083L123.156 88.1388L121.916 95.9334C121.685 97.394 120.498 98.5307 119.032 98.698L113.364 99.3434C112.631 99.4257 112.039 99.9701 111.888 100.695L109.07 115.145C109.017 115.421 108.772 115.623 108.491 115.623L108.493 115.62ZM86.9361 110.338C92.2398 112.893 98.1304 114.287 104.013 114.375L108.007 114.433L110.732 100.461C110.987 99.2292 111.991 98.3129 113.231 98.1695L118.899 97.5242C119.839 97.4179 120.601 96.6876 120.75 95.7475L122.033 87.6847C122.062 87.5041 122.195 87.3155 122.357 87.2279L125.05 85.7699C125.302 85.6344 125.401 85.3131 125.27 85.0581L122.434 79.5076C122.227 79.1013 122.038 78.2966 121.751 77.0192C121.462 75.7392 120.87 73.0993 120.392 72.7063C120.341 72.701 120.293 72.693 120.246 72.6744C120.046 72.6054 100.199 65.8147 94.5238 73.8217C93.1083 75.8188 92.8666 78.5649 93.897 80.9842L95.2701 84.2136C96.8025 87.8175 97.0415 91.7294 95.9447 95.2323C95.5383 96.5309 94.9673 97.7738 94.2529 98.9317L86.9388 110.335L86.9361 110.338Z" fill="#1DBFCC"></path><path d="M104.531 81.1117C103.484 78.509 101.848 77.5344 102.154 76.0551C102.34 75.1628 103.11 74.6024 103.551 74.2838C105.734 72.7009 108.602 73.6676 114.365 74.7538C121.52 76.1029 122.336 76.3154 123.685 75.7816C127.116 74.4245 129.068 70.2019 129.217 66.7282C129.259 65.7535 129.344 60.5802 124.954 57.9111C121.783 55.9831 117.539 56.1291 114.11 58.2644C113.81 57.2605 113.186 55.845 111.824 55.1492C108.592 53.4973 103.771 57.2021 102.085 58.4981C100.526 59.6958 97.7452 62.1975 95.7533 66.5981C95.1159 66.2422 92.7283 65.0046 90.1256 65.8359C86.256 67.0734 85.3026 71.8033 85.2203 72.2521C84.2509 77.4786 88.548 82.0385 91.7908 85.483C93.5782 87.3819 94.5183 88.1042 95.5674 88.8053C96.1888 89.2196 96.9909 89.2488 97.6442 88.8903C97.6549 88.885 97.6682 88.877 97.6788 88.8717C98.5366 88.399 98.8234 87.2995 98.3082 86.4656L98.1435 86.2001C97.5247 85.2015 97.1025 84.0834 96.9723 82.9123C96.8687 81.9801 96.9431 81.0001 97.5433 80.4982C98.51 79.6855 100.157 80.222 100.393 80.299C101.599 80.6921 102.356 81.587 102.82 82.4369C103.32 83.3478 104.99 82.2643 104.528 81.109L104.531 81.1117Z" fill="#002345"></path><path d="M48.8938 60.8962C48.6919 60.8962 48.4874 60.883 48.2829 60.8564C45.7201 60.5297 43.8689 58.198 44.1558 55.6618C44.2939 54.4375 44.9021 53.346 45.8688 52.5864C46.8514 51.8136 48.0864 51.4763 49.34 51.6383C51.9028 51.965 53.754 54.2967 53.4671 56.833C53.329 58.0573 52.7208 59.1488 51.7541 59.9083C50.9308 60.5536 49.9322 60.8962 48.8938 60.8962ZM45.327 55.7946C45.1119 57.6934 46.5062 59.4409 48.4317 59.6879C49.3692 59.8074 50.2907 59.5577 51.0238 58.9814C51.7408 58.4184 52.1923 57.6084 52.2932 56.7028C52.5084 54.804 51.1141 53.0565 49.1886 52.8095C48.2511 52.69 47.3295 52.9396 46.5965 53.5159C45.8794 54.079 45.4279 54.889 45.327 55.7946Z" fill="#1DBFCC"></path><path d="M31.0811 69.5833C30.9775 69.5833 30.8766 69.5568 30.781 69.501L26.8451 67.1719C26.5635 67.0073 26.4706 66.6434 26.6379 66.3646C26.8026 66.0831 27.1664 65.9901 27.4453 66.1574L31.3812 68.4865C31.6627 68.6512 31.7557 69.015 31.5884 69.2939C31.4795 69.4798 31.283 69.5833 31.0811 69.5833Z" fill="#1DBFCC"></path><path d="M40.2491 75.0091C40.1455 75.0091 40.0446 74.9826 39.949 74.9268L36.013 72.5977C35.7315 72.4304 35.6386 72.0692 35.8059 71.7904C35.9705 71.5089 36.3344 71.4159 36.6133 71.5832L40.5492 73.9123C40.8307 74.077 40.9237 74.4408 40.7564 74.7196C40.6475 74.9056 40.4509 75.0091 40.2491 75.0091Z" fill="#1DBFCC"></path><path d="M29.8195 77.6852C29.7186 77.6852 29.615 77.6586 29.5194 77.6028C29.2379 77.4382 29.1449 77.0744 29.3122 76.7955L31.6414 72.8597C31.8087 72.5782 32.1672 72.4852 32.4488 72.6526C32.7303 72.8172 32.8232 73.181 32.6559 73.4599L30.3268 77.3957C30.2152 77.5816 30.0187 77.6852 29.8168 77.6852H29.8195Z" fill="#1DBFCC"></path><path d="M35.2453 68.5123C35.1444 68.5123 35.0408 68.4858 34.9452 68.43C34.6636 68.2654 34.5707 67.9015 34.738 67.6227L37.0672 63.6869C37.2345 63.4053 37.5957 63.3124 37.8745 63.4797C38.1561 63.6444 38.249 64.0082 38.0817 64.2871L35.7525 68.2229C35.6436 68.4088 35.4445 68.5123 35.2426 68.5123H35.2453Z" fill="#1DBFCC"></path><path d="M444.052 485.41H237.684C225.294 485.41 216.028 474.036 218.522 461.896L249.831 309.638C252.463 296.834 263.732 287.646 276.799 287.646H453.813L444.052 485.413V485.41Z" fill="white"></path><path d="M444.052 486H237.684C231.602 486 225.91 483.297 222.067 478.583C218.222 473.866 216.718 467.739 217.945 461.777L249.255 309.519C251.932 296.503 263.517 287.054 276.801 287.054H453.815C453.977 287.054 454.131 287.12 454.243 287.237C454.354 287.354 454.413 287.51 454.405 287.672L444.645 485.44C444.629 485.753 444.371 486 444.055 486H444.052ZM276.799 288.233C264.072 288.233 252.973 297.284 250.41 309.755L219.101 462.014C217.945 467.628 219.361 473.394 222.981 477.834C226.598 482.272 231.958 484.816 237.681 484.816H443.487L453.188 288.23H276.796L276.799 288.233Z" fill="#1DBFCC"></path><path d="M470.475 485.41H430.428C418.038 485.41 408.772 474.036 411.266 461.896L445.749 294.192C446.533 290.378 449.89 287.643 453.781 287.643H464.08C468.35 287.643 471.904 290.92 472.252 295.177L486.357 468.169C487.114 477.453 479.786 485.407 470.475 485.407V485.41Z" fill="white"></path><path d="M470.475 486H430.428C424.346 486 418.655 483.297 414.812 478.583C410.966 473.866 409.463 467.739 410.69 461.777L445.173 294.073C446.01 290.004 449.63 287.051 453.781 287.051H464.08C468.622 287.051 472.47 290.599 472.839 295.127L486.944 468.119C487.319 472.711 485.744 477.284 482.623 480.67C479.503 484.053 475.075 485.995 470.475 485.995V486ZM453.781 288.233C450.188 288.233 447.054 290.787 446.329 294.312L411.845 462.016C410.69 467.63 412.106 473.396 415.726 477.836C419.343 482.274 424.702 484.818 430.426 484.818H470.473C474.807 484.818 478.815 483.063 481.755 479.873C484.652 476.729 486.116 472.48 485.768 468.217L471.663 295.225C471.344 291.303 468.011 288.233 464.08 288.233H453.781Z" fill="#1DBFCC"></path><path d="M457.712 480.049H430.426C426.139 480.049 422.126 478.142 419.417 474.82C416.708 471.495 415.651 467.179 416.514 462.978L427.833 407.927C427.9 407.608 428.211 407.401 428.529 407.467C428.848 407.534 429.055 407.845 428.989 408.163L417.67 463.214C416.878 467.065 417.848 471.025 420.331 474.071C422.814 477.119 426.492 478.867 430.423 478.867H457.709C458.036 478.867 458.299 479.13 458.299 479.457C458.299 479.783 458.033 480.046 457.709 480.046L457.712 480.049Z" fill="#1DBFCC"></path><path d="M470.475 480.048C470.149 480.048 469.886 479.785 469.886 479.459C469.886 479.132 470.149 478.869 470.475 478.869C473.131 478.869 475.585 477.793 477.383 475.839C479.184 473.884 480.055 471.351 479.84 468.703L476.626 429.278C476.6 428.954 476.841 428.668 477.165 428.641C477.484 428.612 477.776 428.856 477.8 429.18L481.014 468.605C481.258 471.584 480.275 474.437 478.249 476.636C476.223 478.834 473.46 480.045 470.473 480.045L470.475 480.048Z" fill="#1DBFCC"></path><path d="M468.266 320.109C467.96 320.109 467.702 319.876 467.679 319.568L467.009 311.351C466.983 311.027 467.224 310.74 467.548 310.713C467.875 310.684 468.159 310.928 468.183 311.252L468.852 319.469C468.879 319.793 468.637 320.08 468.313 320.107C468.297 320.107 468.281 320.107 468.266 320.107V320.109Z" fill="#1DBFCC"></path><path d="M442.122 341.971C442.082 341.971 442.042 341.966 442.002 341.958C441.683 341.892 441.476 341.581 441.543 341.262L451 295.273C451.271 293.958 452.44 293.005 453.781 293.005H464.08C465.549 293.005 466.789 294.152 466.909 295.613L467.347 300.993C467.373 301.317 467.132 301.604 466.808 301.631C466.486 301.66 466.199 301.416 466.173 301.092L465.735 295.711C465.666 294.856 464.938 294.187 464.083 294.187H453.783C453 294.187 452.317 294.744 452.158 295.512L442.701 341.501C442.642 341.78 442.398 341.974 442.124 341.974L442.122 341.971Z" fill="#1DBFCC"></path><path d="M415.935 368.159H254.354C254.028 368.159 253.765 367.896 253.765 367.57C253.765 367.243 254.028 366.98 254.354 366.98H415.935C420.471 366.98 424.37 363.897 425.416 359.48L439.66 299.328C439.734 299.012 440.053 298.815 440.369 298.89C440.685 298.964 440.881 299.283 440.807 299.599L426.564 359.751C425.393 364.702 421.021 368.159 415.935 368.159Z" fill="#1DBFCC"></path><path d="M353.571 367.57L349.045 385.836C348.315 388.928 345.555 391.108 342.382 391.108H310.379C306.894 391.108 304.371 387.786 305.304 384.426L309.991 367.57H353.571Z" fill="white"></path><path d="M342.382 391.697H310.379C308.533 391.697 306.833 390.855 305.715 389.384C304.597 387.913 304.239 386.048 304.735 384.266L309.423 367.41C309.495 367.155 309.726 366.978 309.991 366.978H353.571C353.751 366.978 353.924 367.06 354.036 367.203C354.147 367.347 354.187 367.533 354.144 367.708L349.619 385.974C348.822 389.339 345.845 391.695 342.382 391.695V391.697ZM310.44 368.159L305.875 384.582C305.479 386.003 305.766 387.493 306.658 388.67C307.551 389.843 308.908 390.518 310.382 390.518H342.384C345.298 390.518 347.802 388.537 348.474 385.7L352.819 368.162H310.443L310.44 368.159Z" fill="#1DBFCC"></path><path d="M401.19 470.703H229.535C229.209 470.703 228.946 470.44 228.946 470.113C228.946 469.786 229.209 469.523 229.535 469.523H401.19C401.516 469.523 401.779 469.789 401.779 470.113C401.779 470.437 401.514 470.703 401.19 470.703Z" fill="#1DBFCC"></path><path d="M317.574 280.732H304.175C300.555 280.732 297.621 283.67 297.621 287.289H324.128C324.128 283.667 321.194 280.732 317.574 280.732Z" fill="white"></path><path d="M324.128 287.88H297.62C297.294 287.88 297.031 287.614 297.031 287.29C297.031 283.349 300.236 280.144 304.175 280.144H317.574C321.512 280.144 324.718 283.349 324.718 287.29C324.718 287.617 324.455 287.88 324.128 287.88ZM298.239 286.701H323.509C323.212 283.686 320.665 281.323 317.574 281.323H304.175C301.086 281.323 298.537 283.686 298.239 286.701Z" fill="#1DBFCC"></path><path d="M424.96 280.732H411.561C407.941 280.732 405.006 283.67 405.006 287.289H431.514C431.514 283.667 428.58 280.732 424.96 280.732Z" fill="#1DBFCC"></path><path d="M431.517 287.88H405.009C404.682 287.88 404.419 287.614 404.419 287.29C404.419 283.349 407.625 280.144 411.564 280.144H424.962C428.901 280.144 432.106 283.349 432.106 287.29C432.106 287.617 431.841 287.88 431.517 287.88ZM405.628 286.701H430.898C430.601 283.686 428.054 281.323 424.962 281.323H411.564C408.475 281.323 405.925 283.686 405.628 286.701Z" fill="#1DBFCC"></path><path d="M421.462 280.379L423.621 267.549C425.153 258.451 419.021 251.073 409.925 251.073H329.578C320.482 251.073 311.869 258.451 310.336 267.549L308.177 280.379H314.326L316.007 270.394C317.199 263.311 323.902 257.572 330.983 257.572H406.334C413.412 257.572 418.187 263.314 416.995 270.394L415.314 280.379H421.462Z" fill="white"></path><path d="M421.465 280.969H415.316C415.144 280.969 414.979 280.892 414.865 280.759C414.753 280.626 414.706 280.451 414.735 280.281L416.416 270.295C416.968 267.01 416.206 263.935 414.265 261.643C412.366 259.399 409.551 258.161 406.34 258.161H330.988C324.195 258.161 317.738 263.693 316.594 270.492L314.913 280.477C314.865 280.761 314.618 280.969 314.331 280.969H308.183C308.01 280.969 307.846 280.892 307.731 280.759C307.62 280.626 307.572 280.451 307.601 280.281L309.76 267.451C311.335 258.095 320.227 250.483 329.584 250.483H409.93C414.461 250.483 418.442 252.242 421.143 255.434C423.897 258.69 424.986 263.026 424.208 267.647L422.049 280.477C422.001 280.761 421.754 280.969 421.467 280.969H421.465ZM416.012 279.789H420.965L423.042 267.451C423.762 263.18 422.766 259.181 420.24 256.196C417.768 253.272 414.105 251.663 409.928 251.663H329.581C320.774 251.663 312.406 258.833 310.921 267.647L308.879 279.789H313.832L315.428 270.295C316.663 262.952 323.642 256.979 330.986 256.979H406.337C409.904 256.979 413.038 258.363 415.165 260.878C417.332 263.443 418.19 266.856 417.579 270.489L416.015 279.787L416.012 279.789Z" fill="#1DBFCC"></path><path d="M405.936 245.762H335.357C332.513 245.762 329.82 248.07 329.339 250.914L328.301 257.08C327.823 259.925 329.74 262.233 332.584 262.233H403.163C406.008 262.233 408.701 259.925 409.181 257.08L410.22 250.914C410.698 248.07 408.78 245.762 405.936 245.762Z" fill="white"></path><path d="M403.163 262.823H332.585C331.047 262.823 329.692 262.223 328.768 261.131C327.828 260.021 327.456 258.547 327.719 256.983L328.757 250.816C329.281 247.704 332.242 245.173 335.357 245.173H405.936C407.474 245.173 408.828 245.773 409.752 246.865C410.693 247.975 411.064 249.449 410.801 251.013L409.763 257.179C409.24 260.292 406.279 262.823 403.163 262.823ZM335.357 246.352C332.792 246.352 330.354 248.442 329.923 251.013L328.885 257.179C328.68 258.396 328.959 259.53 329.671 260.369C330.367 261.19 331.4 261.644 332.587 261.644H403.166C405.731 261.644 408.169 259.554 408.6 256.983L409.638 250.816C409.843 249.6 409.564 248.466 408.852 247.627C408.156 246.806 407.123 246.352 405.936 246.352H335.357Z" fill="#1DBFCC"></path><path d="M362.696 262.823H332.585C331.047 262.823 329.692 262.223 328.768 261.131C327.828 260.021 327.456 258.547 327.719 256.983L328.757 250.816C329.281 247.704 332.242 245.173 335.357 245.173H358.898C359.225 245.173 359.488 245.438 359.488 245.762C359.488 246.086 359.225 246.352 358.898 246.352H335.357C332.792 246.352 330.354 248.442 329.923 251.013L328.885 257.179C328.68 258.396 328.959 259.53 329.671 260.369C330.367 261.19 331.4 261.644 332.587 261.644H362.699C363.026 261.644 363.289 261.909 363.289 262.233C363.289 262.557 363.023 262.823 362.699 262.823H362.696Z" fill="#1DBFCC"></path><path d="M430.048 470.703C429.844 470.703 429.644 470.596 429.536 470.405C429.374 470.121 429.472 469.762 429.756 469.6L457.122 454.001V299.461C457.122 299.134 457.387 298.871 457.711 298.871C458.035 298.871 458.301 299.134 458.301 299.461V454.343C458.301 454.556 458.187 454.752 458.003 454.856L430.34 470.626C430.247 470.679 430.149 470.703 430.048 470.703Z" fill="#1DBFCC"></path><path d="M428.97 283.779C428.97 283.779 441.282 288.368 446.11 284.504C450.939 280.64 438.626 274.117 435.729 274.601C432.831 275.084 428.97 283.779 428.97 283.779Z" fill="#1DBFCC"></path><path d="M367.092 382.256L378.679 402.546L384.958 393.851L374.818 374.045L367.092 382.256Z" fill="white"></path><path d="M378.679 403.136C378.679 403.136 378.658 403.136 378.647 403.136C378.448 403.125 378.265 403.014 378.166 402.838L366.576 382.548C366.449 382.323 366.481 382.041 366.659 381.85L374.385 373.638C374.515 373.498 374.706 373.431 374.897 373.458C375.088 373.484 375.253 373.601 375.341 373.774L385.481 393.58C385.582 393.777 385.563 394.016 385.433 394.194L379.154 402.889C379.043 403.043 378.865 403.133 378.676 403.133L378.679 403.136ZM367.819 382.344L378.737 401.457L384.267 393.798L374.671 375.059L367.819 382.344Z" fill="#1DBFCC"></path><path d="M374.666 399.452C377.723 405.754 385.457 421.041 392.912 428.368C394.728 430.155 397.801 429.324 398.454 426.859C400.786 418.034 402.34 399.649 393.65 385.156C393.65 385.156 389.518 384.673 381.792 386.123L383.51 393.368L382.562 392.691C381.133 391.671 379.194 391.756 377.861 392.898L375.635 394.807C374.294 395.957 373.899 397.864 374.669 399.452H374.666Z" fill="#1DBFCC"></path><path d="M394.131 426.323C394.062 426.323 393.99 426.31 393.921 426.286C393.616 426.172 393.462 425.829 393.579 425.527C400.178 408.081 391.268 387.534 391.175 387.329C391.042 387.032 391.178 386.684 391.478 386.551C391.775 386.418 392.123 386.554 392.256 386.854C392.349 387.064 401.45 408.054 394.683 425.946C394.593 426.183 394.37 426.329 394.131 426.329V426.323Z" fill="white"></path><path d="M379.163 408.83C378.969 408.83 378.78 408.734 378.666 408.561C378.488 408.288 378.565 407.921 378.839 407.746L384.634 403.985C384.907 403.808 385.274 403.884 385.449 404.158C385.627 404.432 385.55 404.798 385.276 404.973L379.481 408.734C379.383 408.798 379.272 408.83 379.16 408.83H379.163Z" fill="white"></path><path d="M382.06 413.977C381.882 413.977 381.707 413.897 381.593 413.746C381.394 413.488 381.444 413.116 381.702 412.917L387.013 408.838C387.271 408.638 387.643 408.686 387.842 408.947C388.041 409.204 387.991 409.576 387.733 409.775L382.421 413.854C382.315 413.937 382.188 413.977 382.063 413.977H382.06Z" fill="white"></path><path d="M330.393 382.739C330.393 383.223 319.77 406.41 319.77 406.41L331.841 407.377L340.05 387.57L330.393 382.739Z" fill="white"></path><path d="M331.841 407.967C331.825 407.967 331.809 407.967 331.793 407.967L319.723 407C319.531 406.984 319.359 406.875 319.26 406.711C319.162 406.543 319.152 406.341 319.234 406.166C323.334 397.214 329.509 383.622 329.812 382.639C329.841 382.474 329.94 382.328 330.083 382.238C330.258 382.129 330.473 382.121 330.657 382.211L340.313 387.042C340.589 387.18 340.712 387.51 340.595 387.796L332.386 407.603C332.293 407.823 332.077 407.967 331.841 407.967ZM320.657 405.89L331.461 406.756L339.296 387.855L330.704 383.558C330.051 385.167 327.881 390.12 320.66 405.893L320.657 405.89Z" fill="#1DBFCC"></path><path d="M330.877 401.58C330.877 401.58 328.462 395.782 322.184 398.682C322.184 398.682 310.66 415.334 306.379 429.083C305.168 432.971 309.16 436.476 312.87 434.8C321.555 430.878 335.163 422.645 342.95 407.38C342.95 407.38 340.536 401.099 336.672 398.202L330.877 401.582V401.58Z" fill="#1DBFCC"></path><path d="M309.92 431.197C309.423 431.197 309.131 431.159 309.059 431.149C308.738 431.101 308.515 430.801 308.563 430.479C308.61 430.158 308.908 429.935 309.232 429.983C309.367 430.001 322.192 431.483 339.575 407.515C339.766 407.252 340.135 407.191 340.398 407.385C340.661 407.576 340.722 407.946 340.528 408.208C325.029 429.579 313.157 431.199 309.92 431.199V431.197Z" fill="white"></path><path d="M319.767 418.112C319.667 418.112 319.563 418.085 319.47 418.032L313.675 414.651C313.393 414.487 313.298 414.125 313.463 413.844C313.627 413.562 313.988 413.467 314.27 413.631L320.065 417.012C320.346 417.177 320.442 417.538 320.277 417.82C320.168 418.008 319.969 418.112 319.767 418.112Z" fill="white"></path><path d="M322.665 413.764C322.57 413.764 322.474 413.74 322.386 413.692L316.108 410.311C315.821 410.157 315.715 409.799 315.869 409.512C316.023 409.225 316.382 409.119 316.668 409.273L322.947 412.653C323.234 412.808 323.34 413.166 323.186 413.453C323.08 413.649 322.875 413.764 322.665 413.764Z" fill="white"></path><path d="M392.2 265.837C392.2 265.837 360.728 271.459 338.047 295.252C332.324 301.256 330.3 309.901 332.757 317.828C337.795 334.089 348.764 363.789 367.092 386.123L381.096 374.048C381.096 374.048 377.715 346.03 368.542 328.64C359.366 311.25 412.966 273.57 412.966 273.57L392.202 265.842L392.2 265.837Z" fill="white"></path><path d="M367.092 386.712C367.076 386.712 367.057 386.712 367.041 386.712C366.882 386.699 366.736 386.622 366.635 386.5C348.153 363.976 337.123 333.916 332.192 318.006C329.674 309.876 331.753 301.004 337.62 294.848C360.173 271.19 391.78 265.316 392.096 265.26C392.2 265.241 392.306 265.252 392.407 265.287L413.171 273.015C413.375 273.092 413.521 273.275 413.55 273.493C413.58 273.711 413.484 273.926 413.303 274.051C412.772 274.425 360.232 311.627 369.062 328.363C378.183 345.649 381.646 373.694 381.68 373.975C381.704 374.172 381.63 374.366 381.481 374.493L367.477 386.569C367.368 386.662 367.233 386.712 367.092 386.712ZM392.15 266.447C389.728 266.92 359.942 273.14 338.475 295.658C332.903 301.503 330.927 309.93 333.32 317.652C338.191 333.372 349.04 362.965 367.166 385.281L380.469 373.808C380.063 370.695 376.52 345.03 368.019 328.915C359.268 312.328 404.428 278.969 411.715 273.734L392.15 266.452V266.447Z" fill="#1DBFCC"></path><path d="M326.529 387.087L342.948 391.918C342.948 391.918 372.887 328.634 381.577 319.456C390.269 310.278 407.168 295.302 425.034 289.988C442.9 284.674 442.9 271.148 442.9 271.148L412.48 262.453C412.48 262.453 369.987 280.81 355.985 301.583C341.981 322.356 326.529 387.087 326.529 387.087Z" fill="white"></path><path d="M342.948 392.507C342.892 392.507 342.836 392.499 342.78 392.483L326.362 387.652C326.062 387.565 325.881 387.254 325.956 386.949C326.11 386.301 341.593 321.875 355.497 301.253C369.434 280.576 411.821 262.097 412.249 261.914C412.374 261.861 412.515 261.85 412.645 261.887L443.065 270.582C443.317 270.654 443.492 270.885 443.492 271.15C443.492 271.291 443.282 285.178 425.204 290.556C405.254 296.489 387.096 314.489 382.007 319.865C373.479 328.87 343.782 391.54 343.482 392.172C343.383 392.382 343.171 392.51 342.948 392.51V392.507ZM327.236 386.678L342.632 391.208C345.561 385.034 372.786 327.885 381.149 319.049C386.291 313.621 404.637 295.44 424.867 289.422C440.313 284.828 442.085 273.907 442.286 271.586L412.523 263.08C409.402 264.455 369.742 282.23 356.474 301.912C343.367 321.352 328.771 380.365 327.236 386.678Z" fill="#1DBFCC"></path><path d="M467.527 221.393C459.318 204.967 445.797 202.553 445.797 202.553L422.62 200.62C415.372 200.128 407.667 204.609 404.804 211.288L383.507 261.003C383.507 261.003 387.852 272.598 407.168 274.529C426.484 276.462 439.763 275.254 446.039 282.982C450.177 288.079 450.047 254.093 447.667 227.214L467.527 221.39V221.393Z" fill="white"></path><path d="M446.82 284.09C446.469 284.09 446.039 283.92 445.582 283.357C440.876 277.562 431.793 276.943 419.221 276.083C415.582 275.833 411.458 275.552 407.11 275.119C387.653 273.172 383.138 261.699 382.955 261.213C382.902 261.07 382.905 260.913 382.966 260.772L404.263 211.057C407.174 204.261 415.08 199.52 422.66 200.033L445.848 201.966C446.042 201.998 459.81 204.633 468.056 221.13C468.133 221.287 468.138 221.47 468.069 221.629C468 221.789 467.862 221.911 467.695 221.959L448.299 227.647C449.962 246.766 451.335 282.348 447.253 284.005C447.128 284.055 446.985 284.09 446.823 284.09H446.82ZM384.15 261.006C384.857 262.549 389.961 272.219 407.227 273.945C411.556 274.378 415.67 274.659 419.3 274.906C432.17 275.785 441.468 276.42 446.499 282.613C446.714 282.879 446.831 282.908 446.831 282.908C446.881 282.881 448.666 281.976 448.737 264.084C448.78 253.254 448.161 239.492 447.078 227.27C447.054 226.989 447.229 226.731 447.5 226.651L466.678 221.029C458.665 205.618 445.824 203.159 445.694 203.138L422.57 201.212C415.478 200.731 408.069 205.167 405.346 211.524L384.148 261.009L384.15 261.006Z" fill="#1DBFCC"></path><path d="M405.54 264.206L416.163 259.375L424.373 262.756C424.373 262.756 468.863 258.295 449.173 226.776C449.088 226.641 464.194 222.373 464.194 222.373C464.194 222.373 482.142 265.173 425.339 266.14C425.339 266.14 422.442 267.106 418.58 265.173C414.716 263.24 407.957 267.106 405.543 264.206H405.54Z" fill="white"></path><path d="M423.406 266.974C422.123 266.974 420.344 266.716 418.315 265.701C416.676 264.881 414.344 265.229 412.092 265.563C409.261 265.986 406.586 266.384 405.089 264.583C404.972 264.443 404.926 264.254 404.966 264.074C405.006 263.893 405.131 263.744 405.298 263.667L415.922 258.836C416.07 258.77 416.24 258.767 416.392 258.828L424.46 262.153C426.37 261.93 446.519 259.317 452.145 247.85C454.917 242.196 453.751 235.211 448.676 227.087C448.578 226.93 448.559 226.734 448.626 226.559C448.766 226.192 448.801 226.107 464.035 221.802C464.324 221.722 464.624 221.866 464.739 222.142C464.808 222.309 471.67 239.051 463.28 251.902C457.076 261.405 444.342 266.392 425.432 266.727C425.18 266.798 424.46 266.971 423.406 266.971V266.974ZM415.717 264.015C416.838 264.015 417.903 264.174 418.846 264.647C422.418 266.434 425.129 265.59 425.159 265.579C425.214 265.561 425.275 265.55 425.334 265.55C443.874 265.234 456.309 260.427 462.295 251.26C469.562 240.132 464.877 225.881 463.841 223.088C458.928 224.476 452.137 226.426 450.06 227.084C455.042 235.317 456.099 242.477 453.204 248.375C447.035 260.945 425.355 263.256 424.436 263.349C424.338 263.356 424.242 263.343 424.152 263.306L416.179 260.021L406.65 264.355C407.874 265 409.85 264.708 411.919 264.4C413.191 264.212 414.488 264.018 415.717 264.018V264.015Z" fill="#1DBFCC"></path><path d="M365.049 268.041H406.932L375.882 220.269C374.913 218.777 373.221 217.871 371.405 217.871H337.415C335.256 217.871 333.944 220.182 335.097 221.956L365.049 268.041Z" fill="#1DBFCC"></path><path d="M365.263 237.531C366.131 236.197 364.822 233.807 362.339 232.192C359.857 230.577 357.141 230.35 356.273 231.684C355.406 233.018 356.715 235.408 359.197 237.023C361.68 238.638 364.396 238.865 365.263 237.531Z" fill="white"></path><path d="M363.238 239.003C360.774 239.003 357.685 237.221 356.206 234.943C355.388 233.684 355.202 232.436 355.698 231.522C356.147 230.696 357.074 230.239 358.309 230.239C360.771 230.239 363.862 232.021 365.342 234.3C366.16 235.559 366.346 236.807 365.849 237.72C365.4 238.546 364.473 239.003 363.238 239.003ZM358.309 231.421C357.528 231.421 356.968 231.657 356.734 232.085C356.45 232.608 356.617 233.416 357.194 234.3C358.434 236.209 361.201 237.821 363.236 237.821C364.016 237.821 364.577 237.585 364.808 237.157C365.092 236.634 364.925 235.827 364.348 234.943C363.108 233.033 360.341 231.421 358.306 231.421H358.309Z" fill="#1DBFCC"></path><path d="M432.428 271.632H367.997C366.289 271.632 364.903 270.246 364.903 268.538V267.731H435.519V268.538C435.519 270.246 434.133 271.632 432.425 271.632H432.428Z" fill="#1DBFCC"></path><path d="M450.145 89.5146C467.875 83.9136 490.806 109.364 486.187 130.296C484.912 136.07 486.322 144.802 479.996 147.991C468.775 153.648 461.719 146.799 458.835 151.348C456.335 155.292 465.214 160.975 464.146 169.221C462.558 181.475 440.568 187.389 438.071 188.061C436.207 188.563 409.962 195.269 397.509 181.297C394.51 177.932 390.577 171.423 392.681 167.288C394.686 163.344 400.845 164.191 402.337 160.043C403.63 156.447 399.506 154.437 399.923 150.381C400.728 142.563 416.875 142.159 418.755 133.956C420.259 127.399 410.876 123.543 412.477 117.049C413.77 111.812 420.522 111.671 431.31 104.974C444.225 96.9533 443.425 91.6365 450.142 89.5146H450.145Z" fill="#002345"></path><path d="M430.348 199.172C429.918 198.957 424.107 192.1 420.708 188.061C420.965 186.94 420.928 186.581 420.835 184.882C420.835 184.882 422.596 183.116 421.89 180.824C421.069 178.16 418.541 180.298 418.541 180.298C418.541 180.298 417.369 178.25 412.966 181.78C408.563 185.312 403.91 181.015 403.91 181.015C403.91 181.015 403.91 183.66 406.239 186.874C407.522 188.648 407.739 190.99 407.8 193.178L410.268 192.822C411.628 194.432 412.637 195.221 414.501 195.993C414.501 195.993 415.975 195.722 417.508 194.456L420.211 200.617L417.454 202.067C417.454 202.067 416.83 205.931 424.075 206.898C431.318 207.865 437.113 202.067 437.113 202.067C437.113 202.067 433.249 200.617 430.354 199.17L430.348 199.172Z" fill="white"></path><path d="M425.732 207.602C425.161 207.602 424.582 207.565 423.99 207.488C420.907 207.076 418.771 206.102 417.648 204.59C416.668 203.273 416.857 202.03 416.865 201.98C416.894 201.797 417.008 201.637 417.173 201.552L419.443 200.36L417.26 195.386C415.869 196.342 414.66 196.573 414.602 196.583C414.49 196.605 414.373 196.591 414.27 196.549C412.453 195.797 411.383 195.027 410.026 193.463L407.88 193.771C407.713 193.795 407.545 193.747 407.415 193.638C407.288 193.529 407.211 193.373 407.205 193.203C407.144 191.057 406.929 188.847 405.755 187.227C403.346 183.897 403.314 181.138 403.314 181.023C403.314 180.79 403.453 180.577 403.668 180.484C403.883 180.389 404.132 180.431 404.305 180.591C404.48 180.753 408.645 184.495 412.591 181.329C414.687 179.65 416.413 178.923 417.722 179.172C418.099 179.244 418.384 179.388 418.591 179.536C419.13 179.186 420.075 178.718 420.981 178.981C421.674 179.183 422.168 179.749 422.45 180.657C423.114 182.808 421.916 184.521 421.435 185.1V185.127C421.512 186.478 421.539 186.972 421.345 187.91C429.092 197.109 430.423 198.48 430.648 198.671C433.479 200.084 437.275 201.51 437.312 201.526C437.5 201.597 437.638 201.757 437.681 201.953C437.723 202.15 437.662 202.354 437.522 202.495C437.296 202.721 432.327 207.61 425.73 207.61L425.732 207.602ZM418.028 202.434C418.049 202.753 418.161 203.313 418.62 203.919C419.542 205.13 421.454 205.958 424.144 206.317C429.602 207.044 434.276 203.701 435.989 202.272C434.661 201.749 432.122 200.721 430.08 199.699C429.883 199.6 429.474 199.396 420.253 188.438C420.134 188.298 420.089 188.106 420.129 187.926C420.354 186.948 420.336 186.643 420.256 185.18L420.24 184.911C420.232 184.744 420.293 184.582 420.413 184.463C420.474 184.402 421.911 182.909 421.321 180.997C421.164 180.49 420.939 180.19 420.649 180.105C420.102 179.945 419.247 180.468 418.917 180.747C418.785 180.861 418.607 180.907 418.434 180.877C418.261 180.848 418.11 180.742 418.025 180.588C418.025 180.588 417.868 180.375 417.451 180.312C416.912 180.229 415.656 180.373 413.332 182.237C409.981 184.925 406.486 183.443 404.706 182.325C404.956 183.342 405.506 184.856 406.714 186.524C407.946 188.226 408.265 190.372 408.363 192.499L410.18 192.239C410.382 192.209 410.583 192.286 410.714 192.443C412.01 193.976 412.926 194.685 414.546 195.375C414.942 195.269 416.02 194.916 417.125 194.002C417.268 193.883 417.459 193.84 417.637 193.883C417.818 193.925 417.967 194.05 418.041 194.22L420.745 200.381C420.87 200.665 420.753 200.997 420.479 201.141L418.028 202.429V202.434Z" fill="#1DBFCC"></path><path d="M417.502 195.051C417.34 195.051 417.181 194.985 417.064 194.857C416.846 194.615 416.865 194.241 417.106 194.023L417.903 193.306C418.145 193.088 418.519 193.107 418.737 193.349C418.955 193.59 418.936 193.965 418.695 194.182L417.898 194.9C417.786 195 417.643 195.051 417.502 195.051Z" fill="#1DBFCC"></path><path d="M184.437 115.445L158.521 175.457L181.436 167.893L194.08 188.494L209.628 124.387L184.437 115.445Z" fill="white"></path><path d="M194.078 189.083C193.876 189.083 193.685 188.979 193.576 188.801L181.176 168.602L158.705 176.017C158.484 176.088 158.243 176.027 158.083 175.855C157.926 175.682 157.884 175.435 157.977 175.222L183.895 115.211C184.017 114.927 184.341 114.786 184.634 114.889L209.824 123.829C210.108 123.93 210.273 124.23 210.201 124.524L194.651 188.631C194.596 188.862 194.404 189.038 194.171 189.075C194.139 189.08 194.11 189.083 194.078 189.083ZM181.433 167.303C181.635 167.303 181.826 167.407 181.935 167.585L193.836 186.974L208.926 124.763L184.758 116.185L159.581 174.482L181.247 167.33C181.308 167.308 181.37 167.3 181.433 167.3V167.303Z" fill="#1DBFCC"></path><path d="M207.264 126.612L224.997 189.532L238.008 169.202L260.805 177.204L232.446 117.651L207.264 126.612Z" fill="white"></path><path d="M224.997 190.122C224.968 190.122 224.938 190.122 224.909 190.117C224.681 190.082 224.492 189.918 224.428 189.692L206.695 126.772C206.61 126.472 206.772 126.161 207.065 126.055L232.247 117.095C232.531 116.994 232.847 117.124 232.978 117.397L261.337 176.952C261.44 177.167 261.403 177.422 261.244 177.6C261.084 177.778 260.835 177.842 260.609 177.762L238.249 169.915L225.491 189.851C225.382 190.021 225.193 190.122 224.994 190.122H224.997ZM207.983 126.985L225.209 188.106L237.511 168.884C237.66 168.653 237.947 168.555 238.204 168.645L259.666 176.179L232.144 118.385L207.983 126.982V126.985Z" fill="#1DBFCC"></path><path d="M258.795 100.1L251.72 108.686L254.984 119.328L245.152 124.538L244.089 135.615L233.015 136.68L227.807 146.514L217.173 143.248L208.589 150.328L200.005 143.248L189.369 146.514L184.161 136.678L173.086 135.615L172.023 124.535L162.192 119.328L165.456 108.686L158.38 100.1L165.456 91.5114L162.192 80.8725L172.023 75.6619L173.086 64.5822L184.161 63.5199L189.369 53.6831L200.005 56.9496L208.589 49.8721L217.173 56.9496L227.807 53.6831L233.017 63.5199L244.089 64.5822L245.152 75.6619L254.984 80.8725L251.72 91.5114L258.795 100.1Z" fill="#FFC567"></path><path d="M208.283 135.968C227.918 135.968 243.834 120.045 243.834 100.403C243.834 80.7602 227.918 64.8369 208.283 64.8369C188.649 64.8369 172.732 80.7602 172.732 100.403C172.732 120.045 188.649 135.968 208.283 135.968Z" fill="white"></path><path d="M208.284 136.56C188.354 136.56 172.143 120.342 172.143 100.405C172.143 80.4686 188.357 64.25 208.284 64.25C228.21 64.25 244.424 80.4686 244.424 100.405C244.424 120.342 228.21 136.56 208.284 136.56ZM208.284 65.4291C189.005 65.4291 173.322 81.1192 173.322 100.405C173.322 119.691 189.005 135.381 208.284 135.381C227.562 135.381 243.245 119.691 243.245 100.405C243.245 81.1192 227.562 65.4291 208.284 65.4291Z" fill="#1DBFCC"></path><path d="M206.536 118.395C206.058 118.395 205.596 118.202 205.261 117.854L191.608 103.667C190.93 102.963 190.952 101.842 191.655 101.162C192.359 100.485 193.48 100.506 194.16 101.21L206.308 113.833L223.775 88.4254C224.33 87.6207 225.432 87.4163 226.237 87.9686C227.042 88.5237 227.246 89.6258 226.694 90.4305L207.997 117.625C207.694 118.063 207.213 118.342 206.682 118.387C206.634 118.39 206.586 118.393 206.536 118.393V118.395Z" fill="#FFC567"></path><path d="M348.894 95.8537L342.408 96.855L338.21 92.2977C337.307 91.3177 335.567 91.8356 335.267 93.1741L333.865 99.3992L327.828 102.129C326.529 102.716 326.399 104.448 327.607 105.061L333.227 107.908L333.695 114.152C333.796 115.493 335.455 116.045 336.502 115.087L341.378 110.62L347.704 111.748C349.064 111.99 350.219 110.601 349.659 109.395L347.051 103.789L350.493 98.2413C351.234 97.0488 350.288 95.636 348.891 95.8537H348.894Z" fill="#FFC567"></path><path d="M374.35 81.9618L367.974 83.226L363.682 78.7803C362.76 77.8242 361.058 78.4164 360.8 79.7815L359.61 86.1287L353.73 89.1217C352.466 89.7644 352.392 91.5225 353.606 92.0935L359.249 94.7545L359.908 101.049C360.049 102.403 361.706 102.897 362.712 101.885L367.389 97.1819L373.676 98.0795C375.028 98.2734 376.124 96.8207 375.532 95.6256L372.781 90.0565L376.008 84.3148C376.701 83.0799 375.723 81.691 374.35 81.9618Z" fill="#FFC567"></path><path d="M401.992 70.3637L395.679 71.3384L391.663 66.6085C390.8 65.5913 389.103 66.1092 388.793 67.4849L387.345 73.8852L381.446 76.6445C380.177 77.2368 380.028 79.0214 381.194 79.6614L386.612 82.6438L386.981 89.0787C387.061 90.4623 388.665 91.0466 389.695 90.0666L394.489 85.5094L400.616 86.7284C401.934 86.9913 403.076 85.5678 402.547 84.3223L400.093 78.5248L403.511 72.8442C404.247 71.6225 403.346 70.1592 401.989 70.369L401.992 70.3637Z" fill="#FFC567"></path><path d="M428.656 59.0446L422.391 60.2821L418.182 55.7249C417.276 54.7449 415.603 55.3345 415.351 56.7208L414.174 63.1742L408.395 66.1779C407.152 66.8232 407.078 68.6105 408.268 69.2027L413.805 71.9541L414.445 78.3677C414.583 79.746 416.209 80.2612 417.196 79.2388L421.796 74.485L427.969 75.4464C429.296 75.6535 430.375 74.1849 429.796 72.9606L427.1 67.272L430.276 61.4507C430.959 60.1998 430 58.7763 428.654 59.0419L428.656 59.0446Z" fill="#FFC567"></path></g><defs><clipPath id="clip0_926_1030"><rect width="487" height="486" fill="white"></rect></clipPath></defs></svg>