<svg xmlns="http://www.w3.org/2000/svg" width="545" height="535" viewBox="0 0 545 535" fill="none"><g clip-path="url(#clip0_921_267)"><path d="M137.044 141.206L181.095 225.633L201.475 212.157C216.316 202.373 233.15 197.172 250.325 197.088L357.959 196.579C378.488 196.495 403.793 204.474 419.653 219.183C492.932 317.555 340.787 113.292 505.845 334.892C502.936 338.796 501.005 345.44 499.73 352.571C500.38 343.665 501.491 322.194 492.554 321.861C484.316 321.602 481.102 337.693 479.881 345.907C480.051 338.393 479.873 323.007 472.323 322.731C462.922 322.401 459.542 343.228 458.44 352.529C458.907 340.177 457.441 330.838 451.986 330.753C440.649 330.584 430.183 365.581 449.268 371.842C466.845 377.615 487.142 376.065 506.736 370.336C513.361 368.383 519.792 365.263 525.143 360.807L536.988 376.724C548.029 403.655 490.516 441.667 459.373 415.053C455.127 414.267 399.655 348.773 399.655 348.773V381.86H218.904V340.072L183.642 339.053C157.997 338.31 134.899 321.352 123.86 295.163L77.0704 184.208L137.044 141.209V141.206ZM232.641 297.749C233.809 306.09 241.537 311.904 249.879 310.738C258.223 309.571 264.04 301.845 262.871 293.505C261.681 285.164 253.976 279.348 245.632 280.517C237.288 281.706 231.472 289.41 232.64 297.751L232.641 297.749Z" fill="#1DBFCC"></path><path d="M428.974 209.906C437.105 211.433 448.568 212.962 456.805 212.388C464.999 211.819 473.496 208.866 479.012 202.731H493.682C499.211 208.853 507.628 211.819 515.888 212.388C524.125 212.96 535.59 211.433 543.72 209.906C546.78 257.749 547.498 286.541 508.181 320.034C505.397 322.492 499.169 327.343 498.499 327.887C497.31 324.172 495.399 321.966 492.554 321.859C487.82 321.711 484.593 326.932 482.428 334.063C481.217 333.141 480.839 332.907 478.967 331.474C477.884 326.147 475.805 322.857 472.322 322.729C471.112 322.686 469.987 323.005 468.947 323.621C468.523 323.26 468.077 322.921 467.653 322.559C426.583 288.47 425.662 262.631 428.972 209.906H428.974ZM466.975 279.56C475.467 286.946 489.585 288.877 500.115 284.102C516.292 276.759 518.627 257.446 510.242 244.436C497.332 224.428 460.588 228.925 457.974 256.364C457.19 264.726 460.076 273.575 466.975 279.56Z" fill="#FFC567"></path><path d="M243.241 303.208C239.046 300.716 237.666 295.297 240.159 291.103C242.652 286.91 248.073 285.53 252.267 288.022C256.462 290.514 257.842 295.934 255.349 300.127C252.857 304.32 247.435 305.7 243.241 303.208Z" fill="#FFC567"></path><path d="M322.541 295.997L321.975 292.852C319.202 293.365 316.577 290.821 315.738 288.193C314.745 285.08 315.422 281.494 316.137 278.378C317.925 270.571 320.441 262.883 323.616 255.529L320.68 254.26C317.427 261.794 314.85 269.667 313.019 277.663C312.212 281.193 311.453 285.282 312.691 289.163C314.008 293.295 318.114 296.801 322.54 295.999L322.541 295.997Z" fill="#FFC567"></path><path d="M372.075 306.078C375.134 303.414 375.254 301.662 385.425 272.819L382.408 271.757C371.964 301.369 372.19 301.734 369.972 303.669C368.616 304.849 366.258 305.26 365.13 304.033L362.775 306.196C365.169 308.799 369.485 308.334 372.074 306.078H372.075Z" fill="#FFC567"></path><path d="M266.503 187.09C266.599 190.969 266.849 201.474 266.991 205.343L338.237 209.842C339.404 208.823 339.68 207.21 339.808 205.703C340.376 199.584 339.591 193.273 337.303 187.09C337 187.09 321.288 186.413 266.501 187.09H266.503Z" fill="#FFC567"></path><path d="M129.353 59.7973C128.879 59.6172 69.3602 37.0361 69.3602 37.0361L64.1981 43.9791L124.495 66.8567L129.351 59.7989L129.353 59.7973Z" fill="#FFC567"></path><path d="M29.994 102.308C29.9988 104.57 31.2714 106.644 32.5647 108.554C34.0638 110.767 35.6489 112.93 37.3186 115.027C41.1555 115.181 46.7531 110.756 49.8389 107.685C47.2331 104.446 44.6353 101.214 42.039 97.9665C40.3789 95.9019 37.0029 95.387 34.4162 96.3005C31.8296 97.214 29.9829 99.7201 29.9956 102.306L29.994 102.308Z" fill="#1DBFCC"></path><path d="M430.508 418.983C430.508 419.866 429.792 420.58 428.91 420.58H90.4007C87.0629 420.58 84.347 418.036 84.347 414.906V250.66C84.347 249.777 85.0631 249.062 85.945 249.062C86.8268 249.062 87.5429 249.778 87.5429 250.66V414.906C87.5429 416.273 88.8251 417.386 90.3991 417.386H428.908C429.792 417.386 430.506 418.101 430.506 418.983H430.508Z" fill="#002345"></path><path d="M387.045 186.475C386.175 186.475 385.454 185.775 385.454 184.905C385.433 184.014 386.154 183.291 387.025 183.291L467.103 182.612C470.216 182.534 473.217 184.951 473.217 188.278V207.486C472.241 208.08 471.243 208.611 470.203 209.077C469.879 208.43 470.097 209.318 470.032 188.278C470.032 186.848 468.616 185.833 467.146 185.796L387.068 186.475H387.047H387.045Z" fill="#002345"></path><path d="M399.66 315.072C400.543 315.072 401.258 315.788 401.258 316.67V357.296C401.258 358.179 400.542 358.894 399.66 358.894C398.778 358.894 398.062 358.178 398.062 357.296V316.67C398.062 315.786 398.778 315.072 399.66 315.072Z" fill="#002345"></path><path d="M217.316 351.119V322.849C217.316 321.966 218.032 321.252 218.914 321.252C219.796 321.252 220.512 321.968 220.512 322.849V351.119C220.512 352.002 219.796 352.716 218.914 352.716C218.032 352.716 217.316 352 217.316 351.119Z" fill="#002345"></path><path d="M325.366 110.677L331.041 107.588C331.818 107.167 332.788 107.449 333.21 108.225C333.633 109 333.346 109.973 332.571 110.393C326.707 113.51 326.849 113.679 326.131 113.679C324.473 113.679 323.919 111.463 325.366 110.679V110.677Z" fill="#002345"></path><path d="M408.368 382.715C408.368 383.598 407.652 384.312 406.77 384.312H209.559C208.676 384.312 207.961 383.596 207.961 382.715C207.961 381.833 208.677 381.117 209.559 381.117H406.77C407.654 381.117 408.368 381.833 408.368 382.715Z" fill="#002345"></path><path d="M486.091 239.286C486.975 239.286 487.689 240.002 487.689 240.884V255.876H503.949C504.832 255.876 505.547 256.592 505.547 257.473C505.547 258.355 504.831 259.071 503.949 259.071H487.689V277.944C487.689 278.827 486.973 279.541 486.091 279.541C485.209 279.541 484.493 278.825 484.493 277.944V259.071H468.05C467.166 259.071 466.452 258.355 466.452 257.473C466.452 256.592 467.168 255.876 468.05 255.876H484.493V240.884C484.493 240 485.209 239.286 486.091 239.286Z" fill="#002345"></path><path d="M451.901 329.159C452.339 329.25 454.322 329.013 456.274 331.069C457.696 332.555 458.715 334.953 459.353 338.306C461.219 330.978 464.861 321.027 472.388 321.137C477.898 321.338 480.061 327.447 480.837 332.872C480.858 333.064 480.901 333.276 480.922 333.488C482.676 327.369 486.286 320.077 492.619 320.265C500.183 320.558 501.457 331.693 501.684 339.217C502.561 337.08 503.824 334.602 505.399 332.914V322.366C506.334 321.603 507.267 320.839 508.181 320.032C508.908 320.82 508.447 321.081 508.584 330.452C512.92 328.458 518.382 330.176 520.281 338.263C522.917 334.53 528.429 328.845 533.041 329.18C536.862 329.435 539.41 332.936 539.962 336.268C541.407 345.161 532.773 356.74 526.163 362.033C521.004 366.32 514.445 369.716 507.184 371.858C488.391 377.355 467.306 379.452 448.782 373.365C428.093 366.581 438.693 329.156 451.902 329.156L451.901 329.159ZM449.757 370.312C465.574 375.511 485.125 374.981 506.292 368.805C513.161 366.779 519.9 363.391 525.335 358.554C530.599 353.821 538.008 344.123 536.82 336.78C536.481 334.722 534.889 332.514 532.851 332.365C532.639 332.412 531.352 332.061 528.627 334.168C523.211 338.288 521.669 342.505 520.962 342.977C521.131 345.523 521.005 348.303 520.6 351.254C520.473 352.125 519.666 352.718 518.797 352.612C517.905 352.485 517.31 351.678 517.417 350.787C518.436 343.677 517.524 337.268 515.103 334.446C513.296 332.33 509.989 331.981 507.122 335.846C504.701 339.114 502.749 344.823 501.304 352.845C501.156 353.693 500.37 354.267 499.542 354.16C498.692 354.054 498.076 353.29 498.142 352.463C498.673 345.148 499.81 323.879 492.515 323.45C492.3 323.635 485.094 321.65 481.477 346.138C481.349 346.966 480.585 347.539 479.758 347.496C478.909 347.433 478.271 346.71 478.294 345.862C478.426 339.836 478.34 324.534 472.264 324.321C464.282 324.117 460.98 344.759 460.036 352.718C459.93 353.566 459.165 354.181 458.316 354.119C457.468 354.055 456.809 353.312 456.852 352.463C457.34 339.622 455.537 334.932 453.944 333.257C450.407 329.59 442.822 337.059 440.76 349.344C440.103 353.355 438.765 366.704 449.762 370.312H449.757Z" fill="#002345"></path><path d="M359.734 309.854C357.098 311.375 354.012 311.645 351.377 310.356C348.174 308.791 346.498 304.733 347.644 301.309C348.768 297.945 352.31 295.672 355.892 296.078C358.882 296.397 361.459 298.659 362.461 301.722C363.505 301.948 364.493 302.162 365.513 302.235C366.393 302.299 367.054 303.066 366.99 303.946C366.261 311.295 367.888 312.295 359.735 309.854H359.734Z" fill="#002345"></path><path d="M327.434 304.174C324.599 303.766 322.168 301.874 320.808 299.057C319.151 298.524 317.418 298.035 315.893 297.151C315.129 296.71 314.869 295.731 315.311 294.967L318.139 290.09C318.582 289.328 319.563 289.062 320.323 289.51C321.208 290.022 322.143 290.401 323.133 290.801C325.685 288.834 329.088 288.413 331.74 289.834C334.912 291.528 336.577 295.382 335.614 298.793C334.641 302.242 330.995 304.686 327.433 304.174H327.434Z" fill="#002345"></path><path d="M0.272888 119.94L67.5291 19.9358C67.9438 19.3188 68.7348 19.0653 69.4237 19.3331L147.655 49.0245C148.626 49.3944 148.987 50.563 148.414 51.4095L132.1 75.6805C134.331 78.6458 135.663 82.4018 136.922 85.8056C142.639 101.227 141.539 118.655 134.031 132.626L138.715 140.905C139.01 141.426 138.973 142.044 138.677 142.528L148.637 160.2L239.845 159.36C228.197 151.146 220.612 137.569 220.748 122.284L220.891 103.894C209.649 90.6123 206.351 71.8 214.233 54.5885C211.315 46.0975 211.205 36.2928 216.19 28.2004C233.74 -0.21403 295.533 -9.20722 322.793 10.7305C333.947 18.8867 340.142 33.0134 338.985 47.2453C345.002 46.0688 351.87 48.559 356.447 53.7945C360.573 58.5135 362.982 65.0835 363.61 73.3146C365.141 92.6991 357.101 149.295 334.816 151.27L334.743 158.465C342.415 158.394 492.707 156.994 501.686 156.911C505.567 156.911 508.586 160.012 508.586 163.787C508.564 213.912 508.659 210.884 508.502 211.2C507.439 210.945 506.42 210.628 505.401 210.266V163.787C505.401 161.837 503.784 160.095 501.686 160.095H501.665L334.711 161.651L334.478 184.625H341.184C342.896 184.625 343.412 186.98 341.828 187.682C349.025 189.821 355.106 193.47 359.533 198.403C366.263 205.867 368.696 216.338 365.873 224.963L367.085 225.309C367.934 225.552 368.425 226.436 368.183 227.285L366.534 233.046C386.319 240.954 392.681 260.099 385.393 273.376C384.966 274.157 383.983 274.428 383.223 274.009C382.447 273.583 382.165 272.612 382.589 271.839C386.343 265 385.782 255.862 381.157 248.56C372.523 234.927 351.278 228.997 336.942 236.117C329.262 239.932 323.71 247.976 323.441 255.675C323.409 256.557 322.663 257.201 321.787 257.217C320.905 257.186 320.215 256.445 320.245 255.563C320.554 246.742 326.836 237.569 335.521 233.252C341.922 230.071 349.59 229.151 357.484 230.497C359.212 224.978 358.906 224.294 359.906 223.742C360.799 223.246 361.466 223.795 362.81 224.086C365.333 216.498 363.15 207.218 357.157 200.527C351.467 194.223 343.93 191.358 338.283 190.043C338.076 189.292 337.809 188.558 337.548 187.824H266.525C266.541 188.433 266.56 189.372 266.59 190.531C257.652 193.544 249.734 200.484 244.851 209.695C239.714 219.374 237.654 231.683 238.885 245.328C240.456 262.867 245.623 275.568 246.163 278.867C260.718 277.483 270.019 294.103 261.221 305.773C252.19 317.762 233.129 312.77 231.058 297.972C229.886 289.594 235.145 281.771 243.058 279.461C239.738 268.192 236.863 258.449 235.7 245.625C234.405 231.363 236.612 218.416 242.026 208.208C247.139 198.554 255.384 191.234 264.758 187.82H264.598C263.715 187.82 263 187.105 263 186.223C263 185.341 263.716 184.625 264.598 184.625H273.54L273.758 167.645C268.652 167.197 258.125 169.298 245.037 162.497L150.399 163.385L151.227 164.828C151.674 165.592 151.398 166.569 150.632 166.993C149.899 167.422 148.908 167.191 148.446 166.398C148.325 166.182 144.762 159.846 144.985 160.245L136.119 144.5L77.9922 185.512C77.2554 186.035 76.2093 185.84 75.7181 185.058C75.6304 184.917 70.1094 176.134 63.2202 164.206L54.1765 164.283C52.1719 164.297 50.5405 165.952 50.5405 167.967V457.879C50.5405 459.91 52.1942 461.563 54.2291 461.563H501.705C503.738 461.563 505.393 459.91 505.393 457.879V420.03L508.444 418.772C508.557 418.99 508.591 419.137 508.591 419.4V457.878C508.591 461.672 505.502 464.758 501.705 464.758H339.387V506.855C369.986 506.843 365.499 506.871 369.446 506.835C379.371 506.74 388.728 506.66 396.132 516.038C400.634 521.739 402 528.452 399.785 533.992C399.525 534.646 398.829 535.051 398.119 534.987C394.872 534.719 265.82 534.878 198.034 534.996H198.031C197.205 534.996 196.514 534.368 196.439 533.546C195.502 523.349 202.735 513.804 210.32 508.871C213.819 506.592 217.712 506.695 221.462 506.808C224.535 506.891 224.389 506.831 259.435 506.851V464.755H54.2259C50.4288 464.755 47.3415 461.669 47.3415 457.874V167.962C47.3415 164.195 50.3969 161.109 54.1494 161.081L61.3926 161.019C57.8523 154.816 54.0616 147.951 50.5213 141.104L1.03036 122.32C0.0639648 121.952 -0.302826 120.785 0.271271 119.935L0.272888 119.94ZM234.227 297.527C235.898 309.475 251.349 313.558 258.666 303.849C265.954 294.178 257.899 280.413 245.86 282.098C238.403 283.16 233.184 290.079 234.227 297.526V297.527ZM265.329 164.377C265.541 164.38 273.69 164.579 285.433 164.437C286.32 164.428 287.052 165.112 287.074 165.993C287.097 166.875 286.4 167.61 285.518 167.632L276.953 167.859L276.742 184.198H331.284C331.655 138.679 331.989 143.17 331.288 133.614C328.177 134.212 325.077 134.153 321.856 133.33C321.001 133.113 320.484 132.241 320.703 131.387C320.919 130.531 321.789 130.008 322.647 130.234C332.553 132.766 342.735 126.76 345.285 116.79C348.494 104.109 337.902 92.1156 324.941 93.7147C317.558 94.6282 311.096 99.9546 309.174 107.596C308.959 108.452 308.091 108.97 307.234 108.756C306.377 108.541 305.857 107.672 306.073 106.816C306.889 103.57 308.449 100.608 310.595 98.0893C303.789 96.0439 302.1 93.5409 300.233 88.3022C299.587 86.4863 298.976 84.7709 297.778 83.6023C295.034 80.9128 290.132 81.855 285.805 82.692C271.543 85.4421 256.68 84.5063 242.824 79.9897C237.529 78.2663 232.944 76.1157 229.053 73.5792C222.564 87.4062 224.473 98.0941 224.09 103.358C224.055 107.802 223.934 123.263 223.941 122.312C223.736 145.302 242.302 164.173 265.326 164.378L265.329 164.377ZM336.192 477.999H262.634V506.769H336.192V477.999ZM221.373 510.01C217.96 509.911 214.729 509.822 212.065 511.554C205.866 515.588 199.549 523.499 199.557 531.802C216.567 531.771 380.438 531.486 397.172 531.781C398.408 527.513 397.122 522.454 393.623 518.022C387.189 509.873 378.979 509.943 369.476 510.037C367.929 510.049 223.985 510.085 221.373 510.01ZM77.5313 181.923L135.216 141.222L130.706 133.251C130.303 132.536 130.527 131.661 131.175 131.189C138.291 118.002 139.335 101.517 133.923 86.9168C131.878 81.3704 129.599 74.5135 123.761 74.1978C121.637 74.0751 119.959 74.6107 118.626 75.8144C112.635 81.2125 117.679 92.5748 111.831 99.6692C108.814 103.33 104.039 104.396 100.955 107.073C97.2805 110.263 95.9489 116.302 97.7175 121.764C99.1974 126.338 102.632 130.74 107.925 134.85C108.622 135.39 108.75 136.396 108.208 137.093C107.67 137.786 106.665 137.919 105.964 137.375C102.066 134.349 99.0969 131.135 97.0413 127.779L81.1561 151.414C80.7383 152.036 79.9474 152.28 79.2616 152.017L55.0201 142.816C64.1834 160.189 74.4838 177.01 77.5297 181.922L77.5313 181.923ZM79.2122 148.579L95.3572 124.556C92.0226 116.699 94.1086 108.785 98.8593 104.661C102.057 101.882 106.983 100.525 109.364 97.6381C112.757 93.5202 111.459 86.7876 112.485 81.4166C112.022 81.761 111.464 81.8263 110.967 81.6382L75.9398 68.3485C75.1137 68.036 74.6991 67.1129 75.0117 66.2855C75.3242 65.4613 76.2492 65.0548 77.0736 65.3593L112.1 78.649C112.496 78.7988 112.788 79.0922 112.962 79.4445C114.587 73.9475 118.325 70.6841 123.936 71.0061C126.332 71.1368 128.265 71.9961 129.855 73.2923L144.638 51.2979L69.4763 22.7703L4.0524 120.052C26.5046 128.573 44.7803 135.51 79.2138 148.579H79.2122Z" fill="#002345"></path><path d="M75.5155 84.1839L100.22 93.5565C102.173 94.2963 101.09 97.3014 99.0857 96.5458L74.3817 87.1731C73.5556 86.8607 73.141 85.9376 73.4536 85.1102C73.7661 84.2859 74.6911 83.8794 75.5155 84.1839Z" fill="#002345"></path><path d="M80.7495 102.228L89.8475 105.681C91.801 106.421 90.7182 109.426 88.7136 108.671L79.6157 105.218C78.7896 104.905 78.3749 103.98 78.6875 103.155C79.0001 102.332 79.9219 101.917 80.7495 102.228Z" fill="#002345"></path><path d="M55.4966 125.938C51.8766 128.261 48.8546 128.668 45.4642 126.214V126.212C43.946 125.112 40.0883 121.318 37.7999 118.125C35.5991 115.038 35.4413 115.657 31.2359 109.449C29.8023 107.322 28.4021 105.02 28.3973 102.315C28.375 99.0335 30.6283 95.9407 33.8784 94.7928C36.8414 93.7486 41.0228 94.1567 43.2873 96.969C58.4086 115.931 59.8678 116.763 58.9827 120.999C58.5569 122.966 57.2907 124.765 55.495 125.938H55.4966ZM40.7932 98.9698C39.7295 97.6481 37.2209 97.0056 34.9453 97.8076C32.9917 98.4979 31.582 100.384 31.5948 102.303C31.5995 104.114 32.7302 105.945 33.8864 107.658C38.0247 113.763 38.1698 113.147 40.4025 116.264C42.423 119.102 46.0845 122.713 47.3428 123.627C49.2628 125.015 50.7937 125.162 53.7584 123.258C54.8444 122.547 55.6098 121.477 55.857 120.336C56.3912 117.779 55.2622 117.104 40.7948 98.9714L40.7932 98.9698Z" fill="#002345"></path></g><defs><clipPath id="clip0_921_267"><rect width="545" height="535" fill="white" transform="matrix(-1 0 0 1 545 0)"></rect></clipPath></defs></svg>