<svg xmlns="http://www.w3.org/2000/svg" width="421" height="480" viewBox="0 0 421 480" fill="none"><g clip-path="url(#clip0_1660_757)"><path d="M63.9922 137.637C64.1263 137.744 64.2213 137.895 64.3967 137.94C65.0672 138.091 65.7433 137.707 65.9087 137.041C67.5603 130.55 76.0008 128.736 80.1902 133.932C80.9311 134.857 82.4353 134.309 82.4029 133.126C82.3448 130.678 83.973 128.318 85.5095 126.297C87.0897 124.208 88.8207 122.037 91.0143 120.468C102.594 112.192 112.429 131.183 104.692 141.553C101.272 146.132 95.0339 148.566 91.0187 153.264C88.5636 156.14 87.3869 159.414 87.7076 162.488C87.8819 164.122 90.3527 163.888 90.1873 162.226C89.9392 159.875 90.9316 157.193 92.9152 154.876C96.9426 150.162 102.763 148.301 106.686 143.039C116.083 130.436 103.598 108.427 89.5649 118.446C86.2571 120.805 81.2887 126.998 80.2584 130.585C75.5918 127.11 68.9639 127.738 65.1991 132.994C68.7929 120.23 75.6387 108.402 85.1821 99.1145C100.825 83.8941 116.331 69.33 134.58 57.0342C142.796 51.4985 152.18 47.6664 161.628 44.6111C181.754 38.1032 185.113 40.799 191.552 38.3957C198.324 35.8695 205.277 33.3088 212.505 33.3054C219.734 33.3032 227.414 36.3986 230.879 42.7369C234.184 37.9067 240.052 34.9419 245.907 35.1439C251.76 35.346 257.409 38.7093 260.373 43.756C271.943 39.9049 284.841 41.5983 296.07 46.3536C319.742 56.3767 347.952 86.8377 363.388 107.528C366.736 112.015 370 116.712 371.59 122.078C373.18 127.445 372.857 133.659 369.472 138.118C386.985 151.152 393.636 176.869 384.633 196.744C384.334 201.035 383.596 205.19 383.094 209.377C382.535 214.025 384.309 219.112 384.762 223.748C387.181 248.578 371.311 269.265 350.199 272.737C347.106 273.246 343.892 273.288 341.612 271.129C341.677 271.042 341.77 270.986 341.811 270.88C347.15 257.114 344.305 239.91 334.561 227.052C325.799 215.482 312.052 207.283 295.85 203.951C285.342 201.794 275.135 202.008 266.324 204.592C256.224 207.554 247.545 213.869 242.513 221.923C242.149 222.506 242.323 223.274 242.906 223.638C243.49 223.993 244.258 223.827 244.623 223.245C249.34 215.696 257.504 209.77 267.025 206.983C275.442 204.506 285.245 204.302 295.345 206.39C310.958 209.596 324.179 217.465 332.577 228.549C341.811 240.741 344.524 257.003 339.487 269.987C339.362 270.307 339.384 270.649 339.516 270.941C337.255 278.632 332.096 284.952 324.169 287.52C317.012 289.84 309.659 288.921 302.408 287.691C299.153 287.138 295.989 286.198 292.999 284.79C292.369 284.493 288.337 282.382 286.244 280.853C286.339 280.684 286.469 280.533 286.476 280.328C286.9 266.344 284.089 252.219 278.346 239.473C278.069 238.847 277.331 238.556 276.703 238.851C276.076 239.133 275.799 239.866 276.08 240.494C281.662 252.899 284.4 266.646 283.986 280.251C283.979 280.513 284.113 280.725 284.245 280.93C281.124 286.773 273.978 290.083 267.302 289.381C260.075 288.621 253.681 283.88 249.612 277.865C245.903 272.381 243.96 265.92 242.77 259.391C243.754 259.28 244.106 258.289 243.721 257.586C240.336 251.436 239.734 243.82 242.116 237.219C242.35 236.573 242.014 235.86 241.367 235.627C240.716 235.408 240.011 235.728 239.773 236.374C237.242 243.407 237.806 251.467 241.22 258.108C225.939 266.103 207.912 259.128 201.306 244.339C177.246 254.783 146.973 247.033 129.401 227.571C122.989 229.218 116.414 230.878 109.826 230.213C103.239 229.547 96.5291 226.067 93.8728 220.009C89.1078 219.828 84.2803 219.637 79.7198 218.244C75.1604 216.851 70.8223 214.094 68.546 209.91C65.3198 203.978 66.815 196.747 66.8787 189.996C67.0351 173.215 58.8551 161.621 63.9944 137.634L63.9922 137.637ZM185.495 79.9101C185.201 79.41 181.542 73.2057 181.303 72.2546C180.171 67.7047 182.692 63.2585 185.305 59.3873C185.689 58.8191 185.539 58.0466 184.97 57.6626C184.401 57.2786 183.623 57.4148 183.243 57.9975C180.363 62.2517 177.972 66.6386 178.712 71.7389C173.968 69.1011 169.066 69.3344 163.471 70.2822C149.421 72.6163 145.745 77.4755 141.285 83.7802C140.061 76.5713 131.774 76.7064 127.6 74.4012C126.097 73.5752 124.459 72.0213 124.361 70.1125C124.322 69.4517 123.772 68.937 123.117 68.937H123.048C122.362 68.9761 121.838 69.5588 121.872 70.2487C122.008 72.7313 123.695 75.0967 126.399 76.578C130.262 78.7112 135.764 78.7637 138.103 82.1638C139.206 83.7679 139.224 86.005 138.261 87.6961C137.261 88.8202 136.169 89.8494 134.927 90.6397C132.53 92.1646 129.724 92.5832 127.623 91.7326C126.986 91.4658 126.262 91.7817 126.004 92.418C125.746 93.0543 126.053 93.7832 126.69 94.0355C130.147 95.4386 135.144 94.77 139.822 89.6931C139.901 89.6262 140.023 89.6451 140.087 89.557C140.178 89.4286 140.211 89.2723 140.292 89.1395C146.292 82.2598 146.919 75.5543 163.879 72.7369C177.006 70.5132 179.462 74.5352 183.344 81.1648C186.233 86.0853 186.787 91.7337 184.802 95.9063C184.096 97.3865 186.336 98.4626 187.048 96.9746C189.421 91.996 188.837 85.6131 185.493 79.9112L185.495 79.9101ZM161.274 104.255C160.977 112.918 168.811 122.67 163.866 129.785C162.924 131.133 164.969 132.556 165.909 131.204C171.731 122.843 163.486 112.417 163.764 104.343C163.88 101.107 165.231 97.6957 165.373 94.1426C165.578 88.8336 162.874 83.4665 158.483 80.4693C157.919 80.0809 157.141 80.226 156.756 80.7953C156.368 81.359 156.513 82.1359 157.083 82.5199C160.778 85.0461 163.059 89.5726 162.884 94.0466C162.757 97.2392 161.403 100.761 161.274 104.257V104.255ZM227.906 92.284C227.759 91.6757 223.531 82.626 225.772 70.7878C226.068 69.2072 223.647 68.6647 223.321 70.3313C222.074 76.9408 222.632 83.9209 224.693 90.3517C224.616 90.5705 224.537 90.796 224.595 91.0383C225.952 96.6576 223.009 103.187 217.899 105.897C212.774 108.612 205.718 107.378 201.828 103.104C200.939 102.126 199.369 103.024 199.708 104.27C201.687 111.448 198.313 119.667 191.85 123.382C185.392 127.103 176.582 125.894 171.359 120.579C170.877 120.089 170.089 120.079 169.599 120.56C169.108 121.042 169.098 121.829 169.58 122.319C175.535 128.378 185.62 129.831 193.095 125.539C199.47 121.867 203.228 114.377 202.709 107.11C212.361 113.558 225.756 108.243 227.304 95.8606C234.262 104.656 248.811 107.808 264.137 97.1867C270.308 92.917 275.365 87.3512 280.257 81.9685C280.719 81.4584 280.681 80.6714 280.17 80.2104C279.659 79.7493 278.872 79.7873 278.41 80.2974C273.616 85.5774 268.655 91.0371 262.718 95.1462C247.558 105.622 233.194 101.744 227.907 92.2829L227.906 92.284ZM293.853 63.0654C289.16 60.0492 282.863 59.3784 276.581 61.2046C265.229 64.5289 257.729 73.9737 248.714 80.4448C247.388 81.4092 248.814 83.4096 250.172 82.4652C259.063 76.069 266.697 66.6822 277.281 63.5945C282.869 61.9625 288.422 62.5352 292.511 65.154C297.028 68.0541 299.333 73.679 297.865 78.239C297.656 78.8898 298.015 79.5942 298.671 79.8029C299.318 80.0016 300.028 79.6522 300.237 78.997C302.036 73.401 299.288 66.5482 293.853 63.0654ZM302.897 79.7694C302.206 79.7114 301.594 80.1579 301.496 80.8377C300.548 87.8513 297.456 94.6617 292.788 100.01C291.709 101.238 293.569 102.886 294.665 101.642C299.649 95.9343 302.951 88.6628 303.967 81.1681C304.06 80.4883 303.578 79.861 302.898 79.7694H302.897ZM332.486 113.295C327.764 111.674 323.446 108.924 319.942 105.365L326.84 93.7586C327.19 93.1659 326.995 92.4035 326.408 92.0541C325.824 91.7091 325.061 91.8933 324.701 92.4861L313.614 111.138C313.265 111.731 313.459 112.493 314.047 112.843C314.65 113.195 315.404 112.993 315.753 112.411L318.643 107.548C322.333 111.158 326.794 113.972 331.679 115.646C332.283 115.869 333.031 115.545 333.259 114.873C333.482 114.222 333.137 113.518 332.486 113.295ZM346.995 120.502C346.509 118.904 344.14 119.657 344.613 121.211C346.106 126.224 344.563 132.014 340.776 135.618C336.979 139.217 331.11 140.47 326.184 138.727C325.858 138.601 325.474 138.63 325.158 138.814C324.842 138.994 324.623 139.299 324.55 139.654C321.871 152.996 306.568 159.653 294.981 152.478C294.392 152.119 293.625 152.303 293.265 152.881C292.905 153.47 293.085 154.232 293.668 154.596C305.884 162.137 322.725 156.152 326.68 141.472C332.17 142.891 338.375 141.331 342.488 137.421C346.943 133.186 348.752 126.39 346.996 120.502H346.995ZM367.272 172.684C359.881 167.555 350.525 165.111 341.525 165.874C342.23 163.145 342.264 155.237 339.633 147.887C339.404 147.241 338.67 146.916 338.043 147.135C337.396 147.368 337.056 148.077 337.29 148.723C339.025 153.571 339.721 158.841 339.298 163.96C339.241 164.678 339.14 165.739 338.612 166.233C338.179 166.301 337.751 166.379 337.323 166.466C336.064 166.718 335.963 168.487 337.197 168.875C337.98 169.113 338.816 169.001 339.555 168.603C348.614 167.252 358.329 169.497 365.852 174.723C366.065 174.874 366.313 174.947 366.561 174.947C366.955 174.947 367.339 174.763 367.583 174.412C367.976 173.848 367.835 173.076 367.272 172.683V172.684ZM301.88 202.037C302.221 202.639 302.998 202.834 303.572 202.512C311.395 198.126 320.571 196.538 329.401 198.053C337.324 199.416 344.655 203.224 350.344 208.847C351.458 212.631 352.181 216.545 352.479 220.484C352.528 221.139 353.072 221.635 353.719 221.635C353.748 221.635 353.783 221.635 353.812 221.631C354.498 221.582 355.013 220.984 354.96 220.3C354.729 217.226 354.216 214.171 353.503 211.168C353.684 211.121 353.874 211.103 354.026 210.974C354.247 210.778 354.339 210.509 354.386 210.241C357.838 210.757 361.401 210.444 364.7 209.224C369.047 207.621 372.777 204.571 375.213 200.647C375.573 200.059 375.393 199.296 374.81 198.932C374.216 198.577 373.457 198.757 373.093 199.335C370.953 202.793 367.662 205.479 363.835 206.894C360.137 208.256 356.045 208.371 352.267 207.254C346.191 201.18 338.329 197.064 329.82 195.606C320.446 193.988 310.671 195.678 302.357 200.347C301.753 200.681 301.544 201.439 301.881 202.037H301.88ZM175.472 201.954C183.535 199.029 190.463 193.133 194.66 185.667C203.948 190.342 215.277 185.296 217.722 174.913C224.33 179.299 231.483 181.296 238.126 180.514C245.866 179.611 252.514 174.636 255.019 168.123C267.675 179.849 286.644 178.422 297.624 166.729C298.091 166.229 298.067 165.442 297.566 164.971C297.07 164.51 296.282 164.524 295.806 165.029C284.982 176.546 266.381 176.792 255.35 164.946C254.692 164.238 253.467 164.516 253.23 165.504C251.703 171.906 245.231 177.176 237.835 178.046C231.319 178.798 224.098 176.579 217.563 171.765C217.203 171.503 216.721 171.449 216.318 171.629C215.909 171.813 215.627 172.202 215.584 172.644C214.619 182.632 203.382 188.21 194.82 182.902C194.207 182.537 193.397 182.732 193.055 183.392C189.223 190.844 182.508 196.755 174.625 199.611C173.087 200.177 173.911 202.509 175.471 201.952L175.472 201.954ZM149.657 199.171H149.701C150.387 199.147 150.926 198.574 150.902 197.884C150.563 187.947 154.626 177.964 161.754 171.026C167.309 173.247 172.171 171.632 177.277 168.41C183.09 164.737 187.769 159.889 191.039 154.382C202.367 160.131 219.425 151.306 228.874 142.714C229.111 142.983 229.268 143.339 229.53 143.575C231.533 145.372 234.305 146.31 238.253 146.528C245.839 146.918 252.988 144.937 259.155 141.226C264.325 147.821 273.234 148.39 281.117 145.349C293.201 140.679 300.731 129.728 307.724 119.26C308.103 118.692 307.953 117.919 307.379 117.535C306.81 117.157 306.037 117.302 305.652 117.88C298.907 127.973 291.686 138.596 280.222 143.027C273.511 145.613 265.738 145.431 261.211 139.851C261.99 138.874 261.225 137.678 259.99 138.016C256.74 131.928 260.464 127.134 265.059 122.188C265.527 121.682 265.497 120.896 264.991 120.43C264.485 119.973 263.698 120.002 263.231 120.498C257.772 126.383 254.011 132.003 257.791 139.132C251.967 142.617 245.213 144.398 238.388 144.041C235.038 143.862 232.753 143.124 231.192 141.724C230.966 141.521 230.824 141.209 230.624 140.971C231.129 140.03 230.517 139.1 229.472 139.225C228.242 136.51 228.385 133.801 228.941 130.848C229.241 129.241 226.799 128.756 226.49 130.392C225.824 133.978 225.744 137.493 227.385 140.716C218.802 148.603 202.35 157.459 192.066 152.105C191.947 151.191 191.192 150.861 190.467 151.132C187.979 149.289 186.417 146.439 186.388 143.672C186.383 142.992 185.824 142.443 185.143 142.443H185.128C184.442 142.447 183.894 143.011 183.898 143.701C183.932 147.204 185.863 150.769 188.926 153.077C185.854 158.263 181.44 162.837 175.943 166.311C172.214 168.662 169.159 169.73 166.252 169.575C163.257 169.449 160.168 167.939 157.781 165.427C155.719 163.26 154.096 160.327 152.952 156.703C152.462 155.141 150.078 155.878 150.58 157.451C152.719 164.223 155.917 167.712 159.44 169.86C152.185 177.248 148.063 187.621 148.412 197.971C148.437 198.641 148.985 199.171 149.657 199.171ZM79.8986 183.54C90.3147 181.563 99.9665 175.845 106.754 167.71C108.57 172.858 112.869 176.959 118.094 178.633C117.974 183.622 119.098 188.454 121.434 192.497C118.324 193.678 117.264 196.906 117.159 200.258C116.955 206.84 119.634 213.533 124.322 218.167C125.492 219.312 127.245 217.546 126.072 216.399C119.354 209.766 118.569 199.616 120.588 196.319C121.137 195.416 122.217 194.493 123.374 194.668C124.455 194.811 125.112 193.564 124.521 192.716C120.53 187.004 119.469 179.076 121.686 171.513C126.035 156.67 139.762 147.794 153.283 140.465C153.887 140.139 154.11 139.382 153.784 138.779C153.458 138.172 152.704 137.953 152.096 138.279C149.338 139.774 146.817 141.227 144.392 142.693C145.718 137.116 144.127 131.021 140.125 126.869C132.663 119.124 117.547 119.244 113.925 109.373C113.351 107.816 111.025 108.692 111.591 110.228C113.783 116.213 119.979 119.35 124.443 121.191C129.452 123.222 134.81 124.945 138.336 128.599C141.924 132.319 143.295 138.139 141.754 143.074C141.627 143.473 141.763 143.845 142 144.154C130.204 151.685 119.767 162.17 118.251 176.127C113.393 174.32 109.488 169.852 108.533 164.766C108.332 163.711 106.962 163.378 106.306 164.252C99.8581 172.942 90.0599 179.076 79.4303 181.092C78.7543 181.222 78.3117 181.874 78.438 182.549C78.5721 183.237 79.237 183.663 79.8964 183.54H79.8986Z" fill="#1DBFCC"></path><path d="M122.99 66.989C130.046 61.5337 137.65 55.9378 145.659 52.2128C146.366 51.8857 146.604 50.9916 146.145 50.362L130.308 28.1782C129.351 26.8241 127.326 28.2965 128.286 29.626L143.258 50.5998C136.049 54.1172 128.845 59.3614 122.489 64.234L106.661 42.0122C105.721 40.6615 103.669 42.106 104.628 43.45C122.04 67.6454 121.044 67.0917 122.046 67.2357C122.104 67.2457 122.707 67.2067 122.989 66.9879L122.99 66.989Z" fill="#002345"></path><path d="M218.257 480C258.077 480 291.502 472.995 302.647 462.081C305.244 459.541 306.562 456.826 306.562 454.019C306.562 449.005 302.438 444.25 294.303 439.889C293.709 439.573 292.946 439.796 292.615 440.399C292.294 441.006 292.518 441.758 293.126 442.084C301.993 446.835 308.068 453.287 300.906 460.309C289.747 471.233 253.029 478.242 211.381 477.445C161.112 476.478 118.642 464.044 118.642 450.288C118.642 445.596 123.888 441.831 128.289 439.5C128.897 439.18 129.125 438.426 128.804 437.819C128.478 437.207 127.72 436.999 127.121 437.304C119.842 441.161 116.151 445.528 116.151 450.288C116.151 465.885 157.959 478.907 211.331 479.932C213.66 479.981 215.965 480 218.255 480H218.257Z" fill="#002345"></path><path d="M127.556 437.258C127.556 447.553 164.801 456.506 210.711 457.253C256.62 457.949 293.866 450.19 293.866 439.844C293.866 431.836 271.359 424.674 239.79 421.49C240.437 423.58 239.64 425.719 237.5 426.564C226.994 430.792 197.916 431.09 185.168 427.26C182.081 426.365 180.837 423.431 181.733 420.545C150.114 422.733 127.558 429.199 127.558 437.258H127.556Z" fill="#FFC567"></path><path d="M293.866 441.088C294.552 441.088 295.111 440.53 295.111 439.844C295.111 429.508 266.597 422.946 239.916 420.25C238.297 420.054 238.004 422.55 239.663 422.727C276.05 426.4 292.621 434.176 292.621 439.844C292.621 440.53 293.18 441.088 293.866 441.088Z" fill="#002345"></path><path d="M210.711 458.483C211.392 458.483 211.946 457.939 211.956 457.258C211.966 456.573 211.416 456.004 210.73 455.995C161.735 455.227 128.824 445.683 128.824 437.246C128.824 436.561 128.266 436.003 127.58 436.003C126.893 436.003 126.335 436.561 126.335 437.246C126.335 450.182 169.796 457.842 210.691 458.483H210.71H210.711Z" fill="#002345"></path><path d="M181.731 420.545C181.93 419.799 182.278 419.052 182.777 418.357C196.42 399.854 197.565 387.269 190.445 378.267H230.18C222.91 387.469 224.304 400.45 238.844 419.7C240.713 421.98 240.39 425.422 237.499 426.562C226.993 430.791 197.914 431.089 185.167 427.259C182.079 426.364 180.836 423.429 181.732 420.543L181.731 420.545ZM198.611 412.636C208.21 417.706 220.27 418.127 230.279 413.78C231.764 413.038 230.696 410.818 229.233 411.492C220.022 415.57 208.718 415.173 199.756 410.447C199.159 410.149 198.412 410.347 198.063 410.945C197.765 411.591 197.964 412.338 198.611 412.636Z" fill="#002345"></path><path d="M270.584 340.664C277.239 340.309 283.369 333.488 282.006 322.26C280.521 310.194 272.158 299.924 268.556 288.997C268.391 288.487 267.915 288.142 267.375 288.142C266.428 288.142 265.778 289.162 266.276 290.022C269.951 300.973 278.14 311.226 279.536 322.561C280.709 332.264 275.687 337.902 270.443 338.178C265.824 338.416 261.826 334.612 258.846 331.241C246.325 317.01 237.188 300.402 227.322 279.841C224.604 274.144 217.738 271.588 212.048 274.124C200.289 279.374 189.713 282.269 179.702 282.973C163.888 284.018 149.369 279.286 139.829 269.941C129.015 259.395 125.698 242.983 131.946 230.917C132.705 229.448 130.477 228.305 129.739 229.77C122.999 242.788 126.51 260.43 138.088 271.718C148.129 281.563 163.392 286.63 179.872 285.449C190.181 284.73 201.038 281.768 213.063 276.395C217.551 274.389 222.934 276.42 225.074 280.913C235.033 301.659 244.267 318.435 256.978 332.881C260.671 337.065 265.031 340.921 270.583 340.663L270.584 340.664Z" fill="#002345"></path><path d="M223.431 276.654C226.913 273.793 229.329 269.786 230.235 265.371C230.371 264.701 229.939 264.045 229.262 263.904C228.592 263.782 227.935 264.2 227.794 264.875C227.006 268.732 224.896 272.234 221.847 274.731C221.317 275.168 221.239 275.95 221.677 276.485C222.124 277.018 222.903 277.084 223.432 276.654H223.431Z" fill="#002345"></path><path d="M66.8618 191.248C67.5424 191.248 68.1022 190.698 68.1067 190.019C68.2073 180.239 65.2168 170.877 64.0614 161.259C61.4274 139.636 69.3426 116.236 86.0503 100.028C96.7335 89.6183 109.278 77.6261 122.991 66.9879C136.572 56.486 144.93 51.2785 161.994 45.8054C182.52 39.2361 185.159 42.096 191.972 39.5688C198.22 37.2224 205.3 34.5701 212.507 34.5701C220.068 34.5701 226.851 38.0093 229.789 43.3329C230.259 44.1846 231.431 44.1288 231.909 43.43C238.594 33.5944 253.432 34.2999 259.275 44.3967C259.571 44.9113 260.179 45.1491 260.748 44.9548C271.169 41.4676 283.529 42.3807 295.569 47.4999C319.096 57.4918 347.16 87.8501 362.381 108.279C365.429 112.316 368.814 117.066 370.399 122.413C370.865 124.024 373.252 123.261 372.781 121.705C371.084 115.964 367.549 110.994 364.369 106.788C348.859 85.9591 320.525 55.3987 296.54 45.2116C284.31 40.0041 271.693 38.9704 260.898 42.2925C257.655 37.3764 251.897 34.1269 245.96 33.9238C240.281 33.705 234.63 36.2501 230.969 40.5544C227.234 35.3571 220.209 32.083 212.506 32.083C204.803 32.083 197.544 34.8224 191.1 37.2369C184.979 39.5141 181.827 36.8529 161.234 43.4344C144.071 48.9433 135.42 54.2166 121.463 65.0255C107.648 75.7407 95.0439 87.792 84.3126 98.2449C66.9143 115.122 58.8807 139.369 61.5895 161.555C62.7181 171.065 65.7097 180.498 65.6158 189.99C65.6113 190.684 66.2919 191.252 66.8607 191.248H66.8618Z" fill="#002345"></path><path d="M285.294 281.726C287.006 283.168 289.855 284.688 292.466 285.917C295.442 287.321 298.714 288.326 302.2 288.919C309.397 290.148 317.055 291.139 324.554 288.71C332.271 286.204 337.989 280.147 340.581 271.855C343.146 274.476 346.781 274.57 350.403 273.969C373.213 270.222 390.653 246.827 385.166 218.455C384.593 215.449 383.994 212.334 384.331 209.532C384.528 207.89 382.045 207.611 381.861 209.231C381.269 214.158 383.061 219.149 383.524 223.875C384.599 234.931 381.948 245.801 376.06 254.472C366.656 268.345 350.181 273.173 344.595 271.452C342.922 270.942 341.648 269.723 341.356 268.358C341.234 267.78 340.729 267.372 340.14 267.372C339.551 267.372 339.042 267.785 338.92 268.358C337.048 277.276 331.529 283.833 323.788 286.345C316.844 288.584 309.527 287.642 302.622 286.471C299.359 285.913 296.3 284.975 293.529 283.668C292.104 282.998 287.149 280.253 286.21 279.243C285.98 278.019 284.278 277.834 283.822 279.02C281.532 284.961 274.456 288.938 267.435 288.146C261.119 287.481 254.841 283.377 250.645 277.173C247.222 272.112 244.989 265.797 243.633 257.307C243.491 256.455 242.557 255.981 241.77 256.427C227.604 264.742 209.165 258.882 202.441 243.837C202.159 243.215 201.434 242.938 200.807 243.201C177.661 253.255 148.014 246.334 130.323 226.744C130.013 226.399 129.531 226.263 129.088 226.37C122.845 227.978 116.363 229.649 109.949 228.979C108.321 228.763 108.039 231.279 109.696 231.456C116.314 232.142 123.01 230.494 128.987 228.965C147.134 248.588 176.975 255.626 200.685 245.951C208.102 260.818 226.306 267.102 241.468 259.43C242.907 267.435 245.188 273.55 248.582 278.563C253.181 285.374 260.13 289.881 267.171 290.623C274.53 291.391 281.982 287.693 285.294 281.724V281.726Z" fill="#002345"></path><path d="M116.503 4.97764C136.822 -7.61064 151.691 14.9728 135.475 25.8688L135.225 26.0675L134.926 26.2171C-42.8806 108.366 42.6422 352.752 202.345 352.752C226.695 352.752 251.64 347.081 276.985 335.692C290.807 331.092 306.29 355.613 282.064 365.834C253.184 378.865 224.156 385.48 195.773 385.48C8.51177 385.48 -89.9819 100.244 116.503 4.97875V4.97764ZM94.2459 331.164C95.712 332.043 96.9591 329.986 95.5902 329.076C68.9503 312.065 48.8343 284.808 40.4196 254.368C40.2207 253.671 39.5736 253.273 38.8763 253.472C38.2293 253.671 37.8303 254.368 38.0292 255.014C46.5937 286.051 67.1086 313.805 94.2459 331.164Z" fill="#FFC567"></path><path d="M202.367 353.992C226.86 353.992 252.135 348.212 277.483 336.807C283.886 334.842 291.743 340.198 293.267 347.712C293.403 348.382 294.059 348.809 294.735 348.683C295.406 348.547 295.844 347.892 295.708 347.216C293.981 338.713 284.843 331.855 276.593 334.491C251.434 345.799 226.503 351.506 202.366 351.506C201.679 351.506 201.121 352.064 201.121 352.75C201.121 353.435 201.679 353.993 202.366 353.993L202.367 353.992Z" fill="#002345"></path><path d="M195.749 386.701C196.435 386.701 196.994 386.143 196.994 385.458C196.994 384.773 196.435 384.214 195.749 384.214C10.0325 384.214 -88.3393 100.922 116.999 6.10275C136.295 -5.79009 149.581 14.8466 134.786 24.8518L134.383 25.0851C42.7472 67.4166 24.8382 149.451 38.6437 212.105C38.9935 213.711 41.4252 213.181 41.0754 211.571C27.48 149.864 45.1308 69.0575 135.443 27.3288L136.173 26.9202C153.746 15.0084 137.554 -9.53074 115.823 3.91596C-91.8035 99.7708 7.44778 386.7 195.75 386.7L195.749 386.701Z" fill="#002345"></path><path d="M186.281 265.861C186.904 265.574 187.181 264.836 186.894 264.21C186.607 263.584 185.868 263.311 185.241 263.598C173.407 269.009 159.333 265.62 151.305 255.273C150.313 253.97 148.324 255.491 149.34 256.798C158.01 267.977 173.302 271.788 186.281 265.862V265.861Z" fill="#002345"></path><path d="M227.949 59.3045H227.983C228.673 59.2856 229.213 58.7118 229.193 58.0275C229.042 52.7676 230.074 47.443 232.173 42.6251C232.446 41.9989 232.159 41.2655 231.526 40.9886C230.899 40.7218 230.16 41.0031 229.888 41.635C227.646 46.7832 226.542 52.4763 226.703 58.0967C226.722 58.7721 227.277 59.3057 227.948 59.3057L227.949 59.3045Z" fill="#002345"></path><path d="M255.671 57.8277C257.071 52.8536 259.05 48.0447 261.55 43.5327C262.34 42.0927 260.183 40.8837 259.372 42.3282C256.781 47.0054 254.728 51.9941 253.28 57.158C253.09 57.8188 253.478 58.5031 254.14 58.6884C254.758 58.8759 255.482 58.5176 255.672 57.8288L255.671 57.8277Z" fill="#002345"></path><path d="M402 51.0709C391.658 54.9466 383.279 62.8354 375.888 69.7954C375.392 70.2664 375.367 71.0534 375.839 71.5535C376.306 72.0491 377.093 72.0737 377.599 71.6026C384.814 64.8023 392.999 57.0988 402.874 53.4028C424.011 45.5063 424.351 74.409 400.676 72.9243C400.02 72.8752 399.402 73.4099 399.358 74.0953C399.319 74.7807 399.845 75.3678 400.531 75.4114C428.449 77.0244 426.703 41.8505 401.999 51.0709H402Z" fill="#002345"></path><path d="M365.196 57.7016C365.609 57.7016 366.017 57.4928 366.25 57.1189L373.958 44.8052C374.322 44.2225 374.148 43.4545 373.564 43.0906C372.991 42.7412 372.218 42.9064 371.848 43.4835L364.141 55.7972C363.619 56.6311 364.223 57.7016 365.196 57.7016Z" fill="#002345"></path><path d="M348.819 52.2229C352.125 49.6052 355.544 46.8993 358.335 43.5818C366.296 34.0822 364.851 23.8605 358.676 19.2904C354.674 16.3222 348.756 16.5901 345.479 19.8787C344.997 20.3643 344.997 21.1512 345.489 21.6368C345.979 22.1124 346.767 22.1224 347.249 21.6268C349.68 19.1832 354.144 19.0281 357.192 21.2919C362.166 24.9712 363.49 33.5408 356.429 41.9844C353.803 45.1077 350.482 47.731 347.272 50.2705C346.732 50.698 346.645 51.4794 347.068 52.0186C347.497 52.5566 348.279 52.6471 348.818 52.2229H348.819Z" fill="#002345"></path><path d="M58.2839 414.092C58.4538 413.426 58.0504 412.751 57.3843 412.581C47.4409 410.065 40.2241 406.262 35.3127 400.953C29.9935 395.202 27.7954 387.226 29.5219 380.723C32.224 382.591 35.3474 384.127 38.6295 384.127C45.2361 384.127 49.544 377.601 45.2283 372.47C40.2923 366.567 32.0307 369.491 28.3943 376.696C17.2004 366.909 13.7384 348.674 21.2077 335.72C21.5486 335.123 21.3441 334.365 20.7507 334.02C20.1674 333.679 19.4041 333.879 19.0488 334.476C10.8743 348.66 14.8671 368.716 27.4031 379.115C24.9178 386.668 27.2377 395.883 33.4868 402.644C38.7334 408.317 46.348 412.353 56.7742 414.991C57.381 415.164 58.1107 414.795 58.2862 414.093L58.2839 414.092ZM43.3218 374.067C46.2251 377.542 43.1587 381.546 38.8049 381.64C35.7463 381.659 32.8576 380.094 30.3924 378.289C32.9504 372.646 39.3827 369.359 43.3218 374.068V374.067Z" fill="#002345"></path><path d="M234.921 446.971C243.081 446.626 251.664 445.731 259.117 441.574C260.168 440.992 261.237 440.302 261.967 439.209C263.715 436.595 262.012 433.388 260.338 434.555C259.783 434.958 259.657 435.735 260.056 436.294C260.314 436.649 260.246 437.309 259.895 437.829C259.486 438.441 258.801 438.903 257.906 439.398C250.899 443.308 242.667 444.153 234.814 444.483C223.436 444.965 211.94 444.45 200.659 442.939C198.939 442.803 198.757 445.193 200.328 445.405C211.747 446.928 223.345 447.455 234.92 446.969L234.921 446.971Z" fill="#002345"></path><path d="M247.463 317.319C252.88 315.007 257.898 311.544 261.968 307.308C262.444 306.813 262.425 306.026 261.929 305.55C261.443 305.089 260.655 305.089 260.169 305.589C256.333 309.582 251.597 312.851 246.481 315.036C244.977 315.672 245.934 317.968 247.463 317.319Z" fill="#002345"></path><path d="M342.112 333.985C369.863 327.879 393.709 306.56 402.856 279.68C403.385 278.153 401.039 277.289 400.503 278.883C391.623 304.957 368.498 325.63 341.578 331.556C340.908 331.702 340.484 332.368 340.63 333.037C340.777 333.72 341.453 334.131 342.112 333.985Z" fill="#002345"></path><path d="M385.326 357.227C398.605 347.489 409.542 334.568 416.952 319.874C417.259 319.263 417.01 318.515 416.398 318.203C415.786 317.907 415.031 318.145 414.725 318.757C407.495 333.1 396.816 345.715 383.848 355.226C383.298 355.629 383.177 356.411 383.585 356.965C383.997 357.524 384.78 357.63 385.326 357.227Z" fill="#002345"></path></g><defs><clipPath id="clip0_1660_757"><rect width="421" height="480" fill="white" transform="matrix(-1 0 0 1 421 0)"></rect></clipPath></defs></svg>