<svg xmlns="http://www.w3.org/2000/svg" width="498" height="504" viewBox="0 0 498 504" fill="none"><g clip-path="url(#clip0_1660_604)"><path d="M437.129 237.147H4.21289V350.094H437.129V237.147Z" fill="white"></path><path d="M437.131 237.147H323.825V350.094H437.131V237.147Z" fill="#1DBFCC"></path><path d="M251.046 153.29C281.622 191.106 338.876 190.758 369.149 153.29C340.183 112.746 280.047 112.707 251.046 153.29Z" fill="#FFC567"></path><path d="M317.913 111.771V123.122L311.716 129.119L305.517 123.122V111.771H317.913Z" fill="white"></path><path d="M285.518 87.1087C285.518 102.024 297.587 114.266 312.626 114.266C327.665 114.266 339.734 102.107 339.734 87.1087C339.734 80.1324 337.1 73.7574 332.76 68.9436C327.819 63.423 320.623 59.9513 312.626 59.9513C297.655 59.9513 285.518 72.1106 285.518 87.1087Z" fill="white"></path><path d="M287.891 97.9202C283.952 97.9202 280.763 94.7239 280.763 90.7798C280.763 86.8357 283.952 83.6453 287.891 83.6453C291.829 83.6453 295.018 86.8404 295.018 90.7798" fill="white"></path><path d="M78.9922 232.605C78.9922 252.503 85.9008 271.279 97.8344 285.944C133.229 329.719 200.54 327.298 232.616 281.654C242.435 267.82 248.208 250.882 248.208 232.605C248.208 185.801 210.325 147.849 163.594 147.849C116.864 147.849 78.9922 185.801 78.9922 232.605Z" fill="white"></path><path d="M97.8345 285.944C131.885 328.056 195.642 327.669 229.354 285.944C197.097 240.794 130.13 240.751 97.8345 285.944Z" fill="#00C5C5"></path><path d="M172.322 238.822V251.528C172.322 255.346 169.232 258.442 165.421 258.442C161.609 258.442 158.519 255.346 158.519 251.528V238.822H172.323H172.322Z" fill="white"></path><path d="M136.222 212.245C136.222 228.855 149.662 242.487 166.409 242.487C183.156 242.487 196.596 228.947 196.596 212.245C196.596 204.476 193.663 197.377 188.829 192.017C183.327 185.869 175.314 182.003 166.408 182.003C149.736 182.003 136.221 195.543 136.221 212.245H136.222Z" fill="white"></path><path d="M112.99 129.203C87.5703 160.642 39.9717 160.353 14.8047 129.203C38.8859 95.4975 88.8806 95.4646 112.99 129.203Z" fill="#FFC567"></path><path d="M68.9201 93.7533V103.915C68.9201 106.97 66.4492 109.445 63.4002 109.445C60.3513 109.445 57.8804 106.97 57.8804 103.915V93.7533H68.9213H68.9201Z" fill="white"></path><path d="M61.796 96.7598C74.2421 96.7598 84.3317 86.6518 84.3317 74.1829C84.3317 61.7141 74.2421 51.6061 61.796 51.6061C49.3499 51.6061 39.2603 61.7141 39.2603 74.1829C39.2603 86.6518 49.3499 96.7598 61.796 96.7598Z" fill="white"></path><path d="M78.6098 89.1951C81.4376 89.1951 83.7284 86.9001 83.7284 84.0672C83.7284 81.2342 81.4376 78.944 78.6098 78.944C75.782 78.944 73.4912 81.2389 73.4912 84.0672" fill="white"></path><path d="M217.417 419.797L289.638 419.756C292.18 419.755 294.392 421.5 294.985 423.978L311.839 494.333C314.741 506.452 332.042 506.187 334.573 493.984L365.289 345.96C367.246 336.53 357.604 328.919 348.91 333.03L212.438 397.573C201.187 402.893 204.977 419.805 217.417 419.798V419.797Z" fill="white"></path><path d="M437.132 236.418H248.846C251.077 187.981 212.223 147.121 163.597 147.121C114.971 147.121 76.1154 187.959 78.3477 236.418H4.21326C3.81547 236.418 3.48438 236.749 3.48438 237.148V350.096C3.48438 350.496 3.8143 350.826 4.21326 350.826H309.574L212.123 396.911C200.218 402.547 204.213 420.522 217.408 420.522C226.477 420.518 280.696 420.488 289.639 420.484C291.853 420.484 293.758 421.992 294.273 424.153L311.129 494.501C314.203 507.374 332.593 507.08 335.289 494.131L365.017 350.827H437.131C437.529 350.827 437.86 350.497 437.86 350.097V237.15C437.86 236.75 437.53 236.419 437.131 236.419L437.132 236.418ZM79.7177 232.603C79.7177 186.276 117.344 148.58 163.597 148.58C209.85 148.58 249.581 188.834 247.388 236.418C246.676 254.238 240.048 271.403 229.379 284.742C215.91 266.365 195.389 254.504 173.039 251.884C173.056 251.681 173.049 252.715 173.049 242.501C184.089 240.075 192.935 231.709 196.083 220.927C199.869 219.56 202.588 215.935 202.588 211.676C202.588 207.418 199.675 203.509 195.673 202.262C194.334 198.328 192.206 194.673 189.37 191.531C183.541 185.01 175.166 181.272 166.413 181.272C149.305 181.272 135.326 195.285 135.499 212.559L133.436 206.035C133.314 205.651 132.903 205.437 132.521 205.56C132.138 205.682 131.926 206.093 132.048 206.477L134.375 213.837C132.213 212.318 129.586 211.42 126.747 211.42C119.385 211.42 113.404 217.412 113.404 224.786C113.404 232.161 119.385 238.153 126.747 238.153C132.517 238.153 137.417 234.463 139.271 229.319L141.473 236.281C141.571 236.592 141.858 236.791 142.168 236.791C142.66 236.791 143.011 236.31 142.863 235.84L140.957 229.815C145.027 235.766 150.966 240.043 157.788 242.006V251.544C134.04 253.254 112.002 265.376 97.8135 284.747C86.4906 270.471 79.7189 252.339 79.7189 232.604L79.7177 232.603ZM98.7565 285.91C112.698 266.693 134.466 254.666 157.933 253.003C158.613 256.517 161.721 259.174 165.423 259.174C169.125 259.174 172.029 256.682 172.836 253.335C194.924 255.914 215.206 267.678 228.428 285.911C194.626 327.219 132.138 326.656 98.7565 285.911V285.91ZM194.898 219.771C189.495 221.2 184.387 217.073 184.387 211.676C184.387 206.28 189.295 202.336 194.534 203.473C196.241 208.962 196.258 214.609 194.898 219.771ZM196.22 204.039C202.59 206.952 202.814 215.938 196.552 219.14C197.657 214.29 197.612 209.111 196.22 204.039ZM183.561 208.232C181.14 206.824 177.649 207.775 176.223 208.265C174.943 205.92 172.736 204.162 170.105 203.465C179.389 200.923 187.349 198.967 188.662 192.932C190.982 195.607 192.781 198.646 194.002 201.907C189.329 201.315 185.116 204.079 183.562 208.232H183.561ZM147.594 213.542C151.289 210.379 155.668 208.207 160.176 206.539C158.903 208.009 158.055 209.854 157.829 211.889L147.594 213.542ZM167.602 204.588C172.215 204.588 175.968 208.354 175.968 212.982C175.968 217.611 172.215 221.363 167.602 221.363C162.988 221.363 159.221 217.603 159.221 212.982C159.221 208.362 162.98 204.588 167.602 204.588ZM140.037 224.042C141.455 220.561 143.38 217.695 145.673 215.331L157.783 213.375C157.991 218.619 162.309 222.824 167.6 222.824C174.35 222.824 179.183 216.086 176.817 209.608C178.185 209.153 181.332 208.338 183.127 209.697C181.756 216.408 187.531 222.545 194.423 221.365C189.456 236.628 173.132 245.189 157.787 240.485C150.155 238.17 143.727 232.821 140.044 225.402C140.078 224.667 140.096 225.096 140.038 224.041L140.037 224.042ZM159.243 242.394C163.374 243.368 167.687 243.461 171.591 242.783C171.512 251.326 171.769 251.767 171.358 253.177C170.649 255.786 168.259 257.713 165.422 257.713C162.029 257.713 159.243 254.948 159.243 251.532C159.243 251.36 159.243 242.254 159.243 242.394ZM4.94214 349.366V237.877H78.4261C79.5036 255.734 86.0916 272.603 97.2729 286.404C132.975 330.576 200.682 328.083 233.214 282.074C242.482 269.012 247.815 253.83 248.767 237.877H323.096V344.431L312.662 349.366H4.94214ZM333.862 493.838C331.474 505.272 315.27 505.526 312.548 494.159L295.692 423.811C295.022 420.989 292.534 419.023 289.64 419.023C280.574 419.028 226.356 419.057 217.409 419.062C205.762 419.062 202.19 403.214 212.746 398.234L312.984 350.826L316.074 349.366L323.098 346.048L324.556 345.356L349.222 333.687C357.361 329.837 366.422 336.92 364.572 345.813L363.834 349.366L363.533 350.826L333.864 493.838H333.862ZM436.403 349.366H365.319L365.998 346.105C368.081 336.077 357.815 328.007 348.599 332.372L324.554 343.74V237.877H436.402V349.366H436.403Z" fill="#002345"></path><path d="M54.1667 263.81H50.5117C47.8489 263.81 45.5429 265.351 44.4209 267.586C43.2989 265.351 40.993 263.81 38.3301 263.81H34.6752C34.2727 263.81 33.9463 264.137 33.9463 264.54C33.9463 264.943 34.2727 265.27 34.6752 265.27H38.3301C41.2878 265.27 43.692 267.68 43.692 270.642V316.559C43.692 319.521 41.2866 321.93 38.3301 321.93H35.4555C35.0531 321.93 34.7267 322.258 34.7267 322.661C34.7267 323.064 35.0531 323.391 35.4555 323.391H38.3301C40.993 323.391 43.2989 321.85 44.4209 319.614C45.5429 321.85 47.8489 323.391 50.5117 323.391H53.3863C53.7888 323.391 54.1152 323.064 54.1152 322.661C54.1152 322.258 53.7888 321.93 53.3863 321.93H50.5117C47.5541 321.93 45.1498 319.521 45.1498 316.559V270.642C45.1498 267.68 47.5553 265.27 50.5117 265.27H54.1667C54.5692 265.27 54.8956 264.943 54.8956 264.54C54.8956 264.137 54.5692 263.81 54.1667 263.81Z" fill="#002345"></path><path d="M393.791 307.992L407.68 321.907C407.823 322.05 408.009 322.12 408.195 322.12C408.837 322.12 409.172 321.336 408.71 320.874L394.82 306.959C404.208 297.005 404.046 281.26 394.319 271.515C384.404 261.581 368.328 261.579 358.411 271.515C348.511 281.434 348.511 297.571 358.411 307.489C368.243 317.341 383.925 317.337 393.791 307.993V307.992ZM359.441 272.547C368.789 263.182 383.941 263.183 393.289 272.547C402.637 281.911 402.619 297.107 393.289 306.455C383.945 315.816 368.797 315.827 359.442 306.455C350.11 297.107 350.11 281.895 359.442 272.547H359.441Z" fill="#002345"></path><path d="M366.06 279.177C371.751 273.476 380.98 273.475 386.672 279.177C386.814 279.32 387 279.391 387.186 279.391C387.829 279.391 388.163 278.607 387.701 278.145C381.446 271.879 371.29 271.873 365.03 278.145C364.745 278.43 364.745 278.891 365.03 279.177C365.314 279.462 365.775 279.462 366.06 279.177Z" fill="#002345"></path><path d="M310.099 182.256C352.31 182.256 386.807 148.044 386.807 105.393C386.807 62.7433 352.395 28.5533 310.097 28.5533C267.798 28.5533 233.396 63.0234 233.396 105.393C233.396 147.763 267.778 182.256 310.098 182.256H310.099ZM287.891 97.1923C284.344 97.1923 281.489 94.296 281.489 90.7786C281.489 83.5491 291.39 82.0055 293.866 88.5012L292.805 88.6723C292.407 88.7368 292.137 89.1107 292.201 89.5092C292.258 89.8679 292.568 90.1234 292.919 90.1234C293.028 90.1234 293.015 90.114 294.231 89.9206C294.271 90.2195 294.294 90.5594 294.294 90.7786C294.294 91.1877 294.615 91.5088 295.023 91.5088C295.431 91.5088 295.752 91.1877 295.752 90.7786C295.752 90.4094 295.72 90.0437 295.672 89.6886L304.813 88.2117C305.044 92.9212 308.935 96.6836 313.699 96.6836C318.463 96.6836 322.593 92.6868 322.593 87.7722C322.593 86.7232 322.402 85.721 322.07 84.7857C323.524 84.3098 326.103 83.8023 327.557 84.8642C326.462 90.5559 330.844 95.508 336.292 95.508C336.756 95.508 337.209 95.4611 337.655 95.392C334.145 106.005 324.186 113.532 312.627 113.532C301.955 113.532 292.741 107.248 288.612 98.0186C288.712 97.715 288.406 97.1911 287.893 97.1911L287.891 97.1923ZM339.002 87.1088C339.002 89.4225 338.7 91.6659 338.139 93.8061C332.734 95.1986 327.946 90.3801 328.966 85.2698C329.695 81.1838 333.687 78.4224 337.825 79.2991C337.98 79.9778 339.002 82.8142 339.002 87.1088ZM339.507 79.8875C344.928 82.4298 345.241 90.2723 339.768 93.1814C340.204 91.2228 340.459 89.1974 340.459 87.1099C340.459 84.6474 340.139 82.2247 339.507 79.8887V79.8875ZM332.221 69.4348C334.428 71.888 336.135 74.7057 337.284 77.7379C333.159 77.2784 329.407 79.6941 327.981 83.3956C325.815 82.2036 322.777 83.0053 321.471 83.4472C319.951 80.708 317.038 78.849 313.698 78.849C309.141 78.849 305.377 82.2973 304.858 86.7255L297.334 87.941C299.121 85.8441 300.21 83.1342 300.21 80.1606C300.21 75.3152 297.332 71.1507 293.207 69.2555C298.033 63.9928 304.951 60.6851 312.626 60.6851C316.91 60.6851 321.088 61.7365 324.818 63.6821C327.588 65.1227 330.103 67.059 332.221 69.4348ZM313.698 80.3083C317.798 80.3083 321.135 83.657 321.135 87.7722C321.135 91.8874 317.798 95.2232 313.698 95.2232C309.597 95.2232 306.247 91.8804 306.247 87.7722C306.247 83.664 309.59 80.3083 313.698 80.3083ZM306.243 114.253C309.899 115.117 313.691 115.207 317.182 114.613C317.182 114.926 317.182 122.924 317.182 122.808C317.084 122.903 311.352 128.452 311.712 128.103C311.614 128.008 305.882 122.459 306.243 122.808C306.243 121.4 306.243 113.871 306.243 114.253ZM305.135 123.762L311.207 129.641C311.506 129.921 311.953 129.905 312.218 129.641L318.008 124.034C337.96 126.253 356.29 136.821 368.23 153.256C338.139 189.94 282.136 190.017 251.968 153.257C264.492 136.013 284.065 125.231 305.135 123.762ZM310.098 30.0138C351.593 30.0138 385.351 63.8287 385.351 105.393C385.351 122.756 379.501 139.081 369.161 152.098C357.072 135.645 338.678 125.001 318.639 122.634V114.332C328.545 112.142 336.468 104.634 339.311 94.9688C342.733 93.7264 345.19 90.4481 345.19 86.6036C345.19 84.0731 344.14 81.7863 342.44 80.17C343.703 78.2431 344.442 75.927 344.442 73.4445C344.442 66.6897 338.952 61.2008 332.201 61.2008C330.025 61.2008 327.975 61.7751 326.207 62.7773C322.098 60.4706 317.424 59.2247 312.625 59.2247C304.318 59.2247 296.855 62.891 291.753 68.6893C284.092 66.3264 276.252 72.0532 276.252 80.1594C276.252 83.7015 277.778 86.8849 280.216 89.0744C279.184 93.8999 282.658 98.2776 287.279 98.6222C290.627 106.054 296.994 111.611 304.785 113.883V122.331C283.506 123.884 263.76 134.75 251.03 152.087C240.669 138.981 234.855 122.726 234.855 105.393C234.855 63.8287 268.609 30.0138 310.098 30.0138Z" fill="#002345"></path><path d="M63.8926 153.408C98.968 153.408 127.785 124.938 127.785 89.3837C127.785 53.8295 99.1248 25.3793 63.8973 25.3793C28.6698 25.3793 0 54.092 0 89.3837C0 124.675 28.4499 153.408 63.8926 153.408ZM57.2473 105.017C57.7714 107.947 60.3371 110.176 63.3966 110.176C66.456 110.176 69.0802 107.889 69.5564 104.92C86.4178 106.535 101.978 115.33 112.063 129.166C87.0672 159.549 40.704 159.519 15.7313 129.167C25.6116 115.603 40.7649 106.876 57.2473 105.017ZM45.6658 59.4954L74.9873 79.4796C73.6372 80.5497 72.7621 82.2047 72.7621 84.0636C72.7621 84.4727 73.092 84.7938 73.491 84.7938C73.8899 84.7938 74.2199 84.4727 74.2199 84.0636C74.2199 82.5059 75.0353 81.1346 76.2696 80.3551C79.0869 78.5138 83.0016 80.5849 83.0016 84.0636C83.0016 86.5473 80.9728 88.4625 78.6107 88.4625C78.3311 88.4625 78.0667 88.6371 77.9696 88.8516C75.1921 91.9518 71.6764 94.0534 68.1864 95.0801C54.5154 99.3407 39.9833 89.0837 39.9833 74.1841C39.9833 68.919 41.8412 63.7536 45.6647 59.4954H45.6658ZM58.6079 97.2708C61.7153 97.708 65.0193 97.5111 68.1864 96.6191C68.1864 96.8019 68.1864 104.317 68.1864 103.919C68.1864 106.512 66.0804 108.717 63.3966 108.717C61.0847 108.717 59.1414 107.062 58.7039 104.873C58.5459 104.172 58.5892 100.546 58.6067 97.2719L58.6079 97.2708ZM63.8973 26.8409C98.3222 26.8409 126.329 54.8984 126.329 89.3861C126.329 103.455 121.71 116.933 113.004 128.008C102.659 114.005 86.8145 105.086 69.6441 103.462V96.1526C73.2195 94.8773 76.4252 92.7359 78.9804 89.9042C83.0975 89.6557 85.6854 85.2826 83.8767 81.5143C85.9241 75.4124 85.3602 68.415 81.903 62.4772L87.8218 68.1361C88.1178 68.4185 88.5788 68.3986 88.8525 68.1126C89.1298 67.8208 89.1193 67.359 88.828 67.0812L83.7082 62.1853C87.8581 61.5618 91.038 57.9916 91.038 53.6595C91.038 48.8973 87.1842 45.0271 82.4213 45.0271C77.9614 45.0271 74.2994 48.4203 73.8513 52.7617L69.2475 48.3605C68.9585 48.0827 68.4952 48.0921 68.2168 48.3839C67.9395 48.6758 67.95 49.1376 68.2414 49.4154L72.5269 53.5118C56.936 45.3588 38.5291 56.9097 38.5291 74.1852C38.5291 85.4361 46.5445 94.8668 57.1525 97.0282V103.559C40.3694 105.432 24.9388 114.274 14.7918 128.01C6.40903 117.394 1.45777 103.956 1.45777 89.3837C1.45777 54.8961 29.4678 26.8385 63.8973 26.8385V26.8409Z" fill="#002345"></path><path d="M483.498 156.122C483.159 155.904 482.709 156.003 482.492 156.343L437.827 226.263C437.609 226.603 437.709 227.054 438.048 227.271C438.385 227.487 438.836 227.391 439.054 227.05L483.72 157.13C483.937 156.79 483.838 156.338 483.498 156.122Z" fill="#002345"></path><path d="M493.499 140.467C493.16 140.249 492.709 140.35 492.493 140.689L490.31 144.105C490.092 144.444 490.192 144.896 490.531 145.113C490.868 145.329 491.319 145.233 491.537 144.892L493.72 141.475C493.937 141.136 493.838 140.684 493.499 140.467Z" fill="#002345"></path><path d="M488.273 230.41L457.631 243.986C457.262 244.149 457.096 244.581 457.26 244.949C457.424 245.32 457.855 245.483 458.22 245.321L488.863 231.745C489.231 231.582 489.397 231.151 489.234 230.783C489.071 230.414 488.639 230.248 488.273 230.41Z" fill="#002345"></path><path d="M497.937 226.927C497.774 226.557 497.343 226.392 496.976 226.554L494.191 227.788C493.822 227.951 493.656 228.382 493.82 228.75C493.984 229.122 494.415 229.285 494.78 229.123L497.566 227.889C497.935 227.726 498.101 227.295 497.937 226.927Z" fill="#002345"></path><path d="M409.867 175.615L412.857 214.644C412.89 215.064 413.267 215.353 413.64 215.316C414.041 215.285 414.341 214.934 414.31 214.532L411.32 175.502C411.29 175.1 410.939 174.792 410.537 174.831C410.136 174.861 409.836 175.213 409.867 175.615Z" fill="#002345"></path><path d="M409.371 159.606C409.772 159.576 410.072 159.224 410.041 158.822L409.812 155.82C409.782 155.418 409.435 155.119 409.029 155.148C408.628 155.178 408.329 155.53 408.359 155.932L408.588 158.933C408.619 159.337 408.971 159.636 409.371 159.606Z" fill="#002345"></path><path d="M88.118 454.541C79.3012 457.005 69.3214 456.325 60.2039 452.375C45.6111 446.052 35.4207 431.978 34.8463 417.353C34.218 401.387 45.7596 386.407 60.5748 383.962C61.3716 383.829 62.1192 384.37 62.2502 385.166C62.3801 385.962 61.8431 386.712 61.0487 386.843C47.8609 389.02 37.1944 402.939 37.7583 417.238C38.2894 430.765 47.7755 443.808 61.361 449.695C69.2056 453.095 77.7241 453.902 85.4177 452.21C80.6607 447.816 76.7109 442.533 73.9264 436.592C68.0824 424.121 69.2466 406.801 81.3182 400.565C92.496 394.793 107.109 402.892 111.16 414.807C115.816 428.498 108.607 446.758 91.5705 453.39C99.9802 459.607 110.29 463.257 120.663 463.21C138.883 463.09 156.865 451.396 164.391 434.773C164.723 434.039 165.587 433.714 166.32 434.046C167.053 434.379 167.377 435.245 167.046 435.979C158.939 453.884 140.306 466 120.681 466.13C108.603 466.185 97.1325 461.803 88.1168 454.54L88.118 454.541ZM82.6543 403.161C72.1247 408.601 71.294 424.107 76.5646 435.352C79.4264 441.455 83.7049 446.867 88.882 451.26C105.534 445.741 112.761 428.569 108.402 415.75C104.921 405.515 92.2117 398.227 82.6543 403.161Z" fill="#1DBFCC"></path><path d="M214.781 70.4651C213.981 70.3842 213.397 69.668 213.478 68.8663C214.607 57.64 210.105 45.9812 201.727 38.4411C199.619 36.5447 196.651 34.3904 193.205 33.3531C193.826 39.5066 192.494 45.401 188.065 49.685C183.26 54.3312 175.33 46.0328 176.369 39.612C177.341 33.5933 183.576 29.6352 189.634 29.8204C188.028 22.8746 184.081 15.8385 179.59 11.1419C170.296 1.42291 153.871 0.0562478 144.436 8.2187C136.152 15.3872 134.036 27.4692 132.984 39.4573C132.914 40.2602 132.197 40.8556 131.406 40.7841C130.604 40.7138 130.012 40.0047 130.082 39.2018C131.187 26.6006 133.461 13.8576 142.531 6.00814C153.077 -3.11895 171.38 -1.66673 181.693 9.12122C186.65 14.3054 191.127 22.2803 192.725 30.213C204.915 32.9147 218.32 49.8315 216.376 69.1582C216.295 69.9634 215.578 70.5448 214.78 70.4639L214.781 70.4651ZM179.246 40.0797C178.797 42.8634 181.175 46.5403 183.445 47.73C185.031 48.5621 185.791 47.8272 186.041 47.5858C189.885 43.8679 190.921 38.4716 190.173 32.7752C185.256 32.3837 179.997 35.4417 179.247 40.0797H179.246Z" fill="#1DBFCC"></path></g><defs><clipPath id="clip0_1660_604"><rect width="498" height="504" fill="white"></rect></clipPath></defs></svg>