<svg xmlns="http://www.w3.org/2000/svg" width="475" height="454" viewBox="0 0 475 454" fill="none"><path d="M423.458 75.9748C424.422 77.9075 424.907 80.0058 424.9 82.2696C424.895 84.1132 424.456 85.5366 423.589 86.5348C422.716 87.5292 421.485 88.0105 419.894 87.9838C418.297 87.9468 416.453 87.4045 414.361 86.3337L414.351 90.0426C414.35 90.4907 414.219 90.7937 413.964 90.9389C413.702 91.0879 413.361 91.0408 412.939 90.7976C412.542 90.5684 412.22 90.2399 411.96 89.8121C411.706 89.3881 411.577 88.9285 411.579 88.4434L411.589 84.7345C408.314 82.6032 405.259 80.0211 402.408 76.987C402.049 76.6012 401.746 76.1416 401.505 75.603C401.264 75.0645 401.141 74.5666 401.143 74.1108C401.144 73.5201 401.32 73.1075 401.668 72.8733C402.022 72.6428 402.47 72.6797 403.015 72.9942C403.313 73.1661 403.604 73.4055 403.877 73.7047C406.329 76.367 408.902 78.5493 411.6 80.2477L411.635 68.2439C409.577 66.4295 407.843 64.7451 406.435 63.2058C405.029 61.6601 403.854 59.9489 402.921 58.0696C401.981 56.1878 401.515 54.2143 401.521 52.1632C401.526 50.3552 401.921 48.9076 402.695 47.8202C403.475 46.7367 404.633 46.1345 406.161 46.0034C407.696 45.876 409.54 46.3331 411.693 47.3682L411.704 43.709C411.705 43.2609 411.836 42.9515 412.091 42.7847C412.353 42.6217 412.675 42.651 413.073 42.8802C413.464 43.1055 413.798 43.4557 414.07 43.9255C414.341 44.3966 414.477 44.8587 414.476 45.3082L414.466 48.9114C417.437 50.7677 420.072 52.8571 422.377 55.1985C423.226 56.0376 423.645 56.9785 423.643 58.0174C423.641 58.5802 423.472 58.9812 423.135 59.2448C422.805 59.5109 422.364 59.4778 421.819 59.1633C421.639 59.0602 421.39 58.845 421.093 58.5381C419.03 56.5137 416.817 54.7669 414.453 53.2976L414.418 65.7216C416.6 67.5716 418.409 69.2573 419.847 70.7852C421.283 72.3131 422.49 74.0433 423.454 75.9748H423.458ZM414.375 81.8481C418.651 83.9642 420.796 83.2118 420.806 79.5946C420.81 78.2348 420.274 76.8762 419.203 75.5101C418.126 74.1401 416.527 72.5117 414.407 70.626L414.375 81.8469M411.65 63.3382L411.683 51.8538C409.864 51.0835 408.405 50.876 407.311 51.2439C406.216 51.6042 405.667 52.5846 405.663 54.1863C405.659 55.7167 406.164 57.1924 407.178 58.612C408.193 60.0316 409.681 61.6091 411.651 63.3382" fill="#FFC567"></path><path d="M444.591 250.515C428.715 259.67 415.858 281.955 415.91 300.176C415.922 304.057 418.65 305.652 422.03 303.702C425.411 301.753 428.159 297 428.148 293.119C428.118 282.616 435.517 269.815 444.631 264.559C453.782 259.282 461.229 263.522 461.26 274.025C461.289 284.485 453.891 297.286 444.739 302.562L210.198 437.815C206.817 439.764 204.069 444.517 204.081 448.398C204.092 452.278 206.857 453.852 210.238 451.903L444.779 316.651C460.691 307.474 473.549 285.188 473.497 266.967C473.445 248.746 460.504 241.337 444.591 250.513V250.515Z" fill="#1DBFCC"></path><path d="M234.724 303.101L215.98 313.979L193.862 301.225L265.414 259.693L287.531 272.447L248.817 294.919" fill="#1DBFCC"></path><path d="M311.222 277.567L324.515 269.85L346.634 282.605L254.419 336.129L232.302 323.376L292.928 288.185" fill="#FFC567"></path><path d="M337.71 153.553C332.844 153.553 328.887 149.601 328.887 144.741C328.887 139.881 332.762 135.927 337.71 135.927C342.657 135.927 346.537 139.881 346.537 144.741C346.537 149.601 342.575 153.553 337.71 153.553ZM337.71 138.385C334.142 138.385 331.349 141.177 331.349 144.741C331.349 148.305 334.2 151.094 337.71 151.094C341.219 151.094 344.076 148.244 344.076 144.741C344.076 141.238 341.22 138.385 337.71 138.385Z" fill="#FFC567"></path><path d="M74.0166 416.991C78.4807 416.991 82.0996 413.381 82.0996 408.928C82.0996 404.475 78.4807 400.865 74.0166 400.865C69.5525 400.865 65.9336 404.475 65.9336 408.928C65.9336 413.381 69.5525 416.991 74.0166 416.991Z" fill="white"></path><path d="M220.458 412.674C220.367 412.853 220.026 412.961 219.7 412.898C210.744 411.239 202.48 408.314 195.822 404.474C194.204 403.541 192.68 402.554 191.277 401.514C191.122 401.406 191.105 401.272 191.182 401.155L191.708 400.94C194.824 400.84 197.835 401.217 200.733 401.155C203.09 401.101 205.553 400.68 207.067 399.8C207.423 399.594 207.716 399.37 207.964 399.119C208.92 398.132 208.849 396.822 207.96 395.755C207.522 395.199 206.869 394.697 206.106 394.257C205.607 393.969 205.053 393.703 204.47 393.465C204.444 393.567 204.42 393.668 204.398 393.773L203.981 394.05C203.78 394.095 203.531 394.059 203.376 393.97C202.396 393.441 200.69 393.351 199.561 393.773C199.329 393.872 199.002 393.844 198.801 393.728C198.598 393.611 198.566 393.432 198.721 393.289C199.084 393.008 198.954 392.493 198.48 392.22L198.227 392.118C196.329 393.015 194.443 393.905 192.542 394.788C192.202 394.949 191.769 395.164 191.118 395.236C190.25 395.307 189.536 395.056 189.038 394.77L188.773 394.617C187.48 393.693 187.396 392.428 188.026 391.379C188.64 390.357 189.829 389.541 191.066 388.823C191.789 388.413 192.493 388.04 193.298 387.745C192.005 387.367 190.748 386.95 189.534 386.496C190.149 387.108 190.495 387.818 190.134 388.554C189.889 389.038 189.379 389.424 188.822 389.747C188.529 389.918 188.219 390.061 187.926 390.213C184.911 391.675 181.445 393.02 177.448 393.451C173.838 393.837 169.773 393.353 167.143 391.836C166.847 391.666 166.552 391.477 166.303 391.28C165.945 391.002 165.555 390.634 165.584 390.167C165.644 389.755 166.03 389.458 166.432 389.225C166.648 389.099 166.88 388.983 167.081 388.884C170.793 387.161 174.473 385.421 177.935 383.555C178.987 382.999 180.006 382.425 181.011 381.842C184.597 379.76 187.933 377.553 190.989 375.203C191.189 375.05 191.577 375.024 191.842 375.141C192.115 375.293 192.151 375.486 191.953 375.633C188.866 378.002 185.498 380.244 181.881 382.343C180.862 382.935 179.81 383.509 178.76 384.084C175.266 385.968 171.57 387.716 167.843 389.43C167.641 389.528 167.457 389.618 167.286 389.718C166.977 389.897 166.823 390.059 166.808 390.21C166.778 390.39 166.966 390.623 167.277 390.856C167.51 391.027 167.728 391.188 167.993 391.341C170.248 392.642 173.958 393.117 177.243 392.758C180.9 392.363 184.195 391.099 187.133 389.663C187.428 389.528 187.706 389.385 187.953 389.241C188.432 388.964 188.818 388.667 188.971 388.344C189.34 387.626 188.59 386.747 187.502 386.102L187.299 385.985C186.646 385.608 185.899 385.249 185.2 384.845C184.748 384.585 184.312 384.298 183.954 383.984C183.783 383.832 183.843 383.634 184.075 383.518C184.307 383.401 184.649 383.401 184.866 383.527C187.781 385.073 191.105 386.365 194.681 387.35C194.965 387.292 195.261 387.246 195.569 387.215C196.887 387.097 198.315 387.332 199.279 387.869C199.683 388.102 199.995 388.408 200.121 388.767L199.953 389.099L199.349 389.18C197.748 388.884 196.18 388.531 194.657 388.124C193.707 388.373 192.833 388.805 192.015 389.278C190.748 390.014 189.683 390.759 189.175 391.611C188.653 392.489 188.783 393.513 189.717 394.159L189.888 394.276C190.23 394.473 190.618 394.571 190.913 394.544C191.145 394.518 191.439 394.401 191.764 394.248C193.775 393.297 195.785 392.363 197.795 391.414L198.384 391.36C198.726 391.431 199.052 391.549 199.316 391.701C199.84 392.015 200.148 392.445 200.143 392.878C201.209 392.722 202.362 392.803 203.329 393.102C203.352 393.008 203.375 392.915 203.4 392.823L203.756 392.563L204.329 392.572C205.276 392.905 206.179 393.299 206.972 393.756C207.827 394.249 208.544 394.823 209.059 395.461C210.073 396.708 210.206 398.233 209.019 399.462C208.726 399.776 208.34 400.054 207.923 400.296C206.083 401.362 203.326 401.794 200.784 401.848C198.115 401.909 195.512 401.639 193 401.631C194.162 402.445 195.393 403.226 196.687 403.973C203.205 407.731 211.284 410.602 220.068 412.234C220.163 412.251 220.245 412.28 220.312 412.318C220.465 412.406 220.534 412.543 220.458 412.674ZM197.807 388.117C197.576 388.045 197.322 387.989 197.06 387.95C197.308 388.008 197.557 388.063 197.807 388.117Z" fill="white"></path><path d="M419.663 131.091V138.812C419.663 140.333 422.125 140.421 422.125 138.762V131.091C422.125 129.462 419.663 129.459 419.663 131.091Z" fill="#1DBFCC"></path><path d="M419.711 145.99V153.661C419.711 155.291 422.173 155.292 422.173 153.661V145.99C422.173 144.382 419.711 144.348 419.711 145.99Z" fill="#1DBFCC"></path><path d="M417.765 167.609C418.336 167.609 418.34 167.407 421.578 165.6C422.609 165.007 422.033 163.883 422.183 160.846C422.183 160.166 421.63 159.619 420.952 159.619H420.947C420.269 159.621 419.72 160.174 419.72 160.85L419.731 163.827L417.149 165.315C416.066 165.94 416.508 167.608 417.765 167.608V167.609Z" fill="#1DBFCC"></path><path d="M399.478 175.495L393.323 179.036C391.925 179.851 393.122 181.915 394.555 181.199L400.709 177.61C402.113 176.793 400.879 174.681 399.478 175.495Z" fill="#1DBFCC"></path><path d="M387.563 182.38L381.409 185.921C380.275 186.58 380.849 188.231 382.049 188.231C382.556 188.231 382.371 188.16 388.794 184.495C390.2 183.675 388.96 181.566 387.563 182.38Z" fill="#1DBFCC"></path><path d="M411.391 168.61L405.237 172.199C403.882 172.99 404.97 175.064 406.468 174.314L412.623 170.773C414.059 169.937 412.73 167.831 411.391 168.61Z" fill="#1DBFCC"></path><path d="M419.663 121.01V123.911C419.663 125.54 422.125 125.544 422.125 123.911V121.846C429.549 124.247 437.271 124.421 444.131 120.518C444.181 120.518 444.181 120.47 444.23 120.47L461.707 110.29C490.336 93.6648 469.277 28.009 431.281 6.09064C419.268 -0.843278 407.896 -1.87585 399.329 3.09095C388.008 9.67856 384.312 11.8825 381.901 13.2206C381.901 13.2206 381.851 13.2206 381.851 13.269C373.383 18.1378 368.658 28.3655 368.658 41.938C368.548 72.8516 392.687 110.563 419.662 121.01H419.663ZM460.477 108.176L451.861 113.191C464.401 92.827 452.727 57.5578 439.012 40.1186C426.937 25.8076 431.747 30.4192 421.436 21.4813C419.049 19.5727 416.155 17.7431 415.578 17.3509L430.644 8.5976C467.841 30.6064 486.197 93.3542 460.478 108.176H460.477ZM383.034 15.3838C383.084 15.3838 383.084 15.3342 383.132 15.3342C386.283 13.5148 389.878 12.6299 393.816 12.6299C422.334 12.6299 455.028 56.2642 454.963 91.7015C454.963 101.945 451.847 113.439 442.901 118.354C416.628 133.38 370.962 85.0273 371.12 41.9864C371.12 29.2988 375.354 19.8579 383.034 15.3838Z" fill="#FFC567"></path><path d="M443.639 88.3581C443.589 99.8158 439.208 106.946 431.626 107.978C430.985 108.076 430.494 108.716 430.592 109.356C430.642 109.995 431.182 110.438 431.824 110.438H431.972C440.785 109.258 446.052 100.997 446.102 88.3594C446.152 66.0833 430.397 38.89 410.998 27.678C410.457 27.3343 409.67 27.5303 409.325 28.1198C408.979 28.7093 409.177 29.4975 409.767 29.7916C428.525 40.6101 443.689 66.8688 443.639 88.3581Z" fill="#FFC567"></path><path d="M421.976 109.208H422.026C422.124 109.208 422.222 109.258 422.37 109.258C423.646 109.258 424.113 107.366 422.764 106.849C383.18 91.0344 370.126 27.5902 395.243 25.6128C395.933 25.5632 396.425 24.9737 396.375 24.3345C396.325 23.6457 395.833 23.1046 395.095 23.2039C385.642 23.8927 379.981 32.1533 379.932 45.3324C379.874 71.9807 401.916 102.955 421.976 109.21V109.208Z" fill="#FFC567"></path><path d="M207.815 334.837C208.157 334.251 207.959 333.498 207.373 333.156L142.616 295.57C142.019 295.231 141.27 295.426 140.933 296.017C140.591 296.602 140.789 297.356 141.375 297.697L206.133 335.284C206.728 335.625 207.48 335.421 207.815 334.837Z" fill="#1DBFCC"></path><path d="M269.395 370.582C269.736 369.997 269.539 369.243 268.952 368.902L224.95 343.361C224.354 343.017 223.604 343.215 223.268 343.808C222.926 344.394 223.124 345.147 223.71 345.489L267.712 371.029C268.307 371.371 269.059 371.167 269.395 370.582Z" fill="#1DBFCC"></path><path d="M60.9497 315.855C60.6081 316.44 60.8056 317.194 61.392 317.535C164.901 377.542 160.451 375.212 161.093 375.212C162.344 375.212 162.794 373.546 161.714 372.919L62.6336 315.408C62.0421 315.069 61.2875 315.264 60.951 315.855H60.9497Z" fill="#1DBFCC"></path><path d="M465.694 247.486C465.694 247.436 465.645 247.436 465.645 247.436C465.547 247.387 465.497 247.338 465.399 247.288L372.941 193.639L376.878 191.376C378.27 190.565 377.153 188.461 375.647 189.213L370.478 192.213L334.538 171.363C333.947 171.019 333.209 171.215 332.865 171.806C332.519 172.395 332.717 173.134 333.308 173.477C364.767 191.738 425.643 227.073 457.079 245.321C443.674 245.959 431.134 258.267 424.29 269.515V269.563C418.748 278.529 414.689 289.745 414.689 300.199C414.689 300.445 414.689 300.74 414.739 300.986C359.501 268.921 270.511 217.265 215.494 185.328C214.756 184.885 214.313 183.853 214.313 182.427C214.235 154.209 244.266 121.874 261.625 131.875L320.705 166.198C321.295 166.494 322.084 166.296 322.428 165.707C322.723 165.166 322.527 164.379 321.986 164.035L262.858 129.76C243.078 118.236 211.776 153.181 211.854 182.426C211.854 184.736 212.74 186.606 214.217 187.442L224.507 193.441L180.543 218.815C179.136 219.634 180.375 221.744 181.774 220.93L227.018 194.867L417.056 305.214H417.106C422.182 308.069 429.443 299.915 429.365 293.117C429.365 276.266 447.888 257.765 456.738 265.137C456.788 265.137 456.788 265.187 456.788 265.187C457.113 265.382 457.541 265.855 457.625 266.023C458.019 266.417 458.314 266.908 458.61 267.45C458.659 267.499 458.659 267.548 458.708 267.597C463.534 278.189 454.445 295.528 444.135 301.479C401.497 326.062 224.963 427.844 210.183 436.363L9.8026 320.068L93.8425 271.631L120.576 289.875C121.185 290.33 122.372 290.059 122.496 288.94L125.155 253.584L165.328 230.423C165.919 230.079 166.115 229.341 165.771 228.751C165.426 228.162 164.688 227.965 164.098 228.31L125.352 250.634L126.534 234.899C127.124 231.997 126.829 229.244 125.648 226.834C65.188 101.461 72.4565 116.642 71.7873 115.307C69.5718 110.783 64.5991 108.029 57.7564 107.488C36.0491 105.772 8.97658 127.167 16.1558 142.156C16.1558 142.156 16.1558 142.206 16.2043 142.206C16.2043 142.304 16.254 142.402 16.3024 142.452L24.0323 158.385C24.0323 158.434 24.0323 158.532 24.082 158.582L70.0651 253.734C71.1932 256.034 73.0352 257.807 75.4661 259.121C87.7774 267.516 92.1841 270.52 91.5799 270.109L6.74963 318.985V319.035C6.69992 319.083 6.65148 319.083 6.60177 319.133C0.809426 322.559 -2.56477 332.765 2.41685 335.656C206.223 453.946 205.155 453.526 205.648 453.526C209.067 455.389 206.569 455.107 326.859 386.058C327.449 385.714 327.647 384.976 327.302 384.387C326.957 383.797 326.218 383.6 325.628 383.943C204.658 453.174 208.698 452.59 206.486 451.263C205.747 450.822 205.304 449.788 205.304 448.411C205.304 444.969 207.815 440.593 210.817 438.871L445.361 303.642C452.14 299.692 457.752 291.912 460.426 284.661C460.494 284.474 461.846 280.474 461.706 280.333C463.385 274.164 462.676 265.487 457.077 262.385C457.077 262.335 457.028 262.335 457.028 262.335C443.87 255.764 426.898 277.186 426.898 293.117C426.98 298.833 420.945 304.617 418.332 303.051H418.282C417.789 302.558 417.149 302.139 417.149 300.149C417.059 273.378 446.147 239.407 464.412 249.549C464.462 249.549 464.462 249.598 464.51 249.598C481.198 259.5 469.247 301.168 444.178 315.59L420.891 329.014C420.349 329.31 420.103 330.097 420.448 330.686C420.794 331.276 421.58 331.473 422.122 331.128L445.41 317.703C471.385 302.72 484.803 258.575 465.693 247.483L465.694 247.486ZM57.5575 109.945C63.4646 110.387 67.6495 112.65 69.5208 116.288V116.387C71.5897 120.859 69.8369 125.821 67.0593 129.909C55.1305 147.341 24.258 153.362 18.4172 141.17V141.12H18.3675C18.3675 141.072 18.319 141.072 18.319 141.022C12.9639 128.877 35.5584 108.479 57.5575 109.944V109.945ZM72.278 252.698L31.2179 167.725C47.3661 176.462 79.1335 160.864 82.4197 143.138L123.43 227.914C124.862 230.772 124.185 233.495 124.169 234.257C124.12 234.306 124.12 234.355 124.12 234.405C123.676 236.667 122.593 239.076 120.919 241.486C109.403 258.429 78.5599 265.253 72.278 252.698ZM83.2075 261.451C94.578 263.345 114.377 255.749 123.578 241.979L122.79 252.109L122.593 255.059L120.229 286.628C119.733 286.291 82.7116 261.115 83.2062 261.451H83.2075Z" fill="#1DBFCC"></path><path d="M410.601 334.943L337.969 376.828C336.885 377.453 337.327 379.121 338.584 379.121C338.796 379.121 339.008 379.068 339.2 378.955L411.832 337.07C413.251 336.251 411.993 334.126 410.601 334.943Z" fill="#1DBFCC"></path><path d="M288.145 271.384L266.029 258.629C265.644 258.409 265.177 258.409 264.793 258.629L193.243 300.16C192.434 300.63 192.425 301.814 193.248 302.287L215.365 315.042C215.76 315.269 216.226 315.258 216.6 315.042L235.346 304.163C235.932 303.822 236.13 303.068 235.788 302.482C235.447 301.889 234.692 301.693 234.106 302.035L215.98 312.557L196.322 301.222L265.415 261.114L285.074 272.45L248.198 293.855C247.611 294.196 247.414 294.95 247.755 295.535C248.092 296.124 248.841 296.318 249.438 295.982L288.151 273.51C288.961 273.04 288.97 271.856 288.146 271.383L288.145 271.384Z" fill="#1DBFCC"></path><path d="M293.992 287.569C293.65 286.976 292.896 286.781 292.309 287.122L231.682 322.31C230.873 322.78 230.864 323.964 231.687 324.437L253.804 337.193C254.199 337.419 254.665 337.408 255.039 337.193L347.254 283.668C348.063 283.198 348.072 282.014 347.248 281.54L325.132 268.785C324.747 268.564 324.28 268.564 323.897 268.785L310.603 276.502C310.016 276.843 309.819 277.597 310.16 278.183C310.497 278.771 311.252 278.966 311.843 278.63L324.516 271.271L344.175 282.606L254.417 334.707L234.758 323.372L293.548 289.25C294.135 288.908 294.332 288.155 293.991 287.569H293.992Z" fill="#1DBFCC"></path><path d="M270.125 346.587L292.247 359.344C292.642 359.57 293.108 359.559 293.482 359.344L336.118 334.594C336.927 334.123 336.936 332.94 336.112 332.466L313.996 319.711C313.611 319.49 313.144 319.49 312.761 319.711L303.77 324.929C303.184 325.27 302.986 326.024 303.328 326.609C303.664 327.198 304.414 327.392 305.01 327.056L313.382 322.196L333.04 333.532L292.861 356.858L273.197 345.52L290.837 335.282C291.423 334.941 291.621 334.187 291.279 333.602C290.938 333.011 290.183 332.816 289.597 333.155L270.12 344.46C269.311 344.93 269.302 346.114 270.125 346.587Z" fill="#1DBFCC"></path><path d="M110.307 312.6C110.73 312.6 111.143 312.381 111.37 311.988C111.712 311.402 111.514 310.648 110.928 310.307L86.1523 295.928C85.5558 295.584 84.8062 295.781 84.4697 296.374C84.1281 296.96 84.3257 297.714 84.912 298.055L109.688 312.435C109.885 312.548 110.097 312.6 110.308 312.6H110.307Z" fill="#1DBFCC"></path><path d="M245.88 390.064C247.105 387.962 250.755 392.134 125.356 318.682C124.76 318.339 124.01 318.536 123.674 319.129C123.332 319.715 123.53 320.469 124.116 320.81C249.856 393.129 244.663 392.184 245.88 390.064Z" fill="#1DBFCC"></path><path d="M247.94 141.171C246.556 141.977 247.889 144.131 249.22 143.286L249.663 142.99C253.257 140.925 256.802 140.188 258.279 141.023L266.501 145.793C267.694 146.686 269.297 144.642 267.781 143.678L259.511 138.908C255.41 136.52 248.433 140.976 247.94 141.17V141.171Z" fill="#1DBFCC"></path><path d="M242.327 145.4C239.768 147.711 237.305 150.465 235.089 153.563C234.084 154.792 236.062 156.381 237.059 154.989C239.225 152.039 241.538 149.383 244 147.22C245.203 146.139 243.494 144.233 242.326 145.4H242.327Z" fill="#1DBFCC"></path><path d="M388.866 378.308C388.385 377.828 387.606 377.828 387.126 378.308L380.965 384.46L374.804 378.308C374.324 377.828 373.545 377.828 373.064 378.308C372.584 378.788 372.584 379.566 373.064 380.046L379.225 386.198L373.064 392.351C372.285 393.128 372.85 394.449 373.935 394.449C374.849 394.449 374.649 394.064 380.966 387.936C387.361 394.139 387.099 394.449 387.997 394.449C388.315 394.449 388.627 394.329 388.868 394.088C389.349 393.608 389.349 392.831 388.868 392.351L382.707 386.198L388.868 380.046C389.349 379.566 389.349 378.788 388.868 378.308H388.866Z" fill="#FFC567"></path><path d="M40.8178 135.615C47.3827 135.615 54.8028 129.331 52.5364 124.649C49.9181 119.418 39.8184 122.227 36.2403 127.55C33.4487 131.626 35.5583 135.615 40.8191 135.615H40.8178Z" fill="#1DBFCC"></path><path d="M112.735 232.7C113.459 234.161 115.657 233.092 114.957 231.629L96.5958 193.636C96.2924 193.024 95.5569 192.769 94.9514 193.065C94.3357 193.36 94.0807 194.095 94.3739 194.707L112.735 232.7Z" fill="white"></path><path d="M90.4505 186.583C90.6672 187.022 91.1045 187.277 91.5608 187.277C91.7431 187.277 91.9216 187.238 92.0949 187.154C92.7106 186.859 92.9656 186.124 92.6724 185.512L86.8545 173.475C86.5512 172.86 85.8156 172.608 85.2102 172.903C84.5945 173.199 84.3395 173.933 84.6327 174.546L90.4505 186.583Z" fill="white"></path><path d="M185.411 262.317C209.466 276.189 252.677 266.984 252.643 245.613C252.628 235.428 242.37 228.498 232.695 225.237C231.152 224.729 230.363 227.048 231.906 227.566C240.472 230.45 250.165 236.634 250.181 245.618C250.197 264.058 210.107 273.712 186.64 260.19C161.812 245.876 183.473 222.051 218.194 224.831C219.883 224.91 219.967 222.505 218.396 222.382C180.269 219.276 158.472 246.78 185.408 262.316L185.411 262.317Z" fill="#1DBFCC"></path><path d="M213.167 261.781C237.719 261.781 254.119 245.614 234.994 234.582C215.305 223.225 182.831 231.795 182.848 245.54C182.857 253.323 193.127 258.521 201.242 260.439C201.925 260.621 202.564 260.185 202.723 259.526C203.276 257.226 199.541 258.565 192.357 254.42C168.645 240.745 209.987 223.018 233.763 236.709C251.235 246.79 233.288 259.323 213.166 259.323C211.537 259.323 211.537 261.781 213.166 261.781H213.167Z" fill="#1DBFCC"></path><path d="M200.849 243.989C217.771 253.738 216.978 253.527 217.614 253.527C218.865 253.527 219.315 251.862 218.235 251.234L202.091 241.863C200.659 241.049 199.46 243.182 200.85 243.991L200.849 243.989Z" fill="#1DBFCC"></path><path d="M224.676 249.453C225.927 249.453 226.377 247.787 225.297 247.16L209.153 237.789C208.556 237.448 207.807 237.642 207.47 238.236C207.129 238.821 207.326 239.575 207.913 239.916C224.834 249.665 224.042 249.454 224.678 249.454L224.676 249.453Z" fill="#1DBFCC"></path></svg>