<svg xmlns="http://www.w3.org/2000/svg" width="611" height="450" viewBox="0 0 611 450" fill="none"><g clip-path="url(#clip0_1660_729)"><path d="M261.582 1.28882H202.344C195.315 1.28882 189.618 6.9927 189.618 14.0288V73.3331C189.618 80.3692 195.315 86.0731 202.344 86.0731H261.582C268.61 86.0731 274.308 80.3692 274.308 73.3331V14.0288C274.308 6.9927 268.61 1.28882 261.582 1.28882Z" fill="#1DBFCC"></path><path d="M590.57 84.4158H462.838V131.134H590.57V84.4158Z" fill="#1DBFCC"></path><path d="M425.978 448.713H328.811C318.809 448.713 313.829 436.574 320.886 429.509L369.471 380.871C373.887 376.449 380.989 376.449 385.362 380.871L433.989 429.465C441.047 436.574 436.068 448.711 425.978 448.711V448.713Z" fill="#1DBFCC"></path><path d="M572.457 448.694C570.657 406.988 558.93 377.845 544.582 358.331C545.302 349.423 546.69 338.147 549.468 331.66C556.154 316.162 557.492 309.521 557.492 309.521C557.492 309.521 596.94 384.437 572.459 448.696L572.457 448.694Z" fill="#FFC567"></path><path d="M462.862 30.9182H590.548C591.259 30.9182 591.834 30.3421 591.834 29.6309C591.834 28.9196 591.259 28.3435 590.548 28.3435H462.862C462.152 28.3435 461.576 28.9196 461.576 29.6309C461.576 30.3421 462.152 30.9182 462.862 30.9182Z" fill="#002345"></path><path d="M453.628 57.9756H498.41C499.12 57.9756 499.696 57.3995 499.696 56.6883C499.696 55.977 499.12 55.4009 498.41 55.4009H453.628C452.917 55.4009 452.342 55.977 452.342 56.6883C452.342 57.3995 452.917 57.9756 453.628 57.9756Z" fill="#002345"></path><path d="M557.368 57.9756C558.079 57.9756 558.654 57.3995 558.654 56.6883C558.654 55.977 558.079 55.4009 557.368 55.4009H520.96C520.249 55.4009 519.674 55.977 519.674 56.6883C519.674 57.3995 520.249 57.9756 520.96 57.9756H557.368Z" fill="#002345"></path><path d="M590.57 83.1284H462.837C462.126 83.1284 461.551 83.7045 461.551 84.4158V131.132C461.551 131.844 462.126 132.42 462.837 132.42H590.57C591.28 132.42 591.856 131.844 591.856 131.132V84.4158C591.856 83.7045 591.28 83.1284 590.57 83.1284ZM589.284 129.845H464.123V85.7017H589.284V129.845Z" fill="#002345"></path><path d="M296.49 323.203L371.199 335.4C371.385 335.434 371.616 335.42 371.83 335.344L404.367 323.927C405.63 323.485 405.457 321.633 404.125 321.438L322.221 309.644C321.983 309.611 321.741 309.638 321.525 309.737L296.183 320.751C295.006 321.266 295.229 323 296.49 323.202V323.203Z" fill="#002345"></path><path d="M128.282 114.379C126.076 116.449 124.567 122.027 126.937 124.735C127.402 125.265 128.209 125.326 128.753 124.853C129.286 124.385 129.339 123.572 128.871 123.035C127.756 121.762 128.627 117.583 130.039 116.254C130.559 115.769 130.585 114.954 130.097 114.436C129.616 113.913 128.796 113.89 128.282 114.378V114.379Z" fill="#002345"></path><path d="M370.428 259.471L355.393 257.263C354.791 257.172 354.258 257.492 354.028 258.026L341.291 287.361C340.958 288.133 341.44 289.019 342.285 289.149L357.32 291.359C357.954 291.436 358.468 291.095 358.686 290.597L371.423 261.259C371.755 260.487 371.274 259.6 370.428 259.471ZM356.719 288.668L344.319 286.846L355.994 259.955L368.395 261.777L356.719 288.668Z" fill="#002345"></path><path d="M404.002 253.158L388.967 250.947C388.371 250.875 387.834 251.176 387.601 251.71L370.273 291.618C369.941 292.391 370.422 293.277 371.268 293.406L386.303 295.614C386.936 295.691 387.451 295.349 387.668 294.851L404.996 254.944C405.329 254.172 404.847 253.286 404.002 253.156V253.158ZM385.701 292.924L373.301 291.103L389.566 253.637L401.967 255.459L385.701 292.923V292.924Z" fill="#002345"></path><path d="M437.576 246.843L422.541 244.633C421.928 244.555 421.405 244.859 421.175 245.395L399.256 295.879C398.923 296.651 399.405 297.537 400.251 297.667L415.285 299.874C415.348 299.882 415.41 299.887 415.472 299.887C415.979 299.887 416.444 299.588 416.652 299.113L438.572 248.633C438.904 247.86 438.422 246.974 437.577 246.845L437.576 246.843ZM414.684 297.183L402.284 295.361L423.14 247.324L435.541 249.146L414.684 297.183Z" fill="#002345"></path><path d="M355.446 245.537L435.244 230.53L431.14 236.209C430.724 236.785 430.854 237.588 431.428 238.007C432.02 238.429 432.818 238.283 433.225 237.718L439.174 229.487C439.593 228.904 439.461 228.092 438.866 227.675L430.297 221.722C429.712 221.316 428.911 221.463 428.507 222.046C428.103 222.629 428.248 223.432 428.831 223.839L434.815 227.994L354.971 243.011C354.275 243.142 353.816 243.816 353.947 244.515C354.076 245.206 354.742 245.673 355.448 245.54L355.446 245.537Z" fill="#002345"></path><path d="M608.948 447.427H573.658C568 329.831 482.647 310.249 483.121 330.04C483.42 343.932 503.579 358.985 509.089 365.041C503.467 364.042 491.572 358.746 485 363.544C482.313 365.51 480.87 368.92 480.701 373.678C480.137 388.674 524.528 406.692 537.353 413.986C536.486 413.878 535.347 413.707 533.848 413.443C517.095 410.484 498.3 410.783 497.152 416.41C496.884 417.725 496.067 421.728 515.999 426.366C542.287 432.47 553.05 443.139 556.459 447.425H247.1V420.563L295.47 367.264C311.036 366.539 325.16 361.952 337.482 353.654L345.337 354.914C345.577 354.949 345.802 354.921 346.005 354.841L433.593 320.91C433.666 320.882 433.838 320.734 434.329 320.138L474.127 209.09C475.079 206.433 473.198 203.627 470.4 203.491L358.3 197.771C356.422 197.627 354.749 198.829 354.138 200.565L318.273 302.463L279.24 317.738C284.199 307.266 287.318 299.78 287.763 298.701L300.591 269.709L311.967 255.071C313.174 253.573 313.883 251.769 314.011 249.836L314.938 232.888C322.811 228.949 339.266 220.029 338.218 214.794C338.008 213.733 337.352 212.881 336.324 212.333C329.96 208.929 306.178 217.899 298.235 221.065C299.059 217.057 300.231 209.441 298.039 206.337C297.391 205.417 296.481 204.882 295.41 204.784C289.89 204.289 272.956 226.718 267.943 233.614C267.81 233.795 267.73 234.008 267.705 234.233L264.596 262.815L239.019 296.415C223.453 253.008 205.111 222.286 181.43 199.977L182.925 186.059C187.009 187.762 196.192 191.276 199.825 190.05C210.005 186.683 216.833 169.907 220.125 140.209C223.964 137.778 226.564 133.4 226.564 128.358C226.564 124.105 224.693 120.343 221.816 117.793C222.049 112.448 222.17 107.381 222.222 102.83C226.576 98.0846 242.024 79.8096 236.556 64.9217C232.767 54.6113 219.804 48.422 198.018 46.5315C161.523 43.3707 118.297 52.4548 109.692 79.9007C102.905 101.548 116.31 150.271 117.546 154.669C116.324 158.148 115.044 161.51 113.892 164.319C113.878 164.345 113.872 164.372 113.858 164.398L86.6483 198.946C57.9342 235.375 47.8484 283.339 59.6819 327.286C71.3335 366.57 75.5068 412.535 74.0859 447.422H1.28594C0.575477 447.422 0 447.998 0 448.71C0 449.421 0.575477 449.997 1.28594 449.997H608.948C609.659 449.997 610.234 449.421 610.234 448.71C610.234 447.998 609.659 447.422 608.948 447.422V447.427ZM516.585 423.86C499.842 419.965 499.669 416.956 499.673 416.927C500.067 414.993 512.373 412.268 533.403 415.981C539.712 417.094 541.457 416.993 541.944 415.51C542.554 413.639 540.746 412.606 527.886 406.263C512.16 398.505 482.888 384.064 483.274 373.773C483.966 353.705 510.212 372.091 512.368 366.631C512.986 365.049 511.425 363.509 505.924 358.408C498.437 351.469 485.906 339.851 485.692 329.983C485.356 316.027 565.58 333.428 571.113 447.409H559.656C557.604 444.225 547.459 431.031 516.585 423.86ZM247.1 373.81C254.285 363.982 261.026 352.796 266.872 342.096L286.063 345.238L293.399 365.722L247.098 416.737V373.81H247.1ZM288.966 345.713L333.728 353.043C322.374 360.144 309.898 363.937 295.75 364.654L288.966 345.713ZM356.565 201.424C356.807 200.745 357.485 200.391 358.17 200.346L470.27 206.066C471.35 206.124 472.074 207.202 471.706 208.225L432.261 318.286C279.793 296.497 332.42 304.018 321.026 302.391L356.565 201.425V201.424ZM319.37 304.803C330.922 306.449 284.78 299.874 428.072 320.294L345.4 352.322C346.069 352.429 340.183 351.429 268.154 339.714C271.699 333.125 274.889 326.791 277.616 321.141L319.37 304.803ZM266.858 264.094C267.001 263.908 267.089 263.687 267.114 263.452L270.223 234.854C279.966 221.491 292.106 207.35 295.097 207.35C295.124 207.35 295.15 207.35 295.178 207.353C295.401 207.373 295.669 207.445 295.94 207.825C297.587 210.158 296.352 218.292 295.19 222.873C294.928 223.891 295.943 224.78 296.928 224.379C309.228 219.288 330.466 212.135 335.115 214.609C335.553 214.842 335.655 215.091 335.698 215.303C336.135 217.491 325.798 224.644 313.126 230.921C313.122 230.924 313.12 230.928 313.116 230.93C313.113 230.931 313.109 230.93 313.106 230.93L304.228 235.53C303.597 235.857 303.349 236.634 303.676 237.264C304.007 237.906 304.791 238.139 305.409 237.817L312.291 234.251L311.866 242.021L301.175 247.872C300.552 248.212 300.324 248.993 300.665 249.619C301.013 250.256 301.803 250.463 302.409 250.129L311.699 245.045L311.447 249.684C311.354 251.069 310.844 252.374 309.955 253.475L298.465 268.255C298.4 268.337 298.347 268.425 298.304 268.524L285.401 297.692C284.985 298.698 243.479 398.46 210.224 400.285C181.721 401.781 147.549 370.089 130.667 347.73C130.599 347.639 130.522 347.562 130.434 347.491C126.2 344.165 131.158 331.263 141.967 317.478C145.367 313.141 148.815 309.398 152.086 306.364L198.794 350.456L195.284 355.551C194.315 356.955 196.438 358.415 197.398 357.015C198.454 355.483 210.325 338.253 209.566 339.354L266.859 264.09L266.858 264.094ZM199.014 187.61C196.472 188.491 187.429 185.254 182.349 183.02C181.826 182.789 163.464 173.972 163.991 174.19C163.356 173.881 162.583 174.15 162.276 174.79C161.968 175.432 162.236 176.202 162.876 176.507L180.454 184.98L178.84 199.999C172.63 210.962 151.762 204.41 139.787 197.962C130.24 192.799 116.019 182.246 115.016 171.537C114.709 168.033 116.431 164.897 116.218 165.415C118.642 159.506 127.625 136.489 124.495 130.96C124.481 130.933 124.475 130.893 124.459 130.868C122.676 127.853 122.227 118.953 124.344 112.422C124.959 110.522 126.147 107.877 127.973 107.085C131.032 105.758 136.213 113.31 137.991 116.106V138.78C137.991 141.731 140.367 144.135 143.287 144.135C146.207 144.135 148.636 141.731 148.636 138.78V122.197L164.566 129.242C163.974 137.733 170.381 144.123 177.687 144.123C184.994 144.123 190.902 137.898 190.902 130.245C190.902 129.377 190.804 128.535 190.658 127.711C193.732 126.455 196.87 126.444 200.199 127.677C200.188 127.909 200.134 128.126 200.134 128.361C200.134 136.014 206.063 142.239 213.348 142.239C214.764 142.239 216.101 141.942 217.38 141.508C214.19 168.736 207.858 184.684 199.013 187.609L199.014 187.61ZM167.042 130.246C167.042 124.014 171.819 118.946 177.687 118.946C183.556 118.946 188.33 124.014 188.33 130.246C188.33 136.478 183.556 141.549 177.687 141.549C171.819 141.549 167.042 136.478 167.042 130.246ZM223.991 128.363C223.991 134.595 219.217 139.666 213.348 139.666C207.48 139.666 202.706 134.595 202.706 128.363C202.706 122.131 207.48 117.062 213.348 117.062C219.217 117.062 223.991 122.131 223.991 128.363ZM213.348 114.487C207.138 114.487 201.95 119.027 200.542 125.099C196.912 123.883 193.37 123.922 189.977 125.242C188.057 120.064 183.287 116.371 177.687 116.371C171.603 116.371 166.519 120.732 164.987 126.617L148.636 119.387V118.482C154.073 111.991 157.529 103.314 158.883 92.5155C179.697 102.849 192.873 101.204 202.568 99.9893C210.147 99.0419 214.725 98.4686 219.225 103.911C219.326 104.032 219.497 104.036 219.63 104.113C219.578 107.819 219.474 111.829 219.308 116.048C217.509 115.084 215.504 114.487 213.35 114.487H213.348ZM62.1572 326.588C50.5453 283.456 60.4549 236.337 88.6689 200.542L112.364 170.457C112.326 182.219 126.849 193.649 137.195 199.467C149.875 206.599 172.13 213.845 180.337 202.472C203.675 224.713 221.766 255.411 237.165 298.85L208.408 336.628C206.227 334.396 145.471 270.612 143.13 268.155C142.64 267.637 141.827 267.622 141.312 268.11C140.797 268.6 140.777 269.414 141.266 269.93L165.534 295.426C155.653 297.713 146.225 307.87 139.94 315.889C132.428 325.469 126.46 336.343 126.4 343.478L98.8257 314.506C98.3341 313.988 97.5199 313.973 97.0069 314.461C96.4925 314.951 96.4726 315.765 96.9614 316.281C112.488 332.538 128.311 349.34 129.038 349.838C147.163 373.361 180.634 404.497 210.363 402.855C221.637 402.236 233.528 391.533 244.526 377.227V447.405H76.6635C78.083 411.532 73.644 364.859 62.1586 326.588H62.1572Z" fill="#002345"></path><path d="M15.1484 105.065H32.64L78.2661 181.398C78.6398 182.022 79.4412 182.199 80.0295 181.84C80.639 181.476 80.838 180.687 80.4714 180.075L35.6353 105.065H97.9616C98.6721 105.065 99.2475 104.489 99.2475 103.777C99.2475 103.066 98.6721 102.49 97.9616 102.49H15.1484C8.27959 102.49 2.69249 96.8968 2.69249 90.0204V25.0232C2.69249 24.312 2.11701 23.7358 1.40655 23.7358C0.696082 23.7358 0.120605 24.312 0.120605 25.0232V90.0204C0.120605 98.3164 6.8615 105.065 15.1484 105.065Z" fill="#002345"></path><path d="M68.3992 66.5776L84.9303 84.5808C87.1612 86.9906 90.6553 83.4286 88.2724 81.2351L70.2393 64.6401C81.5386 52.3226 81.3226 33.1487 69.3996 21.2124C57.1767 8.97887 37.2752 8.99452 25.0324 21.2523C12.7229 33.5811 12.7101 53.3753 24.9927 65.6672C36.8802 77.5679 55.8851 78.1042 68.3992 66.579V66.5776ZM26.8512 23.0716C38.088 11.8225 56.3583 11.7954 67.5822 23.0318C78.8232 34.2853 78.8232 52.5958 67.5822 63.8478C56.2759 75.1667 38.1292 75.1766 26.8115 63.845C15.552 52.573 15.5278 34.4076 26.8512 23.0716Z" fill="#002345"></path><path d="M32.6628 28.8898C40.6996 20.8441 53.7551 20.8299 61.772 28.85C62.2736 29.3521 63.0878 29.3521 63.5908 28.85C64.0924 28.3478 64.0924 27.5327 63.5908 27.0291C54.575 18.0033 39.8868 18.0233 30.8454 27.069C30.3438 27.5711 30.3438 28.3862 30.8454 28.8898C31.347 29.3919 32.1612 29.3919 32.6642 28.8898H32.6628Z" fill="#002345"></path><path d="M563.639 437.013C554.973 391.967 517.233 350.157 516.85 349.74C516.373 349.216 515.562 349.18 515.035 349.658C514.51 350.136 514.472 350.95 514.952 351.476C515.326 351.888 552.584 393.16 561.112 437.501C561.434 439.179 563.96 438.698 563.639 437.013Z" fill="#002345"></path><path d="M234.763 222.754C234.907 222.807 235.055 222.833 235.201 222.833C235.725 222.833 236.221 222.508 236.409 221.983L283.321 92.2608C285.238 86.9179 290.335 83.3303 296.006 83.3303H428.074C428.784 83.3303 429.36 82.7542 429.36 82.043C429.36 81.3317 428.784 80.7556 428.074 80.7556H296.006C289.253 80.7556 283.183 85.0302 280.902 91.3874L233.993 221.109C233.75 221.777 234.096 222.514 234.765 222.756L234.763 222.754Z" fill="#002345"></path><path d="M609.714 0H443.692C442.982 0 442.406 0.576115 442.406 1.28737V150.343H409.668C408.958 150.343 408.382 150.919 408.382 151.631C408.382 170.778 423.943 186.355 443.066 186.355H576.247C576.281 186.355 576.315 186.361 576.349 186.361C595.455 186.361 610.998 170.779 610.998 151.626V1.28737C610.998 0.576115 610.423 0 609.712 0H609.714ZM443.067 183.781C425.789 183.781 411.656 170.051 410.98 152.918H541.671C541.99 161.721 545.563 169.938 551.812 176.179C555.115 179.492 558.972 182.057 563.176 183.782H443.067V183.781ZM608.428 151.625C608.428 169.359 594.038 183.785 576.35 183.785H576.345C576.345 183.785 576.338 183.779 576.333 183.779C568.336 183.779 560.001 180.71 553.645 174.344C547.571 168.315 544.226 160.247 544.226 151.624C544.226 150.912 543.651 150.336 542.94 150.336H444.978V2.57474H608.428V151.626V151.625Z" fill="#002345"></path><path d="M342.481 110.072H342.563C350.926 110.072 354.469 117.31 358.216 124.97C361.529 131.741 365.253 139.16 372.822 141.477C373.106 144.195 375.3 146.316 378.094 146.316C381.028 146.316 383.243 144 383.326 141.084C389.035 138.363 391.982 131.081 394.801 123.92C397.606 116.798 400.328 110.068 405.401 107.523C406.268 109.324 408.068 110.583 410.212 110.583C413.202 110.583 415.474 108.189 415.474 105.194C415.474 102.2 413.202 99.9254 410.212 99.9254C407.223 99.9254 405.039 102.177 404.887 104.921C398.537 107.65 395.402 115.374 392.411 122.974C389.771 129.677 387.213 136.013 382.703 138.511C381.838 136.848 380.167 135.66 378.095 135.66C375.857 135.66 373.956 137.003 373.14 138.882C366.955 136.753 363.775 130.477 360.528 123.839C356.595 115.803 352.533 107.497 342.569 107.497H342.467C337.185 107.526 334.321 111.685 331.494 116.966C330.961 116.786 330.414 116.627 329.811 116.627C326.821 116.627 324.428 119.021 324.428 121.895C324.428 123.627 325.282 125.09 326.537 126.073C323.776 130.561 320.253 134.774 314.744 137.286C309.885 139.497 306.125 139.589 303.552 137.562C296.863 132.29 298.529 114.751 299.576 107.331C302.291 107.059 304.32 104.856 304.32 102.048C304.32 99.2398 302.048 96.7803 299.059 96.7803C296.069 96.7803 293.676 99.1744 293.676 102.048C293.676 104.312 295.049 106.224 297.01 107.025C295.891 114.896 294.196 133.465 301.962 139.583C305.355 142.258 310.016 142.279 315.809 139.629C322.025 136.793 325.944 131.982 328.912 127.102C329.215 127.155 329.491 127.282 329.809 127.282C332.799 127.282 335.071 124.888 335.071 121.895C335.071 120.529 334.531 119.293 333.67 118.348C336.203 113.586 338.548 110.094 342.481 110.072Z" fill="#002345"></path></g><defs><clipPath id="clip0_1660_729"><rect width="611" height="450" fill="white"></rect></clipPath></defs></svg>