<svg xmlns="http://www.w3.org/2000/svg" width="473" height="468" viewBox="0 0 473 468" fill="none"><g clip-path="url(#clip0_1660_580)"><path d="M436.685 331.71V409.528H325.847V406.71L337.64 406.784L338.285 331.71H436.685Z" fill="#1DBFCC"></path><path d="M25.542 151.39V210.521H339.409L339.74 159.269L25.542 151.39ZM56.1492 192.166C52.9611 193.749 48.6862 193.105 46.1251 190.657C42.5218 187.216 42.5497 180.969 45.5539 177.586C48.9245 173.745 56.1325 173.639 59.2272 178.929C61.7701 183.274 61.0692 189.718 56.1506 192.166H56.1492ZM82.1303 192.166C78.9423 193.749 74.6492 193.105 72.0882 190.657C68.5086 187.206 68.496 180.988 71.5169 177.586C74.8861 173.745 82.0955 173.639 85.1902 178.929C87.7332 183.274 87.0323 189.718 82.1317 192.166H82.1303ZM108.095 192.166C104.907 193.749 100.632 193.105 98.0526 190.657C94.5022 187.236 94.4353 181.065 97.4813 177.586C100.817 173.786 108.042 173.609 111.155 178.929C113.698 183.274 112.997 189.718 108.096 192.166H108.095ZM317.277 184.784L162.528 184.361C161.772 184.361 161.163 183.736 161.163 182.98C161.163 182.224 161.772 181.617 162.528 181.617L317.295 182.041C318.051 182.041 318.66 182.667 318.66 183.421C318.66 184.176 318.033 184.784 317.277 184.784Z" fill="#1DBFCC"></path><path d="M456.788 127.942C450.056 125.442 441.492 125.658 434.729 128.234C444.672 109.118 434.091 86.2928 413.927 80.6299C406.362 78.5334 397.415 79.4675 388.371 83.2442C393.777 72.0881 393.698 57.7485 387.862 46.946C381.365 34.959 368.057 27.4947 354.746 28.3564C342.282 29.1694 329.913 36.8939 322.65 48.2434C299.962 12.7179 255.688 14.4079 237.095 45.0097C231.013 55.0089 228.688 69.1258 231 81.053C217.808 74.8208 201.523 75.4695 187.767 82.9379C172.485 91.243 162.98 109.568 165.659 125.566C167.294 135.358 174.44 144.847 186.916 153.848L25.5755 149.803C24.7464 149.816 24.1724 150.432 24.1724 151.171C24.1724 152.332 24.1765 300.799 24.1765 301.961C24.1765 302.717 24.7896 303.33 25.5462 303.33C26.3029 303.33 26.9159 302.717 26.9159 301.961V152.793L338.364 160.603L336.286 405.407L312.377 405.26C313.039 394.979 312.587 384.206 310.995 372.748C310.067 366.079 308.404 358.586 303.108 353.6C298.639 349.396 291.468 347.265 286.659 350.739C284.701 340.714 272.717 337.097 266.165 341.982C265.021 332.688 254.583 327.701 247.293 334.373C247.761 287.618 248.339 283.858 245.958 277.546C243.83 271.904 239.229 267.937 234.236 267.438C228.224 266.834 222.985 271.165 220.465 275.718C219.156 278.08 218.345 280.583 217.784 283.233C214.5 288.714 208.335 301.743 191.245 310.425C190.571 310.768 190.302 311.592 190.645 312.265C190.988 312.939 191.812 313.206 192.487 312.865C202.365 307.846 210.768 300.188 216.742 290.423C216.232 295.376 215.761 300.53 215.352 305.433C209.676 311.036 203.599 316.266 197.276 320.969C196.67 321.42 196.543 322.277 196.996 322.883C197.45 323.492 198.308 323.612 198.912 323.163C204.512 318.999 209.906 314.413 215.022 309.54C214.603 314.93 214.254 320.189 213.973 325.329C211.397 327.045 208.83 328.404 206.148 329.442C204.743 329.985 205.13 332.087 206.642 332.087C207.717 332.087 212.423 329.531 213.793 328.7C213.411 336.469 213.184 343.98 213.122 351.26C211.239 346.715 208.664 343.083 205.417 340.406C199.415 335.46 189.357 333.812 182.91 339.624C177.883 344.158 176.842 351.595 178.425 358.154C180.415 368.746 186.512 371.311 201.983 404.559L122.863 404.058H122.855C122.103 404.058 121.489 404.665 121.485 405.417C121.481 406.173 122.09 406.79 122.845 406.794L203.215 407.303C210.322 422.917 216.358 439.152 221.128 455.498L217.323 455.605C216.534 455.627 215.925 456.309 215.998 457.099C216.275 460.095 215.802 463.544 216.101 466.762C216.166 467.468 216.76 468.004 217.463 468.004C217.48 468.004 217.495 468.004 217.512 468.004L307.882 464.854C308.829 464.822 309.454 463.861 309.108 462.983C308.085 460.401 308.354 457.008 307.157 453.989C306.945 453.454 306.447 453.13 305.846 453.124L299.374 453.305C306.576 438.994 310.829 424.112 312.196 407.998L337.629 408.155H337.638C338.389 408.155 339 407.55 339.007 406.799C339.155 389.343 340.587 220.938 340.794 196.561C368.259 198.105 399.185 197.083 426.019 190.084C428.586 201.13 426.99 213.256 421.489 223.145C413.024 214.146 399.617 216.61 398.01 227.003C396.756 235.121 404.777 239.623 412.134 236.65C416.233 234.995 419.28 231.559 421.758 227.92C431.411 242.69 431.637 271.918 414.394 291.893C401.562 306.757 380.919 314.249 361.518 311.189L363.842 308.628C364.349 308.068 364.307 307.204 363.747 306.696C363.187 306.189 362.32 306.231 361.813 306.79L356.577 312.562C356.142 313.041 356.103 313.758 356.482 314.283C358.098 316.515 361.671 317.202 362.152 319.049C362.344 319.791 363.103 320.22 363.821 320.029C364.554 319.84 364.993 319.091 364.802 318.361C364.116 315.728 361.403 314.731 359.795 313.653C359.871 313.681 359.936 313.726 360.017 313.741C380.533 317.38 402.726 309.602 416.469 293.683C435.069 272.136 434.133 240.294 423.349 225.407C429.614 214.735 431.485 201.429 428.655 189.353C441.617 185.734 452.53 180.923 460.826 174.967C479.334 161.719 475.731 134.979 456.784 127.948L456.788 127.942ZM223.973 455.414C214.091 421.278 203.677 400.383 188.202 372.52C192.527 373.561 196.454 370.863 198.85 367.181C204.672 358.24 201.484 339.272 188.216 339.547C193.301 337.6 199.666 339.209 203.676 342.514C208.458 346.457 211.647 352.823 213.158 361.435C213.446 363.081 215.894 362.856 215.876 361.183C215.628 340.117 216.778 317.287 219.392 291.387C219.949 285.858 220.654 279.816 223.959 275.369C221.965 279.255 221.17 284.004 221.802 287.693C222.718 293.023 226.715 298.739 232.587 299.35C237.465 299.862 242.916 296.599 244.983 290.403C244.863 355.685 243.75 343.783 243.199 363.651C243.159 364.43 243.78 365.089 244.568 365.089C245.292 365.089 245.897 364.522 245.934 363.791L247.219 338.809C249.531 334.878 253.868 333.082 257.642 334.564C261.542 336.092 264.029 340.658 263.363 344.779C263.238 345.321 262.244 368.473 262.148 370.702C262.113 371.477 262.732 372.131 263.518 372.131C264.245 372.131 264.853 371.559 264.886 370.824L265.996 346.143C268.16 342.846 272.214 341.747 276.95 343.242C281.318 344.621 284.47 349.275 284.126 353.84C284.112 354.025 284.223 350.987 283.309 375.812C283.276 376.584 283.892 377.239 284.679 377.239C285.409 377.239 286.015 376.664 286.047 375.929L286.98 354.27C290.364 349.846 297.217 351.815 301.23 355.593C305.909 359.998 307.421 366.929 308.282 373.127C312.53 403.691 308.708 429.356 296.275 453.39L223.977 455.416L223.973 455.414ZM411.11 234.111C405.73 236.286 399.788 233.438 400.721 227.419C401.987 219.225 413.019 217.521 420.018 225.595C417.795 229.025 414.89 232.584 411.11 234.111ZM459.233 172.739C451.179 178.52 440.594 183.211 427.965 186.739C422.188 167.23 403.537 153.985 384.875 152.911C384.114 152.898 383.472 153.446 383.429 154.199C383.385 154.954 383.962 155.601 384.717 155.644C402.195 156.649 419.831 169.029 425.326 187.457C402.567 193.39 373.53 195.666 340.82 193.837L341.116 159.063C341.122 158.315 340.527 157.702 339.781 157.683L191.899 153.975C177.938 144.726 170.014 135.019 168.358 125.116C165.863 110.215 174.77 93.1167 189.073 85.3434C202.95 77.8109 219.52 77.6077 232.321 84.8172C233.376 85.4116 234.63 84.4399 234.316 83.2706C231.202 71.6538 233.306 56.504 239.434 46.4296C257.451 16.7772 300.435 16.0658 321.481 51.5719C322.041 52.5171 323.353 52.4266 323.851 51.5496C330.455 39.9203 342.651 31.8881 354.923 31.0876C367.198 30.2872 379.453 37.1835 385.452 48.2476C391.513 59.4663 390.899 74.7915 383.958 85.5146C383.203 86.6798 384.479 88.1066 385.728 87.4774C395.455 82.5467 405.213 81.0544 413.189 83.2664C434.658 89.2955 442.209 114.894 429.835 130.835C428.891 132.051 430.383 133.659 431.668 132.818C438.051 128.651 448.214 127.676 455.833 130.508C472.5 136.691 476.071 160.685 459.233 172.739Z" fill="#002345"></path><path d="M252.238 294.504C251.491 294.411 250.807 294.956 250.722 295.708C250.162 300.604 249.825 305.828 251.132 310.875C253.003 318.09 258.411 324.431 265.244 327.419C265.949 327.727 266.749 327.397 267.049 326.715C267.352 326.023 267.037 325.216 266.343 324.912C260.261 322.251 255.449 316.609 253.783 310.187C252.587 305.575 252.913 300.651 253.442 296.019C253.528 295.268 252.989 294.589 252.237 294.504H252.238Z" fill="#002345"></path><path d="M188.301 297.121C188.483 297.831 189.204 298.299 189.966 298.112C198.859 295.861 206.707 290.088 211.5 282.275C214.56 277.286 216.373 271.503 220.167 267.377C224.163 263.031 230.511 260.816 236.348 261.747C242.182 262.675 247.534 266.744 249.984 272.114C251.634 275.731 252.216 280.114 251.819 285.911C251.767 286.665 252.337 287.318 253.093 287.37C253.844 287.409 254.501 286.852 254.553 286.097C254.823 282.154 254.903 276.295 252.477 270.978C246.317 257.471 228.232 254.557 218.149 265.524C214.004 270.033 212.195 275.901 209.165 280.844C204.743 288.053 197.501 293.381 189.295 295.458C188.562 295.644 188.117 296.388 188.303 297.121H188.301Z" fill="#002345"></path><path d="M273.444 318.84C273.749 318.148 273.434 317.341 272.742 317.037C267.745 314.843 265.18 309.331 264.446 304.906C262.672 294.231 268.172 283.032 266.236 271.763C264.455 261.397 255.795 252.246 245.176 249.512C236.858 247.371 227.641 248.928 219.885 253.785C219.244 254.187 219.05 255.032 219.452 255.671C219.854 256.313 220.7 256.502 221.34 256.104C228.459 251.642 236.897 250.206 244.492 252.162C254.101 254.635 261.932 262.886 263.537 272.224C265.325 282.641 259.899 294.253 261.742 305.352C262.831 311.902 266.622 317.339 271.638 319.542C272.338 319.849 273.142 319.526 273.443 318.84H273.444Z" fill="#002345"></path><path d="M208.155 265.246C204.505 269.977 201.143 274.854 196.77 278.356C196.179 278.829 196.086 279.69 196.558 280.28C197.032 280.869 197.893 280.965 198.484 280.492C203.124 276.775 206.677 271.645 210.325 266.917C210.788 266.319 210.676 265.46 210.077 264.998C209.478 264.536 208.618 264.648 208.155 265.246Z" fill="#002345"></path><path d="M275.18 299.889C275.195 299.889 275.212 299.889 275.228 299.889C275.962 299.889 276.569 299.307 276.596 298.568C276.94 288.586 277.332 277.273 272.549 267.438C272.221 266.759 271.4 266.473 270.72 266.805C270.04 267.135 269.756 267.953 270.086 268.633C274.57 277.856 274.192 288.809 273.859 298.473C273.833 299.227 274.425 299.861 275.182 299.887L275.18 299.889Z" fill="#002345"></path><path d="M193.399 268.56C193.982 268.56 194.522 268.186 194.706 267.602C198.381 255.93 209.161 246.433 222.173 243.41C233.983 240.666 247.547 243.046 259.383 249.94C266.066 253.831 270.103 258.284 271.385 263.173C271.578 263.905 272.327 264.334 273.057 264.15C273.788 263.958 274.226 263.21 274.035 262.48C272.562 256.861 268.098 251.847 260.763 247.576C248.325 240.333 234.035 237.843 221.55 240.744C207.615 243.983 196.051 254.204 192.092 266.781C191.814 267.666 192.48 268.562 193.399 268.562V268.56Z" fill="#002345"></path><path d="M197.111 247.48C207.516 237.282 220.332 228.909 234.904 229.532C246.171 230.008 256.563 236.083 265.733 241.444C266.387 241.823 267.225 241.608 267.607 240.954C267.989 240.301 267.769 239.463 267.117 239.082C257.672 233.562 246.967 227.304 235.02 226.798C219.613 226.131 206.127 234.811 195.193 245.526C194.654 246.055 194.645 246.922 195.173 247.461C195.701 247.999 196.569 248.009 197.11 247.48H197.111Z" fill="#002345"></path><path d="M314.443 82.7166C309.543 86.2163 306.881 92.7256 307.821 98.9133C308.54 103.652 310.745 106.578 313.676 109.269C313.425 109.652 310.953 114.762 300.812 135.394C300.257 136.519 300.932 137.865 302.169 138.094L328.979 143.067C330.145 143.284 331.211 142.397 331.225 141.224C331.315 132.832 331.458 120.841 331.563 112.423C331.734 112.341 331.992 112.252 332.151 112.196C336.001 110.871 340.125 107.566 341.772 103.49C343.098 100.269 343.064 96.3268 341.677 92.3942C336.813 78.507 320.797 78.1673 314.445 82.7152L314.443 82.7166ZM331.252 109.613C329.601 110.186 328.766 110.853 328.825 112.422C328.762 117.62 328.638 127.277 328.499 140.196L303.76 135.608L315.887 110.903C315.919 110.839 315.965 110.776 316.007 110.712C316.861 109.418 316.843 108.228 314.896 106.734C313.269 105.485 311.087 102.158 310.532 98.504C309.756 93.3896 312.02 87.8143 316.04 84.9439C320.779 81.5542 334.758 80.9167 339.095 93.3033C341.904 101.259 337.812 107.339 331.256 109.614L331.252 109.613Z" fill="#002345"></path><path d="M235.789 18.6481C235.976 19.2272 236.514 19.5961 237.092 19.5961C238.016 19.5961 238.682 18.6941 238.395 17.8059L232.944 0.948004C232.711 0.228306 231.942 -0.169825 231.22 0.0668261C230.5 0.299301 230.106 1.07051 230.338 1.78881L235.789 18.6467V18.6481Z" fill="#002345"></path><path d="M208.972 40.8001C208.227 40.9295 207.728 41.6381 207.857 42.3828C207.987 43.1262 208.693 43.6246 209.442 43.4965L223.052 41.13C223.798 41.0005 224.297 40.292 224.167 39.5472C224.037 38.8024 223.325 38.3041 222.583 38.4335L208.972 40.8001Z" fill="#002345"></path><path d="M194.227 10.5101C206.349 15.3406 216.834 20.604 228.067 28.8589C228.679 29.3086 229.536 29.1735 229.982 28.568C230.431 27.9597 230.3 27.1021 229.691 26.6553C218.367 18.3335 207.738 12.9504 195.243 7.9696C194.542 7.68979 193.744 8.03085 193.464 8.73384C193.184 9.43544 193.527 10.2317 194.229 10.5115L194.227 10.5101Z" fill="#002345"></path><path d="M92.3955 349.067C83.181 356.501 75.0227 365.156 68.145 374.79C67.1152 376.235 66.785 376.533 65.5198 374.765L55.7229 361.057C55.2826 360.442 54.4257 360.3 53.8112 360.739C53.1953 361.178 53.0532 362.032 53.4921 362.648L63.289 376.356C65.5128 379.465 68.0711 379.605 70.373 376.38C77.1072 366.947 85.0942 358.475 94.115 351.196C94.703 350.721 94.7949 349.86 94.3198 349.272C93.8446 348.683 92.9821 348.591 92.3941 349.067H92.3955Z" fill="#002345"></path><path d="M140.859 300.562C140.803 299.696 140.012 299.071 139.163 299.219C129.453 300.985 116.479 302.625 106.99 301.961C97.2055 301.281 87.2177 297.838 80.5099 290.694C80.2341 290.4 79.8648 290.233 79.4774 290.233H62.9114C62.5241 290.233 62.1562 290.399 61.8803 290.694C55.1726 297.837 45.1847 301.279 35.3822 301.961C25.9114 302.624 12.9389 300.985 3.22699 299.219C2.3603 299.071 1.58697 299.698 1.53123 300.544C0.259069 320.555 -1.21514 340.732 1.64131 360.559C8.31147 406.841 40.7802 430.331 70.3368 452.256C70.8524 452.643 71.5337 452.643 72.0507 452.256C101.625 430.293 135.255 404.796 140.746 360.559C143.215 340.677 142.11 320.555 140.856 300.562H140.859ZM95.7494 387.86C85.0064 397.194 67.0958 399.643 53.7541 393.604C33.2267 384.288 30.2964 359.823 40.9112 343.346C54.0216 323.11 84.1481 323.808 98.1461 338.209C103.582 343.825 106.476 351.114 107.175 358.46C108.17 369.045 104.485 380.275 95.7508 387.86H95.7494Z" fill="#FFC567"></path></g><defs><clipPath id="clip0_1660_580"><rect width="473" height="468" fill="white"></rect></clipPath></defs></svg>