<svg xmlns="http://www.w3.org/2000/svg" width="495" height="467" viewBox="0 0 495 467" fill="none"><g clip-path="url(#clip0_1659_242)"><path d="M406.96 322.567C400.888 319.967 400.301 307.714 405.644 295.193C410.995 282.672 420.253 274.63 426.334 277.222C432.407 279.821 432.993 292.074 427.642 304.595C422.291 317.116 413.033 325.158 406.96 322.567Z" fill="#FFC567"></path><path d="M383.133 369.212C379.703 372.952 370.67 370.218 362.988 363.131C355.306 356.045 351.85 347.281 355.289 343.541C358.727 339.817 367.752 342.535 375.434 349.63C383.133 356.716 386.572 365.488 383.133 369.212Z" fill="#FFC567"></path><path d="M438.863 372.751C428.631 381.725 416.807 384.978 412.453 380.006C408.101 375.04 412.864 363.736 423.096 354.763C433.328 345.781 445.153 342.535 449.506 347.5C453.859 352.465 449.096 363.77 438.863 372.751Z" fill="#1DBFCC"></path><path d="M480.138 149.692C480.113 149.692 480.087 149.689 480.061 149.682C479.905 149.639 479.812 149.478 479.855 149.321C481.758 142.315 483.255 134.895 484.303 127.268C484.325 127.109 484.469 126.995 484.633 127.017C484.794 127.04 484.906 127.187 484.885 127.348C483.833 135 482.332 142.444 480.422 149.474C480.386 149.605 480.268 149.691 480.138 149.691V149.692Z" fill="#1DBFCC"></path><path d="M485.757 116.939C485.75 116.939 485.742 116.939 485.734 116.938C485.572 116.925 485.451 116.783 485.464 116.621C486.814 99.9983 486.053 83.5587 483.26 69.0785C483.23 68.9189 483.334 68.7654 483.492 68.7344C483.654 68.7035 483.805 68.8082 483.836 68.9666C486.638 83.498 487.404 99.9924 486.049 116.668C486.037 116.821 485.909 116.938 485.756 116.938L485.757 116.939Z" fill="#1DBFCC"></path><path d="M281.578 143.442C281.561 143.166 281.544 142.889 281.528 142.603L280.949 142.637C280.957 142.922 280.974 143.198 280.999 143.476C281.032 144.272 281.084 145.061 281.134 145.85L90.216 157.792C87.0374 106.785 87.0374 55.0744 90.216 4.06864L93.135 4.25316L93.9731 4.30316C93.9814 4.10198 93.9898 3.90913 94.0064 3.71628L93.1672 3.66628L89.9636 3.4651C89.7958 3.44844 89.6612 3.57462 89.6529 3.73295C86.4494 54.9577 86.4494 106.894 89.6529 158.119C89.6612 158.279 89.7874 158.395 89.9469 158.395H89.9636L281.468 146.42C281.543 146.411 281.619 146.378 281.669 146.319C281.719 146.26 281.744 146.184 281.736 146.101C281.678 145.211 281.627 144.332 281.577 143.442H281.578Z" fill="#1DBFCC"></path><path d="M430.998 13.0731C430.986 13.0731 430.973 13.0731 430.96 13.0708C418.976 11.5304 405.373 10.9173 390.531 11.2542C390.377 11.2685 390.235 11.1292 390.231 10.9673C390.227 10.8054 390.356 10.6709 390.517 10.6673C405.391 10.3316 419.021 10.9447 431.035 12.4886C431.196 12.5101 431.309 12.6565 431.289 12.8172C431.27 12.966 431.143 13.0731 430.998 13.0731Z" fill="#1DBFCC"></path><path d="M345.368 14.6778C345.222 14.6778 345.094 14.5683 345.076 14.4195C345.056 14.2587 345.172 14.1123 345.332 14.0921C357.886 12.5565 370.011 11.5101 381.368 10.9839C381.569 10.972 381.668 11.1018 381.675 11.2637C381.682 11.4256 381.557 11.5625 381.395 11.5708C370.052 12.097 357.943 13.1421 345.404 14.6754C345.392 14.6766 345.379 14.6778 345.368 14.6778Z" fill="#1DBFCC"></path><path d="M164.686 239.867L153.699 226.315C153.875 225.409 154.42 224.059 155.175 222.558C157.473 217.978 161.767 211.94 163.914 212.544C165.341 212.946 164.091 216.243 163.797 219.865C170.087 216.863 174.615 211.982 175.379 213.222C176.394 214.883 173.508 218.279 170.614 220.879C175.101 218.414 178.431 215.344 179.211 216.442C180.04 217.625 176.318 221.383 173.567 223.647C177.751 221.785 181.098 219.311 181.651 220.007C182.85 221.491 179.11 224.846 176.602 226.657C179.395 225.584 181.919 224.443 182.18 225.383C182.968 228.242 164.685 239.866 164.685 239.866L164.686 239.867Z" fill="white"></path><path d="M166.908 240.101C166.908 240.101 134.623 272.872 119.317 273.778C106.092 274.56 72.2424 253.407 72.2424 253.407L87.053 229.248L119.591 245.24L152.149 224.233C153.817 222.622 168.575 238.49 166.907 240.101H166.908Z" fill="#1DBFCC"></path><path d="M280.498 101.371C276.253 98.1258 273.13 94.4224 272.309 95.0593C270.55 96.4259 273.896 101.238 276.243 103.965C273.367 101.995 270.814 100.022 270.266 101.017C268.602 104.047 286.217 122.147 286.217 122.147L302.323 109.736C302.479 105.35 297.871 91.2238 294.438 91.3678C292.707 91.4381 293.237 95.5176 292.603 99.6996C286.273 94.6093 282.447 87.8549 281.255 89.0513C279.648 90.6643 282.012 95.2974 284.59 99.0222C280.169 95.0141 277.217 90.6357 276.036 91.6785C274.772 92.7951 277.99 98.0592 280.497 101.369L280.498 101.371Z" fill="white"></path><path d="M292.604 99.7007C292.604 99.7007 288.813 104.045 293.552 106.829Z" fill="white"></path><path d="M316.637 250.386L316.573 250.482C316.554 250.52 316.527 250.558 316.502 250.597L292.814 284.859L281.817 300.765C281.242 301.601 280.292 302.1 279.277 302.1H194.969C192.48 302.1 191.012 299.298 192.428 297.249L193.29 295.998L227.108 247.08C227.683 246.244 228.633 245.746 229.654 245.746H313.956C316.369 245.746 317.818 248.356 316.637 250.386Z" fill="white"></path><path d="M316.637 250.386L316.573 250.482L292.815 284.86L281.817 300.767C281.242 301.602 280.292 302.101 279.277 302.101H159.115C159.115 298.731 161.848 295.999 165.218 295.999H276.502C277.368 295.999 278.181 295.576 278.679 294.867L313.1 245.748H313.956C316.369 245.748 317.818 248.359 316.637 250.388V250.386Z" fill="#FFC567"></path><path d="M321.085 302.099H31.95V314.569H321.085V302.099Z" fill="white"></path><path d="M176.452 281.515C184.384 282.625 182.025 285.478 175.12 285.789C182.038 287.04 179.827 289.697 173.599 289.474C181.16 291.22 172.95 292.572 172.085 292.618C170.455 292.706 168.467 293.133 165.194 292.631L161.4 279.033C161.4 279.033 169.082 275.247 175.236 274.787C179.401 274.476 189.95 276.891 190.187 279.223C190.498 282.258 181.518 281.123 176.452 281.515Z" fill="white"></path><path d="M189.648 463.539C189.651 463.693 189.64 463.849 189.63 463.998C189.527 465.317 188.426 466.32 187.107 466.331H185.252H184.529L159.98 466.382L156.181 466.345C155.407 466.336 154.8 465.702 154.825 464.933L155.236 451.373C155.444 450.795 155.979 450.374 156.603 450.353C157.575 450.313 159.082 450.533 160.362 451.891C162.469 454.152 164.695 452.231 164.695 452.231C164.695 452.231 171.876 445.332 173.969 449.872C175.627 453.435 181.355 456.075 185.496 457.57C187.24 458.2 188.569 459.553 189.215 461.207C189.234 461.248 189.255 461.301 189.265 461.342C189.527 462.036 189.661 462.773 189.65 463.539H189.648Z" fill="white"></path><path d="M113.553 464.633C113.494 464.776 113.423 464.914 113.353 465.047C112.731 466.214 111.321 466.694 110.106 466.175L108.405 465.433L107.742 465.143L85.2232 455.37L81.7566 453.816C81.0506 453.497 80.7482 452.675 81.0792 451.979L86.8803 439.716C87.303 439.268 87.9613 439.098 88.541 439.326C89.4482 439.678 90.7422 440.483 91.372 442.239C92.3982 445.153 95.2065 444.286 95.2065 444.286C95.2065 444.286 104.548 440.836 104.649 445.833C104.743 449.762 108.936 454.473 112.134 457.499C113.48 458.774 114.158 460.544 114.087 462.319C114.087 462.363 114.085 462.42 114.08 462.463C114.043 463.204 113.871 463.932 113.554 464.631L113.553 464.633Z" fill="white"></path><path d="M140.73 346.195C140.73 363.027 121.473 416.655 115.695 432.367C114.674 435.14 114.078 436.734 114.078 436.734C112.559 442.642 86.3972 434.785 87.9233 428.877L94.1102 394.429L101.717 352.064L52.876 332.982L66.1794 293.322L96.4435 305.152C96.4435 305.152 140.729 322.898 140.729 346.195H140.73Z" fill="white"></path><path d="M176.267 436.471C176.063 438.903 175.926 440.263 175.926 440.263C175.926 445.793 150.105 447.175 150.105 441.645C150.105 441.645 148.08 420.643 146.335 396.379C145.542 385.342 144.809 373.421 144.348 362.074C143.978 352.858 88.353 372.695 80.4055 355.796C75.9638 346.331 80.209 317.322 80.209 317.322C80.209 317.322 116.743 316.62 128.891 317.322C143.924 318.191 165.583 321.182 171.544 331.132C182.786 349.882 177.717 419.556 176.265 436.471H176.267Z" fill="white"></path><path d="M121.75 317.77C120.792 325.357 112.645 329.376 101.352 331.105C78.5543 334.614 42.9295 328.739 27.6439 323.873C23.269 293.26 27.2201 254.389 38.1736 240.46C50.2045 225.167 80.1995 222.047 99.5553 236.933C105.998 241.901 110.593 251.49 113.866 262.375C116.028 269.564 117.605 277.32 118.766 284.68C120.089 293.131 120.843 301.067 121.267 307.052C121.716 313.359 121.793 317.489 121.75 317.768V317.77Z" fill="#1DBFCC"></path><path d="M168.327 296.005C168.327 296.005 123.665 307.034 110.149 299.795C98.4707 293.541 80.6982 257.802 80.6982 257.802L105.964 244.967L125.319 275.623L164.057 274.761C166.321 274.261 170.592 295.506 168.329 296.006L168.327 296.005Z" fill="#1DBFCC"></path><path d="M145.55 365.911C145.55 369.65 142.521 372.673 138.788 372.673H92.0328V372.68H17.3857C11.0096 372.68 5.8501 367.512 5.8501 361.145V273.363C5.8501 267.471 10.6251 262.697 16.5167 262.697H81.3662C87.259 262.697 92.034 267.472 92.034 273.363V359.158H138.79C142.522 359.158 145.551 362.179 145.551 365.911H145.55Z" fill="white"></path><path d="M96.7601 208.033C95.8125 209.425 93.5982 207.832 93.5982 207.832C93.5982 207.832 92.4911 214.441 85.8745 216.486C85.8411 216.588 85.8245 216.679 85.8161 216.772C85.8161 216.78 85.8078 216.78 85.8161 216.789C85.6816 217.452 85.5899 218.139 85.5304 218.852C85.228 222.08 85.5221 225.77 85.9828 229.579L62.533 227.767C65.871 222.428 68.5651 217.458 68.9829 213.795C68.9829 213.795 57.183 200.049 67.8091 193.818C78.4436 187.571 90.697 192.929 90.697 192.929C90.697 192.929 95.1089 192.577 94.8732 200.461C94.8732 200.461 98.0517 206.13 96.7601 208.034V208.033Z" fill="white"></path><path d="M85.8353 206.254C86.071 204.133 84.5376 202.217 82.4174 201.981C80.2972 201.745 78.3889 203.28 78.1532 205.4C77.9174 207.52 79.4436 209.428 81.565 209.663" fill="white"></path><path d="M280.204 263.773L267.743 282.388H259.611L272.072 263.773H280.204Z" fill="#1DBFCC"></path><path d="M263.524 269.925L255.183 282.388H247.05L255.392 269.925H263.524Z" fill="white"></path><path d="M254.12 265.211L242.621 282.388H234.489L245.986 265.211H254.12Z" fill="#1DBFCC"></path><path d="M234.573 275.645L230.06 282.388H221.928L226.441 275.645H234.573Z" fill="white"></path><path d="M477.354 180.178C473.253 188.438 468.372 195.047 462.786 199.123C460.63 200.699 458.115 202.092 455.272 203.316C454.501 203.652 453.712 203.971 452.898 204.272L436.535 152.955L439.446 207.979C427.302 210.386 412.625 211.292 397.118 211.249C384.202 211.207 370.724 210.519 357.665 209.47C361.083 195.216 362.07 178.646 361.767 160.845C361.767 160.845 344.481 181.116 326.022 177.031C311.202 173.744 283.785 125.27 283.785 125.27C283.735 125.203 283.702 125.135 283.677 125.06C283.61 124.834 283.643 124.548 283.768 124.196C283.818 124.053 283.895 123.894 283.978 123.726C284.07 123.558 284.179 123.373 284.297 123.181C284.415 122.996 284.548 122.803 284.699 122.602V122.594C284.842 122.393 285.01 122.183 285.186 121.965C285.63 121.42 286.151 120.825 286.737 120.195C286.972 119.952 287.216 119.692 287.476 119.449C287.602 119.322 287.727 119.189 287.861 119.063C288.255 118.669 288.666 118.275 289.103 117.863C289.816 117.193 290.579 116.505 291.375 115.825C291.686 115.548 292.004 115.28 292.331 115.004C292.659 114.726 292.986 114.458 293.312 114.191C293.48 114.056 293.64 113.923 293.808 113.788C293.813 113.794 293.816 113.794 293.816 113.788C294.461 113.276 295.108 112.766 295.744 112.262C295.75 112.268 295.753 112.268 295.753 112.262C296.08 112.019 296.398 111.775 296.717 111.532H296.725C297.362 111.054 298 110.601 298.621 110.157C298.78 110.056 298.94 109.948 299.099 109.838C299.561 109.511 300.014 109.218 300.449 108.933C303.678 106.861 306.269 105.712 306.933 106.534L330.532 137.723C330.532 137.723 354.07 113.345 366.801 105.529C384.95 94.3833 422.146 93.9309 440.077 105.42C455.777 115.483 469.091 152.701 477.352 180.174L477.354 180.178Z" fill="#1DBFCC"></path><path d="M401.726 219.914C401.565 219.914 401.434 219.784 401.433 219.623C401.432 219.461 401.56 219.328 401.723 219.327C416.586 219.178 429.259 218.085 439.389 216.078L439.831 215.993C439.996 215.965 440.143 216.071 440.172 216.231C440.2 216.39 440.094 216.543 439.934 216.571L439.497 216.656C429.337 218.669 416.629 219.766 401.73 219.915H401.727L401.726 219.914Z" fill="#1DBFCC"></path><path d="M445.68 215.235C445.55 215.235 445.431 215.149 445.396 215.016C445.355 214.859 445.448 214.699 445.605 214.658C448.202 213.975 450.621 213.209 452.793 212.384C453.585 212.09 454.356 211.78 455.154 211.433C458.01 210.204 460.519 208.804 462.612 207.273C462.742 207.176 462.925 207.205 463.023 207.336C463.118 207.467 463.09 207.65 462.96 207.745C460.831 209.304 458.284 210.725 455.388 211.971C454.581 212.321 453.8 212.637 453.002 212.933C450.811 213.765 448.373 214.535 445.756 215.225C445.731 215.232 445.706 215.234 445.681 215.234L445.68 215.235Z" fill="#1DBFCC"></path><path d="M210.151 221.383C210.047 221.383 209.947 221.328 209.894 221.23C209.816 221.089 209.868 220.91 210.009 220.831C213.962 218.652 217.131 215.257 220.195 211.974C222.864 209.115 225.625 206.158 228.919 203.963C232.377 201.66 236.259 200.241 241.023 198.818C241.185 198.774 241.343 198.861 241.389 199.016C241.435 199.171 241.347 199.335 241.192 199.381C236.478 200.788 232.642 202.19 229.245 204.453C226.006 206.61 223.27 209.54 220.623 212.375C217.527 215.691 214.325 219.121 210.291 221.346C210.246 221.371 210.198 221.383 210.15 221.383H210.151Z" fill="#1DBFCC"></path><path d="M247.815 197.668C247.679 197.668 247.559 197.575 247.528 197.437C247.492 197.279 247.594 197.122 247.752 197.087C260.657 194.251 274.203 193.914 288.021 196.087C288.18 196.112 288.29 196.262 288.265 196.423C288.24 196.584 288.093 196.692 287.929 196.667C274.185 194.504 260.709 194.839 247.878 197.66C247.857 197.665 247.835 197.667 247.815 197.667V197.668Z" fill="#1DBFCC"></path><path d="M412.482 101.378C412.733 108.465 389.736 108.465 389.494 101.386L390.341 90.475C381.896 90.9023 376.906 86.6847 374.884 78.4315C369.114 54.8744 389.57 46.9153 398.703 44.1726C416.223 38.9145 406.947 61.18 408.918 72.5521C409.296 74.7662 409.379 76.9459 409.186 79.0434L410.051 79.0684L412.483 101.377L412.482 101.378Z" fill="white"></path><path d="M408.784 81.9136C411.724 82.8492 414.812 81.2362 415.704 78.3221C416.604 75.3782 414.964 72.2593 412.023 71.3224C409.111 70.3951 406.023 72.0093 405.123 74.9532" fill="white"></path><path d="M155.175 222.558C157.473 217.978 161.767 211.94 163.914 212.544C165.34 212.946 164.09 216.243 163.796 219.865C163.796 219.865 166.102 224.234 161.59 225.627" fill="white"></path><path d="M285.288 12.3945C282.572 55.8161 282.572 99.365 285.288 142.785C221.454 146.778 157.619 150.771 93.7851 154.763C90.5697 103.365 90.5697 51.8151 93.7851 0.416504C157.619 4.40916 221.454 8.40181 285.288 12.3945Z" fill="white"></path><path d="M285.291 12.3993C285.018 16.761 284.773 21.1239 284.555 25.488C220.675 22.2965 156.793 19.1061 92.9126 15.9146C93.1709 10.7482 93.4614 5.58422 93.784 0.421387C157.62 4.41404 221.456 8.40669 285.292 12.3993H285.291Z" fill="#FFC567"></path><path d="M233.291 132.887C232.213 111.543 231.759 90.175 231.931 68.8118C244.414 68.9118 256.897 69.0118 269.379 69.1118C269.214 89.7464 269.652 110.383 270.693 130.998C258.226 131.628 245.759 132.257 233.291 132.888V132.887Z" fill="white"></path><path d="M106.839 139.277C105.635 115.468 105.129 91.6297 105.321 67.7976C143.869 68.1071 182.419 68.4154 220.968 68.7237C220.795 90.3012 221.253 111.883 222.343 133.441C183.842 135.386 145.341 137.331 106.839 139.277Z" fill="white"></path><path d="M261.075 46.1119C260.908 51.7378 256.352 56.228 250.831 56.128C245.31 56.028 240.934 51.2723 241.104 45.5226C241.273 39.761 245.923 35.2743 251.439 35.4993C256.957 35.7243 261.24 40.4776 261.073 46.1119H261.075Z" fill="white"></path><path d="M261.072 45.9796C261.167 40.4025 256.915 35.723 251.44 35.498C245.967 35.273 241.353 39.6942 241.116 45.3879C247.769 45.5844 254.42 45.7832 261.072 45.9796Z" fill="#1DBFCC"></path><path d="M223.013 37.7622C222.97 38.9526 222.473 40.0145 221.718 40.7716C220.954 41.5311 219.921 41.9763 218.798 41.9406C182.526 40.774 146.253 39.6085 109.98 38.4419C107.733 38.3729 105.98 36.1802 106.075 33.547C106.123 32.2315 106.627 31.0566 107.391 30.2209C108.162 29.3841 109.199 28.8996 110.323 28.9448C146.586 30.3935 182.849 31.8435 219.112 33.2922C221.358 33.3839 223.1 35.3838 223.014 37.7634L223.013 37.7622Z" fill="white"></path><path d="M165.113 53.4627C165.087 54.715 164.607 55.84 163.862 56.6495C163.11 57.4589 162.084 57.9482 160.96 57.928C143.815 57.6387 126.669 57.3506 109.524 57.0613C107.277 57.0244 105.491 54.8626 105.545 52.2271C105.572 50.9105 106.059 49.7284 106.809 48.882C107.567 48.0356 108.598 47.5333 109.722 47.5606C126.865 47.9832 144.006 48.4058 161.149 48.8284C163.397 48.8868 165.167 50.9593 165.114 53.4627H165.113Z" fill="#FFC567"></path><path d="M403.021 118.495C402.963 119.813 401.847 120.838 400.529 120.778C399.207 120.719 398.188 119.599 398.246 118.282C398.304 116.964 399.42 115.939 400.742 115.999C402.06 116.057 403.079 117.177 403.02 118.495H403.021Z" fill="white"></path><path d="M402.536 129.329C402.478 130.647 401.363 131.672 400.045 131.612C398.722 131.553 397.703 130.433 397.761 129.116C397.82 127.798 398.935 126.773 400.258 126.833C401.576 126.891 402.595 128.013 402.535 129.329H402.536Z" fill="white"></path><path d="M402.052 140.163C401.994 141.481 400.878 142.506 399.56 142.446C398.238 142.387 397.219 141.267 397.277 139.95C397.335 138.632 398.451 137.607 399.773 137.667C401.091 137.725 402.11 138.846 402.051 140.163H402.052Z" fill="white"></path><path d="M401.569 150.997C401.51 152.315 400.395 153.34 399.077 153.28C397.754 153.221 396.735 152.101 396.794 150.784C396.852 149.466 397.967 148.441 399.29 148.501C400.608 148.559 401.627 149.68 401.567 150.997H401.569Z" fill="white"></path><path d="M434.228 406.043L425.827 462.643C425.714 463.339 425.46 463.971 425.08 464.527C424.258 465.78 422.828 466.576 421.247 466.576H372.287C369.997 466.576 368.062 464.906 367.72 462.642L359.32 406.042C358.902 403.246 361.066 400.741 363.887 400.741H429.66C432.481 400.741 434.645 403.246 434.228 406.042V406.043Z" fill="white"></path><path d="M425.082 464.527C424.259 465.78 422.829 466.576 421.248 466.576H372.288C369.999 466.576 368.063 464.906 367.721 462.642L359.321 406.042C358.903 403.246 361.068 400.741 363.888 400.741H376.451C376.919 402.601 377.274 404.41 377.602 406.042C378.463 410.444 378.83 414.949 378.702 419.439C378.487 426.676 376.995 434.151 379.347 441.021C381.827 448.308 388.356 453.609 395.402 456.696C402.475 459.782 410.166 460.996 417.693 462.654C420.16 463.184 422.653 463.78 425.082 464.526V464.527Z" fill="#FFC567"></path><path d="M282.166 417.142L282.893 410.385H221.925L222.652 417.142H282.166Z" fill="#1DBFCC"></path><path d="M341.233 302.095H321.088V314.566H341.233V302.095Z" fill="white"></path><path d="M438.395 345.498C423.36 349.618 407.095 368.522 411.003 378.406C411.003 378.406 411.003 378.407 411.003 378.408C405.204 383.089 399.969 388.198 395.369 394.829C395.556 393.302 394.872 361.127 407.463 323.199C408.074 323.375 408.704 323.458 409.358 323.458C415.447 323.458 423.289 315.835 428.027 304.757C433.461 292.052 432.774 279.523 426.501 276.838C416.732 272.678 401.601 293.743 401.601 311.273C401.601 317.002 403.328 321.395 406.683 322.905C403.095 333.711 399.07 348.692 396.654 366.782C395.846 355.587 394.321 345.247 392.104 335.804C392.442 335.528 394.109 334.777 395.637 331.912C398.698 326.125 398.681 316.329 395.586 306.358C389.626 287.157 375.406 277.371 369.344 288.772C366.275 294.567 366.3 304.355 369.394 314.334C373.453 327.383 381.647 336.759 388.523 336.759C389.479 336.759 390.439 336.573 391.332 336.192C395.638 354.643 395.898 370.198 396.106 371.229C395.826 374.324 395.952 371.042 394.972 383.996C391.928 378.754 388.271 373.738 383.925 368.873C384.045 368.592 384.971 367.516 384.875 364.971C384.69 360.349 381.176 354.345 375.716 349.321C367.875 342.084 358.574 339.359 354.976 343.257C351.337 347.216 354.725 356.081 362.701 363.443C368.001 368.324 374.057 371.31 378.635 371.31C380.425 371.31 382.172 370.846 383.397 369.542C387.965 374.669 391.767 379.964 394.881 385.515C394.813 387.144 394.439 392.494 394.487 400.319H363.883C360.789 400.319 358.447 403.082 358.901 406.105L367.305 462.698C367.665 465.155 369.812 467 372.287 467H421.248C423.73 467 425.87 465.155 426.239 462.698L434.642 406.105C435.098 403.069 432.728 400.319 429.652 400.319H395.325C395.316 398.977 395.316 397.652 395.341 396.336C400.008 389.34 405.384 384.037 411.367 379.19C411.514 379.316 412.81 382.757 418.59 382.757C425.657 382.757 433.801 377.75 439.137 373.062C449.529 363.946 454.317 352.356 449.822 347.223C447.599 344.689 443.54 344.078 438.391 345.495L438.395 345.498ZM406.029 295.355C411.279 283.077 420.321 275.11 426.166 277.61C432.02 280.108 432.506 292.143 427.257 304.43C422.183 316.305 413.578 324.13 407.732 322.393C411.598 310.911 414.885 304.395 414.97 304.228C415.071 304.019 414.995 303.768 414.785 303.658C414.576 303.557 414.324 303.633 414.223 303.843C414.139 304.011 410.835 310.56 406.952 322.092C401.265 319.425 400.838 307.516 406.029 295.356V295.355ZM390.354 335.652C383.578 337.715 374.537 328.045 370.201 314.082C367.207 304.462 367.165 294.684 370.091 289.165C375.718 278.488 389.044 288.123 394.783 306.609C397.777 316.229 397.819 326.007 394.891 331.518C394.078 333.06 393.081 334.201 391.907 334.939C389.84 326.348 387.191 318.517 383.966 311.497C383.87 311.286 383.621 311.195 383.41 311.291C383.2 311.389 383.108 311.636 383.204 311.847C386.433 318.876 389.079 326.731 391.141 335.353C390.884 335.469 390.627 335.569 390.353 335.652H390.354ZM382.823 368.929C381.959 369.876 380.676 370.388 379.025 370.463C374.697 370.639 368.5 367.645 363.275 362.823C355.769 355.904 352.33 347.383 355.601 343.828C356.574 342.771 358.033 342.268 359.802 342.268C369.5 342.268 384.048 356.085 384.048 365.348C384.048 366.488 383.814 367.453 383.345 368.232C379.845 364.379 375.92 360.617 371.521 356.913C371.346 356.764 371.082 356.785 370.93 356.963C370.781 357.14 370.803 357.404 370.981 357.553C375.395 361.272 379.331 365.047 382.832 368.914C382.832 368.92 382.832 368.922 382.825 368.93L382.823 368.929ZM429.655 401.158C432.178 401.158 434.192 403.395 433.815 405.98L425.411 462.581C425.109 464.619 423.323 466.162 421.252 466.162H372.29C370.227 466.162 368.44 464.619 368.139 462.581L359.736 405.98C359.353 403.482 361.301 401.158 363.887 401.158H429.656H429.655ZM438.587 372.435C431.61 378.557 423.449 382.264 417.763 381.886C413.233 381.59 412.166 378.803 412.033 378.654C417.418 374.352 423.361 370.32 429.34 366.016C429.528 365.88 429.571 365.618 429.436 365.43C429.301 365.242 429.036 365.199 428.851 365.335C422.885 369.627 416.983 373.639 411.682 377.858C408.439 368.87 423.577 350.448 438.621 346.302C442.209 345.319 446.752 344.987 449.188 347.779C453.381 352.559 448.627 363.621 438.587 372.435Z" fill="#002345"></path><path d="M175.165 300.302H184.139C184.693 300.302 185.145 299.85 185.145 299.296C185.145 298.743 184.693 298.291 184.139 298.291H175.165C174.612 298.291 174.159 298.735 174.159 299.296C174.159 299.858 174.612 300.302 175.165 300.302Z" fill="#002345"></path><path d="M167.593 299.296C167.593 299.85 168.045 300.302 168.599 300.302H170.26C170.822 300.302 171.275 299.85 171.275 299.296C171.275 298.743 170.823 298.291 170.26 298.291H168.599C168.045 298.291 167.593 298.735 167.593 299.296Z" fill="#002345"></path><path d="M69.0638 215.575C73.9268 216.734 76.6054 216.039 80.4363 209.805C81.0184 210.052 81.4815 210.067 81.5684 210.081C82.0803 210.081 82.1375 209.32 81.6101 209.242C78.6161 208.952 77.422 205.048 79.8411 203.136C82.2315 201.218 85.7529 203.168 85.4184 206.205C85.3934 206.431 85.5613 206.641 85.7875 206.666C86.0053 206.691 86.2232 206.531 86.2494 206.296C86.4232 204.723 85.7315 203.299 84.6303 202.447C88.0779 197.34 91.2219 196.401 92.5553 196.249C92.9719 196.197 93.4315 196.064 93.8553 195.922C94.2993 197.087 94.51 198.614 94.4505 200.442C94.4505 200.517 94.4672 200.593 94.5088 200.66C95.6826 202.765 97.2433 206.564 96.4124 207.796C96.2695 208.006 96.0933 208.124 95.8505 208.165C95.1541 208.292 94.1648 207.721 93.8457 207.486C93.7195 207.402 93.5684 207.385 93.435 207.444C93.0005 207.607 93.3541 208.062 92.3612 210.178C91.9088 210.313 90.4743 210.581 88.9732 209.339C88.5517 208.977 88.0148 209.624 88.4362 209.984C89.5089 210.872 90.635 211.2 91.8743 211.116C90.8255 212.962 88.972 215.058 85.8196 216.065C85.4196 216.026 84.2303 216.415 81.7601 214.84C81.4542 214.642 81.0589 214.898 81.1149 215.251C81.4839 217.54 83.2875 218.513 85.0898 219.142C84.822 222.414 85.1482 226.119 85.5089 229.113L84.6875 229.047C85.2577 229.214 85.8279 229.391 86.3982 229.583V229.525C85.2303 219.822 86.2386 217.161 86.2386 216.803C90.235 215.467 92.8815 212.133 93.8707 208.483C95.0374 209.113 96.3517 209.343 97.1076 208.265C98.4409 206.294 95.816 201.305 95.2957 200.349C95.3374 198.496 95.1362 196.953 94.6922 195.728C94.7172 195.728 94.7505 195.72 94.7755 195.72C100.596 195.401 104.605 192.013 104.974 189.06C105.242 186.863 103.699 185.069 100.73 184.138C99.5814 183.769 72.4923 175.248 63.5936 188.718C58.3936 196.592 56.6662 203.62 58.7376 208.493C60.1805 211.906 63.3757 214.221 68.24 215.387C67.2757 219.052 64.5995 223.663 62.2352 227.438C62.596 227.388 62.9483 227.337 63.309 227.295C65.7328 223.396 68.1483 219.118 69.0626 215.571L69.0638 215.575Z" fill="#002345"></path><path d="M271.723 263.536L259.26 282.154C259.088 282.413 259.259 282.809 259.613 282.809H267.74C267.883 282.809 268.017 282.734 268.092 282.625L280.555 264.007C280.728 263.747 280.555 263.353 280.203 263.353H272.076C271.933 263.353 271.798 263.428 271.723 263.538V263.536ZM279.422 264.191L267.521 281.97H260.401L272.293 264.191H279.422Z" fill="#002345"></path><path d="M247.05 282.809H255.185C255.328 282.809 255.453 282.734 255.529 282.625L263.874 270.162C264.059 269.867 263.865 269.509 263.522 269.509H255.395C255.252 269.509 255.127 269.575 255.042 269.693L246.705 282.156C246.508 282.425 246.721 282.81 247.05 282.81V282.809ZM255.613 270.347H262.741L254.958 281.97H247.838L255.613 270.347Z" fill="#002345"></path><path d="M234.485 282.809H242.621C242.764 282.809 242.889 282.734 242.973 282.625L254.472 265.441C254.646 265.18 254.472 264.796 254.12 264.796H245.984C245.85 264.796 245.716 264.863 245.64 264.98L234.141 282.156C233.952 282.414 234.146 282.81 234.485 282.81V282.809ZM246.21 265.634H253.33L242.395 281.971H235.275L246.211 265.634H246.21Z" fill="#002345"></path><path d="M234.57 275.228H226.443C226.3 275.228 226.175 275.294 226.09 275.412L221.578 282.155C221.406 282.413 221.577 282.809 221.931 282.809H230.058C230.201 282.809 230.335 282.734 230.41 282.625L234.922 275.882C235.103 275.593 234.917 275.228 234.57 275.228ZM229.84 281.97H222.712L226.662 276.066H233.79L229.84 281.97Z" fill="#002345"></path><path d="M236.116 266.952C236.195 267.08 236.333 267.152 236.473 267.152C236.548 267.152 236.625 267.131 236.693 267.09C236.809 267.017 248.448 259.896 252.735 259.594C256.071 259.364 258.103 262.982 261.788 262.759C266.107 262.49 277.418 255.887 277.897 255.606C278.097 255.489 278.164 255.232 278.047 255.032C277.928 254.832 277.671 254.765 277.473 254.882C277.358 254.95 265.857 261.665 261.735 261.922C258.401 262.127 256.365 258.488 252.677 258.758C248.186 259.076 236.739 266.078 236.254 266.376C236.057 266.497 235.996 266.755 236.116 266.953V266.952Z" fill="#002345"></path><path d="M268.496 286.022H215.337L237.556 252.829C237.685 252.636 237.633 252.376 237.441 252.247C237.247 252.118 236.988 252.169 236.86 252.362L214.205 286.208C214.018 286.485 214.216 286.86 214.552 286.86H268.497C268.729 286.86 268.916 286.672 268.916 286.441C268.916 286.21 268.728 286.022 268.497 286.022H268.496Z" fill="#002345"></path><path d="M484.816 47.1251C489.863 35.2019 477.747 21.9848 458.556 22.0919C455.286 22.1169 452.098 22.5359 449.121 23.3502C422.006 15.5172 387.134 16.4898 358.803 19.467C326.766 22.8383 297.773 29.2451 284.655 32.3985C284.902 26.2595 285.432 16.6505 285.712 12.4221C285.712 12.1745 285.535 11.9948 285.318 11.9781L93.8053 0.000161145C93.5648 -0.0188855 93.3612 0.204913 93.3612 0.394189C90.1767 52.0796 90.1613 103.441 93.3696 154.789C93.3886 155.036 93.6041 155.183 93.7886 155.183C249.979 145.415 279.366 143.577 280.999 143.475L281.578 143.442L285.318 143.207C285.534 143.19 285.723 143.005 285.704 142.763C285.393 137.857 285.125 132.942 284.891 128.02C290.812 138.15 312.903 174.557 325.936 177.441C334.9 179.423 343.543 175.82 351.214 170.707C354.776 168.32 358.518 164.937 361.37 161.901C362.031 190.965 357.705 206.577 357.336 209.026C346.3 208.315 319.127 205.377 292.816 201.234C275.771 198.557 259.586 199.828 245.766 203.968C234.917 207.204 231.913 209.616 224.875 217.161C221.822 220.432 218.66 223.82 214.727 225.991C207.791 229.815 196.587 231.954 188.074 231.073C185.313 230.791 182.638 230.14 180.056 229.136C181.767 227.517 182.824 226.117 182.589 225.27C182.244 224.061 180.193 224.841 179.008 225.278C180.468 224.011 182.103 222.301 182.288 220.942C182.346 220.472 182.246 220.07 181.986 219.752C181.271 218.857 179.396 220.223 176.149 221.916C178.128 220.029 180.418 217.43 179.553 216.205C178.815 215.164 177.248 216.188 174.656 217.899C174.254 218.158 173.834 218.435 173.398 218.72C175.167 216.74 176.634 214.468 175.737 213C175.611 212.799 175.426 212.673 175.192 212.623C173.807 212.358 170.555 215.644 165.706 218.384C165.533 218.162 164.787 217.195 164.617 216.958C164.761 215.38 165.683 212.612 164.03 212.144C163.25 211.926 162.311 212.362 161.33 213.193C160.307 212.22 159.157 211.398 157.841 210.819C134.206 200.521 123.463 209.376 121.567 213.285C121.466 213.494 121.55 213.745 121.76 213.846C121.969 213.948 122.222 213.863 122.322 213.654C124.125 209.93 134.474 201.552 157.505 211.591C158.712 212.119 159.761 212.865 160.717 213.755C158.218 216.199 155.236 221.095 153.941 224.229C153.941 224.232 153.939 224.233 153.938 224.235C153.032 223.702 152.308 223.508 151.927 223.877L119.361 244.885C118.906 245.182 119.355 245.895 119.823 245.59L152.431 224.54C154.041 223.934 167.487 238.023 166.613 239.803C166.319 240.097 139.876 266.808 123.815 272.368C106.483 244.177 107.109 245.138 107.024 245.096C104.928 241.624 102.537 238.706 99.8112 236.608C96.4838 234.054 92.7648 232.015 88.8351 230.476V231.366C92.5779 232.863 96.1172 234.824 99.2993 237.27C101.891 239.264 104.158 242.056 106.165 245.35C106.219 245.332 106.279 245.32 106.336 245.303C106.273 245.558 105.1 243.522 124.963 275.84C125.038 275.966 125.173 276.041 125.316 276.041H125.332L164.13 275.168C164.373 275.21 164.758 275.813 165.22 276.929C166.212 279.329 167.05 282.873 167.551 285.433C167.964 287.539 168.549 291.136 168.549 293.283C168.582 294.649 168.448 295.421 168.246 295.58C168.138 295.689 146.655 300.757 129.91 301.678H120.165C116.165 301.4 112.742 300.705 110.343 299.422C104.942 296.528 98.141 287.102 92.4541 277.928V273.356C92.4541 268.022 88.6553 263.552 83.6149 262.513C83.5768 262.438 83.2554 261.886 81.4423 258.345C81.2161 257.901 81.0899 257.641 81.0732 257.616C80.8994 257.255 80.372 257.35 80.2935 257.691C80.2459 257.882 80.0697 257.624 82.5661 262.345C81.3601 262.217 84.3958 262.305 29.9141 262.278C32.0022 252.911 34.9129 245.279 38.5021 240.716C43.9616 233.773 52.8603 229.554 62.665 228.196L62.5055 228.187C62.3543 228.171 62.2293 228.086 62.1615 227.953C62.0388 227.723 62.1936 227.529 62.2365 227.441C52.3401 228.867 43.3747 233.169 37.839 240.205C34.1069 244.951 31.0962 252.742 28.9736 262.277H16.5106C10.3964 262.277 5.42378 267.251 5.42378 273.355V361.136C5.42378 367.736 10.7916 373.095 17.3832 373.095H18.9177C17.9368 373.775 17.232 374.823 16.9975 376.064C13.5951 394.141 1.41309 458.837 0.00715208 466.305C-0.0345143 466.531 0.116675 466.749 0.342864 466.8H0.417863C0.619052 466.8 0.795242 466.666 0.828575 466.464L9.88684 418.335H40.5664L31.5343 466.305C31.4926 466.531 31.6438 466.749 31.87 466.8H31.945C32.1462 466.8 32.3224 466.666 32.3557 466.464L41.414 418.335H67.3876L75.5399 466.456C75.5733 466.682 75.7995 466.833 76.0185 466.8C76.253 466.759 76.4042 466.541 76.3626 466.313L68.2269 418.335H89.3946L87.5161 428.776C87.0601 430.575 88.6994 432.173 90.1994 433.279L88.178 438.815C87.591 438.765 86.9958 438.983 86.5756 439.427C86.5422 439.46 86.5172 439.502 86.5006 439.536L82.6839 447.62C82.6839 447.629 82.6756 447.629 82.6756 447.637C82.6208 447.719 82.8351 447.29 80.6959 451.805C80.3613 452.472 80.4982 453.525 81.2994 453.952C82.7173 454.708 87.9482 457.077 106.854 465.223L107.064 466.456C107.105 466.682 107.323 466.833 107.549 466.8C107.775 466.759 107.927 466.541 107.893 466.313L107.775 465.625L108.237 465.818C109.418 466.21 110.556 467.282 112.272 466.573C113.133 466.214 113.565 465.6 113.941 464.804C114.268 464.057 114.461 463.278 114.494 462.481V462.465C114.503 462.415 114.503 462.363 114.503 462.338C114.578 460.402 113.823 458.523 112.423 457.197C109.714 454.639 105.16 449.75 105.068 445.825C105.052 445.213 104.917 444.685 104.658 444.249L106.544 439.074C109.221 439.387 113.803 439.51 114.469 436.885C114.662 436.381 128.04 400.739 135.78 373.098H138.782C141.005 373.098 142.984 372.084 144.3 370.498C146.003 404.371 149.643 441.288 149.685 441.649C149.685 443.863 152.772 444.844 155.766 445.263L156.058 450.036C155.497 450.22 155.036 450.656 154.833 451.234C154.825 451.276 154.817 451.318 154.817 451.36L154.549 460.292C154.541 460.325 154.541 460.359 154.541 460.393L154.398 464.922C154.398 466.031 155.229 466.75 156.168 466.767H156.185C156.3 466.767 189.205 466.749 187.107 466.75C191.564 466.718 190.913 459.096 185.631 457.173C182.133 455.915 176.002 453.257 174.342 449.701C174.09 449.139 173.746 448.712 173.336 448.426L173.042 443.62C175.013 442.807 176.338 441.709 176.346 440.282C176.715 436.433 184.658 352.192 171.901 330.915C165.996 321.045 145.264 317.849 128.91 316.902C127.123 316.801 124.809 316.734 122.159 316.684C122.159 316.24 122.142 315.67 122.117 314.99H310.535V466.584C310.535 466.818 310.719 467.003 310.954 467.003C311.188 467.003 311.373 466.818 311.373 466.584V314.99H333.413V466.584C333.413 466.818 333.598 467.003 333.832 467.003C334.067 467.003 334.251 466.818 334.251 466.584V314.99H341.229C341.463 314.99 341.648 314.797 341.648 314.571V302.1C341.648 301.866 341.463 301.681 341.229 301.681H281.556C282.104 301.215 316.924 250.7 316.982 250.616C316.991 250.616 316.991 250.608 316.999 250.599C318.351 248.267 316.672 245.333 313.955 245.333H229.651C228.494 245.333 227.411 245.895 226.758 246.842L193.068 295.584H169.165C169.171 295.578 169.174 295.573 169.174 295.567C169.333 295.055 169.392 294.259 169.367 293.261C170.398 293.216 171.276 293.082 172.101 293.044C172.151 293.035 177.058 292.532 177.183 291.031C177.225 290.57 176.889 290.183 176.118 289.823C178.29 289.589 179.69 288.918 179.8 287.962C179.883 287.174 179.128 286.502 177.594 285.974C180.194 285.571 181.796 284.732 181.846 283.676C181.88 282.946 181.192 282.326 179.825 281.839C183.756 281.85 188.782 282.031 190.183 280.489C190.511 280.12 190.652 279.685 190.602 279.181C190.3 276.279 178.995 274.091 175.204 274.375C172.108 274.61 168.679 275.642 165.987 276.64C165.651 275.817 164.908 274.146 164.042 274.342L125.547 275.198L124.255 273.102C140.475 267.398 166.005 241.61 167.195 240.403C167.451 240.157 167.62 239.737 167.2 238.737C167.2 238.737 167.202 238.736 167.204 238.734C170.49 236.571 175.915 232.874 179.37 229.772C183.695 231.517 187.683 232.11 192.045 232.11C199.971 232.11 209.121 230.038 215.126 226.734C219.177 224.495 222.381 221.057 225.484 217.735C232.408 210.329 235.336 207.953 245.998 204.779C259.717 200.69 275.685 199.39 292.679 202.07C329.873 207.923 432.586 221.676 463.031 199.47C470.295 194.159 475.531 185.344 479.251 177.136C489.266 154.912 495.152 125.216 494.993 97.6916C494.875 76.2641 491.244 58.6019 484.811 47.1299L484.816 47.1251ZM159.918 298.308C159.221 299.263 158.786 300.421 158.71 301.679H139.663C147.194 300.773 154.533 299.415 159.918 298.308ZM92.4541 280.738C97.6957 289.954 104.355 299.868 110.15 302.962C112.725 304.337 116.416 305.058 120.718 305.302C120.996 308.942 121.162 311.987 121.247 314.15C121.263 314.444 121.272 314.728 121.288 314.989C121.305 315.669 121.322 316.23 121.33 316.666C121.338 317.035 121.347 317.311 121.347 317.496C121.347 317.605 121.338 317.68 121.338 317.714C121.322 317.873 121.297 318.033 121.263 318.192C121.213 318.528 121.137 318.855 121.046 319.181C119.443 325.061 112.81 328.935 101.295 330.696C98.535 331.124 95.566 331.409 92.4553 331.569V280.738H92.4541ZM40.7247 417.496H10.0464L17.8213 376.218C18.157 374.414 19.7415 373.098 21.5784 373.098H50.4461C49.4651 373.778 48.7604 374.825 48.5258 376.067L40.7259 417.496H40.7247ZM41.5723 417.496L49.3473 376.218C49.683 374.414 51.2675 373.098 53.1044 373.098H56.4841C58.3544 373.098 59.9401 374.439 60.2579 376.285L67.2448 417.496H41.5723ZM68.0829 417.496L61.0793 376.15C60.8615 374.867 60.1484 373.793 59.1508 373.098H88.0101C89.8803 373.098 91.4732 374.439 91.7839 376.285C92.3315 379.519 90.4291 368.292 94.291 391.078L89.5446 417.496H68.0829ZM92.6053 376.15C92.3874 374.867 91.6744 373.793 90.6767 373.098H97.5124L94.7279 388.637L92.6065 376.15H92.6053ZM98.7695 417.496H90.391L94.7017 393.502L98.7695 417.496ZM89.5101 431.61C88.5291 430.646 88.1256 429.765 88.3363 428.952L90.2398 418.335H98.9124C99.26 420.388 97.685 411.092 102.149 437.448C98.2684 436.496 92.3732 434.392 89.5101 431.611V431.61ZM111.844 457.809C112.993 458.899 113.648 460.409 113.665 461.985C111.505 461.796 109.298 462.891 108.222 464.904L107.61 464.636L104.935 448.844C106.268 452.056 109.246 455.352 111.846 457.809H111.844ZM106.686 464.232L85.7196 455.133C86.4315 452.346 85.428 449.509 83.5304 447.779L87.2291 439.962C87.5184 439.674 87.9149 439.562 88.3863 439.719C89.6267 440.237 90.5089 441.055 90.9779 442.378C91.8922 444.986 94.2231 445.027 95.3469 444.683C95.4053 444.658 100.949 442.637 103.264 444.02C103.825 447.342 106.044 460.449 106.685 464.231L106.686 464.232ZM113.672 436.633C113.496 437.312 112.867 437.815 111.81 438.109C109.378 438.785 105.49 438.208 103.037 437.656C99.2064 415.116 102.067 431.972 95.1374 391.069L98.3576 373.098H134.907C127.184 400.631 113.865 436.097 113.672 436.634V436.633ZM138.782 372.259H17.3844C11.2535 372.259 6.26306 367.268 6.26306 361.138V273.356C6.26306 267.713 10.8595 263.117 16.5118 263.117C83.928 263.168 82.0351 262.888 84.1435 263.502H84.1518C88.4541 264.719 91.616 268.677 91.616 273.356V359.15C91.616 359.384 91.8005 359.569 92.0351 359.569C141.886 359.577 138.806 359.546 139.211 359.594C141.757 359.722 144.078 361.556 144.838 364.03C144.838 364.036 144.841 364.041 144.847 364.047C146.099 368.224 142.936 372.257 138.782 372.257V372.259ZM173.42 449.742C173.479 449.833 173.538 449.943 173.588 450.052C175.282 453.692 180.918 456.367 185.346 457.968C186.839 458.505 188.046 459.621 188.684 461.064C186.636 461.765 185.063 463.635 184.859 465.911H184.524L160.336 465.961C160.068 464.325 159.254 462.824 158.03 461.692C157.25 460.971 156.361 460.434 155.388 460.098L155.648 451.46C155.749 451.226 155.907 451.041 156.118 450.924C156.244 450.849 156.386 450.797 156.529 450.781C156.562 450.772 156.587 450.772 156.622 450.772C156.722 450.764 156.831 450.764 156.949 450.772C157.838 450.789 159.02 451.091 160.052 452.174C161.939 454.203 164.087 453.306 164.985 452.534C165.026 452.493 169.446 448.274 172.113 448.786C172.264 448.811 172.398 448.861 172.532 448.92C172.692 448.987 172.834 449.08 172.968 449.188C173.144 449.339 173.295 449.524 173.42 449.742ZM122.168 317.823C122.168 317.79 122.177 317.68 122.177 317.513C124.81 317.563 127.099 317.639 128.869 317.739C145.014 318.678 165.461 321.79 171.189 331.342C183.82 352.425 175.593 439.35 175.508 440.223V440.265C175.508 441.212 174.544 442.051 172.983 442.738C172.849 442.797 172.715 442.856 172.573 442.914C172.446 442.964 172.313 443.016 172.17 443.066C169.26 444.123 164.865 444.743 160.646 444.743C159.154 444.743 157.779 444.668 156.562 444.525C156.419 444.508 156.276 444.492 156.135 444.467C155.992 444.45 155.849 444.433 155.716 444.417C152.487 443.922 150.524 442.924 150.516 441.607C150.474 441.197 146.767 403.508 145.089 369.359C147.566 364.782 144.876 358.733 138.782 358.733H92.4529V332.4C95.6065 332.24 98.6172 331.956 101.418 331.527C107.85 330.538 112.808 328.894 116.28 326.605C119.115 324.735 120.952 322.429 121.773 319.703C121.865 319.384 121.949 319.058 122.016 318.73C122.074 318.428 122.125 318.127 122.167 317.824L122.168 317.823ZM321.506 302.518H340.813V314.15H321.506V302.518ZM320.668 302.518V314.15H122.093C121.985 311.466 121.766 307.457 121.338 302.61C124.217 302.759 127.491 302.698 130.413 302.518H320.668ZM227.457 247.319C227.952 246.597 228.773 246.17 229.654 246.17H312.298L278.34 294.627C277.921 295.222 277.233 295.583 276.503 295.583H194.094L227.457 247.319ZM276.503 296.421C277.5 296.421 278.448 295.926 279.019 295.104L313.322 246.17H313.958C316.044 246.17 317.293 248.423 316.281 250.161C276.048 308.371 282.1 299.615 281.467 300.53C280.972 301.251 280.159 301.679 279.278 301.679H159.548C159.657 300.244 160.294 298.961 161.267 298.022C165.183 297.2 167.833 296.554 168.37 296.42H276.502L276.503 296.421ZM175.265 275.203C179.501 274.892 191.57 277.712 189.565 279.916C188.101 281.526 180.649 280.761 176.424 281.098C175.905 281.138 175.914 281.87 176.39 281.927C180.089 282.448 181.037 283.269 181.012 283.63C180.995 284.15 179.234 285.181 175.099 285.365C174.598 285.406 174.565 286.107 175.049 286.205C178.345 286.8 178.999 287.606 178.965 287.865C178.915 288.326 177.246 289.182 173.614 289.056C173.413 289.039 173.212 289.207 173.179 289.416C173.154 289.634 173.296 289.835 173.506 289.887C176.037 290.458 176.274 290.902 176.357 290.944C176.164 291.456 173.069 292.142 172.063 292.202C171.427 292.231 170.408 292.357 169.345 292.42C169.102 288.168 167.71 281.325 166.293 277.425C168.943 276.453 172.298 275.429 175.267 275.203H175.265ZM164.43 218.119C164.604 218.344 164.78 218.571 164.956 218.797C164.739 218.922 164.521 219.039 164.296 219.157C164.325 218.916 164.386 218.357 164.43 218.119ZM178.528 229.413C175.712 231.836 171.377 234.988 166.833 237.981C164.851 234.398 158.183 227.183 154.658 224.702C154.658 224.702 154.658 224.701 154.658 224.699C155.906 221.581 158.829 216.756 161.293 214.325C161.868 213.75 163.021 212.731 163.8 212.95C164.71 213.198 163.644 216.649 163.381 219.835C163.373 219.91 163.389 219.995 163.423 220.062C163.431 220.078 164.379 221.907 163.75 223.433C163.406 224.263 162.635 224.867 161.469 225.228C160.913 225.392 161.224 226.221 161.712 226.024C164.643 225.122 165.442 222.75 164.339 220.06C164.732 219.876 165.11 219.676 165.477 219.466C166.37 220.598 167.305 221.711 168.354 222.67C171.534 225.596 174.937 227.844 178.527 229.412L178.528 229.413ZM179.225 228.802C179.225 228.802 179.223 228.804 179.221 228.805C175.586 227.271 172.143 225.017 168.926 222.059C167.955 221.163 167.074 220.121 166.23 219.054C170.318 216.734 174.345 213.23 175.024 213.446C175.72 214.587 173.883 217.388 170.336 220.566C169.967 220.897 170.388 221.497 170.814 221.246C172.417 220.373 173.85 219.426 175.108 218.604C176.584 217.632 178.606 216.315 178.865 216.684C179.301 217.305 177.121 220.182 173.305 223.327C172.931 223.626 173.283 224.23 173.74 224.032C177.02 222.575 180.793 220.184 181.323 220.275C181.449 220.426 181.482 220.602 181.457 220.837C181.273 222.211 178.765 224.585 176.358 226.321C175.957 226.622 176.305 227.225 176.752 227.05C178.099 226.526 181.377 225.171 181.776 225.499C181.927 226.061 180.946 227.252 179.226 228.804L179.225 228.802ZM449.121 24.2132C449.641 24.0704 450.169 23.937 450.698 23.8192C459.625 21.7955 470.019 23.1906 477.368 28.3392C483.587 32.7187 486.788 39.3934 484.279 46.1859V46.1942C480.207 57.8163 460.642 64.1112 445.338 57.7341C445.204 57.6758 445.044 57.6925 444.928 57.7841L437.64 63.3112L438.865 54.2617C438.89 54.1105 438.831 53.9676 438.714 53.876C434.554 50.5131 432.247 46.2109 432.23 41.7409C432.171 32.9152 440.469 26.5893 449.113 24.2132H449.122H449.121ZM94.1743 0.865593L284.849 12.7912C284.612 16.5386 284.346 21.305 284.161 25.0525L93.3529 15.5172C93.4089 14.8423 93.641 9.32469 94.1743 0.865593ZM281.528 142.605L280.949 142.638L94.1743 154.321C91.3315 108.565 91.0458 62.2291 93.3101 16.3553L284.127 25.8905C282.222 62.2446 282.419 103.041 284.848 142.395L281.527 142.605H281.528ZM293.34 107.191C293.815 107.472 294.242 106.749 293.763 106.469C292.519 105.738 291.801 104.834 291.629 103.782C291.312 101.854 292.904 99.9951 292.919 99.9772C292.98 99.907 292.99 99.851 293.017 99.7665C293.6 95.8988 293.248 91.8407 294.46 91.7907C294.854 91.7741 295.281 92.0169 295.76 92.5038C298.31 95.0287 301.051 103.063 301.748 107.649C297.16 110.272 289.136 116.742 285.569 120.867C285.225 120.514 284.881 120.154 284.529 119.776C284.244 112.849 284.034 105.905 283.909 98.9606C284.043 99.0868 284.177 99.2118 284.311 99.338C284.684 99.6713 285.213 99.1784 284.931 98.7844C284.554 98.2309 284.193 97.694 283.874 97.1738C283.824 95.2024 283.799 93.2323 283.773 91.261C285.567 93.2585 288.409 96.7893 292.017 99.7653C292.017 99.7653 292.017 99.7653 292.018 99.7653C290.035 102.493 290.271 105.388 293.337 107.189L293.34 107.191ZM285.016 121.513C284.881 121.668 284.749 121.839 284.622 122.008C284.605 121.689 284.588 121.38 284.58 121.061C284.74 121.22 284.882 121.371 285.016 121.513ZM439.836 207.478C436.454 143.462 437.252 158.546 437.127 156.191L452.382 204.018C448.777 205.352 444.555 206.521 439.836 207.476V207.478ZM453.174 203.721C453.174 203.721 453.167 203.724 453.163 203.725L436.952 152.878C436.943 152.87 436.943 152.861 436.943 152.861C436.943 152.777 436.662 152.228 429.24 135.875C429.145 135.665 428.897 135.572 428.685 135.667C428.474 135.763 428.381 136.011 428.477 136.222L429.772 139.073V139.082C429.803 139.287 429.145 134.641 438.73 202.341C438.735 202.427 439.011 207.719 439.008 207.634C415.133 212.294 382.326 211.006 358.184 209.087C361.353 194.789 362.662 178.999 362.184 160.853C362.19 158.358 362.221 146.158 362.225 144.845C362.225 144.613 362.038 144.425 361.806 144.425C361.575 144.425 361.387 144.612 361.387 144.843L361.384 145.555C360.776 146.353 358.374 159.136 350.728 169.994C344.832 174.062 337.1 177.76 329.006 177.055C329.006 177.055 329.005 177.055 329.004 177.055C328.58 171.791 328.957 167.644 330.42 161.404C330.474 161.178 330.333 160.953 330.108 160.9C329.881 160.848 329.657 160.988 329.605 161.212C328.37 166.476 327.705 170.993 328.163 176.973C327.727 176.909 327.183 176.858 326.112 176.62C312.919 173.701 289.127 133.64 284.798 126.201C284.756 125.262 284.715 124.314 284.68 123.366C286.912 119.83 293.094 114.909 295.935 112.648C296.172 112.553 297.324 111.466 300.204 109.604C301.036 109.064 305.98 105.861 306.594 106.786L330.204 137.975C330.327 138.162 330.631 138.218 330.832 138.017C331.067 137.774 354.483 113.587 367.021 105.889C372.968 102.232 380.809 99.7582 389.296 98.4499L389.07 101.402C389.145 103.575 391.133 105.31 394.664 106.3C394.705 106.308 394.739 106.316 394.782 106.316C394.966 106.316 395.134 106.19 395.184 106.005C395.242 105.779 395.117 105.553 394.89 105.485C393.07 104.982 389.992 103.766 389.908 101.418C389.915 101.332 390.24 97.0881 390.234 97.1738C401.607 95.6393 402.034 87.6469 402.042 87.5624C402.042 87.2017 401.645 87.0064 401.379 87.2017C398.265 89.398 393.654 90.2944 390.342 90.0527C390.34 90.0527 390.338 90.0551 390.334 90.0551C390.328 90.0551 390.322 90.0515 390.316 90.0527C382.232 90.4634 377.316 86.6315 375.287 78.3283C373.8 72.2572 374.003 66.8265 375.848 62.1006C381.998 61.8827 389.475 59.5197 394.895 57.9912C396.404 57.5722 397.461 57.5972 398.123 58.0829C401.058 60.2042 396.736 70.9739 404.883 74.3607C404.816 74.5118 404.765 74.6714 404.715 74.8309C404.648 75.0487 404.773 75.2832 404.992 75.3511C405.219 75.4177 405.454 75.2927 405.521 75.0749C406.314 72.3822 409.153 70.8692 411.886 71.7203C414.43 72.5346 416.166 75.2761 415.299 78.195C414.433 80.9948 411.467 82.3686 408.909 81.5162C408.683 81.4413 408.448 81.5662 408.38 81.7841C408.305 82.0019 408.43 82.2448 408.648 82.3126C409.092 82.4555 409.546 82.5388 409.998 82.5805L411.558 96.8202L411.616 97.3654C411.691 97.8154 412.095 97.6999 412.178 97.7011C422.862 98.607 432.86 101.299 439.846 105.777C451.905 113.5 464.368 138.525 476.898 180.137C469.666 194.627 462.409 200.232 453.167 203.717L453.174 203.721ZM478.491 176.788C478.131 177.586 477.786 178.322 477.442 179.037V179.035C464.945 137.741 452.457 112.857 440.305 105.066C433.26 100.546 423.179 97.8202 412.41 96.8976L410.851 82.59C413.93 82.4019 416.314 79.8735 416.361 76.8034V76.7951C416.957 75.5963 424.69 59.9554 419.758 53.0701C417.954 50.5547 414.701 49.5476 410.079 50.0678C410.733 48.7929 411.782 46.093 410.767 43.4087C409.82 40.8755 407.295 39.0398 403.27 37.9577C390.329 34.452 372.003 38.7791 367.769 49.5893C365.915 54.3355 365.932 57.7913 367.819 59.8542C370.007 62.2625 374.057 62.0315 374.918 62.1268C373.144 66.9206 372.977 72.4072 374.478 78.5307C376.55 87.0005 381.741 91.161 389.885 90.9086L389.365 97.6011C380.685 98.9177 372.658 101.443 366.587 105.175C354.787 112.412 333.526 134.058 330.574 137.085L307.259 106.273C307.016 105.963 306.344 105.125 302.52 107.204C301.732 102.382 298.998 94.5322 296.356 91.9074C295.693 91.2443 295.056 90.9265 294.428 90.9515C292.319 91.03 292.801 94.8727 292.29 98.9023C288.535 95.7334 285.694 92.0693 283.768 90.0122C283.534 71.0834 283.818 52.1392 284.624 33.2699C297.607 30.1331 326.718 23.6763 358.906 20.2956C386.708 17.3683 420.826 16.3874 447.605 23.7847C430.861 29.1344 426.091 44.5753 438.01 54.3783L436.677 64.1993C436.642 64.5397 437 64.8242 437.348 64.5933L445.24 58.5972C459.817 64.5362 478.72 59.4697 484.373 48.0977C499.075 75.3535 497.263 135.141 478.493 176.788H478.491Z" fill="#002345"></path><path d="M412.467 100.959C412.235 100.967 412.054 101.161 412.062 101.392C412.091 102.186 411.778 102.917 411.13 103.563C409.308 105.38 405.005 106.436 400.132 106.255C399.91 106.245 399.707 106.427 399.697 106.658C399.689 106.89 399.868 107.084 400.101 107.092C403.736 107.23 409.252 106.622 411.723 104.155C412.542 103.339 412.939 102.4 412.902 101.363C412.893 101.132 412.706 100.933 412.467 100.958V100.959Z" fill="#002345"></path><path d="M270.021 100.647C269.786 90.1143 269.71 79.572 269.795 69.1142C269.803 68.888 269.618 68.6952 269.384 68.6952L231.937 68.3928H231.928C231.702 68.3928 231.509 68.5773 231.509 68.8118C231.341 90.0881 231.803 111.658 232.876 132.91C232.876 133.106 233.037 133.304 233.312 133.304L270.716 131.417C270.942 131.409 271.127 131.207 271.11 130.973C270.641 121.614 270.289 112.204 270.071 102.786C270.046 102.073 270.029 101.36 270.021 100.648V100.647ZM233.689 132.449C232.64 111.483 232.188 90.2238 232.347 69.2321L268.955 69.5261C268.804 89.7965 269.24 110.335 270.255 130.605L233.689 132.45V132.449Z" fill="#002345"></path><path d="M221.385 68.7274C221.385 68.4929 221.201 68.3083 220.975 68.3L105.321 67.3774C105.095 67.3774 104.902 67.562 104.902 67.7965C104.709 91.5298 105.221 115.582 106.42 139.299C106.436 139.519 106.617 139.693 106.839 139.693C232.019 133.368 220.704 133.94 222.368 133.856C222.594 133.848 222.77 133.647 222.762 133.421C221.679 111.968 221.219 90.1965 221.387 68.7274H221.385ZM221.906 133.043L107.233 138.838C106.059 115.414 105.555 91.656 105.74 68.2155L220.547 69.1381C220.388 90.3477 220.84 111.85 221.906 133.043Z" fill="#002345"></path><path d="M258.296 53.5067C265.746 46.1226 259.291 32.5661 248.072 35.5184C248.064 35.5267 248.055 35.535 248.039 35.535C240.397 38.0813 238.319 47.7618 243.66 53.3734C247.665 57.572 254.176 57.6089 258.296 53.5079V53.5067ZM260.593 44.6929C260.624 44.925 260.652 45.3214 260.652 45.5488L241.572 44.9869C242.892 33.109 258.896 32.8173 260.593 44.6929ZM260.635 46.3869C260.146 54.9114 250.012 58.8374 244.272 52.7937C242.485 50.9235 241.521 48.4582 241.521 45.825L260.635 46.3869Z" fill="#002345"></path><path d="M219.129 32.8755L110.336 28.5233C107.747 28.415 105.756 30.7982 105.656 33.5302C105.555 36.5491 107.617 38.7907 109.967 38.8645C110.972 38.8966 97.7457 38.4716 218.928 42.3619C221.409 42.3619 223.348 40.2739 223.432 37.7824C223.525 35.1742 221.595 32.9767 219.129 32.8767V32.8755ZM222.594 37.7479C222.527 39.8001 220.935 41.5584 218.812 41.5215L109.992 38.024C107.919 37.9633 106.404 35.8706 106.494 33.5624C106.575 31.3101 108.117 29.3602 110.177 29.3602H110.303L219.096 33.7124C221.051 33.7873 222.594 35.5158 222.594 37.5955V37.7467V37.7479Z" fill="#002345"></path><path d="M109.514 57.4814L160.95 58.3457H161.025C163.574 58.3457 165.479 56.0803 165.529 53.4733C165.587 50.7472 163.625 48.4747 161.16 48.4081L109.731 47.1415C107.178 47.0701 105.179 49.4223 105.127 52.215C105.062 55.1304 107.078 57.4445 109.514 57.4814ZM109.631 47.9795H109.706L161.135 49.2461C163.114 49.2961 164.691 51.1246 164.691 53.3554V53.4566C164.656 55.7244 162.96 57.5767 160.967 57.5076L109.53 56.6434C107.634 56.6065 105.916 54.7994 105.966 52.2317C106.014 50.0354 107.511 47.9795 109.631 47.9795Z" fill="#002345"></path><path d="M199.007 80.2898C205.827 80.2756 203.203 80.2815 210.022 80.2672C210.254 80.2672 210.441 80.0779 210.441 79.847C210.441 79.6161 210.253 79.428 210.022 79.428L199.007 79.4506C198.775 79.4506 198.588 79.6399 198.588 79.8708C198.588 80.1018 198.776 80.2898 199.007 80.2898Z" fill="#002345"></path><path d="M133.142 80.4221C142.19 80.4042 184.692 80.3185 193.744 80.2994C193.976 80.2994 194.163 80.1102 194.163 79.8792C194.163 79.6483 193.975 79.4602 193.744 79.4602L133.143 79.5828C132.911 79.5828 132.724 79.7721 132.724 80.003C132.724 80.234 132.912 80.4221 133.143 80.4221H133.142Z" fill="#002345"></path><path d="M210.091 90.1657L170.325 90.6287C170.093 90.6311 169.908 90.8216 169.911 91.0525C169.913 91.2823 170.101 91.4668 170.33 91.4668H170.334L210.101 91.0037C210.333 91.0013 210.518 90.8109 210.515 90.5799C210.513 90.349 210.357 90.1478 210.091 90.1657Z" fill="#002345"></path><path d="M133.225 91.8976L162.888 91.5524C163.424 91.5453 163.46 90.7394 162.879 90.7144L133.216 91.0596C132.984 91.062 132.799 91.2524 132.802 91.4834C132.804 91.7131 132.992 91.8976 133.221 91.8976H133.225Z" fill="#002345"></path><path d="M133.417 103.373L210.281 101.74C210.513 101.735 210.696 101.543 210.691 101.311C210.687 101.083 210.5 100.901 210.272 100.901H210.263L133.399 102.534C133.167 102.539 132.984 102.73 132.988 102.962C132.993 103.191 133.18 103.373 133.407 103.373H133.417Z" fill="#002345"></path><path d="M210.539 111.637L183.7 112.465C183.469 112.473 183.287 112.667 183.294 112.898C183.301 113.125 183.487 113.304 183.713 113.304H183.726L210.565 112.475C210.796 112.468 210.978 112.274 210.971 112.043C210.964 111.816 210.778 111.637 210.552 111.637H210.539Z" fill="#002345"></path><path d="M133.72 114.846L174.758 113.58C174.989 113.573 175.171 113.379 175.164 113.148C175.157 112.92 174.971 112.742 174.745 112.742H174.732L133.694 114.008C133.463 114.015 133.281 114.209 133.288 114.44C133.295 114.668 133.481 114.846 133.707 114.846H133.72Z" fill="#002345"></path><path d="M210.918 122.37L195.29 123.002C195.059 123.011 194.88 123.207 194.888 123.438C194.897 123.664 195.083 123.84 195.307 123.84C195.313 123.84 195.319 123.84 195.324 123.84L210.951 123.208C211.182 123.198 211.362 123.003 211.353 122.772C211.344 122.541 211.163 122.357 210.916 122.37H210.918Z" fill="#002345"></path><path d="M190.432 123.199L134.099 125.479C133.868 125.489 133.688 125.684 133.697 125.915C133.706 126.141 133.892 126.317 134.116 126.317C134.122 126.317 134.128 126.317 134.133 126.317L190.465 124.038C190.696 124.028 190.876 123.833 190.868 123.602C190.858 123.371 190.68 123.179 190.431 123.199H190.432Z" fill="#002345"></path><path d="M116.196 80.4566C122.959 80.4423 120.358 80.4483 127.121 80.434C127.353 80.434 127.54 80.2459 127.54 80.0138C127.54 79.7828 127.352 79.5947 127.121 79.5947L116.197 79.6173C115.965 79.6173 115.778 79.8066 115.778 80.0376C115.778 80.2685 115.966 80.4566 116.197 80.4566H116.196Z" fill="#002345"></path><path d="M127.203 91.9679C127.749 91.9608 127.76 91.1299 127.193 91.1287L116.27 91.256C116.037 91.2584 115.853 91.4489 115.855 91.6798C115.858 91.9096 116.046 92.0941 116.274 92.0941C116.359 92.0941 127.118 91.9715 127.203 91.9667V91.9679Z" fill="#002345"></path><path d="M116.474 103.734L127.396 103.502C127.628 103.497 127.811 103.305 127.806 103.073C127.802 102.845 127.615 102.663 127.387 102.663H127.378L116.456 102.895C116.224 102.899 116.041 103.091 116.046 103.323C116.051 103.552 116.237 103.734 116.465 103.734H116.474Z" fill="#002345"></path><path d="M116.781 115.369L127.7 115.032C127.931 115.025 128.114 114.831 128.106 114.6C128.099 114.373 127.914 114.194 127.687 114.194H127.674L116.755 114.531C116.524 114.538 116.342 114.732 116.349 114.963C116.356 115.19 116.542 115.369 116.768 115.369H116.781Z" fill="#002345"></path><path d="M128.081 125.723L117.166 126.165C116.935 126.174 116.755 126.37 116.763 126.601C116.773 126.827 116.959 127.003 117.183 127.003C117.188 127.003 117.194 127.003 117.199 127.003L128.115 126.561C128.346 126.552 128.525 126.357 128.517 126.126C128.507 125.895 128.311 125.711 128.08 125.723H128.081Z" fill="#002345"></path><path d="M244.681 80.197L262.176 80.1613C262.408 80.1613 262.595 79.972 262.595 79.741C262.595 79.5101 262.407 79.322 262.176 79.322L244.681 79.3577C244.448 79.3577 244.261 79.547 244.261 79.7779C244.261 80.0089 244.45 80.197 244.681 80.197Z" fill="#002345"></path><path d="M262.193 89.5596L252.44 89.6727C252.208 89.675 252.023 89.8655 252.026 90.0964C252.028 90.3262 252.216 90.5107 252.445 90.5107C252.528 90.5107 262.12 90.4048 262.203 90.3976C262.435 90.3952 262.62 90.2048 262.617 89.9738C262.614 89.7429 262.439 89.5703 262.193 89.5596Z" fill="#002345"></path><path d="M244.757 90.6012L250.624 90.5334C250.857 90.531 251.041 90.3405 251.039 90.1096C251.036 89.8798 250.848 89.6953 250.62 89.6953C250.535 89.6953 244.664 89.7608 244.747 89.7632C244.515 89.7655 244.33 89.956 244.333 90.187C244.335 90.4167 244.523 90.6012 244.752 90.6012H244.757Z" fill="#002345"></path><path d="M262.375 100.634C262.608 100.629 262.791 100.438 262.786 100.206C262.781 99.9771 262.595 99.7949 262.367 99.7949H262.358L244.914 100.165C244.682 100.17 244.498 100.362 244.503 100.594C244.508 100.822 244.695 101.004 244.922 101.004C245.009 101.004 262.281 100.638 262.374 100.634H262.375Z" fill="#002345"></path><path d="M256.037 110.233C255.807 110.241 255.624 110.435 255.632 110.666C255.639 110.893 255.824 111.072 256.051 111.072C256.135 111.072 262.731 110.877 262.647 110.868C262.878 110.861 263.06 110.667 263.053 110.436C263.046 110.205 262.881 110.02 262.621 110.03L256.037 110.233Z" fill="#002345"></path><path d="M245.207 111.407L253.864 111.141C254.095 111.134 254.277 110.94 254.27 110.709C254.263 110.481 254.077 110.303 253.851 110.303H253.838L245.181 110.569C244.95 110.577 244.767 110.771 244.775 111.002C244.782 111.229 244.967 111.407 245.194 111.407H245.207Z" fill="#002345"></path><path d="M262.98 120.263L259.148 120.417C258.917 120.427 258.738 120.622 258.746 120.853C258.755 121.079 258.941 121.255 259.165 121.255C259.171 121.255 259.177 121.255 259.182 121.255L263.014 121.101C263.245 121.091 263.424 120.896 263.416 120.665C263.407 120.434 263.209 120.253 262.979 120.264L262.98 120.263Z" fill="#002345"></path><path d="M257.957 120.466L245.547 120.969C245.316 120.978 245.136 121.173 245.145 121.404C245.154 121.629 245.34 121.807 245.564 121.807C245.651 121.807 257.907 121.314 257.99 121.304C258.221 121.295 258.401 121.1 258.392 120.869C258.383 120.638 258.178 120.45 257.955 120.466H257.957Z" fill="#002345"></path><path d="M239.116 80.209L241.795 80.203C242.027 80.203 242.214 80.0137 242.214 79.7828C242.214 79.5519 242.026 79.3638 241.795 79.3638L239.116 79.3697C238.884 79.3697 238.697 79.5578 238.697 79.7899C238.697 80.0209 238.885 80.209 239.116 80.209Z" fill="#002345"></path><path d="M239.251 90.6654L241.871 90.6357C242.103 90.6333 242.288 90.4428 242.285 90.2119C242.283 89.9797 242.114 89.8036 241.861 89.7976L239.183 89.8286C238.951 89.8309 238.796 90.0202 238.798 90.2523C238.801 90.4821 239.017 90.6666 239.247 90.6666H239.252L239.251 90.6654Z" fill="#002345"></path><path d="M242.047 101.066C242.279 101.061 242.463 100.87 242.458 100.638C242.453 100.407 242.289 100.223 242.029 100.227L239.351 100.284C239.119 100.289 238.935 100.48 238.94 100.713C238.945 100.941 239.132 101.123 239.359 101.123C239.444 101.123 242.132 101.067 242.047 101.066Z" fill="#002345"></path><path d="M242.322 111.495C242.554 111.488 242.735 111.294 242.728 111.063C242.721 110.832 242.535 110.642 242.296 110.657L239.617 110.74C239.386 110.747 239.204 110.941 239.211 111.172C239.219 111.399 239.404 111.579 239.63 111.579C239.715 111.579 242.407 111.498 242.322 111.497V111.495Z" fill="#002345"></path><path d="M242.664 121.085L239.988 121.194C239.757 121.203 239.577 121.398 239.585 121.629C239.595 121.856 239.78 122.032 240.004 122.032C240.089 122.032 242.783 121.925 242.698 121.923C242.929 121.914 243.109 121.719 243.101 121.488C243.091 121.257 242.891 121.075 242.664 121.085Z" fill="#002345"></path><path d="M400.763 115.583C398.266 115.463 396.883 118.419 398.557 120.288C400.26 122.132 403.327 121.008 403.438 118.509C403.504 116.967 402.306 115.65 400.763 115.582V115.583ZM399.178 119.718C398.037 118.468 398.915 116.413 400.638 116.413H400.721C401.812 116.463 402.65 117.386 402.6 118.476C402.546 120.178 400.385 121.038 399.178 119.718Z" fill="#002345"></path><path d="M398.254 127.148C397.113 128.186 397.016 129.966 398.078 131.115C399.751 132.982 402.869 131.821 402.951 129.346H402.959C403.067 126.849 400.082 125.459 398.254 127.148ZM402.121 129.312C402.04 131.021 399.919 131.868 398.691 130.554C397.947 129.739 398.03 128.487 398.817 127.77C400.107 126.598 402.122 127.528 402.122 129.237V129.312H402.121Z" fill="#002345"></path><path d="M399.79 137.245C398.264 137.179 396.931 138.386 396.863 139.928C396.74 142.443 399.791 143.843 401.601 142.093C403.384 140.398 402.267 137.366 399.789 137.245H399.79ZM399.581 142.026C398.49 141.976 397.652 141.053 397.694 139.971C397.744 138.914 398.616 138.085 399.664 138.085H399.757C400.839 138.135 401.685 139.057 401.635 140.148C401.585 141.23 400.638 142.068 399.581 142.026Z" fill="#002345"></path><path d="M399.311 148.081C397.752 148.014 396.444 149.221 396.376 150.764C396.309 152.315 397.508 153.631 399.059 153.699H399.185C400.664 153.699 401.919 152.546 401.986 151.016C402.053 149.465 400.854 148.148 399.311 148.081ZM401.148 150.983C401.098 152.065 400.159 152.903 399.094 152.861C398.011 152.811 397.165 151.889 397.215 150.807C397.257 149.749 398.138 148.92 399.186 148.92H399.27C400.319 148.97 401.148 149.842 401.148 150.891V150.983Z" fill="#002345"></path><path d="M282.894 409.963H221.922C221.685 409.963 221.477 410.178 221.512 410.434L222.233 417.184C222.233 417.193 222.233 417.201 222.241 417.209L227.525 466.38C227.55 466.597 227.726 466.757 227.944 466.757H276.872C277.09 466.757 277.266 466.597 277.291 466.38C277.531 464.15 275.904 479.268 283.312 410.434C283.331 410.144 283.111 409.963 282.893 409.963H282.894ZM282.425 410.803L281.787 416.724H223.029L222.393 410.803H282.425ZM276.496 465.919H228.322L223.122 417.563H281.696L276.496 465.919Z" fill="#002345"></path><path d="M409.688 74.7674C411.432 75.171 412.186 76.2126 412.065 78.0434C412.049 78.2744 412.224 78.4744 412.455 78.4899C412.707 78.5006 412.888 78.3172 412.902 78.0994C413.049 75.8769 412.003 74.4424 409.876 73.9496C409.655 73.8972 409.426 74.0389 409.373 74.2639C409.321 74.4901 409.461 74.7151 409.688 74.7674Z" fill="#002345"></path><path d="M310.566 230.616L310.079 238.792C310.046 239.35 310.884 239.4 310.916 238.842L311.403 230.666C311.417 230.435 311.241 230.236 311.009 230.221C310.778 230.213 310.579 230.385 310.566 230.616Z" fill="#002345"></path><path d="M327.911 239.181C327.769 238.997 327.505 238.963 327.323 239.103L320.829 244.096C320.511 244.34 320.686 244.848 321.085 244.848C321.357 244.848 321.03 244.958 327.835 239.769C328.018 239.627 328.053 239.364 327.912 239.181H327.911Z" fill="#002345"></path><path d="M323.704 256.513L331.73 258.144C331.757 258.149 331.786 258.152 331.814 258.152C332.01 258.152 332.183 258.015 332.225 257.817C332.271 257.589 332.124 257.368 331.898 257.321L323.871 255.691C323.651 255.646 323.424 255.791 323.376 256.018C323.33 256.245 323.477 256.467 323.704 256.512V256.513Z" fill="#002345"></path><path d="M88.2316 227.421L90.2244 233.246L57.9949 229.937L61.1318 224.639C62.0794 223.036 63.8734 222.133 65.7246 222.322L84.2042 224.219C86.0566 224.41 87.628 225.66 88.2316 227.421Z" fill="#1DBFCC"></path></g><defs><clipPath id="clip0_1659_242"><rect width="495" height="467" fill="white"></rect></clipPath></defs></svg>