<svg xmlns="http://www.w3.org/2000/svg" width="575" height="574" viewBox="0 0 575 574" fill="none"><path d="M380.782 210.646L379.209 210.621L377.874 210.533L375.201 210.376C373.434 210.175 371.679 209.855 369.937 209.538C363.018 207.936 356.52 204.699 351.055 200.179C345.675 195.552 341.435 189.687 338.634 183.225C337.396 179.932 336.278 176.576 335.823 173.075L335.429 170.462L335.322 167.815C335.194 166.206 335.241 163.929 335.247 161.827C335.385 144.849 335.275 127.87 335.256 110.889C335.178 93.9103 335.269 76.9287 335.028 59.9471L334.705 34.4684L334.495 21.7181L334.338 15.3257L334.247 12.0949L334.194 10.467C334.175 9.80209 334.113 8.72937 334.031 7.88875C333.64 3.68883 330.049 0.571037 325.897 0.699639C321.742 0.574174 318.151 3.69197 317.759 7.88875C317.681 8.72937 317.618 9.80209 317.596 10.467L317.546 12.0949L317.455 15.3257L317.296 21.7181L317.086 34.4684L316.763 59.9471C316.519 76.9287 316.613 93.9103 316.534 110.889C316.515 127.867 316.406 144.849 316.544 161.827C316.55 163.929 316.597 166.206 316.468 167.815L316.362 170.462L315.967 173.075C315.513 176.576 314.394 179.935 313.156 183.225C310.355 189.687 306.116 195.549 300.736 200.179C295.271 204.695 288.772 207.936 281.854 209.538C280.108 209.858 278.357 210.175 276.589 210.376L273.917 210.533L272.579 210.621L271.006 210.646L262.408 210.768C261.609 216.357 260.822 221.903 260.073 227.423L270.987 227.574L272.594 227.593L274.434 227.521L278.115 227.357C280.556 227.129 283 226.746 285.419 226.316C295.07 224.28 304.22 219.917 311.919 213.723C317.427 209.149 322.184 203.645 325.891 197.491C329.597 203.648 334.354 209.149 339.862 213.723C347.561 219.914 356.714 224.277 366.362 226.316C368.781 226.743 371.225 227.129 373.666 227.357L377.347 227.521L379.187 227.593L380.794 227.574L383.984 227.53C384.084 221.919 384.194 216.307 384.266 210.696L380.775 210.646H380.782Z" fill="white"></path><path d="M379.202 228.289L373.644 228.054C370.927 227.8 368.267 227.361 366.249 227.003C356.501 224.945 347.239 220.545 339.436 214.268C334.094 209.833 329.544 204.642 325.897 198.817C322.25 204.642 317.7 209.833 312.367 214.262C304.555 220.545 295.293 224.949 285.567 227C283.527 227.361 280.867 227.803 278.184 228.054L272.626 228.292L260.067 228.123C259.87 228.123 259.682 228.032 259.55 227.881C259.422 227.731 259.362 227.533 259.39 227.335C260.158 221.677 260.963 216.003 261.725 210.674C261.772 210.335 262.06 210.084 262.401 210.078L272.572 209.93L276.552 209.686C278.3 209.485 280.124 209.153 281.735 208.858C288.471 207.296 294.904 204.109 300.3 199.645C305.501 195.17 309.732 189.395 312.527 182.952C313.683 179.879 314.827 176.519 315.284 172.987L315.673 170.4L315.779 167.79C315.882 166.488 315.87 164.732 315.861 163.035L315.854 161.834C315.754 149.431 315.785 136.819 315.817 124.624C315.829 120.048 315.839 115.471 315.845 110.895C315.873 105.152 315.879 99.4088 315.886 93.6656C315.898 82.6153 315.914 71.1855 316.074 59.9439L316.396 34.4652L316.606 21.7117L316.907 10.4482C316.929 9.70166 316.998 8.62266 317.073 7.82597C317.496 3.30297 321.372 -0.125346 325.919 0.00639163C330.409 -0.134756 334.301 3.30297 334.724 7.82597C334.799 8.62266 334.868 9.70166 334.89 10.4513L335.034 15.3099L335.191 21.7055L335.401 34.4621L335.723 59.9439C335.883 71.1855 335.899 82.6122 335.911 93.6656C335.918 99.4088 335.927 105.149 335.952 110.892C335.958 115.474 335.968 120.057 335.98 124.637C336.012 136.829 336.043 149.435 335.943 161.837L335.936 163.013C335.924 164.719 335.911 166.482 336.015 167.762L336.121 170.397L336.51 172.972C336.97 176.516 338.114 179.875 339.283 182.981C342.062 189.392 346.295 195.166 351.506 199.652C356.893 204.106 363.322 207.293 370.094 208.861C371.673 209.149 373.497 209.482 375.283 209.686L379.259 209.927L384.285 209.999C384.667 210.006 384.971 210.319 384.968 210.702C384.915 214.946 384.836 219.19 384.761 223.434L384.686 227.539C384.68 227.913 384.376 228.214 384.003 228.22L379.206 228.283L379.202 228.289ZM325.897 196.801C326.138 196.801 326.364 196.929 326.489 197.136C330.152 203.218 334.802 208.622 340.311 213.192C347.937 219.328 356.999 223.634 366.512 225.642C368.48 225.99 371.106 226.426 373.738 226.67L379.221 226.903L383.31 226.846L383.373 223.412C383.445 219.4 383.52 215.391 383.57 211.38L380.772 211.339L379.199 211.314L375.164 211.066C373.296 210.853 371.444 210.517 369.815 210.219C362.805 208.597 356.178 205.313 350.616 200.712C345.236 196.085 340.878 190.135 338.001 183.501C336.792 180.286 335.617 176.833 335.14 173.163L334.749 170.566C334.746 170.541 334.743 170.516 334.743 170.491L334.636 167.843C334.529 166.529 334.542 164.735 334.554 163L334.561 161.827C334.661 149.431 334.63 136.825 334.598 124.64C334.586 120.057 334.576 115.474 334.57 110.895C334.542 105.155 334.536 99.4088 334.529 93.6656C334.517 82.6185 334.501 71.1949 334.341 59.9627L334.019 34.4809L333.809 21.7306L333.508 10.4889C333.489 9.88045 333.43 8.814 333.348 7.95143C332.994 4.15613 329.738 1.26417 325.925 1.38964C322.065 1.26417 318.812 4.15613 318.458 7.95143C318.377 8.814 318.317 9.88045 318.298 10.4858L318.154 15.3444L317.994 21.7368L317.784 34.484L317.462 59.9627C317.302 71.1981 317.286 82.6216 317.274 93.6688C317.267 99.4119 317.258 105.155 317.233 110.901C317.227 115.474 317.217 120.054 317.205 124.63C317.173 136.822 317.142 149.431 317.242 161.83L317.249 163.032C317.261 164.757 317.274 166.545 317.164 167.878L317.057 170.497C317.057 170.522 317.054 170.547 317.051 170.572L316.656 173.185C316.18 176.842 315.008 180.296 313.808 183.476C310.919 190.142 306.561 196.092 301.19 200.709C295.619 205.316 288.992 208.6 282.013 210.216C280.35 210.52 278.501 210.859 276.671 211.066L272.632 211.314L263.016 211.452C262.314 216.36 261.577 221.552 260.872 226.74L272.61 226.899L278.09 226.664C280.691 226.42 283.314 225.984 285.307 225.632C294.795 223.628 303.86 219.321 311.493 213.183C316.992 208.619 321.642 203.215 325.305 197.133C325.43 196.926 325.656 196.797 325.897 196.797V196.801Z" fill="#1DBFCC"></path><path d="M299.586 47.5167C302.415 49.9131 304.834 53.9531 302.794 94.1017C299.874 151.574 293.823 164.719 291.561 203.337C288.299 259.062 298.915 265.543 289.957 304.54C287.748 314.163 280.986 340.382 264.281 367.191C232.061 418.895 159.895 477.512 116.644 457.149C74.6536 437.382 78.138 351.762 79.7329 312.573C80.7983 286.382 83.7123 230.936 118.249 172.815C171.194 83.7101 275.446 27.066 299.589 47.5167H299.586Z" fill="white"></path><path d="M136.181 461.941C128.927 461.941 122.275 460.564 116.35 457.773C98.0633 449.166 86.2221 427.116 81.1585 392.24C76.9723 363.402 78.2664 331.562 79.0435 312.541C80.0242 288.415 82.3242 231.915 117.653 172.457C136.927 140.018 165.335 108.508 197.637 83.7287C225.91 62.0422 255.395 46.9802 276.508 43.4389C287.074 41.6668 295.208 42.8932 300.037 46.9833C303.321 49.7655 305.492 54.7747 303.49 94.1329C301.851 126.368 299.191 144.943 296.844 161.335C294.995 174.239 293.25 186.425 292.257 203.375C290.796 228.289 292.141 243.58 293.218 255.869C294.553 271.06 295.606 283.06 290.637 304.694C287.713 317.422 280.481 342.512 264.874 367.554C248.285 394.172 221.507 421.843 194.992 439.766C173.322 454.414 153.13 461.938 136.184 461.941H136.181ZM285.294 44.038C282.678 44.038 279.817 44.2952 276.734 44.8128C238.728 51.1864 162.715 99.3396 118.841 173.172C83.6903 232.329 81.3998 288.581 80.4222 312.604C79.6482 331.578 78.3573 363.336 82.5247 392.048C87.5162 426.435 99.0942 448.128 116.933 456.524C136.238 465.614 163.68 459.253 194.206 438.621C220.573 420.798 247.195 393.287 263.689 366.824C279.19 341.95 286.375 317.027 289.28 304.386C294.199 282.966 293.206 271.653 291.834 255.995C290.752 243.661 289.405 228.314 290.868 203.3C291.865 186.293 293.613 174.076 295.468 161.143C297.812 144.783 300.469 126.239 302.102 94.0701C304.063 55.4929 301.917 50.4054 299.137 48.0498C295.998 45.3931 291.288 44.0412 285.291 44.0412L285.294 44.038Z" fill="#1DBFCC"></path><path d="M353.637 47.5167C350.808 49.9131 348.389 53.9531 350.428 94.1017C353.349 151.574 359.399 164.719 361.662 203.337C364.924 259.062 354.308 265.543 363.266 304.54C365.475 314.163 372.237 340.382 388.941 367.191C421.162 418.895 493.328 477.512 536.578 457.149C578.569 437.382 575.085 351.762 573.49 312.573C572.424 286.382 569.51 230.936 534.974 172.815C482.029 83.7101 377.777 27.066 353.634 47.5167H353.637Z" fill="white"></path><path d="M517.044 461.941C500.099 461.941 479.91 454.414 458.237 439.766C431.719 421.843 404.944 394.172 388.355 367.554C372.748 342.512 365.513 317.419 362.592 304.694C357.623 283.06 358.676 271.06 360.01 255.869C361.088 243.583 362.433 228.289 360.972 203.375C359.979 186.425 358.234 174.239 356.385 161.335C354.038 144.946 351.378 126.368 349.739 94.1329C347.74 54.7747 349.908 49.7624 353.192 46.9833C358.021 42.8932 366.155 41.6668 376.721 43.4389C397.834 46.9802 427.319 62.0422 455.592 83.7287C487.894 108.508 516.299 140.018 535.575 172.457C570.905 231.915 573.205 288.415 574.189 312.541C574.962 331.565 576.26 363.405 572.07 392.243C567.007 427.119 555.166 449.166 536.879 457.773C530.957 460.561 524.298 461.938 517.048 461.941H517.044ZM367.932 44.038C361.934 44.038 357.225 45.3868 354.085 48.0466C351.303 50.4022 349.159 55.4929 351.121 94.067C352.757 126.239 355.414 144.78 357.754 161.14C359.606 174.073 361.358 186.287 362.354 203.296C363.817 228.311 362.473 243.658 361.389 255.991C360.014 271.649 359.023 282.963 363.943 304.383C366.847 317.027 374.032 341.95 389.533 366.821C406.025 393.284 432.649 420.795 459.017 438.618C480.456 453.109 500.381 460.558 517.029 460.561C524.082 460.561 530.546 459.225 536.29 456.521C554.128 448.125 565.706 426.432 570.698 392.045C574.865 363.336 573.574 331.578 572.804 312.601C571.826 288.578 569.535 232.323 534.385 173.169C490.514 99.3365 414.5 51.1832 376.492 44.8096C373.409 44.2921 370.548 44.0349 367.932 44.0349V44.038Z" fill="#1DBFCC"></path><path d="M404.671 143.597C405.573 151.759 403.308 161.247 403.248 169.619C403.123 187.105 404.959 204.699 409.957 221.454C421.945 261.641 452.346 289.5 492.516 300.299C510.721 305.193 530.421 307.755 549.278 307.808C536.356 307.291 523.48 308.392 510.417 306.67C475.574 302.072 441.488 287.16 421.488 256.964C403.183 229.33 397.947 193.611 401.387 161.103C401.854 156.69 401.732 146.834 404.671 143.601V143.597Z" fill="#002345"></path><path d="M415.061 203.845C415.052 203.817 415.039 203.789 415.03 203.761C422.782 209.074 427.247 217.637 434.889 223.167C442.319 228.543 452.098 232.787 461.464 231.551C471.506 230.224 480.753 225.021 490.15 221.583C502.054 217.229 514.729 215.002 527.403 215.04C529.522 215.046 533.984 215.231 534.052 217.979C526.617 219.434 518.755 219.011 511.207 220.607C499.234 223.142 489.113 229.296 477.826 233.33C466.725 237.301 454.176 237.191 443.196 232.859C430.283 227.765 419.761 216.916 415.061 203.842V203.845Z" fill="#002345"></path><path d="M409.888 299.49C414.541 300.786 419.448 300.274 424.192 302.047C445.715 310.083 453.289 331.832 460.991 351.411C465.804 363.65 472.224 376.18 483.542 382.861C487.706 385.317 492.325 386.792 497.038 387.764C500.697 388.52 508.004 387.209 510.53 390.239C506.272 393.858 495.411 392.215 490.307 391.051C483.216 389.436 476.511 386.004 471.206 381.001C463.366 373.608 458.75 363.468 454.984 353.368C450.582 341.565 446.975 329.05 439.06 319.006C431.7 309.662 421.347 302.686 409.885 299.493L409.888 299.49Z" fill="white"></path><path d="M263.053 142.669C266.243 154.456 267.456 166.714 267.631 178.928C268.076 209.795 261.427 241.761 242.836 266.393C220.708 295.71 184.724 311.161 148.953 314.803C142.818 315.427 136.651 315.735 130.485 315.757C124.55 315.778 118.471 314.439 112.605 314.618C140.248 313.774 169.095 310.267 194.494 298.675C215.472 289.102 232.299 275.078 244.406 255.336C250.241 245.819 254.772 235.513 257.943 224.814C265.945 197.798 265.215 170.252 263.006 142.496C263.022 142.553 263.037 142.612 263.053 142.669Z" fill="#002345"></path><path d="M252.788 205.611C250.733 208.71 249.448 212.248 247.703 215.532C244.892 220.818 240.897 225.41 236.378 229.33C230.817 234.154 224.334 238.053 217.208 239.898C208.892 242.049 201.551 240.437 193.636 237.78C182.681 234.104 172.335 228.847 161.377 225.181C152.108 222.079 137.441 217.926 127.846 221.558C136.329 218.349 145.447 218.111 154.355 219.296C162.853 220.429 170.229 222.467 178 226.169C185.764 229.867 193.485 234.176 202.118 235.425C208.902 236.407 215.961 235.368 222.175 232.47C234.464 226.74 243.143 214.764 252.791 205.611H252.788Z" fill="#002345"></path><path d="M251.619 303.533C251.296 303.822 251.005 303.806 250.591 303.919C236.472 307.746 224.12 317.933 216.957 330.621C211.869 339.632 209.312 349.805 205.95 359.591C199.946 377.049 189.167 391.816 170.758 397.243C162.966 399.539 152.995 402.217 145.628 397.497C156.711 396.302 168.227 394.821 177.561 388.72C189.274 381.067 195.534 367.504 200.579 354.444C205.26 342.317 209.65 329.718 218.48 319.891C226.364 311.114 238.879 300.638 251.622 303.533H251.619Z" fill="#002345"></path><path d="M134.872 62.7072C133.872 62.7072 132.879 62.4656 131.964 61.9889C130.469 61.211 129.366 59.8936 128.859 58.2845C128.351 56.6755 128.501 54.9629 129.278 53.4667C130.055 51.9705 131.372 50.8664 132.979 50.3583C134.586 49.8502 136.297 50.0007 137.792 50.7786C139.287 51.5565 140.389 52.8739 140.897 54.483C141.405 56.092 141.254 57.8046 140.477 59.3008C139.7 60.797 138.384 61.901 136.777 62.4092C136.15 62.6068 135.511 62.704 134.872 62.704V62.7072ZM134.884 51.4499C134.386 51.4499 133.884 51.5251 133.396 51.682C132.139 52.0772 131.115 52.9397 130.507 54.1097C129.899 55.2797 129.783 56.6127 130.178 57.8705C130.572 59.1283 131.434 60.154 132.6 60.7625C133.769 61.371 135.103 61.487 136.357 61.0918C137.613 60.6966 138.638 59.834 139.246 58.6641C139.854 57.4941 139.97 56.161 139.575 54.9033C139.18 53.6455 138.318 52.6198 137.153 52.0113C136.438 51.6412 135.664 51.453 134.884 51.453V51.4499Z" fill="#1DBFCC"></path><path d="M29.3506 427.812C26.6684 427.812 24.1742 426.087 23.3251 423.392C22.8174 421.783 22.9678 420.071 23.7449 418.575C24.522 417.078 25.838 415.974 27.4455 415.466C29.0529 414.958 30.7638 415.109 32.2584 415.887C33.7531 416.664 34.856 417.982 35.3636 419.591C36.4102 422.913 34.5615 426.469 31.2432 427.517C30.6134 427.715 29.9773 427.809 29.3506 427.809V427.812ZM29.3506 416.558C28.8524 416.558 28.351 416.633 27.8622 416.79C26.6057 417.185 25.5811 418.048 24.9732 419.218C24.3653 420.388 24.2494 421.721 24.6442 422.978C25.462 425.572 28.2351 427.018 30.8264 426.2C33.4178 425.381 34.8623 422.605 34.0445 420.011C33.6496 418.753 32.788 417.728 31.6192 417.119C30.9048 416.749 30.1308 416.561 29.3506 416.561V416.558Z" fill="#1DBFCC"></path><path d="M246.913 535.997C245.923 535.997 244.939 535.991 243.952 535.978C243.569 535.972 243.262 535.658 243.269 535.276C243.275 534.896 243.582 534.592 243.961 534.592H243.971C250.159 534.673 256.423 534.495 262.589 534.059C262.965 534.037 263.304 534.319 263.329 534.702C263.357 535.084 263.069 535.417 262.686 535.442C257.463 535.812 252.168 536 246.913 536V535.997Z" fill="#FFC567"></path><path d="M274.456 534.134C274.095 534.134 273.791 533.855 273.766 533.491C273.738 533.108 274.026 532.776 274.409 532.751C296.44 531.189 318.16 526.324 338.963 518.291C351.97 513.269 364.526 507.034 376.282 499.757C376.608 499.556 377.034 499.656 377.235 499.982C377.435 500.309 377.335 500.735 377.009 500.936C365.18 508.26 352.55 514.533 339.461 519.586C318.527 527.666 296.675 532.562 274.506 534.134C274.49 534.134 274.471 534.134 274.456 534.134Z" fill="#FFC567"></path><path d="M255.664 550.463C252.428 550.453 249.141 550.375 245.894 550.234C245.512 550.218 245.214 549.892 245.233 549.509C245.249 549.127 245.587 548.835 245.957 548.848C249.184 548.989 252.453 549.067 255.668 549.077C256.05 549.077 256.36 549.39 256.357 549.773C256.357 550.156 256.047 550.463 255.664 550.463Z" fill="#FFC567"></path><path d="M256.341 550.463C256.112 550.463 255.887 550.463 255.658 550.463C255.276 550.463 254.966 550.149 254.969 549.767C254.969 549.384 255.276 549.064 255.664 549.077C284.849 549.161 313.457 543.851 340.79 533.303C356.416 527.271 371.381 519.583 385.275 510.456C385.594 510.245 386.024 510.333 386.234 510.653C386.444 510.973 386.356 511.403 386.036 511.613C372.061 520.797 357.005 528.529 341.288 534.595C314.005 545.125 285.429 550.463 256.341 550.463Z" fill="#FFC567"></path><path d="M391.109 496.403C389.261 496.403 387.459 495.45 386.459 493.74C385.732 492.498 385.535 491.049 385.898 489.66C386.262 488.27 387.146 487.103 388.383 486.376C390.94 484.876 394.243 485.739 395.74 488.302C396.467 489.544 396.665 490.993 396.301 492.382C395.938 493.772 395.054 494.939 393.817 495.666C392.964 496.165 392.031 496.403 391.109 496.403ZM391.094 487.028C390.407 487.028 389.715 487.204 389.085 487.574C388.164 488.113 387.509 488.979 387.24 490.011C386.97 491.043 387.117 492.119 387.656 493.041C388.769 494.942 391.219 495.582 393.118 494.471C394.039 493.932 394.694 493.066 394.963 492.034C395.233 491.002 395.086 489.926 394.547 489.004C393.804 487.737 392.466 487.028 391.097 487.028H391.094Z" fill="#FFC567"></path><path d="M235.457 557.329C235.31 557.329 235.166 557.282 235.044 557.191L224.183 549.086C223.983 548.935 223.879 548.691 223.911 548.44C223.942 548.192 224.105 547.979 224.337 547.885L236.335 543.032C236.557 542.941 236.811 542.976 237.005 543.117C237.199 543.261 237.303 543.493 237.284 543.735L236.143 556.692C236.121 556.943 235.965 557.16 235.736 557.263C235.645 557.304 235.548 557.323 235.454 557.323L235.457 557.329ZM225.997 548.713L234.874 555.337L235.805 544.745L225.997 548.713Z" fill="#FFC567"></path><path d="M92.8055 84.1492C92.7522 84.1492 92.6989 84.1429 92.6457 84.1304C92.2728 84.0425 92.0409 83.6693 92.1287 83.296L93.3507 78.061C93.4384 77.6878 93.8113 77.4557 94.1842 77.5435C94.5571 77.6313 94.7889 78.0046 94.7012 78.3778L93.4792 83.6128C93.404 83.9328 93.1188 84.1492 92.8055 84.1492Z" fill="#1DBFCC"></path><path d="M89.9571 96.3442C89.9038 96.3442 89.8506 96.338 89.7973 96.3254C89.4244 96.2376 89.1925 95.8643 89.2803 95.4911L90.5023 90.2561C90.59 89.8828 90.9629 89.6507 91.3358 89.7385C91.7087 89.8264 91.9405 90.1996 91.8528 90.5729L90.6308 95.8079C90.5556 96.1278 90.2704 96.3442 89.9571 96.3442Z" fill="#1DBFCC"></path><path d="M88.5158 86.8152C88.4626 86.8152 88.4093 86.8089 88.3561 86.7964L83.1264 85.5731C82.7535 85.4853 82.5216 85.112 82.6094 84.7387C82.6971 84.3655 83.07 84.1334 83.4429 84.2212L88.6725 85.4445C89.0454 85.5323 89.2773 85.9056 89.1895 86.2788C89.1143 86.5988 88.8292 86.8152 88.5158 86.8152Z" fill="#1DBFCC"></path><path d="M100.702 89.6665C100.648 89.6665 100.595 89.6602 100.542 89.6477L95.3122 88.4244C94.9393 88.3366 94.7074 87.9633 94.7952 87.5901C94.8829 87.2168 95.2558 86.9847 95.6287 87.0725L100.858 88.2958C101.231 88.3836 101.463 88.7569 101.375 89.1301C101.3 89.4501 101.015 89.6665 100.702 89.6665Z" fill="#1DBFCC"></path><path d="M364.992 385.207C364.61 385.207 364.3 384.897 364.3 384.514V379.138C364.3 378.755 364.61 378.445 364.992 378.445C365.375 378.445 365.685 378.755 365.685 379.138V384.514C365.685 384.897 365.375 385.207 364.992 385.207Z" fill="#1DBFCC"></path><path d="M364.992 397.735C364.61 397.735 364.3 397.425 364.3 397.042V391.666C364.3 391.283 364.61 390.973 364.992 390.973C365.375 390.973 365.685 391.283 365.685 391.666V397.042C365.685 397.425 365.375 397.735 364.992 397.735Z" fill="#1DBFCC"></path><path d="M361.423 388.783H356.053C355.671 388.783 355.36 388.473 355.36 388.09C355.36 387.707 355.671 387.397 356.053 387.397H361.423C361.806 387.397 362.116 387.707 362.116 388.09C362.116 388.473 361.806 388.783 361.423 388.783Z" fill="#1DBFCC"></path><path d="M373.935 388.783H368.565C368.182 388.783 367.872 388.473 367.872 388.09C367.872 387.707 368.182 387.397 368.565 387.397H373.935C374.317 387.397 374.628 387.707 374.628 388.09C374.628 388.473 374.317 388.783 373.935 388.783Z" fill="#1DBFCC"></path><path d="M178.573 40.6004C178.313 40.6004 178.062 40.453 177.946 40.2021C177.783 39.8539 177.934 39.443 178.279 39.2799C212.737 23.0981 244.09 19.9019 259.713 19.4345C260.12 19.4251 260.415 19.7231 260.427 20.1058C260.44 20.4884 260.139 20.8084 259.757 20.8209C244.24 21.2851 213.1 24.4594 178.871 40.5345C178.777 40.5784 178.676 40.6004 178.576 40.6004H178.573Z" fill="#1DBFCC"></path><path d="M195.356 23.0856C195.096 23.0856 194.845 22.9381 194.729 22.6872C194.566 22.339 194.717 21.9281 195.061 21.765C195.409 21.6019 230.306 5.46093 272.25 9.28446C272.632 9.31896 272.911 9.65771 272.876 10.0372C272.842 10.4199 272.507 10.6959 272.124 10.6646C230.55 6.8724 195.995 22.8566 195.65 23.0197C195.556 23.0636 195.456 23.0856 195.356 23.0856Z" fill="#1DBFCC"></path><path d="M530.352 93.9762C530.22 93.9762 530.086 93.9385 529.966 93.8601C529.65 93.6468 529.562 93.2171 529.775 92.8972L532.749 88.4526C532.962 88.1358 533.391 88.048 533.711 88.2613C534.027 88.4746 534.115 88.9043 533.902 89.2242L530.928 93.6688C530.794 93.8695 530.574 93.9762 530.352 93.9762Z" fill="#1DBFCC"></path><path d="M523.421 104.33C523.289 104.33 523.155 104.292 523.036 104.214C522.719 104.001 522.631 103.571 522.844 103.251L525.818 98.8064C526.031 98.4865 526.46 98.4018 526.78 98.6151C527.096 98.8284 527.184 99.2581 526.971 99.5781L523.998 104.023C523.863 104.223 523.643 104.33 523.421 104.33Z" fill="#1DBFCC"></path><path d="M525.423 94.9517C525.292 94.9517 525.157 94.914 525.038 94.8356L520.598 91.859C520.281 91.6457 520.194 91.216 520.407 90.896C520.62 90.5761 521.049 90.4914 521.369 90.7047L525.809 93.6814C526.125 93.8947 526.213 94.3244 526 94.6443C525.865 94.845 525.646 94.9517 525.423 94.9517Z" fill="#1DBFCC"></path><path d="M535.767 101.887C535.635 101.887 535.5 101.849 535.381 101.771L530.941 98.794C530.625 98.5808 530.537 98.151 530.75 97.8311C530.963 97.5112 531.392 97.4265 531.712 97.6398L536.152 100.616C536.468 100.83 536.556 101.259 536.343 101.579C536.208 101.78 535.989 101.887 535.767 101.887Z" fill="#1DBFCC"></path><path d="M54.6969 202.033C54.6655 202.033 54.6342 202.033 54.6029 202.026C54.2237 201.976 53.9574 201.628 54.0075 201.248C54.3741 198.513 54.8441 195.74 55.4019 193.005C55.4771 192.632 55.8437 192.387 56.2197 192.466C56.5957 192.541 56.837 192.908 56.7587 193.284C56.2072 195.988 55.7434 198.73 55.38 201.433C55.333 201.782 55.0353 202.036 54.6937 202.036L54.6969 202.033ZM58.0152 185.76C57.9556 185.76 57.893 185.75 57.8303 185.735C57.4605 185.634 57.2443 185.252 57.3446 184.882C58.0716 182.228 58.8988 179.543 59.8043 176.905C59.9297 176.544 60.3214 176.35 60.6848 176.475C61.0452 176.601 61.2394 176.993 61.1141 177.357C60.2179 179.966 59.4001 182.623 58.6794 185.248C58.5948 185.556 58.316 185.76 58.012 185.76H58.0152ZM63.3921 170.058C63.3044 170.058 63.2135 170.042 63.1289 170.005C62.7748 169.857 62.6056 169.453 62.7529 169.098C63.7994 166.557 64.9431 163.995 66.1495 161.482C66.3156 161.137 66.7292 160.993 67.0739 161.159C67.4185 161.326 67.5627 161.74 67.3966 162.085C66.1996 164.572 65.0685 167.113 64.0313 169.628C63.9216 169.895 63.6616 170.058 63.3921 170.058ZM70.5801 155.084C70.4673 155.084 70.3514 155.055 70.248 154.999C69.9127 154.814 69.7905 154.394 69.9754 154.058C71.3008 151.649 72.7203 149.221 74.1961 146.847C74.3966 146.521 74.8228 146.42 75.1487 146.624C75.4745 146.825 75.5717 147.255 75.3711 147.578C73.911 149.93 72.5041 152.336 71.188 154.726C71.0627 154.955 70.8246 155.084 70.5801 155.084ZM79.3349 140.966C79.2002 140.966 79.0623 140.925 78.9401 140.843C78.6267 140.624 78.5484 140.194 78.7646 139.877C80.3313 137.616 81.9826 135.351 83.6778 133.143C83.9097 132.839 84.3452 132.782 84.6492 133.014C84.9531 133.247 85.0095 133.683 84.7776 133.987C83.0981 136.176 81.4562 138.425 79.9052 140.668C79.7704 140.862 79.5542 140.966 79.3349 140.966ZM89.437 127.789C89.2804 127.789 89.1205 127.736 88.9889 127.626C88.6975 127.378 88.6599 126.942 88.9075 126.647C90.6841 124.543 92.5422 122.441 94.4317 120.402C94.6918 120.12 95.1304 120.104 95.4093 120.365C95.6913 120.625 95.707 121.064 95.4469 121.343C93.5731 123.366 91.7307 125.452 89.9666 127.541C89.8287 127.704 89.6344 127.786 89.437 127.786V127.789ZM100.717 115.594C100.539 115.594 100.36 115.525 100.225 115.387C99.9559 115.114 99.959 114.675 100.232 114.405C102.196 112.463 104.233 110.534 106.289 108.668C106.574 108.411 107.009 108.433 107.266 108.715C107.523 109.001 107.501 109.437 107.219 109.694C105.176 111.544 103.152 113.461 101.203 115.387C101.068 115.522 100.893 115.587 100.717 115.587V115.594ZM113.035 104.427C112.837 104.427 112.637 104.343 112.502 104.176C112.258 103.882 112.298 103.446 112.593 103.201C114.721 101.432 116.92 99.6849 119.126 98.0036C119.43 97.7715 119.866 97.8311 120.097 98.1354C120.329 98.4396 120.27 98.8756 119.966 99.1077C117.776 100.776 115.592 102.514 113.48 104.267C113.351 104.374 113.195 104.427 113.038 104.427H113.035ZM126.273 94.3495C126.054 94.3495 125.838 94.246 125.703 94.0515C125.484 93.7378 125.562 93.305 125.875 93.0854C128.153 91.4983 130.494 89.9425 132.832 88.4589C133.154 88.255 133.584 88.3491 133.787 88.6722C133.991 88.9953 133.897 89.425 133.574 89.6289C131.252 91.1031 128.927 92.6463 126.668 94.2209C126.549 94.3056 126.411 94.3463 126.273 94.3463V94.3495ZM140.333 85.4289C140.092 85.4289 139.86 85.3035 139.731 85.0808C139.54 84.7483 139.656 84.3249 139.988 84.1335C142.401 82.744 144.87 81.3953 147.324 80.1218C147.665 79.9462 148.082 80.0779 148.257 80.4198C148.433 80.7585 148.301 81.1788 147.96 81.3545C145.522 82.6185 143.072 83.9579 140.678 85.3349C140.568 85.3976 140.449 85.4258 140.333 85.4258V85.4289ZM282.577 82.4272C282.436 82.4272 282.295 82.3833 282.17 82.2955L281.465 81.7873C281.155 81.5646 281.083 81.1318 281.305 80.8213C281.528 80.5076 281.96 80.4386 282.27 80.6613C282.509 80.8307 282.747 81.0032 282.982 81.1757C283.292 81.4015 283.361 81.8344 283.135 82.1449C283 82.3331 282.787 82.4303 282.574 82.4303L282.577 82.4272ZM155.11 77.7725C154.85 77.7725 154.599 77.6219 154.48 77.371C154.321 77.0228 154.471 76.6119 154.819 76.452C157.344 75.2852 159.917 74.1622 162.474 73.1209C162.828 72.9766 163.232 73.146 163.376 73.5004C163.52 73.8549 163.351 74.2595 162.997 74.4038C160.462 75.4357 157.908 76.5492 155.402 77.7066C155.308 77.7505 155.207 77.7725 155.11 77.7725ZM274.916 77.3647C274.794 77.3647 274.675 77.3334 274.562 77.2675C272.209 75.8623 269.768 74.5386 267.308 73.3342C266.964 73.1648 266.823 72.7508 266.992 72.4057C267.161 72.0607 267.578 71.9196 267.919 72.0889C270.414 73.3091 272.889 74.6516 275.273 76.0787C275.602 76.2763 275.709 76.6998 275.515 77.0291C275.386 77.2455 275.154 77.3679 274.919 77.3679L274.916 77.3647ZM170.505 71.5024C170.22 71.5024 169.953 71.3236 169.853 71.0382C169.724 70.6775 169.916 70.2823 170.276 70.1537C172.908 69.2252 175.578 68.3564 178.213 67.5691C178.579 67.4593 178.965 67.6695 179.075 68.0364C179.184 68.4034 178.974 68.7892 178.608 68.899C175.994 69.6769 173.347 70.5395 170.737 71.4616C170.661 71.4899 170.583 71.5024 170.505 71.5024ZM260.004 70.0596C259.92 70.0596 259.835 70.0439 259.754 70.0125C257.212 69.0182 254.587 68.1117 251.951 67.3182C251.585 67.2084 251.378 66.8226 251.488 66.4556C251.597 66.0886 251.986 65.8816 252.349 65.9914C255.019 66.7943 257.679 67.7134 260.258 68.7234C260.615 68.8614 260.791 69.266 260.65 69.6204C260.543 69.8933 260.28 70.0627 260.004 70.0627V70.0596ZM186.435 66.7598C186.122 66.7598 185.84 66.5465 185.761 66.2297C185.67 65.8565 185.899 65.4832 186.272 65.3923C188.989 64.7336 191.737 64.147 194.438 63.6483C194.811 63.5793 195.174 63.8271 195.246 64.2035C195.315 64.5799 195.067 64.9406 194.691 65.0127C192.016 65.5083 189.293 66.0886 186.601 66.741C186.548 66.7536 186.491 66.7598 186.438 66.7598H186.435ZM244.105 65.2637C244.055 65.2637 244.008 65.2574 243.958 65.248C241.298 64.6709 238.562 64.1815 235.827 63.7989C235.448 63.7456 235.185 63.3943 235.238 63.0147C235.291 62.6352 235.639 62.3686 236.021 62.425C238.791 62.8108 241.561 63.3064 244.253 63.893C244.626 63.9745 244.864 64.3446 244.782 64.7179C244.713 65.0441 244.425 65.2637 244.105 65.2637ZM202.773 63.7424C202.428 63.7424 202.13 63.4852 202.086 63.137C202.039 62.7575 202.309 62.4094 202.688 62.3623C205.464 62.011 208.259 61.7444 211.001 61.5656C211.393 61.5374 211.712 61.8322 211.737 62.2117C211.762 62.5944 211.471 62.9238 211.092 62.9489C208.378 63.1245 205.611 63.3911 202.863 63.7361C202.835 63.7393 202.804 63.7424 202.776 63.7424H202.773ZM227.658 62.952C227.658 62.952 227.627 62.952 227.611 62.952C224.92 62.7701 222.162 62.6791 219.414 62.6791C219.032 62.6791 218.69 62.3686 218.69 61.9859C218.69 61.6032 218.969 61.2927 219.351 61.2927H219.414C222.193 61.2927 224.982 61.3868 227.705 61.5687C228.087 61.5938 228.376 61.9263 228.351 62.3058C228.326 62.6728 228.022 62.952 227.661 62.952H227.658Z" fill="#1DBFCC"></path><path d="M71.8774 395.141C71.6173 395.141 71.3666 394.994 71.2475 394.74C70.1007 392.259 68.979 389.683 67.9167 387.083C67.7726 386.729 67.9418 386.324 68.2959 386.18C68.6499 386.035 69.0542 386.205 69.1983 386.559C70.2542 389.138 71.3666 391.694 72.504 394.156C72.6638 394.504 72.5134 394.915 72.1656 395.075C72.0716 395.119 71.9714 395.141 71.8742 395.141H71.8774ZM65.5729 379.75C65.2909 379.75 65.0246 379.574 64.9212 379.292C63.9937 376.723 63.0944 374.063 62.2421 371.388C62.1262 371.024 62.3267 370.632 62.6933 370.516C63.0599 370.403 63.4485 370.6 63.5644 370.967C64.4104 373.624 65.3035 376.268 66.2247 378.821C66.3532 379.182 66.1683 379.58 65.8079 379.709C65.7296 379.737 65.6513 379.75 65.5729 379.75ZM60.5281 363.9C60.2242 363.9 59.9485 363.7 59.8607 363.392C59.1275 360.761 58.4162 358.048 57.7519 355.322C57.6611 354.949 57.8898 354.575 58.2595 354.484C58.6324 354.393 59.0053 354.622 59.0962 354.992C59.7573 357.703 60.4655 360.403 61.1956 363.019C61.299 363.389 61.0828 363.772 60.7161 363.872C60.6535 363.891 60.5908 363.897 60.5281 363.897V363.9ZM56.5706 347.741C56.251 347.741 55.9628 347.518 55.8938 347.192C55.3267 344.522 54.7783 341.772 54.2707 339.011C54.2018 338.635 54.4493 338.274 54.8253 338.202C55.2013 338.133 55.5617 338.381 55.6337 338.757C56.1414 341.502 56.6834 344.243 57.2506 346.9C57.3289 347.273 57.0908 347.643 56.7179 347.722C56.6678 347.731 56.6208 347.737 56.5738 347.737L56.5706 347.741ZM53.5469 331.38C53.2116 331.38 52.9171 331.135 52.8638 330.797C52.4377 328.115 52.0303 325.339 51.6543 322.55C51.6042 322.171 51.8705 321.823 52.2497 321.769C52.6257 321.719 52.9766 321.983 53.0299 322.362C53.4059 325.141 53.8101 327.905 54.2331 330.577C54.2926 330.957 54.0357 331.311 53.6566 331.371C53.619 331.377 53.5845 331.38 53.5469 331.38ZM51.3159 314.891C50.9681 314.891 50.6704 314.631 50.6297 314.276C50.3226 311.56 50.0343 308.771 49.7743 305.986C49.7398 305.603 50.0187 305.268 50.401 305.23C50.7801 305.196 51.1185 305.475 51.1561 305.857C51.4162 308.633 51.7013 311.412 52.0084 314.119C52.0523 314.499 51.7797 314.844 51.3974 314.888C51.3692 314.888 51.3441 314.891 51.319 314.891H51.3159ZM49.768 298.323C49.4077 298.323 49.1069 298.047 49.0787 297.68C48.9846 296.444 48.8969 295.196 48.8123 293.941C48.7872 293.559 49.0755 293.229 49.4578 293.204C49.8307 293.167 50.1691 293.468 50.1941 293.85C50.2787 295.102 50.3665 296.344 50.4605 297.577C50.4887 297.959 50.2035 298.292 49.8213 298.32C49.8025 298.32 49.7868 298.32 49.768 298.32V298.323Z" fill="#1DBFCC"></path><path d="M234.389 494.318C234.013 494.318 233.703 494.013 233.696 493.634C233.69 493.251 233.997 492.938 234.379 492.931C237.118 492.891 239.907 492.79 242.667 492.633C243.049 492.614 243.375 492.903 243.397 493.286C243.419 493.668 243.128 493.995 242.746 494.017C239.966 494.173 237.159 494.274 234.401 494.315H234.392L234.389 494.318ZM226.079 494.271C226.079 494.271 226.066 494.271 226.06 494.271C223.284 494.195 220.48 494.06 217.728 493.869C217.346 493.841 217.058 493.512 217.086 493.129C217.111 492.746 217.437 492.461 217.826 492.486C220.558 492.677 223.34 492.812 226.098 492.884C226.48 492.894 226.781 493.214 226.771 493.596C226.762 493.973 226.455 494.271 226.079 494.271ZM251.002 493.386C250.648 493.386 250.347 493.116 250.313 492.759C250.275 492.376 250.554 492.04 250.936 492.003C253.662 491.739 256.435 491.419 259.177 491.049C259.559 490.999 259.904 491.263 259.957 491.642C260.008 492.022 259.744 492.37 259.365 492.423C256.605 492.796 253.816 493.119 251.071 493.386C251.049 493.386 251.027 493.386 251.005 493.386H251.002ZM209.5 493.107C209.475 493.107 209.447 493.107 209.422 493.104C206.661 492.787 203.882 492.404 201.156 491.965C200.777 491.906 200.523 491.548 200.582 491.172C200.642 490.795 200.996 490.535 201.375 490.598C204.079 491.034 206.837 491.413 209.578 491.73C209.958 491.774 210.23 492.119 210.186 492.498C210.146 492.853 209.845 493.113 209.5 493.113V493.107ZM267.484 491.156C267.152 491.156 266.86 490.918 266.801 490.582C266.735 490.206 266.989 489.845 267.365 489.779C270.063 489.308 272.801 488.782 275.502 488.208C275.878 488.126 276.245 488.368 276.323 488.741C276.402 489.114 276.163 489.484 275.791 489.563C273.074 490.14 270.32 490.67 267.606 491.143C267.565 491.15 267.525 491.153 267.487 491.153L267.484 491.156ZM193.093 490.453C193.046 490.453 193 490.447 192.949 490.438C192.376 490.318 191.806 490.193 191.235 490.068C190.863 489.986 190.624 489.616 190.709 489.243C190.79 488.869 191.163 488.631 191.533 488.716C192.1 488.841 192.667 488.963 193.235 489.083C193.607 489.161 193.849 489.528 193.77 489.904C193.701 490.231 193.413 490.457 193.093 490.457V490.453ZM283.743 487.709C283.433 487.709 283.151 487.499 283.073 487.182C282.979 486.812 283.204 486.435 283.577 486.341C286.234 485.676 288.926 484.955 291.58 484.19C291.95 484.083 292.332 484.296 292.435 484.666C292.542 485.033 292.329 485.419 291.962 485.526C289.292 486.294 286.582 487.022 283.912 487.69C283.856 487.706 283.8 487.712 283.743 487.712V487.709ZM299.72 483.12C299.429 483.12 299.156 482.935 299.062 482.64C298.943 482.276 299.144 481.884 299.507 481.768C302.111 480.921 304.75 480.015 307.347 479.074C307.707 478.945 308.102 479.13 308.234 479.491C308.365 479.852 308.177 480.247 307.817 480.379C305.207 481.326 302.553 482.235 299.933 483.089C299.861 483.111 299.789 483.123 299.72 483.123V483.12ZM315.35 477.455C315.074 477.455 314.814 477.289 314.707 477.019C314.566 476.665 314.739 476.26 315.093 476.119C317.637 475.1 320.21 474.021 322.738 472.913C323.089 472.76 323.497 472.92 323.65 473.271C323.804 473.622 323.644 474.03 323.293 474.184C320.749 475.3 318.164 476.383 315.607 477.408C315.522 477.443 315.434 477.458 315.35 477.458V477.455ZM330.575 470.781C330.315 470.781 330.067 470.636 329.948 470.385C329.785 470.04 329.93 469.626 330.274 469.46C332.753 468.277 335.25 467.035 337.7 465.771C338.039 465.596 338.459 465.731 338.634 466.069C338.81 466.411 338.675 466.828 338.337 467.004C335.874 468.274 333.364 469.523 330.87 470.712C330.772 470.759 330.672 470.777 330.572 470.777L330.575 470.781ZM345.349 463.155C345.105 463.155 344.87 463.027 344.744 462.798C344.56 462.462 344.679 462.042 345.014 461.854C347.414 460.518 349.836 459.122 352.211 457.704C352.54 457.506 352.963 457.616 353.161 457.946C353.355 458.275 353.248 458.698 352.919 458.896C350.532 460.32 348.1 461.725 345.688 463.068C345.581 463.127 345.465 463.155 345.352 463.155H345.349ZM359.647 454.618C359.418 454.618 359.196 454.505 359.061 454.298C358.854 453.975 358.948 453.545 359.271 453.341C361.593 451.857 363.924 450.317 366.202 448.762C366.518 448.545 366.951 448.627 367.164 448.943C367.38 449.26 367.299 449.69 366.982 449.906C364.692 451.468 362.348 453.018 360.017 454.508C359.901 454.583 359.772 454.618 359.644 454.618H359.647ZM373.406 445.23C373.193 445.23 372.98 445.129 372.845 444.944C372.619 444.634 372.688 444.201 372.998 443.975C375.223 442.357 377.46 440.678 379.644 438.991C379.948 438.756 380.381 438.812 380.616 439.116C380.851 439.421 380.794 439.854 380.49 440.089C378.294 441.786 376.047 443.473 373.81 445.098C373.688 445.186 373.544 445.23 373.403 445.23H373.406ZM386.582 435.042C386.381 435.042 386.184 434.954 386.046 434.788C385.801 434.493 385.845 434.054 386.143 433.812C388.271 432.065 390.404 430.259 392.488 428.446C392.776 428.195 393.215 428.226 393.466 428.515C393.716 428.803 393.685 429.242 393.397 429.493C391.307 431.316 389.161 433.132 387.024 434.885C386.895 434.992 386.738 435.042 386.585 435.042H386.582ZM399.14 424.098C398.952 424.098 398.768 424.023 398.63 423.876C398.37 423.593 398.388 423.154 398.67 422.897C400.698 421.021 402.725 419.095 404.693 417.17C404.965 416.903 405.404 416.906 405.674 417.179C405.94 417.452 405.937 417.891 405.664 418.161C403.687 420.096 401.65 422.031 399.614 423.916C399.479 424.039 399.313 424.101 399.144 424.101L399.14 424.098Z" fill="#1DBFCC"></path><path d="M143.444 531.43C143.444 531.43 141.48 545.397 145.998 551.3L147.364 553.8L124.559 551.112L125.825 548.675C128.078 544.34 129.209 539.626 129.128 534.912L143.444 531.427V531.43Z" fill="white"></path><path d="M147.364 554.494C147.336 554.494 147.311 554.494 147.283 554.487L124.478 551.799C124.252 551.771 124.052 551.636 123.945 551.435C123.839 551.235 123.839 550.993 123.945 550.792L125.211 548.355C127.401 544.143 128.514 539.501 128.435 534.924C128.429 534.601 128.648 534.316 128.965 534.237L143.281 530.753C143.504 530.699 143.739 530.759 143.911 530.913C144.08 531.066 144.165 531.295 144.131 531.524C144.112 531.662 142.26 545.275 146.55 550.877C146.572 550.905 146.59 550.934 146.609 550.965L147.975 553.465C148.101 553.694 148.088 553.97 147.941 554.186C147.812 554.377 147.596 554.49 147.367 554.49L147.364 554.494ZM125.637 550.541L146.111 552.953L145.415 551.68C141.477 546.473 142.272 535.702 142.636 532.34L129.823 535.457C129.811 540.081 128.645 544.751 126.439 548.995L125.637 550.541Z" fill="#1DBFCC"></path><path d="M146.424 543.572L148.699 546.238C153.205 551.52 158.924 555.623 165.366 558.201L170.317 560.18C170.787 560.368 171.135 560.779 171.244 561.275L171.301 561.526C171.918 564.33 168.578 570.625 158.363 572.586C152.043 573.799 137.313 574.345 119.703 567.172C118.59 566.717 117.898 565.597 118.004 564.399C118.387 560.033 119.703 549.626 123.76 544.547C124.212 543.983 125.042 543.914 125.559 544.422L130.519 549.299C132.744 551.489 136.322 551.448 138.5 549.211L144.059 543.497C144.717 542.819 145.813 542.857 146.424 543.575V543.572Z" fill="white"></path><path d="M149.429 574C142.338 574 131.788 572.843 119.439 567.812C118.036 567.241 117.18 565.842 117.312 564.336C117.691 560.001 119.029 549.353 123.215 544.111C123.557 543.682 124.064 543.418 124.606 543.387C125.139 543.352 125.659 543.55 126.042 543.923L131.002 548.801C131.945 549.729 133.195 550.237 134.517 550.218C135.84 550.203 137.077 549.673 138.002 548.725L143.56 543.01C144.009 542.549 144.645 542.289 145.281 542.317C145.923 542.339 146.534 542.631 146.951 543.12L149.226 545.786C153.641 550.962 159.312 555.03 165.623 557.555L170.574 559.534C171.26 559.807 171.761 560.403 171.921 561.124L171.977 561.378C172.281 562.749 171.805 564.521 170.68 566.234C169.361 568.241 166.024 571.823 158.494 573.266C157.332 573.489 154.145 574 149.432 574H149.429ZM124.719 544.77C124.719 544.77 124.697 544.77 124.688 544.77C124.534 544.78 124.397 544.852 124.296 544.977C120.345 549.924 119.06 560.249 118.691 564.459C118.612 565.356 119.123 566.187 119.96 566.529C140.158 574.759 155.383 572.451 158.228 571.905C165.256 570.556 168.318 567.294 169.518 565.472C170.589 563.844 170.79 562.442 170.621 561.676L170.564 561.422C170.505 561.149 170.314 560.927 170.057 560.823L165.106 558.844C158.585 556.238 152.729 552.035 148.17 546.69L145.895 544.024C145.726 543.826 145.491 543.713 145.234 543.704C144.977 543.691 144.732 543.791 144.551 543.98L138.992 549.695C137.811 550.908 136.225 551.589 134.53 551.608C132.832 551.63 131.237 550.981 130.027 549.792L125.067 544.914C124.973 544.82 124.848 544.77 124.719 544.77Z" fill="#1DBFCC"></path><path d="M144.541 564.854H144.522C136.955 564.788 129.617 563.182 122.714 560.074L118.844 558.333C118.496 558.176 118.34 557.765 118.496 557.417C118.653 557.069 119.064 556.912 119.411 557.069L123.281 558.809C130.009 561.836 137.159 563.405 144.532 563.467C144.808 563.461 145.052 563.345 145.212 563.125C145.372 562.906 145.416 562.633 145.331 562.373L144.682 560.378C144.432 559.606 144.651 558.794 145.256 558.254C145.86 557.715 146.694 557.593 147.43 557.934L149.364 558.831C154.916 561.407 161.368 561.592 167.058 559.343L168.173 558.904C168.531 558.762 168.932 558.938 169.073 559.296C169.214 559.653 169.038 560.055 168.681 560.196L167.566 560.635C161.524 563.022 154.675 562.824 148.781 560.092L146.847 559.195C146.506 559.035 146.246 559.23 146.177 559.296C146.105 559.358 145.882 559.594 145.998 559.951L146.647 561.946C146.873 562.633 146.753 563.364 146.327 563.947C145.904 564.524 145.253 564.857 144.538 564.857L144.541 564.854Z" fill="#1DBFCC"></path><path d="M42.8964 504.182C42.8964 504.182 33.2956 514.853 33.2549 522.422L32.8256 525.314L16.2969 507.388L18.8945 506.588C23.1058 504.217 27.4456 502.965 30.1246 498.941L42.8964 504.182Z" fill="white"></path><path d="M32.8256 526.01C32.6345 526.01 32.4496 525.932 32.318 525.787L15.7892 507.862C15.6294 507.686 15.5668 507.441 15.6294 507.209C15.6921 506.98 15.8676 506.798 16.0963 506.726L18.6218 505.951C19.659 505.368 20.7056 504.854 21.7176 504.355C24.7633 502.852 27.6367 501.435 29.548 498.562C29.7329 498.286 30.0807 498.179 30.3878 498.304L43.1596 503.546C43.3664 503.63 43.5231 503.812 43.5732 504.032C43.6233 504.251 43.5638 504.483 43.4134 504.65C43.3194 504.753 33.9881 515.214 33.9505 522.428C33.9505 522.459 33.9505 522.494 33.9442 522.525L33.5149 525.417C33.4742 525.681 33.2893 525.9 33.0324 525.979C32.9666 526.001 32.8977 526.01 32.8287 526.01H32.8256ZM17.5533 507.73L32.3525 523.783L32.5624 522.372C32.6313 515.716 39.553 507.04 41.7402 504.462L30.3753 499.797C28.2759 502.664 25.3837 504.091 22.3287 505.6C21.3134 506.102 20.2606 506.62 19.236 507.2C19.1921 507.225 19.1483 507.244 19.1012 507.259L17.5565 507.733L17.5533 507.73Z" fill="#1DBFCC"></path><path d="M36.6673 518.946L36.0813 522.462C34.9188 529.429 35.464 536.571 37.6731 543.28L39.3714 548.433C39.5343 548.923 39.4403 549.462 39.127 549.873L38.9672 550.08C37.1905 552.395 30.1059 553.907 21.9026 547.223C16.8265 543.089 6.76824 531.96 0.836688 513.539C0.460678 512.375 0.883689 511.102 1.88325 510.402C5.53054 507.846 14.489 502.065 21.0942 501.908C21.8306 501.889 22.4259 502.495 22.3695 503.229L21.818 510.286C21.5705 513.454 23.9425 516.217 27.1041 516.453L35.1852 517.052C36.1408 517.124 36.8302 518.002 36.6735 518.946H36.6673Z" fill="white"></path><path d="M33.5244 552.74C30.8359 552.74 26.5275 551.89 21.4576 547.762C19.1169 545.855 7.09404 535.26 0.169197 513.752C-0.300815 512.287 0.222465 510.713 1.47896 509.835C5.10119 507.297 14.257 501.378 21.0691 501.215C21.6174 501.199 22.1563 501.422 22.5355 501.824C22.9052 502.216 23.0932 502.746 23.0525 503.282L22.501 510.34C22.3945 511.685 22.8206 512.993 23.7011 514.016C24.5785 515.041 25.8036 515.659 27.151 515.76L35.2321 516.359C35.8807 516.406 36.4854 516.729 36.8865 517.24C37.2876 517.755 37.4568 518.416 37.3503 519.059L36.7643 522.575C35.6238 529.404 36.1658 536.486 38.331 543.061L40.0293 548.214C40.2643 548.923 40.1296 549.701 39.6753 550.294L39.5155 550.501C38.6475 551.63 36.9649 552.417 34.8937 552.659C34.502 552.706 34.0445 552.737 33.5275 552.737L33.5244 552.74ZM21.1192 502.602H21.1067C14.6738 502.755 5.79367 508.505 2.27798 510.97C1.52596 511.497 1.20949 512.444 1.4915 513.326C8.29727 534.46 20.0476 544.823 22.335 546.683C27.9845 551.285 32.5248 551.539 34.7307 551.282C36.7016 551.053 37.9268 550.291 38.4125 549.654L38.5723 549.447C38.7478 549.218 38.7979 548.92 38.707 548.647L37.0087 543.494C34.7746 536.706 34.2137 529.394 35.3919 522.343L35.9778 518.827C36.0217 518.564 35.9559 518.303 35.7898 518.093C35.6238 517.883 35.3887 517.758 35.1224 517.736L27.0413 517.137C25.3274 517.011 23.7638 516.221 22.6452 514.913C21.5234 513.605 20.9813 511.942 21.1161 510.224L21.6675 503.166C21.6801 503.019 21.6299 502.874 21.5265 502.768C21.42 502.655 21.2727 502.592 21.1129 502.592L21.1192 502.602Z" fill="#1DBFCC"></path><path d="M38.6224 547.245C38.5096 547.245 38.3968 547.217 38.2934 547.16L37.2218 546.58C31.4156 543.431 27.0946 537.963 25.3681 531.584L24.8009 529.488C24.6975 529.112 24.3717 529.037 24.2745 529.021C24.1774 529.008 23.8421 528.987 23.6353 529.316L22.5073 531.129C22.1219 531.75 21.4795 532.133 20.7494 532.183C20.0194 532.23 19.3331 531.935 18.8694 531.37C13.9719 525.43 10.4248 518.658 8.33173 511.246L7.1567 507.09C7.0533 506.72 7.26637 506.337 7.63611 506.234C8.00585 506.133 8.38813 506.343 8.49153 506.713L9.66656 510.869C11.7095 518.096 15.1657 524.696 19.941 530.489C20.1196 530.705 20.3828 530.821 20.6617 530.799C20.9406 530.781 21.185 530.633 21.3354 530.395L22.4634 528.582C22.8958 527.886 23.6666 527.525 24.4782 527.647C25.2898 527.766 25.9258 528.331 26.1389 529.125L26.7061 531.22C28.3354 537.236 32.4089 542.389 37.8829 545.36L38.9546 545.943C39.2898 546.125 39.4152 546.545 39.2334 546.884C39.1081 547.116 38.87 547.248 38.6224 547.248V547.245Z" fill="#1DBFCC"></path><path d="M106.501 330.583C106.501 330.583 94.4316 349.005 94.2781 380.587C94.1026 416.31 46.0235 449.831 28.0847 497.15C29.2629 503.796 33.6027 509.455 39.7128 512.312L39.882 512.391C39.882 512.391 88.1616 492.937 107.037 462.757C117.917 445.358 132.221 409.482 132.221 409.482L125.537 341.706L123.961 341.273C119.865 340.147 116.027 338.453 112.301 336.474C109.814 335.15 107.796 333.093 106.501 330.586V330.583Z" fill="#1DBFCC"></path><path d="M111.493 336.461C111.493 336.461 105.906 364.807 119.562 388.604C133.217 412.402 131.049 436.303 127.99 448.184C124.932 460.066 117.071 495.751 124.917 534.664C124.917 534.664 133.991 538.983 144.995 535.379C144.995 535.379 175.242 472.515 177.956 433.314C180.666 394.112 166.102 340.31 166.102 340.31C166.102 340.31 132.785 349.014 111.496 336.461H111.493Z" fill="#1DBFCC"></path><path d="M224.904 241.375C226.693 242.156 228.764 241.328 229.532 239.528L240.464 213.836L233.987 211.003L223.055 236.695C222.287 238.499 223.115 240.594 224.904 241.375Z" fill="#1DBFCC"></path><path d="M226.308 242.363C225.737 242.363 225.167 242.244 224.628 242.009C222.494 241.077 221.504 238.571 222.419 236.422L233.352 210.73C233.424 210.561 233.561 210.426 233.734 210.357C233.906 210.288 234.097 210.291 234.267 210.367L240.743 213.199C241.091 213.353 241.251 213.757 241.104 214.105L230.171 239.797C229.726 240.842 228.905 241.648 227.856 242.065C227.354 242.263 226.831 242.363 226.311 242.363H226.308ZM225.183 240.738C225.875 241.039 226.643 241.055 227.342 240.776C228.047 240.497 228.598 239.954 228.896 239.252L239.559 214.19L234.351 211.913L223.691 236.962C223.074 238.414 223.741 240.105 225.183 240.735V240.738Z" fill="white"></path><path d="M194.823 166.692C202.735 201.277 236.895 222.951 271.119 215.106C305.342 207.258 326.674 172.862 318.759 138.278C310.847 103.693 276.687 82.0195 242.463 89.8642C208.24 97.712 186.908 132.108 194.823 166.692ZM202.992 164.82C196.123 134.793 214.642 104.929 244.353 98.1197C274.067 91.307 303.722 110.127 310.593 140.15C317.462 170.177 298.943 200.041 269.232 206.85C239.518 213.663 209.863 194.843 202.992 164.82Z" fill="#1DBFCC"></path><path d="M256.927 217.411C244.936 217.411 233.151 214.005 222.732 207.393C208.168 198.149 198.016 183.749 194.146 166.843C190.277 149.936 193.156 132.55 202.252 117.883C211.349 103.214 225.574 93.0227 242.307 89.1866C259.039 85.3505 276.279 88.3272 290.847 97.5708C305.414 106.814 315.563 121.215 319.433 138.118C323.299 155.024 320.423 172.41 311.327 187.077C302.23 201.747 288.005 211.938 271.272 215.774C266.506 216.866 261.7 217.405 256.927 217.405V217.411ZM256.652 88.9419C251.98 88.9419 247.283 89.4689 242.62 90.5385C226.248 94.293 212.333 104.264 203.434 118.614C194.532 132.967 191.715 149.987 195.5 166.535C199.285 183.081 209.221 197.177 223.475 206.223C237.729 215.269 254.593 218.18 270.965 214.428C287.337 210.674 301.253 200.703 310.152 186.353C319.054 171.999 321.87 154.98 318.085 138.431C314.3 121.886 304.364 107.79 290.11 98.7438C279.917 92.2762 268.383 88.9419 256.655 88.9419H256.652ZM256.909 208.946C246.481 208.946 236.234 205.985 227.172 200.235C214.507 192.199 205.677 179.675 202.315 164.973C198.953 150.272 201.453 135.151 209.365 122.397C217.277 109.64 229.648 100.776 244.199 97.4422C258.751 94.1048 273.744 96.6956 286.41 104.735C299.075 112.771 307.905 125.295 311.267 139.997C314.629 154.698 312.129 169.819 304.217 182.573C296.305 195.33 283.934 204.194 269.383 207.528C265.24 208.478 261.057 208.949 256.909 208.949V208.946ZM256.667 97.4076C252.619 97.4076 248.545 97.8656 244.503 98.7909C230.315 102.044 218.252 110.685 210.537 123.128C202.823 135.571 200.379 150.319 203.662 164.663C206.946 179.007 215.557 191.221 227.912 199.062C240.267 206.901 254.884 209.425 269.072 206.173C283.261 202.92 295.324 194.279 303.039 181.839C310.753 169.396 313.197 154.648 309.913 140.304C306.633 125.96 298.019 113.746 285.664 105.905C276.828 100.3 266.832 97.4076 256.667 97.4076Z" fill="white"></path><path d="M295.81 192.097C317.44 170.445 317.44 135.341 295.81 113.689C274.18 92.0374 239.112 92.0374 217.482 113.689C195.852 135.341 195.852 170.445 217.482 192.097C239.112 213.749 274.18 213.749 295.81 192.097Z" fill="white"></path><path d="M256.645 209.03C225.722 209.03 200.567 183.846 200.567 152.894C200.567 121.942 225.725 96.7583 256.645 96.7583C287.566 96.7583 312.724 121.942 312.724 152.894C312.724 183.846 287.566 209.03 256.645 209.03ZM256.645 98.1447C226.486 98.1447 201.952 122.704 201.952 152.894C201.952 183.084 226.486 207.644 256.645 207.644C286.804 207.644 311.339 183.084 311.339 152.894C311.339 122.704 286.804 98.1447 256.645 98.1447Z" fill="#1DBFCC"></path><path d="M237.441 151.182C237.614 144.314 232.192 138.606 225.33 138.434C218.469 138.261 212.767 143.689 212.595 150.557C212.423 157.425 217.845 163.133 224.706 163.305C231.567 163.478 237.269 158.05 237.441 151.182Z" fill="#FFC567"></path><path d="M283.941 137.548C286.729 131.27 283.905 123.919 277.634 121.127C271.362 118.336 264.018 121.163 261.23 127.441C258.441 133.718 261.265 141.07 267.537 143.861C273.808 146.653 281.152 143.826 283.941 137.548Z" fill="#FFC567"></path><path d="M270.959 191.446C277.822 191.446 283.386 185.877 283.386 179.006C283.386 172.136 277.822 166.567 270.959 166.567C264.095 166.567 258.531 172.136 258.531 179.006C258.531 185.877 264.095 191.446 270.959 191.446Z" fill="#FFC567"></path><path d="M246.824 135.649C251.11 133.906 253.171 129.015 251.43 124.725C249.688 120.436 244.802 118.372 240.517 120.115C236.231 121.859 234.17 126.75 235.911 131.039C237.653 135.329 242.539 137.393 246.824 135.649Z" fill="#1DBFCC"></path><path d="M259.524 156.231C260.233 151.655 257.101 147.371 252.53 146.662C247.959 145.952 243.679 149.087 242.971 153.663C242.262 158.239 245.393 162.523 249.965 163.232C254.536 163.941 258.816 160.807 259.524 156.231Z" fill="#1DBFCC"></path><path d="M277.714 161.699C281.445 161.699 284.47 158.671 284.47 154.936C284.47 151.201 281.445 148.174 277.714 148.174C273.983 148.174 270.959 151.201 270.959 154.936C270.959 158.671 273.983 161.699 277.714 161.699Z" fill="#FFC567"></path><path d="M246.898 178.338C248.929 175.206 248.039 171.018 244.91 168.984C241.78 166.95 237.597 167.841 235.565 170.974C233.534 174.107 234.424 178.295 237.553 180.328C240.683 182.362 244.866 181.471 246.898 178.338Z" fill="#1DBFCC"></path><path d="M296.304 149.334C299.933 148.466 302.173 144.818 301.306 141.185C300.439 137.553 296.795 135.311 293.166 136.178C289.537 137.046 287.298 140.694 288.164 144.327C289.031 147.959 292.675 150.201 296.304 149.334Z" fill="#1DBFCC"></path><path d="M221.694 177.093C224.3 176.924 226.275 174.672 226.106 172.063C225.936 169.455 223.687 167.477 221.081 167.647C218.475 167.817 216.5 170.069 216.669 172.677C216.839 175.286 219.088 177.263 221.694 177.093Z" fill="#1DBFCC"></path><path d="M260.93 117.848C262.776 115.999 262.776 113.002 260.93 111.154C259.083 109.305 256.089 109.305 254.243 111.154C252.396 113.002 252.396 115.999 254.243 117.848C256.089 119.696 259.083 119.696 260.93 117.848Z" fill="#1DBFCC"></path><path d="M255.526 193.038C257.372 191.189 257.372 188.192 255.526 186.344C253.679 184.496 250.685 184.496 248.839 186.344C246.992 188.192 246.992 191.189 248.839 193.038C250.685 194.886 253.679 194.886 255.526 193.038Z" fill="#1DBFCC"></path><path d="M294.299 171.534C296.146 169.686 296.146 166.689 294.299 164.84C292.453 162.992 289.459 162.992 287.612 164.84C285.766 166.689 285.766 169.686 287.612 171.534C289.459 173.383 292.453 173.382 294.299 171.534Z" fill="#1DBFCC"></path><path d="M230.319 128.038C230.915 125.493 229.338 122.946 226.795 122.349C224.253 121.752 221.708 123.331 221.112 125.876C220.516 128.421 222.093 130.968 224.636 131.565C227.178 132.162 229.723 130.583 230.319 128.038Z" fill="#1DBFCC"></path><path d="M225.813 252.814C226.621 253.093 229.187 249.734 229.792 249.141C232.158 246.811 237.654 244.069 238.766 239.201C240.207 232.887 237.463 226.115 235.855 226.322C234.248 226.529 232.211 238.511 225.916 238.95C225.916 238.95 224.5 238.784 224.653 232.868C224.675 232.04 223.785 231.463 223.055 231.846C222.046 232.373 220.758 233.499 219.702 235.905C218.352 238.975 218.612 242.517 218.825 244.64C218.966 246.045 218.458 250.258 219.53 250.631L225.813 252.817V252.814Z" fill="white"></path><path d="M225.919 253.526C225.806 253.526 225.693 253.507 225.587 253.47L219.304 251.283C218.148 250.882 218.095 249.066 218.148 246.343C218.161 245.685 218.173 245.064 218.136 244.706C217.869 242.068 217.738 238.649 219.066 235.622C220.235 232.959 221.708 231.764 222.735 231.228C223.293 230.936 223.951 230.964 224.493 231.306C225.045 231.651 225.364 232.241 225.346 232.884C225.242 236.883 225.872 237.984 226.082 238.235C229.729 237.796 231.891 232.702 233.33 229.308C234.301 227.015 234.837 225.755 235.764 225.635C236.284 225.569 236.798 225.811 237.296 226.36C238.963 228.198 240.687 233.881 239.44 239.355C238.569 243.175 235.266 245.694 232.615 247.717C231.719 248.401 230.873 249.047 230.278 249.634C230.146 249.762 229.917 250.032 229.635 250.361C227.818 252.478 226.768 253.523 225.919 253.523V253.526ZM219.806 249.988L225.932 252.121C226.508 251.879 228.006 250.132 228.582 249.461C228.902 249.091 229.159 248.793 229.306 248.649C229.964 247.999 230.845 247.328 231.775 246.619C234.251 244.731 237.328 242.382 238.089 239.051C239.145 234.43 237.86 229.66 236.613 227.749C236.3 227.27 236.078 227.1 235.977 227.044C235.648 227.398 235.072 228.753 234.605 229.857C233.004 233.627 230.588 239.327 225.963 239.647C225.919 239.647 225.875 239.647 225.834 239.647C225.07 239.556 223.813 238.555 223.961 232.856C223.967 232.636 223.807 232.52 223.757 232.489C223.697 232.451 223.544 232.376 223.372 232.467C222.541 232.9 221.338 233.897 220.332 236.19C218.978 239.27 219.351 242.99 219.511 244.577C219.555 245.016 219.542 245.65 219.53 246.381C219.511 247.341 219.467 249.571 219.803 250.001L219.806 249.988Z" fill="#1DBFCC"></path><path d="M229.895 251.534L217.24 246.88C212.27 255.772 206.934 263.41 200.987 268.193C197.49 271.007 193.701 273.296 189.728 275.078C187.939 275.878 185.849 275.05 185.132 273.224C183.157 268.196 179.88 260.276 174.067 250.942C169.699 243.928 162.449 238.173 156.433 235.183C147.082 230.541 136.206 228.298 125.847 230.366C105.856 234.358 92.1819 246.023 92.1819 246.023C81.3059 254.715 61.2144 285.027 68.3774 299.622C77.1635 317.519 104.531 303.009 104.531 303.009C104.531 303.009 96.5562 314.358 93.404 326.402C90.0136 339.36 88.3968 408.892 82.2772 411.059C106.643 436.82 192.558 429.904 187.992 418.857C183.104 407.032 165.131 307.79 165.131 307.79C171.887 314.477 181.108 313.429 181.108 313.429C181.108 313.429 186.441 313.028 190.12 311.513C222.109 300.886 229.899 251.538 229.899 251.538L229.895 251.534Z" fill="white"></path><path d="M146.819 429.456C143.657 429.456 140.449 429.377 137.24 429.211C122.031 428.43 94.5945 425.096 81.7695 411.536C81.6097 411.367 81.5439 411.125 81.6003 410.896C81.6535 410.667 81.8227 410.482 82.0421 410.404C82.6687 410.181 84.3169 408.101 86.1218 393.595C87.3281 383.874 88.2807 371.588 89.2019 359.707C90.3331 345.103 91.4016 331.308 92.7333 326.223C95.0802 317.25 100.134 308.583 102.582 304.716C97.7687 306.88 86.3129 311.215 77.2197 308.266C72.9834 306.892 69.7998 304.085 67.7568 299.926C60.2774 284.688 81.2462 253.877 91.7525 245.481C91.8747 245.377 105.775 233.668 125.712 229.685C135.467 227.737 146.487 229.468 156.739 234.559C162.301 237.319 169.928 242.978 174.656 250.571C180.234 259.533 183.53 267.246 185.777 272.967C186.049 273.66 186.579 274.2 187.268 274.482C187.973 274.77 188.744 274.755 189.446 274.441C193.438 272.653 197.176 270.367 200.554 267.65C205.79 263.438 211.051 256.531 216.638 246.538C216.804 246.24 217.161 246.108 217.481 246.224L230.137 250.879C230.447 250.992 230.635 251.312 230.581 251.638C230.563 251.763 228.551 264.219 222.638 277.81C217.158 290.406 207.103 306.594 190.336 312.162C186.642 313.686 181.381 314.094 181.158 314.113C180.82 314.154 172.842 314.985 166.171 309.64C168.737 323.695 184.207 407.885 188.628 418.587C189.092 419.71 189.083 421.42 186.388 423.167C180.478 427 164.398 429.449 146.819 429.452V429.456ZM83.308 411.131C92.6612 420.469 112.264 426.542 137.309 427.828C157.758 428.878 178.987 426.322 185.633 422.009C187.923 420.522 187.488 419.469 187.347 419.124C182.487 407.364 165.178 311.967 164.445 307.915C164.391 307.617 164.535 307.319 164.802 307.178C165.071 307.037 165.397 307.087 165.613 307.297C172.043 313.661 180.939 312.748 181.027 312.739C181.105 312.733 186.319 312.325 189.853 310.87C219.292 301.09 228.119 257.453 229.115 251.986L217.556 247.736C211.988 257.61 206.708 264.482 201.422 268.736C197.95 271.527 194.112 273.876 190.01 275.711C188.96 276.182 187.801 276.201 186.742 275.771C185.698 275.344 184.896 274.532 184.483 273.481C182.258 267.817 178.993 260.176 173.475 251.312C168.9 243.966 161.512 238.486 156.119 235.811C146.136 230.855 135.432 229.164 125.979 231.052C106.392 234.964 92.7646 246.444 92.6267 246.557C82.0045 255.047 62.0948 285.262 68.9945 299.321C70.8621 303.128 73.7699 305.697 77.6365 306.952C88.6536 310.528 104.048 302.482 104.202 302.404C104.484 302.253 104.835 302.316 105.044 302.558C105.258 302.799 105.276 303.154 105.091 303.414C105.013 303.527 97.1483 314.803 94.0681 326.584C92.7709 331.546 91.7055 345.281 90.5806 359.823C88.3904 388.09 86.6513 407.408 83.308 411.138V411.131Z" fill="#1DBFCC"></path><path d="M101.147 298.511C100.858 298.511 100.592 298.333 100.492 298.044C93.783 278.61 96.9008 262.902 96.9321 262.745C97.0105 262.368 97.3739 262.127 97.7499 262.205C98.1228 262.284 98.3641 262.651 98.2889 263.024C98.2576 263.178 95.2213 278.534 101.801 297.589C101.927 297.95 101.736 298.345 101.372 298.471C101.297 298.496 101.222 298.508 101.147 298.508V298.511Z" fill="#1DBFCC"></path><path d="M164.73 308.586C164.554 308.586 164.382 308.52 164.247 308.389C153.75 298.126 146.452 274.325 146.149 273.318C146.039 272.951 146.246 272.565 146.609 272.453C146.976 272.343 147.361 272.55 147.474 272.914C147.549 273.158 154.975 297.382 165.215 307.394C165.488 307.661 165.494 308.1 165.228 308.376C165.093 308.514 164.911 308.586 164.733 308.586H164.73Z" fill="#1DBFCC"></path><path d="M137.262 185.666C141.304 185.684 145.027 187.871 147.054 191.368C147.994 192.99 148.846 194.498 149.022 194.925C149.417 195.897 150.282 199.159 153.456 202.305C153.769 202.616 153.813 203.108 153.54 203.453L151.507 206.06C151.366 206.239 151.309 206.468 151.347 206.693C151.588 208.083 152.801 213.123 152.444 214.033C151.685 215.962 147.079 216.483 145.713 216.599C145.456 216.621 145.227 216.765 145.105 216.988C144.663 217.788 143.495 220.077 142.536 225.789C141.076 234.496 149.367 235.848 147.678 236.701C135.899 242.652 114.213 241.3 115.469 238.825C116.503 236.789 128.404 231.52 129.51 217.201C130.199 208.271 117.71 207.537 126.709 190.543C128.802 186.594 133.33 185.647 137.259 185.666H137.262Z" fill="white"></path><path d="M125.534 241.629C120.323 241.629 116.184 240.977 115.109 239.894C114.711 239.496 114.617 238.982 114.852 238.514C115.162 237.906 115.99 237.257 117.243 236.272C121 233.326 127.994 227.844 128.821 217.151C129.053 214.137 127.69 212.173 126.114 209.902C123.337 205.909 120.191 201.38 126.101 190.22C127.918 186.785 131.741 184.972 137.153 184.972C137.19 184.972 137.228 184.972 137.265 184.972C141.521 184.991 145.5 187.309 147.653 191.023C149.42 194.069 149.602 194.52 149.661 194.668C149.715 194.799 149.777 194.972 149.852 195.182C150.319 196.484 151.287 199.191 153.941 201.819C154.505 202.381 154.568 203.268 154.086 203.889L152.052 206.493C152.03 206.518 152.024 206.549 152.03 206.581C152.083 206.891 152.19 207.39 152.312 207.983C153.077 211.652 153.387 213.534 153.089 214.297C152.24 216.448 148.142 217.101 145.773 217.298C145.76 217.298 145.729 217.305 145.713 217.333C144.466 219.588 143.67 223.242 143.222 225.915C142.291 231.457 145.569 233.75 147.327 234.979C148.12 235.535 148.64 235.898 148.596 236.516C148.577 236.758 148.458 237.094 147.988 237.329C141.922 240.396 132.709 241.632 125.534 241.632V241.629ZM116.178 239.007C118.083 240.588 136.068 241.472 146.851 236.338C146.744 236.262 146.631 236.184 146.531 236.112C144.663 234.804 140.778 232.084 141.853 225.679C142.53 221.639 143.419 218.603 144.497 216.655C144.732 216.229 145.165 215.95 145.654 215.909C148.383 215.683 151.341 214.936 151.795 213.782C151.974 213.164 151.256 209.73 150.952 208.262C150.824 207.65 150.717 207.136 150.661 206.816C150.589 206.399 150.695 205.969 150.958 205.636L152.992 203.033C153.052 202.958 153.023 202.861 152.964 202.804C150.087 199.953 149.047 197.048 148.546 195.649C148.48 195.464 148.424 195.308 148.377 195.188C148.301 195 147.947 194.298 146.453 191.719C144.548 188.432 141.022 186.378 137.256 186.362C137.218 186.362 137.181 186.362 137.143 186.362C132.211 186.362 128.906 187.88 127.32 190.872C121.805 201.286 124.572 205.263 127.245 209.112C128.83 211.392 130.469 213.751 130.196 217.258C129.322 228.562 122.018 234.286 118.092 237.363C117.259 238.016 116.466 238.637 116.171 239.007H116.178Z" fill="#1DBFCC"></path><path d="M144.128 199.429L148.84 193.526C151.259 190.496 150.413 186.036 147.067 184.085C146.139 183.545 145.049 182.978 143.833 182.454C131.732 177.238 117.87 185.844 117.854 199.034C117.848 204.432 121.454 210.69 129.115 216.251C129.115 216.251 134.499 212.001 134.43 207.402C134.43 207.402 130.522 202.763 136.028 200.414C137.081 199.965 138.284 200 139.312 200.508C140.969 201.327 142.971 200.878 144.125 199.432L144.128 199.429Z" fill="#002345"></path><path d="M136.94 210.21C135.32 210.21 133.258 209.519 131.729 206.624C131.55 206.286 131.679 205.865 132.017 205.687C132.355 205.508 132.775 205.636 132.954 205.975C135.222 210.272 138.732 208.484 138.879 208.409C139.218 208.23 139.637 208.362 139.816 208.698C139.995 209.036 139.863 209.457 139.525 209.636C139.503 209.648 138.403 210.21 136.94 210.21Z" fill="#1DBFCC"></path><path d="M124.161 186.512C124.161 186.512 120.075 172.363 105.167 175.026C95.8604 176.689 87.7292 182.949 83.2641 193.168C74.6221 212.941 82.4494 231.755 68.3678 248.922C65.1874 252.795 67.7787 258.689 72.7859 258.861C82.2488 259.188 95.0144 256.901 103.882 244.706C111.145 234.713 106.58 188.78 122.563 189.47L124.161 186.512Z" fill="#002345"></path></svg>