<svg xmlns="http://www.w3.org/2000/svg" width="463" height="485" viewBox="0 0 463 485" fill="none"><g clip-path="url(#clip0_1659_59)"><path d="M171.835 194.918C157.436 194.928 162.973 194.923 148.578 194.934L149.616 174.503C149.635 174.123 149.498 173.753 149.236 173.475C148.974 173.2 148.61 173.045 148.23 173.045H1.3878C0.621667 173.045 0 173.665 0 174.433V248.32C0 249.088 0.621667 249.708 1.3878 249.708H171.835C172.601 249.708 173.223 249.088 173.223 248.32V196.304C173.223 195.545 172.61 194.916 171.835 194.916V194.918Z" fill="#FFC567"></path><path d="M354.773 151.806L340.983 225.035C336.762 244.383 324.12 260.566 306.9 269.44C300.293 235.472 262.766 226.521 238.643 236.735C216.303 246.184 206.056 271.319 211.437 292.97C207.857 296.267 204.636 299.715 202.319 302.108L196.667 302.277L193.69 322.228L189.62 349.488H96.116V206.742C96.116 206.742 211.456 206.799 214.357 207.099L264.717 199.545L292.808 136.149C293.008 136.209 313.178 142.554 326.211 146.078C331.656 147.547 336.95 149.564 342.414 151.034C344.298 151.541 348.726 153.351 350.629 152.634C351.231 152.408 351.779 151.862 352.286 151.184L354.773 151.806Z" fill="#1DBFCC"></path><path d="M140.602 196.327C140.641 200.076 140.68 207.075 140.72 210.825L205.011 215.938C206.085 215.01 206.383 213.516 206.545 212.129C207.066 207.665 206.815 200.719 205.828 196.327H140.602Z" fill="#1DBFCC"></path><path d="M295.408 246.908C282.088 233.192 257.465 228.765 238.643 236.735C216.304 246.184 206.056 271.319 211.437 292.97C218.634 286.302 227.206 280.272 232.369 284.851C236.532 288.562 227.018 306.347 227.018 306.347C235.148 307.051 269.555 310.935 266.714 318.498C265.564 322.568 258.537 323.435 251.058 323.114C255.769 323.812 260.045 324.716 263.36 325.865C273.771 324.763 284.159 320.88 292.186 313.978C292.243 313.921 292.3 313.883 292.356 313.808C311.273 298.05 313.399 265.45 295.407 246.909L295.408 246.908ZM289.682 264.089C277.473 273.961 266.677 285.433 257.558 298.206C254.605 302.296 251.578 302.124 248.741 298.168L235.515 279.649C235.082 279.027 235.213 278.16 235.854 277.727C236.476 277.275 237.342 277.425 237.776 278.047L251.002 296.566C252.81 299.064 253.573 299.017 255.298 296.604C264.548 283.605 275.531 271.962 287.947 261.939C288.531 261.449 289.416 261.544 289.888 262.147C290.378 262.73 290.283 263.616 289.681 264.087L289.682 264.089Z" fill="#FFC567"></path><path d="M196.893 302.22C196.734 303.259 187.956 360.455 188.509 356.855L89.4849 354.066C77.18 353.136 65.8572 345.321 61.4136 332.551H61.3947C59.75 327.608 59.1254 322.659 59.8113 317.292L64.2958 281.873L70.8714 230.12C72.6051 216.367 84.3233 206.062 98.1897 206.1L135.399 206.702L127.28 266.555L123.681 293.1C138.794 295.009 176.704 299.705 196.895 302.219L196.893 302.22Z" fill="#1DBFCC"></path><path d="M337.346 306.779C323.09 308.393 313.689 309.379 313.321 309.419C312.59 303.204 312.227 294.285 311.912 290.031C311.704 287.375 311.988 282.401 310.254 279.576C309.708 278.728 308.803 278.219 307.786 278.049C308.046 292.595 301.648 306.066 292.357 313.807C292.64 314.128 293.054 314.297 293.505 314.259C306.965 312.902 321.979 311.304 337.648 309.53C340.711 309.19 343.821 311.202 343.15 313.995C330.848 364.899 322.595 418.629 318.658 473.678C318.508 475.618 316.529 477.2 314.023 477.333C215.413 483.494 132.234 483.833 52.2579 478.407C50.0529 478.276 48.2069 476.995 47.7545 475.318C47.1211 472.9 46.4965 470.443 45.5874 467.311C33.5816 426.624 26.7535 383.147 15.2731 341.991C14.5172 339.287 17.1104 337.121 20.0203 336.904C22.6339 336.717 61.4151 334.042 61.9025 333.834C61.7142 333.419 61.5639 332.986 61.4122 332.552H61.3932C59.7164 327.73 59.1517 322.492 59.8098 317.293L64.2943 281.874C62.5606 282.308 60.8459 282.722 59.1137 283.136C55.213 284.06 52.4257 288.092 52.576 292.443C52.7074 297.983 52.7263 303.275 53.0474 308.91C53.0474 309.231 52.8022 309.569 52.5016 309.682C48.3951 310.453 44.2682 311.358 40.1048 312.168C37.1657 312.733 35.4131 313.392 34.9986 317.179C34.9038 318.033 36.2493 332.789 36.2682 332.986L19.832 334.134C15.1214 334.471 11.3665 338.319 12.5982 342.744C24.083 383.86 30.8002 426.993 42.9125 468.1C43.6465 470.59 44.3747 473.358 45.0795 476.031C45.8326 478.875 48.6403 480.948 52.0697 481.193C140.338 487.163 226.488 485.576 314.194 480.119C318.076 479.874 321.184 477.199 321.41 473.864C325.347 418.985 333.581 365.406 345.865 314.634C346.888 310.369 342.885 306.176 337.349 306.778L337.346 306.779Z" fill="#002345"></path><path d="M132.554 141.633C137.375 146.271 141.911 149.536 148.11 149.932L145.797 194.982C141.915 194.964 139.973 194.926 140.165 194.928C139.414 194.928 138.795 195.528 138.779 196.283C138.76 197.048 139.367 197.686 140.135 197.702C147.872 197.878 200.148 197.686 207.727 197.652C208.493 197.651 209.112 197.026 209.109 196.26C209.105 195.495 208.486 194.878 207.721 194.878C207.536 194.878 208.728 194.875 203.322 194.894L203.94 182.012L212.082 182.429C235.547 183.633 255.439 165.63 256.648 142.234C257.758 113.299 259.931 106.067 257.007 94.1244C267.19 92.1719 270.208 81.8404 271.597 70.6641C273.085 58.6822 267.377 46.569 258.672 38.2046C249.968 29.8212 238.608 24.7153 227.057 21.1926C209.178 15.6913 189.754 13.6191 171.742 18.6681C148.361 25.2625 134.382 38.6949 131.274 60.0393C127.582 57.6461 122.344 58.9084 119.122 61.9232C115.9 64.938 114.299 69.2895 113.187 73.584C107.01 97.7959 114.13 123.871 132.555 141.632L132.554 141.633ZM253.874 142.088C252.756 163.783 234.352 180.764 212.223 179.661C212.026 179.651 193.953 178.761 195.078 178.816C194.339 178.748 193.659 179.362 193.619 180.128C193.578 180.893 194.166 181.546 194.932 181.587L201.166 181.917L200.544 194.881L148.578 194.935C151.274 143.517 150.797 148.547 151.558 142.129C154.719 142.256 157.693 141.562 160.364 140.218C161.05 139.873 161.324 139.039 160.98 138.354C160.635 137.665 159.799 137.39 159.116 137.738C146.995 143.831 133.377 132.231 137.626 119.28C141.941 106.138 159.898 105.221 165.886 117.147C166.23 117.83 167.065 118.107 167.749 117.763C168.435 117.418 168.711 116.585 168.367 115.899C166.442 112.067 163.269 109.118 159.358 107.458C162.9 105.979 168.132 106.637 169.35 99.115C169.991 95.159 168.71 91.184 167.447 87.3783C185.044 108.12 228.772 103.523 245.332 82.0272C248.43 82.2271 250.32 84.3708 251.828 87.3491C254.329 93.2416 255.72 99.7119 255.72 106.499C255.72 109.484 255.626 109.133 253.875 142.09L253.874 142.088Z" fill="#002345"></path><path d="M279.479 165.413C279.997 165.413 280.494 165.121 280.732 164.622L293.538 137.817C295.632 138.678 335.258 150.168 343.522 152.83C350.74 155.178 352.279 154.934 355.37 148.481C355.571 148.06 355.757 147.672 355.925 147.355C361.051 137.749 363.504 127.063 363.134 116.337C365.105 116.854 371.004 118.344 373.112 119.327C375.134 120.27 376.718 120.403 378.326 118.516C379.882 116.693 379.958 114.179 380.015 112.345C380.704 91.1461 386.426 70.057 396.561 51.3553C399.003 46.9075 401.4 42.7837 402.545 38.2396C403.552 34.2091 403.672 28.645 400.984 25.118C398.211 21.4728 392.025 21.0905 388.2 20.0267C296.424 -5.91725 326.344 2.75944 318.981 0.564727C315.852 -0.375029 313.332 -0.512198 312.138 3.12717C311.165 6.0909 312.694 11.1341 312.748 13.8132C313.037 30.3597 309.075 46.585 301.937 60.4596C297.425 69.1917 291.769 77.2497 291.435 87.749C288.719 95.7865 286.781 115.616 290.594 135.449C290.658 135.821 290.864 136.126 291.134 136.409L278.228 163.427C277.784 164.355 278.472 165.415 279.479 165.415V165.413ZM304.405 61.7306C311.738 47.4781 315.818 30.812 315.525 13.7607C315.467 11.0772 314.104 6.04274 314.776 3.99396C315.294 2.41505 315.78 2.50699 318.184 3.22494C318.374 3.28185 387.037 22.6782 390.491 23.402C393.665 24.0645 397.263 24.8145 398.773 26.802C400.867 29.5512 400.661 34.3201 399.85 37.5669C398.787 41.7812 396.409 45.8598 394.116 50.0376C383.777 69.1144 377.941 90.631 377.238 112.261C377.191 113.764 377.134 115.635 376.21 116.718C375.35 117.735 375.171 117.057 373.22 116.363C368.561 114.741 368.403 114.869 314.213 100.789C312.634 95.5764 318.686 89.0331 317.143 82.3337C315.989 77.4044 310.582 73.9503 305.088 74.642C301.529 75.0885 298.126 77.111 295.518 80.1974C297.527 73.4834 301.094 68.1352 304.404 61.7349L304.405 61.7306ZM294.123 88.4421C296.516 81.3633 301.192 77.9253 305.435 77.3941C309.056 76.9403 313.532 79.0708 314.442 82.9583C315.833 88.9995 308.954 95.7748 311.897 102.569C313.93 107.481 320.293 108.403 323.575 111.418C327.131 114.71 327.096 120.477 325.559 124.44C323.754 129.101 320.147 132.857 316.657 136.489C316.126 137.044 316.144 137.922 316.697 138.452C317.25 138.986 318.128 138.967 318.66 138.414C322.166 134.762 326.14 130.623 328.148 125.446C330.076 120.473 329.991 113.578 325.456 109.376C323.078 107.196 320.058 106.27 317.281 104.447L360.335 115.61C360.848 126.124 358.502 136.628 353.474 146.047C352.764 147.391 351.335 150.885 350.141 151.337C349.102 151.722 345.914 150.688 344.38 150.189C325.324 143.997 296.053 136.415 293.262 134.61C289.581 115.167 291.578 95.785 294.124 88.4421H294.123Z" fill="#002345"></path><path d="M90.9617 355.518C195.463 358.399 188.074 358.288 188.698 358.203C203.885 360.987 226.09 364.234 241.541 364.234C251.711 364.233 259.476 362.846 260.434 358.795C261.11 355.951 258.921 353.943 256.309 352.629C261.275 352.33 267.706 351.105 268.516 346.201C269.148 342.509 265.85 340.232 262.385 338.764C268.118 338.074 271.287 336.049 271.832 332.706C271.764 332.516 273.006 329.033 267.204 326.002C264.78 324.735 262.86 324.261 262.441 324.109C262.146 324.016 261.847 323.925 261.541 323.838C264.862 323.058 267.953 321.344 268.236 317.931C268.392 316.037 267.042 314.875 266.933 314.685C266.93 314.682 266.928 314.681 266.927 314.678C266.528 314.56 263.5 308.488 229.195 305.155C231.832 299.893 237.402 287.482 233.287 283.813C224.738 276.228 209.612 292.519 201.71 300.738C192.121 300.968 208.229 301.797 125.232 291.898L128.589 267.179C128.692 266.422 128.16 265.72 127.401 265.618C126.646 265.529 125.943 266.049 125.839 266.809L122.295 292.915C122.191 293.679 122.732 294.383 123.498 294.479L195.095 303.398L187.321 355.427L91.0376 352.745C90.305 352.794 89.6337 353.329 89.6118 354.094C89.5914 354.858 90.1941 355.499 90.9602 355.519L90.9617 355.518ZM203.313 303.075C209.45 296.639 224.807 279.996 231.444 285.887C233.51 287.729 230.119 297.603 225.793 305.692C225.323 306.569 225.904 307.644 226.897 307.731C242.489 309.077 261.034 312.422 264.913 316.588C265.329 317.095 265.53 317.391 265.46 317.779C264.646 321.965 255.362 321.913 251.117 321.728C249.263 321.723 249.252 324.254 250.854 324.487C255.457 325.169 269.866 327.608 269.091 332.253C268.582 335.367 262.674 336.768 252.884 336.084C252.157 336.03 251.509 336.561 251.411 337.285C251.315 338.011 251.8 338.688 252.518 338.83C256.347 339.589 266.428 341.916 265.773 345.74C264.916 350.924 250.857 350.044 245.634 349.52C244.907 349.462 244.226 349.97 244.121 350.708C244.017 351.447 244.513 352.134 245.247 352.267C248.467 352.853 258.48 354.984 257.729 358.153C256.926 361.526 245.417 361.529 241.984 361.502C226.796 361.409 205.04 358.353 190.101 355.635L198.081 303.623C202.096 303.391 202.649 303.757 203.308 303.075H203.313Z" fill="#002345"></path><path d="M327.1 38.4585C328.819 37.8004 330.546 40.4372 330.909 42.3445C331.439 45.1258 331.303 48.7389 333.712 51.1394C337.076 54.484 342.502 52.8744 346.127 50.4754C349.07 48.5331 352.298 45.8175 355.615 46.1648C358.996 46.5383 361.438 49.8829 364.263 52.5782C369.442 57.5177 376.553 60.3224 384.013 60.07C384.78 60.0422 385.378 59.3987 385.35 58.6311C385.321 57.8665 384.631 57.312 383.913 57.2959C377.461 57.5513 370.843 55.0166 366.181 50.5702C363.284 47.8123 360.424 43.9015 355.92 43.4068C351.555 42.9296 347.993 45.9167 344.596 48.1625C341.625 50.1296 337.712 51.2036 335.672 49.1723C334.05 47.5584 334.165 44.599 333.638 41.8279C332.932 38.1185 329.67 34.5156 326.112 35.8669C325.396 36.1412 325.037 36.9438 325.311 37.6588C325.584 38.3768 326.385 38.7328 327.102 38.4614L327.1 38.4585Z" fill="#002345"></path><path d="M371.312 73.3067C366.868 71.1003 361.825 68.5715 356.316 68.6955C347.315 68.8575 344.8 74.712 342.53 74.2771C340.773 73.9386 340.665 70.7603 339.907 68.7553C338.092 63.9515 331.758 61.6911 327.318 64.2331C326.652 64.614 326.422 65.4618 326.801 66.1287C327.183 66.7927 328.033 67.0188 328.695 66.6438C331.662 64.9438 336.101 66.5402 337.311 69.7389C337.712 70.8012 337.864 72.1641 338.35 73.476C339.081 75.4606 340.66 77.0789 342.782 77.0789C344.568 77.0789 346.023 75.9013 347.221 74.9323C347.414 74.8229 350.887 71.5702 356.367 71.471C361.264 71.3645 365.921 73.7285 370.08 75.7947C370.764 76.1318 371.599 75.856 371.94 75.1687C372.282 74.48 372.002 73.6497 371.314 73.3067H371.312Z" fill="#002345"></path><path d="M153.023 387.988C170.436 375.911 194.376 380.173 206.59 397.433L194.76 399.336C192.979 399.622 193.344 402.35 195.202 402.078L211.329 399.484C212.082 399.361 212.6 398.653 212.479 397.892L209.882 381.764C209.76 381.007 209.048 380.508 208.29 380.614C207.534 380.735 207.019 381.449 207.14 382.206L209.516 396.964L209.322 396.994C209.334 396.702 209.278 396.406 209.099 396.148C196.08 377.376 170.215 372.689 151.44 385.707C132.666 398.725 127.982 424.591 140.999 443.363C141.269 443.751 141.701 443.959 142.14 443.959C143.25 443.959 143.92 442.707 143.28 441.78C131.135 424.263 135.504 400.133 153.022 387.986L153.023 387.988Z" fill="#002345"></path><path d="M214.307 455.767C233.125 442.721 237.798 416.931 224.748 398.112C224.312 397.483 223.445 397.327 222.816 397.762C222.186 398.198 222.03 399.062 222.466 399.694C234.64 417.249 230.285 441.31 212.724 453.486C195.523 465.413 171.975 461.384 159.63 444.652L172.816 442.53C173.573 442.409 174.087 441.695 173.966 440.938C173.845 440.182 173.127 439.69 172.374 439.788L156.247 442.384C155.491 442.507 154.976 443.216 155.097 443.976L157.693 460.102C157.81 460.823 158.478 461.372 159.285 461.252C160.043 461.131 160.556 460.418 160.435 459.66L158.526 447.81C172.158 464.639 196.537 468.087 214.307 455.767Z" fill="#002345"></path><path d="M451.123 269.768C462.089 256.275 465.94 237.236 460.656 220.595C454.766 202.039 437.879 187.594 418.635 184.65C417.882 184.542 417.17 185.055 417.054 185.813C416.938 186.571 417.458 187.28 418.215 187.395C436.44 190.181 452.433 203.861 458.011 221.434C462.909 236.868 459.515 254.481 449.617 267.204C441.125 254.364 424.344 254.17 419.931 266.599C416.556 276.107 425.059 283.348 434.606 281.457C440.295 280.335 445.211 276.336 449.153 272.046C451.283 276.548 452.239 281.47 452.839 285.584C457.285 316.083 447.874 348.19 427.666 371.463C407.758 394.391 377.899 408.124 347.549 408.416C351.859 403.616 355.139 397.927 357.09 391.766C357.322 391.035 356.917 390.255 356.187 390.023C355.455 389.793 354.675 390.197 354.445 390.927C352.283 397.747 348.408 403.964 343.234 408.903C342.416 409.684 342.83 411.073 343.945 411.273C351.443 412.63 358.548 415.859 364.498 420.612C365.095 421.088 365.967 420.996 366.449 420.395C366.928 419.795 366.83 418.922 366.232 418.445C362.29 415.296 357.861 412.794 353.161 410.997C382.339 409.173 410.564 395.395 429.763 373.286C450.494 349.41 460.148 316.473 455.587 285.184C454.908 280.529 453.789 274.884 451.123 269.77V269.768ZM434.069 278.734C429.738 279.588 425.267 278.038 423.196 274.968C419.89 270.057 423.639 262.443 429.385 260.693C434.984 258.983 442.939 261.569 447.755 269.45C444.168 273.519 439.393 277.682 434.069 278.734Z" fill="#002345"></path></g><defs><clipPath id="clip0_1659_59"><rect width="463" height="485" fill="white"></rect></clipPath></defs></svg>