<svg xmlns="http://www.w3.org/2000/svg" width="596" height="416" viewBox="0 0 596 416" fill="none"><path d="M547.878 292.818C546.602 294.34 548.904 296.26 550.17 294.747C551.768 292.842 553.805 291.721 555.759 291.667H555.897C559.714 291.667 562.671 295.926 562.577 299.758C562.265 312.471 537.522 326.95 516.801 316.222C515.054 315.311 513.666 317.966 515.427 318.875C543.868 333.619 576.517 305.737 562.155 291.414C557.834 287.109 551.808 288.138 547.878 292.818Z" fill="#002345"></path><path d="M541.373 80.6236C541.415 81.1716 541.752 81.649 542.253 81.8718C547.305 84.1329 551.319 88.8349 552.989 94.46C553.483 96.0956 555.905 95.7524 555.919 94.0435C555.955 89.0633 559.349 84.0415 563.992 82.0946C565.333 81.5314 565.157 79.5637 563.733 79.2551C560.55 78.5563 559.561 77.4465 557.542 74.4437C556.15 72.3694 555.173 70.0668 554.648 67.6618C554.839 61.5372 551.15 62.9985 551.254 64.8458C551.315 65.8643 551.441 66.8772 551.64 67.8721C551.484 69.898 550.507 71.8574 549.422 73.244C545.615 78.1038 541.212 78.5383 541.374 80.6236H541.373ZM553.232 72.8344C554.499 75.6033 557.03 79.5429 559.833 81.0332C557.157 82.9871 555.047 85.8017 553.896 88.9124C551.949 85.3796 549.133 82.3949 545.794 80.3635C548.767 78.339 551.579 76.017 553.233 72.8344H553.232Z" fill="#002345"></path><path d="M591.329 238.425C584.43 227.598 572.479 224.04 559.856 221.361C520.921 213.098 516.352 212.147 509.329 210.677C514.337 197.44 515.164 186.705 515.665 183.828C519.39 149.786 509.747 116.715 479.282 100.792C479.163 100.096 478.638 99.5285 477.908 99.5174C477.82 99.5243 476.882 99.5492 476.866 99.5492C465.881 94.4071 455.149 93.4288 445.552 96.7872C442.015 98.0188 438.088 100.324 434.139 103.306C433.428 103.068 432.617 103.352 432.307 104.058C432.196 104.304 432.26 104.553 432.283 104.803C422.413 112.827 412.758 125.131 409.09 137.83C404.619 153.375 403.805 171.674 406.402 188.875C405.782 188.743 393.508 186.139 390.907 185.594C397.182 129.221 375.532 80.9776 323.099 57.0785C324.667 56.2842 323.903 54.3552 322.489 54.3455C319.962 54.3455 318.522 54.5393 317.507 54.6015C296.438 46.1591 275.885 44.4958 257.568 49.8538C233.025 57.0162 198.524 85.652 188.263 115.288C171.575 164.022 182.765 224.562 206.137 254.471C190.651 251.643 175.164 248.813 159.601 245.97C159.619 245.876 159.706 245.815 159.706 245.717C159.706 244.891 159.036 244.223 158.212 244.223C156.291 244.223 84.7734 230.539 66.2695 227.331C37.2463 222.293 36.9405 228.92 21.4948 250.884C5.62845 273.323 -5.1553 305.772 2.54125 332.047C6.26083 344.707 11.3005 355.443 17.5289 363.956C18.0146 364.633 18.9694 364.766 19.6142 364.282C19.6322 364.269 19.6281 364.244 19.6447 364.23C34.5701 383.679 53.7007 385.239 73.908 388.563C259.787 419.139 215.829 411.953 222.658 412.896C270.883 419.559 281.365 414.841 303.048 380.981C320.467 353.775 342.956 321.769 375.151 322.389C399.529 322.919 423.037 344.867 447.79 334.29C477.108 321.85 495.538 267.247 530.379 248.903C541.152 243.239 551.575 242.07 559.903 246.152C569.307 250.764 578.399 261.957 589.793 256.231C597.139 252.333 595.876 245.505 591.327 238.426L591.329 238.425ZM559.235 224.314C569.845 226.517 580.513 229.611 587.22 238.04C591.585 243.561 594.706 250.407 588.414 253.554C578.959 258.29 570.695 248.093 561.231 243.456C550.774 238.34 537.54 240.507 524.301 248.973C491.94 269.63 473.583 320.052 446.645 331.522C405.318 349.109 369.972 270.022 303.249 375.09C296.017 386.505 286.255 402.326 274.22 408.233C258.079 406.224 238.314 390.139 232.097 369.368C223.779 341.578 227.864 309.523 245.59 284.048C258.512 289.525 272.39 292.659 287.345 292.901C272.856 307.234 262.876 326.884 259.209 348.765C258.891 350.721 261.826 351.204 262.163 349.259C265.905 326.907 276.357 306.91 291.591 292.879C312.542 292.384 333.271 285.671 349.265 272.258C357.082 272.839 364.485 274.693 371.264 277.808C386.313 284.795 404.399 301.76 423.791 295.641C439.684 290.608 461.621 264.747 470.742 249.456C471.04 248.954 470.918 248.407 470.629 247.948C485.466 245.214 499.023 235.618 508.236 213.506C525.291 217.077 542.292 220.694 559.237 224.317L559.235 224.314ZM512.687 183.501C510.803 200.435 505.659 212.092 505.857 211.474C505.857 211.48 505.861 211.485 505.86 211.491C496.934 233.595 480.841 248.107 456.959 245.464C445.162 244.124 435.012 235.988 426.11 226.506C426.673 226.012 433.6 219.973 434.017 219.351C435.038 220.876 436.011 222.46 437.13 223.858C440.94 228.621 445.275 232.587 450.031 235.643C451.699 236.701 453.307 234.192 451.648 233.123C430.051 219.259 420.834 187.502 422.915 161.89C422.929 161.796 423.01 161.733 423.006 161.636C423.004 161.578 422.945 161.548 422.936 161.491C425.627 130.169 445.372 104.197 476.259 102.592C506.446 117.176 516.408 149.624 512.689 183.501H512.687ZM413.938 207.742C409.296 194.123 407.323 178.477 408.045 163.438C409 164.248 409.649 163.617 419.86 163.287C419.247 173.159 420.221 183.291 422.624 192.925L412.516 198.337C410.767 199.276 412.192 201.915 413.926 200.977L423.403 195.896C425.587 203.598 428.626 210.86 432.539 217.21C431.608 217.436 433.011 216.478 424.098 224.295C414.07 213.175 416.205 215.028 413.937 207.741L413.938 207.742ZM470.47 100.191C461.057 101.618 452.351 105.342 444.936 111.137C442.491 108.545 439.866 106.4 437.081 104.77C446.506 98.0561 456.708 95.4353 470.47 100.191ZM434.428 106.851C437.323 108.372 440.068 110.433 442.605 113.091C436.787 118.227 431.868 124.694 428.085 132.103C415.823 125.817 418.447 126.754 417.29 126.65C421.833 118.879 428.081 111.931 434.428 106.851ZM416.094 128.905C416.821 129.796 414.568 128.16 426.78 134.793C422.581 143.917 420.806 152.001 420.01 160.282C407.824 161.054 409.188 160.517 408.223 161.158C408.969 149.973 410.821 138.844 416.094 128.903V128.905ZM406.878 192.034C408.652 202.038 410.628 206.868 411.733 210.926C413.147 216.225 412.991 216.484 422.135 226.581C422.058 227.393 422.642 228.167 423.578 228.192C436.418 241.971 449.107 250.66 467.885 248.36C458.816 263.427 437.417 288.192 422.887 292.788C405.034 298.449 387.698 282.141 372.518 275.093C366.241 272.207 359.451 270.404 352.327 269.587C374.661 248.908 386.608 219.183 390.633 188.583C391.251 188.713 392.346 188.94 406.88 192.032L406.878 192.034ZM310.526 55.2104C292.519 57.3774 275.879 63.6043 261.859 73.472C255.798 67.6463 249.069 63.2238 241.84 60.3428C241.664 60.2778 241.491 60.3539 241.311 60.3539C261.051 48.9654 283.135 45.8741 310.526 55.209V55.2104ZM191.091 116.26C198.648 94.432 219.762 73.1814 239.929 61.1468C239.922 61.1634 239.9 61.1661 239.893 61.1827C238.652 64.3613 246.156 62.7423 259.404 75.2917C248.168 83.8074 238.722 94.7143 231.588 107.269L211.589 98.0105C209.803 97.1747 208.531 99.9007 210.336 100.723L230.151 109.897C222.424 124.387 218.786 138.054 217.329 152.213L195.91 153.136C193.978 153.22 194.036 156.126 195.976 156.126C196.597 156.126 217.683 155.236 217.062 155.223C215.77 171.648 217.614 188.655 222.272 204.659C221.074 204.716 224.575 203.515 203.101 213.442C201.298 214.285 202.614 217 204.38 216.143C205 215.85 224.276 206.718 223.077 207.286C231.377 233.853 247.439 258.13 272.086 272.046C273.812 273.019 275.269 270.406 273.557 269.442C234.925 247.63 216.359 197.662 220.124 154.477C220.31 154.215 220.466 153.922 220.451 153.577C220.443 153.397 220.31 153.28 220.245 153.125C225.275 101.969 261.86 61.3184 316.975 57.6375C344.679 68.8945 367.442 89.135 379.25 116.538C398.853 162.555 388.833 234.527 347.867 269.531C347.847 269.549 347.827 269.558 347.808 269.578C322.313 291.321 282.703 296.312 247.35 281.567C249.195 279.094 251.113 276.693 253.174 274.451C254.876 272.601 261.365 268.707 259.424 265.303C257.681 262.248 247.06 261.947 243.755 261.344C237.752 260.248 231.74 259.15 225.726 258.051C231.72 253.47 235.129 250.659 240.714 246.442C242.31 245.252 240.466 242.853 238.917 244.055C235.101 246.921 233.642 248.115 221.838 257.341C220.977 257.182 211.611 255.473 210.61 255.29C186.441 226.815 174.193 165.611 191.093 116.261L191.091 116.26ZM163.832 357.723L133.824 350.386C131.935 349.917 132.568 347.04 134.537 347.477L164.547 354.814C166.433 355.283 165.8 358.193 163.834 357.723H163.832ZM78.426 289.147C72.7774 291.98 67.8415 296.408 64.1427 301.952C63.0675 303.577 60.5449 301.972 61.6547 300.293C65.6385 294.317 70.9716 289.539 77.0824 286.472C78.8868 285.606 80.1737 288.261 78.426 289.148V289.147ZM84.8232 267.106C62.9582 260.926 40.8704 277.386 37.5991 302.531C37.3431 304.475 34.3777 304.117 34.631 302.145C38.1596 274.99 62.1763 257.587 85.641 264.232C87.5354 264.762 86.7383 267.649 84.8232 267.106ZM200.974 385.424L100.929 369.418C99.029 369.107 99.368 366.234 101.397 366.462L201.442 382.469C203.4 382.79 202.924 385.734 200.974 385.424Z" fill="#1DBFCC"></path><path d="M309.951 105.154C310.391 100.518 310.564 95.8382 310.414 91.2095L301.085 92.4646L301.642 105.623C302.561 105.461 304.367 104.849 309.949 105.152L309.951 105.154Z" fill="#FFC567"></path><path d="M326.953 218.893C334.063 214.804 339.332 207.268 341.061 198.727C342.925 189.503 340.149 179.427 334.459 174.765C326.288 168.07 315.415 171.015 305.858 165.845C281.583 152.698 295.954 122.123 319.86 131.565C320.669 122.162 319.904 119.872 320.386 109.711C315.176 108.514 309.176 107.515 303.275 108.296C288.747 110.213 278.694 123.876 278.255 142.307C277.865 158.298 287.82 176.862 303.632 181.213C309.673 182.885 326.192 180.493 327.537 193.393C328.11 198.936 324.161 204.59 320.246 206.198C317.167 207.471 314.001 206.9 311.011 206.204C306.817 205.246 302.581 204.066 298.41 202.688C298.118 208.973 298.276 215.294 298.889 221.528C308.721 222.466 318.278 223.89 326.953 218.893Z" fill="#FFC567"></path><path d="M361.764 228.733C374.827 206.137 381.177 166.607 371.813 134.618C356.567 82.5415 310.245 66.9339 280.941 84.4843C242.152 107.715 231.259 162.553 245.74 204.456C255.377 232.343 276.533 254.002 299.934 259.137C323.335 264.27 348.109 252.357 361.766 228.733H361.764ZM296.038 223.064C295.238 215.633 295.068 208.057 295.53 200.55C295.559 200.082 295.805 199.656 296.195 199.398C297.582 198.488 298.293 200.227 311.681 203.29C314.298 203.897 316.84 204.365 319.112 203.429C321.975 202.256 324.977 197.746 324.557 193.697C323.521 183.659 309.267 185.871 302.838 184.099C285.628 179.354 274.849 159.546 275.265 142.239C275.695 124.078 284.972 110.276 298.717 106.322C298.32 97.5347 298.007 90.5951 298.036 91.2289C298.007 90.4526 298.567 89.7856 299.332 89.6804C311.424 88.2261 311.9 87.6089 312.804 88.3603C313.125 88.6301 313.317 89.0204 313.34 89.441C313.584 94.7118 313.426 100.059 312.934 105.349C316.234 105.727 319.397 106.392 322.291 107.084C322.985 107.254 323.471 107.896 323.435 108.615C322.781 121.734 324.496 136.982 320.38 135.042C316.203 133.116 311.405 131.977 306.996 133.201C295.771 136.249 289.761 153.75 307.282 163.217C316.429 168.156 327.242 164.992 336.351 172.452C351.786 185.09 345.332 218.207 321.256 224.335C321.6 225.571 320.965 220.598 322.529 239.288C322.646 240.819 321.934 241.66 320.717 241.941L311.459 244.161C310.576 244.395 309.592 243.699 309.618 242.659C310.079 228.268 307.908 225.828 310.494 225.59C311.288 225.426 312.048 226.122 312.124 226.94C312.55 231.543 312.726 236.198 312.655 240.802L319.602 239.131L318.418 224.917C310.913 226.118 305.179 225.055 297.397 224.399C296.684 224.341 296.117 223.779 296.035 223.066L296.038 223.064Z" fill="#FFC567"></path><path d="M470.388 131.002C470.573 128.567 470.693 126.106 470.648 123.642L466.927 124.209L467.191 131.16C468.272 131.006 469.337 130.973 470.388 131.002Z" fill="#FFC567"></path><path d="M472.757 206.821C473.181 208.103 473.228 213.669 473.22 215.014L475.644 214.354L475.049 206.635C474.286 206.74 473.523 206.801 472.759 206.821H472.757Z" fill="#FFC567"></path><path d="M455.263 118.789C433.705 133.505 428.428 167.958 436.095 193.247C450.262 239.968 497.461 241.295 505.98 185.871C509.32 164.139 506.031 138.712 490.313 123.593C485.802 119.255 480.747 116.554 475.497 115.277C467.965 113.443 462.174 114.073 455.263 118.79V118.789ZM479.083 133.785C478.701 142.245 480.074 152.618 476.378 150.644C474.409 149.609 472.575 149.172 470.951 149.306H470.945C464.148 149.937 460.614 161.403 470.004 167.193C474.671 170.067 480.837 168.245 485.941 173.006C494.569 181.064 491.146 201.534 477.985 205.933C478.902 219.354 479.896 215.804 472.084 218.426C471.11 218.689 470.173 217.935 470.197 216.941C470.284 213.764 470.197 210.556 469.939 207.408C469.919 207.163 470.058 206.972 470.147 206.759C467.785 206.611 465.806 206.361 464.144 206.188C463.432 206.117 462.871 205.551 462.801 204.839C462.362 200.224 462.275 195.498 462.527 190.802C462.556 190.323 462.807 189.884 463.216 189.628C464.442 188.839 464.764 190.061 472.195 191.982C473.486 192.321 474.719 192.584 475.718 192.116C476.909 191.561 478.558 189.079 478.335 186.613C477.816 180.894 470.575 182.283 466.96 181.146C456.875 177.985 451.279 164.965 451.491 154.63C451.725 143.356 456.733 134.685 464.224 131.943L463.888 122.997C463.859 122.237 464.408 121.577 465.156 121.461C471.601 120.629 472.155 120.015 473.042 120.76C473.368 121.029 473.568 121.426 473.586 121.852C473.712 125.004 473.63 128.168 473.389 131.283C475.005 131.53 476.559 131.887 477.983 132.279C478.654 132.466 479.111 133.091 479.082 133.786L479.083 133.785Z" fill="#FFC567"></path><path d="M467.541 134.123C455.358 135.965 449.711 157.145 459.374 171.487C461.67 174.874 464.685 177.294 467.856 178.292C470.779 179.215 480.553 177.925 481.316 186.343C481.655 190.046 479.353 193.714 476.993 194.825C475.089 195.719 473.131 195.315 471.443 194.878C469.45 194.358 467.436 193.733 465.426 193.008C465.316 196.473 465.397 199.931 465.677 203.342C473.587 204.231 476.541 203.964 479.908 201.759C488.623 196.051 490.012 180.896 483.897 175.191C479.791 171.358 473.611 172.934 468.44 169.74C454.853 161.375 462.651 142.123 475.837 147.121C476.225 140.208 475.781 141.495 476.047 134.859C473.407 134.199 470.427 133.69 467.541 134.123Z" fill="#FFC567"></path><path d="M489.34 344.899C480.171 343.965 471.157 345.815 462.441 347.618C460.536 348.017 461.06 350.905 463.044 350.548C471.539 348.793 480.335 346.954 489.027 347.877C498.438 348.847 506.408 353.297 510.35 359.777C517.176 371.007 512.131 390.953 506.269 397.029C503.327 400.055 499.017 401.285 495.834 400.06C494.001 399.33 492.901 402.132 494.749 402.846C499.487 404.692 504.952 402.699 508.417 399.103C515.004 392.286 520.609 370.895 512.909 358.224C508.483 350.953 499.67 345.973 489.343 344.901L489.34 344.899Z" fill="#002345"></path><path d="M497.129 332.613C495.227 332.52 495.062 335.588 497.093 335.603C506.047 335.7 515.149 337.568 523.427 341.023C525.241 341.784 526.409 339.029 524.572 338.263C515.946 334.663 506.456 332.711 497.131 332.614L497.129 332.613Z" fill="#002345"></path><path d="M182.055 12.3549C183.496 11.0015 181.434 8.81242 180.006 10.1851C130.928 56.4848 118.738 126.176 129.697 153.829C130.429 155.67 133.207 154.571 132.483 152.732C121.918 126.089 133.793 57.9059 182.057 12.3563L182.055 12.3549Z" fill="#002345"></path><path d="M102.967 55.7741C96.1604 68.3139 91.9523 82.463 90.7899 96.6785C90.6294 98.6573 93.6156 98.9063 93.7678 96.9192C94.9011 83.1133 98.9888 69.3808 105.596 57.1966C106.539 55.4572 103.919 54.043 102.967 55.7741Z" fill="#002345"></path><path d="M367.049 21.6819C366.054 22.3364 366.179 23.8253 367.254 24.3041C374.223 27.4093 379.751 33.884 382.055 41.6248C382.538 43.2245 384.971 42.9422 384.984 41.2083C385.038 34.2811 389.759 27.2945 396.21 24.5933C397.557 24.0274 397.368 22.061 395.951 21.7538C391.477 20.7713 390.019 19.126 387.269 15.0315C385.335 12.1504 383.984 8.94839 383.266 5.61488C383.327 4.08304 383.121 2.58857 382.645 1.1785C382.099 -0.470957 379.635 0.00644425 379.733 1.73893C379.812 3.10748 379.986 4.4705 380.252 5.81414C380.047 8.70208 378.679 11.4752 377.136 13.4401C374.483 16.84 370.703 19.3004 367.049 21.6819ZM381.904 11.2939C383.633 15.5061 387.385 21.6002 391.822 23.568C387.608 26.3646 384.358 30.7788 382.876 35.6068C380.151 30.1935 375.925 25.6602 370.842 22.7654C375.377 19.7474 379.668 16.3433 381.904 11.2925V11.2939Z" fill="#002345"></path><path d="M416.045 74.2875C414.313 75.2769 415.841 77.8784 417.528 76.8793C426.809 71.5808 438.5 74.1851 444.693 82.6247C445.855 84.1898 448.282 82.4518 447.105 80.8521C439.783 70.9014 426.33 68.4078 416.046 74.2875H416.045Z" fill="#002345"></path><path d="M450.045 67.3134L440.634 61.1099C439.003 60.0126 437.32 62.5117 438.982 63.6062L448.393 69.8097C450.037 70.9056 451.699 68.4024 450.045 67.3134Z" fill="#002345"></path><path d="M465.732 28.0902C467.568 27.4066 466.587 24.6349 464.695 25.2811C458.178 27.7041 456.171 35.4449 455.556 39.8467C454.103 50.2278 455.87 61.1222 460.536 70.5028C461.398 72.2671 464.096 70.9443 463.212 69.1772C458.812 60.3266 457.147 50.0548 458.522 40.2577C459.041 36.5201 460.674 29.9666 465.733 28.0916L465.732 28.0902Z" fill="#002345"></path></svg>