<svg xmlns="http://www.w3.org/2000/svg" width="494" height="434" viewBox="0 0 494 434" fill="none"><g clip-path="url(#clip0_1659_106)"><path d="M9.59613 427.982C20.0781 439.477 42.1599 431.742 56.741 427.396C94.6733 416.208 167.326 376.298 180.579 341.651C185.543 328.81 184.504 315.663 184.562 279.348C194.081 266.699 207.098 256.323 221.8 249.883C222.36 249.633 222.817 249.287 223.325 248.988V253.835C223.325 260.655 227.94 265.997 233.833 265.997H268.701C274.55 265.997 279.135 260.655 279.135 253.835V251.86C284.097 254.228 299.524 257.821 316.598 275.37C316.598 306.968 316.438 312.081 317.148 318.961C318.97 338.524 327.557 349.27 342.614 362.534C369.858 387.308 411.026 409.556 440.85 418.207C451.357 421.217 473.491 429.644 482.534 419.84C489.94 411.672 489.423 397.569 490.199 387.337C490.889 378.824 490.974 370.312 490.458 361.885C490.458 363.605 490.372 365.239 490.199 366.959C489.424 377.19 489.94 391.292 482.534 399.463C473.491 409.265 451.357 400.924 440.85 397.828C406.175 387.768 338.918 350.992 324.934 319.635C323.561 307.685 324.533 282.124 324.207 247.044C331.97 251.542 339.598 256.239 347.133 261.078C333.714 281.797 336.976 305.645 340.861 329.629C341.658 334.623 349.187 333.396 348.366 328.412C347.215 321.288 346.111 314.014 345.514 306.739C350.549 307.415 355.288 306.712 359.528 304.913C361.461 304.089 362.36 301.856 361.535 299.927C360.711 298.005 358.489 297.099 356.542 297.923C352.987 299.435 348.932 299.739 345.143 298.926C344.969 286.891 346.907 275.143 353.399 265.118C362.26 270.969 370.942 277.066 379.463 283.379C379.817 297.495 384.608 309.986 387.061 322.936C389.127 333.791 389.759 348.794 380.998 358.61C378.8 361.086 380.59 364.94 383.837 364.94C384.884 364.94 385.925 364.51 386.676 363.671C388.808 361.282 390.389 358.646 391.71 355.919C394.747 360.26 399.309 362.822 404.065 363.478C409.109 364.108 410.049 356.642 405.106 355.955C399.321 355.157 395.187 349.756 396.048 343.905C396.167 343.108 395.968 342.367 395.636 341.697C397.603 322.356 389.746 307.267 387.524 289.451C407.356 304.679 426.198 321.166 443.962 338.83C443.641 348.424 443.187 360.324 434.623 365.565C432.832 366.656 432.275 369 433.375 370.789C434.475 372.586 436.834 373.131 438.606 372.036C447.416 366.648 450.453 356.488 451.2 346.157C452.51 347.506 453.866 348.805 455.163 350.169C455.914 350.956 456.918 351.349 457.921 351.349C461.23 351.349 462.995 347.363 460.678 344.932C444.241 327.68 426.768 311.521 408.445 296.403C410.008 294.209 410.878 291.625 411.548 289.334C412.291 286.811 412.99 284.437 414.372 283.406C416.374 281.901 416.73 282.444 460.313 282.886C462.052 282.79 464.139 281.224 464.162 279.132C464.184 277.031 462.504 275.311 460.402 275.288L449.338 275.158C451.897 270.94 453.564 266.171 453.885 261.249C454.018 259.157 452.428 257.345 450.333 257.212C448.4 257.101 446.431 258.659 446.29 260.759C445.942 266.057 443.623 271.177 439.984 275.048C416.968 274.775 414.053 274.166 409.825 277.314C404.656 281.164 404.696 288.102 402.567 291.631C391.359 282.621 379.828 274.019 367.989 265.837C373.964 258.961 378.695 251.006 381.807 242.423C381.83 242.392 381.868 242.382 381.889 242.351C387.543 234.07 401.043 234.113 410.917 230.71C415.655 229.08 413.225 221.898 408.434 223.527C400.236 226.339 393.694 225.974 385 230.341C386.123 224.287 386.59 218.121 386.155 211.988C386.007 209.888 383.985 208.301 382.09 208.463C379.995 208.611 378.412 210.429 378.56 212.522C379.817 230.181 373.508 248.257 361.727 261.468C348.11 252.306 335.057 244.662 324.212 238.22C324.212 153.168 323.856 153.372 325.864 147.167C329.645 134.988 338.675 134.98 350.299 140.347C384.821 156.695 407.136 179.233 428.968 210.689C458.223 253.045 481.788 299.38 486.405 350.421C486.591 352.514 488.47 353.953 490.537 353.864C492.633 353.671 494.171 351.831 493.985 349.738C489.221 297.158 465.132 249.659 435.232 206.362C412.793 174.057 389.303 150.392 353.524 133.46C334.205 124.533 322.806 131.375 318.61 144.873C316.131 152.519 316.599 153.252 316.599 239.978C308.55 234.637 299.873 230.27 290.837 227.074C294.105 212.557 290.053 198.497 282.143 189.808C295.763 174.538 294.782 149.352 282.165 135.352C295.404 120.51 295.143 95.2886 282.165 80.9193C296.456 64.8972 294.929 36.9708 279.133 23.4894V12.1587C279.133 5.33942 274.548 -0.00244141 268.699 -0.00244141H233.831C227.937 -0.00244141 223.322 5.33942 223.322 12.1587V23.541C207.589 36.9937 206.136 65.0406 220.35 80.9492C207.265 95.3654 207.265 120.876 220.365 135.427C206.592 151.142 207.912 175.982 220.35 189.889C212.943 198.05 208.706 211.271 211.349 225.438C205.307 227.671 194.786 233.366 184.636 241.229C184.624 241.151 184.577 241.079 184.562 241.001C184.419 155.203 185.379 154.357 182.555 145.391C177.929 131.15 166.258 124.371 146.475 133.63C109.531 151.001 84.8576 175.898 61.8165 209.18C51.3678 224.317 42.8067 238.059 35.6426 251.185C34.6396 253.024 35.3232 255.332 37.1659 256.342C39.0167 257.328 41.327 256.661 42.3311 254.821C49.3608 241.924 57.7887 228.413 68.0811 213.499C90.4203 181.221 113.801 157.397 149.715 140.501C161.864 134.821 171.126 134.852 175.309 147.699C177.735 155.44 176.835 159.237 176.952 239.701C165.682 246.186 150.441 255.741 141.567 261.707C129.786 248.489 123.475 230.411 124.731 212.758C124.88 210.666 123.298 208.848 121.201 208.7C119.239 208.552 117.285 210.124 117.136 212.225C116.702 218.357 117.173 224.527 118.297 230.582C109.623 226.221 102.839 226.508 94.8571 223.762C90.0423 222.148 87.6516 229.319 92.3744 230.945C102.346 234.382 115.727 234.28 121.409 242.594C121.431 242.625 121.468 242.636 121.489 242.665C124.603 251.244 129.331 259.198 135.304 266.075C123.467 274.257 111.937 282.858 100.729 291.87C98.5655 288.298 98.6574 281.42 93.4739 277.549C89.3266 274.456 86.8715 275.004 63.3112 275.288C59.6693 271.416 57.3498 266.297 57.0006 261.002C56.6686 255.816 49.0909 256.57 49.4056 261.492C49.7262 266.412 51.3931 271.179 53.955 275.399L42.8952 275.531C38.3561 275.595 37.4037 282.364 42.9848 283.129C85.4826 282.698 86.9083 282.137 88.9187 283.634C91.5484 285.61 91.4358 291.862 94.8513 296.643C76.5343 311.757 59.0605 327.914 42.6206 345.167C40.3022 347.6 42.068 351.585 45.3778 351.585C47.4158 351.585 48.2177 350.388 52.0916 346.4C52.8407 356.726 55.8747 366.883 64.6852 372.272C66.4578 373.367 68.8164 372.822 69.917 371.025C71.0164 369.237 70.4592 366.892 68.6682 365.801C60.1024 360.559 59.6464 348.483 59.3316 339.075C77.1006 321.407 95.9439 304.92 115.769 289.693C113.482 308.047 105.686 322.57 107.66 341.937C107.329 342.603 107.128 343.342 107.245 344.134C108.103 349.987 103.979 355.393 98.1864 356.192C93.2372 356.881 94.1896 364.345 99.2272 363.716C103.978 363.061 108.559 360.493 111.586 356.151C112.908 358.876 114.486 361.512 116.616 363.902C118.023 365.488 120.434 365.599 121.981 364.214C123.556 362.819 123.691 360.423 122.294 358.857C105.12 339.569 123.225 308.239 123.83 283.623C132.352 277.308 141.033 271.209 149.893 265.359C156.385 275.385 158.321 287.138 158.153 299.168C154.352 299.984 150.291 299.68 146.751 298.163C144.812 297.332 142.582 298.244 141.757 300.166C140.932 302.096 141.832 304.329 143.764 305.153C147.943 306.935 152.716 307.659 157.787 306.982C157.188 314.262 156.08 321.533 154.926 328.653C154.114 333.572 161.626 334.92 162.432 329.87C166.342 305.763 169.579 282.041 156.161 261.319C163.002 256.927 169.927 252.662 176.953 248.551C176.891 309.032 177.126 311.999 176.693 320.655C163.204 353.546 93.4061 392.335 55.6105 403.364C44.7597 406.545 21.7658 415.229 12.4636 405.084C10.853 403.312 9.66506 401.235 8.6805 399.029C8.4875 395.707 8.37721 393.553 8.20604 391.366C5.04329 352.279 14.7119 312.564 31.0208 277.403C31.8974 275.497 31.0725 273.24 29.1631 272.357C27.2457 271.489 25.002 272.305 24.1094 274.212C7.12498 310.925 -2.64128 351.669 0.626008 391.966C1.51865 403.606 1.01661 418.573 9.59613 427.982Z" fill="#1DBFCC"></path><path d="M268.7 258.4H233.832C232.264 258.4 230.933 256.307 230.933 253.836V246.803H271.524V253.836C271.524 256.523 270.037 258.4 268.7 258.4Z" fill="#FFC567" stroke="#002345" stroke-width="3"></path><path d="M233.832 7.59814H268.7C270.037 7.59814 271.524 9.47588 271.524 12.1612V21.5923H230.933V12.1612C230.933 9.69038 232.264 7.59814 233.832 7.59814Z" fill="#FFC567" stroke="#002345" stroke-width="3"></path><path d="M228.507 29.1904H273.888C286.69 39.8925 288.432 63.6206 275.57 76.7075H227.017C214.254 63.8478 215.732 39.6516 228.507 29.1904Z" fill="#FFC567" stroke="#002345" stroke-width="3"></path><path d="M227.796 84.3054H274.711C286.839 95.2335 288.325 118.827 274.922 131.822H227.62C215.37 120.495 214.533 96.5503 227.796 84.3054Z" fill="#FFC567" stroke="#002345" stroke-width="3"></path><path d="M227.165 139.421H275.327C286.463 150.257 288.247 172.322 275.661 185.513H226.896C215.57 173.946 214.761 151.903 227.165 139.421Z" fill="#FFC567" stroke="#002345" stroke-width="3"></path><path d="M227.924 193.111H274.595C286.45 203.497 288.19 226.297 276.272 239.401C274.726 238.98 279.294 239.32 226.091 239.205C215.008 226.837 215.407 204.551 227.924 193.112V193.111Z" fill="#FFC567" stroke="#002345" stroke-width="3"></path><path d="M346.842 161.599C344.738 161.599 343.037 163.298 343.037 165.398V202.861C343.037 204.961 344.738 206.66 346.842 206.66C348.945 206.66 350.647 204.961 350.647 202.861V165.398C350.647 163.298 348.945 161.599 346.842 161.599Z" fill="#FFC567"></path><path d="M156.397 210.971V161.754C156.397 159.654 154.695 157.955 152.592 157.955C150.488 157.955 148.787 159.654 148.787 161.754V210.971C148.787 213.071 150.488 214.77 152.592 214.77C154.695 214.77 156.397 213.071 156.397 210.971Z" fill="#FFC567"></path></g><defs><clipPath id="clip0_1659_106"><rect width="494" height="434" fill="white"></rect></clipPath></defs></svg>